%TF.GenerationSoftware,KiCad,Pcbnew,(5.99.0-8139-gd24b034cbc)*%
%TF.CreationDate,2021-01-06T10:54:56+00:00*%
%TF.ProjectId,neon,6e656f6e-2e6b-4696-9361-645f70636258,1.0*%
%TF.SameCoordinates,Original*%
%TF.FileFunction,Legend,Top*%
%TF.FilePolarity,Positive*%
%FSLAX46Y46*%
G04 Gerber Fmt 4.6, Leading zero omitted, Abs format (unit mm)*
G04 Created by KiCad (PCBNEW (5.99.0-8139-gd24b034cbc)) date 2021-01-06 10:54:56*
%MOMM*%
%LPD*%
G01*
G04 APERTURE LIST*
%ADD10C,0.120000*%
%ADD11C,0.175000*%
%ADD12C,0.200000*%
%ADD13C,0.150000*%
%ADD14C,0.254000*%
%ADD15C,0.139700*%
%ADD16C,0.100000*%
G04 APERTURE END LIST*
D10*
X165354000Y-104711500D02*
X165354000Y-96520000D01*
X160274000Y-113157000D02*
X155194000Y-113157000D01*
X165354000Y-96520000D02*
X155194000Y-96520000D01*
X165354000Y-101981000D02*
X155321000Y-101981000D01*
X155194000Y-104711500D02*
X155194000Y-113157000D01*
X155194000Y-104711500D02*
X155194000Y-96520000D01*
X160274000Y-113157000D02*
X160274000Y-104711500D01*
X157734000Y-104711500D02*
X157734000Y-113157000D01*
X160274000Y-104711500D02*
X160274000Y-96520000D01*
X165354000Y-111315500D02*
X165354000Y-110680500D01*
X162814000Y-96520000D02*
X162814000Y-104711500D01*
X165354000Y-111633000D02*
X155194000Y-111633000D01*
X165354000Y-113157000D02*
X162814000Y-113157000D01*
X162814000Y-104711500D02*
X162814000Y-113157000D01*
X162814000Y-113157000D02*
X160274000Y-113157000D01*
X157734000Y-96520000D02*
X157734000Y-104711500D01*
X155194000Y-103632000D02*
X165354000Y-103632000D01*
X165354000Y-104711500D02*
X165354000Y-113157000D01*
D11*
X172590666Y-93358333D02*
X173290666Y-93125000D01*
X172590666Y-92891666D01*
X172924000Y-92425000D02*
X172957333Y-92325000D01*
X172990666Y-92291666D01*
X173057333Y-92258333D01*
X173157333Y-92258333D01*
X173224000Y-92291666D01*
X173257333Y-92325000D01*
X173290666Y-92391666D01*
X173290666Y-92658333D01*
X172590666Y-92658333D01*
X172590666Y-92425000D01*
X172624000Y-92358333D01*
X172657333Y-92325000D01*
X172724000Y-92291666D01*
X172790666Y-92291666D01*
X172857333Y-92325000D01*
X172890666Y-92358333D01*
X172924000Y-92425000D01*
X172924000Y-92658333D01*
X172590666Y-91958333D02*
X173157333Y-91958333D01*
X173224000Y-91925000D01*
X173257333Y-91891666D01*
X173290666Y-91825000D01*
X173290666Y-91691666D01*
X173257333Y-91625000D01*
X173224000Y-91591666D01*
X173157333Y-91558333D01*
X172590666Y-91558333D01*
X173257333Y-91258333D02*
X173290666Y-91158333D01*
X173290666Y-90991666D01*
X173257333Y-90925000D01*
X173224000Y-90891666D01*
X173157333Y-90858333D01*
X173090666Y-90858333D01*
X173024000Y-90891666D01*
X172990666Y-90925000D01*
X172957333Y-90991666D01*
X172924000Y-91125000D01*
X172890666Y-91191666D01*
X172857333Y-91225000D01*
X172790666Y-91258333D01*
X172724000Y-91258333D01*
X172657333Y-91225000D01*
X172624000Y-91191666D01*
X172590666Y-91125000D01*
X172590666Y-90958333D01*
X172624000Y-90858333D01*
X169068000Y-110769333D02*
X169034666Y-110836000D01*
X169034666Y-110936000D01*
X169068000Y-111036000D01*
X169134666Y-111102666D01*
X169201333Y-111136000D01*
X169334666Y-111169333D01*
X169434666Y-111169333D01*
X169568000Y-111136000D01*
X169634666Y-111102666D01*
X169701333Y-111036000D01*
X169734666Y-110936000D01*
X169734666Y-110869333D01*
X169701333Y-110769333D01*
X169668000Y-110736000D01*
X169434666Y-110736000D01*
X169434666Y-110869333D01*
X169734666Y-110436000D02*
X169034666Y-110436000D01*
X169734666Y-110036000D01*
X169034666Y-110036000D01*
X169734666Y-109702666D02*
X169034666Y-109702666D01*
X169034666Y-109536000D01*
X169068000Y-109436000D01*
X169134666Y-109369333D01*
X169201333Y-109336000D01*
X169334666Y-109302666D01*
X169434666Y-109302666D01*
X169568000Y-109336000D01*
X169634666Y-109369333D01*
X169701333Y-109436000D01*
X169734666Y-109536000D01*
X169734666Y-109702666D01*
X172590666Y-118468666D02*
X172590666Y-118035333D01*
X172857333Y-118268666D01*
X172857333Y-118168666D01*
X172890666Y-118102000D01*
X172924000Y-118068666D01*
X172990666Y-118035333D01*
X173157333Y-118035333D01*
X173224000Y-118068666D01*
X173257333Y-118102000D01*
X173290666Y-118168666D01*
X173290666Y-118368666D01*
X173257333Y-118435333D01*
X173224000Y-118468666D01*
X172590666Y-117835333D02*
X173290666Y-117602000D01*
X172590666Y-117368666D01*
X172590666Y-117202000D02*
X172590666Y-116768666D01*
X172857333Y-117002000D01*
X172857333Y-116902000D01*
X172890666Y-116835333D01*
X172924000Y-116802000D01*
X172990666Y-116768666D01*
X173157333Y-116768666D01*
X173224000Y-116802000D01*
X173257333Y-116835333D01*
X173290666Y-116902000D01*
X173290666Y-117102000D01*
X173257333Y-117168666D01*
X173224000Y-117202000D01*
X172590666Y-115574666D02*
X173290666Y-115341333D01*
X172590666Y-115108000D01*
X173290666Y-114874666D02*
X172590666Y-114874666D01*
X172590666Y-114408000D02*
X172590666Y-114274666D01*
X172624000Y-114208000D01*
X172690666Y-114141333D01*
X172824000Y-114108000D01*
X173057333Y-114108000D01*
X173190666Y-114141333D01*
X173257333Y-114208000D01*
X173290666Y-114274666D01*
X173290666Y-114408000D01*
X173257333Y-114474666D01*
X173190666Y-114541333D01*
X173057333Y-114574666D01*
X172824000Y-114574666D01*
X172690666Y-114541333D01*
X172624000Y-114474666D01*
X172590666Y-114408000D01*
X171574666Y-111102666D02*
X171574666Y-110669333D01*
X171841333Y-110902666D01*
X171841333Y-110802666D01*
X171874666Y-110736000D01*
X171908000Y-110702666D01*
X171974666Y-110669333D01*
X172141333Y-110669333D01*
X172208000Y-110702666D01*
X172241333Y-110736000D01*
X172274666Y-110802666D01*
X172274666Y-111002666D01*
X172241333Y-111069333D01*
X172208000Y-111102666D01*
X171574666Y-110469333D02*
X172274666Y-110236000D01*
X171574666Y-110002666D01*
X171574666Y-109836000D02*
X171574666Y-109402666D01*
X171841333Y-109636000D01*
X171841333Y-109536000D01*
X171874666Y-109469333D01*
X171908000Y-109436000D01*
X171974666Y-109402666D01*
X172141333Y-109402666D01*
X172208000Y-109436000D01*
X172241333Y-109469333D01*
X172274666Y-109536000D01*
X172274666Y-109736000D01*
X172241333Y-109802666D01*
X172208000Y-109836000D01*
X136257695Y-82623726D02*
X135444895Y-82623726D01*
X135444895Y-82430202D01*
X135483600Y-82314088D01*
X135561009Y-82236678D01*
X135638419Y-82197973D01*
X135793238Y-82159269D01*
X135909352Y-82159269D01*
X136064171Y-82197973D01*
X136141580Y-82236678D01*
X136218990Y-82314088D01*
X136257695Y-82430202D01*
X136257695Y-82623726D01*
X135444895Y-81927040D02*
X135444895Y-81462583D01*
X136257695Y-81694811D02*
X135444895Y-81694811D01*
X136257695Y-80727192D02*
X135870647Y-80998126D01*
X136257695Y-81191650D02*
X135444895Y-81191650D01*
X135444895Y-80882011D01*
X135483600Y-80804602D01*
X135522304Y-80765897D01*
X135599714Y-80727192D01*
X135715828Y-80727192D01*
X135793238Y-80765897D01*
X135831942Y-80804602D01*
X135870647Y-80882011D01*
X135870647Y-81191650D01*
X133640285Y-82159269D02*
X133678990Y-82197973D01*
X133717695Y-82314088D01*
X133717695Y-82391497D01*
X133678990Y-82507611D01*
X133601580Y-82585021D01*
X133524171Y-82623726D01*
X133369352Y-82662430D01*
X133253238Y-82662430D01*
X133098419Y-82623726D01*
X133021009Y-82585021D01*
X132943600Y-82507611D01*
X132904895Y-82391497D01*
X132904895Y-82314088D01*
X132943600Y-82197973D01*
X132982304Y-82159269D01*
X132904895Y-81927040D02*
X132904895Y-81462583D01*
X133717695Y-81694811D02*
X132904895Y-81694811D01*
X133678990Y-81230354D02*
X133717695Y-81114240D01*
X133717695Y-80920716D01*
X133678990Y-80843307D01*
X133640285Y-80804602D01*
X133562876Y-80765897D01*
X133485466Y-80765897D01*
X133408057Y-80804602D01*
X133369352Y-80843307D01*
X133330647Y-80920716D01*
X133291942Y-81075535D01*
X133253238Y-81152945D01*
X133214533Y-81191650D01*
X133137123Y-81230354D01*
X133059714Y-81230354D01*
X132982304Y-81191650D01*
X132943600Y-81152945D01*
X132904895Y-81075535D01*
X132904895Y-80882011D01*
X132943600Y-80765897D01*
X138797695Y-82623726D02*
X137984895Y-82623726D01*
X137984895Y-82430202D01*
X138023600Y-82314088D01*
X138101009Y-82236678D01*
X138178419Y-82197973D01*
X138333238Y-82159269D01*
X138449352Y-82159269D01*
X138604171Y-82197973D01*
X138681580Y-82236678D01*
X138758990Y-82314088D01*
X138797695Y-82430202D01*
X138797695Y-82623726D01*
X138758990Y-81849630D02*
X138797695Y-81733516D01*
X138797695Y-81539992D01*
X138758990Y-81462583D01*
X138720285Y-81423878D01*
X138642876Y-81385173D01*
X138565466Y-81385173D01*
X138488057Y-81423878D01*
X138449352Y-81462583D01*
X138410647Y-81539992D01*
X138371942Y-81694811D01*
X138333238Y-81772221D01*
X138294533Y-81810926D01*
X138217123Y-81849630D01*
X138139714Y-81849630D01*
X138062304Y-81810926D01*
X138023600Y-81772221D01*
X137984895Y-81694811D01*
X137984895Y-81501288D01*
X138023600Y-81385173D01*
X138797695Y-80572373D02*
X138410647Y-80843307D01*
X138797695Y-81036830D02*
X137984895Y-81036830D01*
X137984895Y-80727192D01*
X138023600Y-80649783D01*
X138062304Y-80611078D01*
X138139714Y-80572373D01*
X138255828Y-80572373D01*
X138333238Y-80611078D01*
X138371942Y-80649783D01*
X138410647Y-80727192D01*
X138410647Y-81036830D01*
X131177695Y-82159269D02*
X130790647Y-82430202D01*
X131177695Y-82623726D02*
X130364895Y-82623726D01*
X130364895Y-82314088D01*
X130403600Y-82236678D01*
X130442304Y-82197973D01*
X130519714Y-82159269D01*
X130635828Y-82159269D01*
X130713238Y-82197973D01*
X130751942Y-82236678D01*
X130790647Y-82314088D01*
X130790647Y-82623726D01*
X130364895Y-81927040D02*
X130364895Y-81462583D01*
X131177695Y-81694811D02*
X130364895Y-81694811D01*
X131138990Y-81230354D02*
X131177695Y-81114240D01*
X131177695Y-80920716D01*
X131138990Y-80843307D01*
X131100285Y-80804602D01*
X131022876Y-80765897D01*
X130945466Y-80765897D01*
X130868057Y-80804602D01*
X130829352Y-80843307D01*
X130790647Y-80920716D01*
X130751942Y-81075535D01*
X130713238Y-81152945D01*
X130674533Y-81191650D01*
X130597123Y-81230354D01*
X130519714Y-81230354D01*
X130442304Y-81191650D01*
X130403600Y-81152945D01*
X130364895Y-81075535D01*
X130364895Y-80882011D01*
X130403600Y-80765897D01*
X125284895Y-82739840D02*
X125284895Y-82275383D01*
X126097695Y-82507611D02*
X125284895Y-82507611D01*
X125284895Y-82081859D02*
X126097695Y-81539992D01*
X125284895Y-81539992D02*
X126097695Y-82081859D01*
X141337695Y-82623726D02*
X140524895Y-82623726D01*
X140524895Y-82430202D01*
X140563600Y-82314088D01*
X140641009Y-82236678D01*
X140718419Y-82197973D01*
X140873238Y-82159269D01*
X140989352Y-82159269D01*
X141144171Y-82197973D01*
X141221580Y-82236678D01*
X141298990Y-82314088D01*
X141337695Y-82430202D01*
X141337695Y-82623726D01*
X141260285Y-81346469D02*
X141298990Y-81385173D01*
X141337695Y-81501288D01*
X141337695Y-81578697D01*
X141298990Y-81694811D01*
X141221580Y-81772221D01*
X141144171Y-81810926D01*
X140989352Y-81849630D01*
X140873238Y-81849630D01*
X140718419Y-81810926D01*
X140641009Y-81772221D01*
X140563600Y-81694811D01*
X140524895Y-81578697D01*
X140524895Y-81501288D01*
X140563600Y-81385173D01*
X140602304Y-81346469D01*
X141337695Y-80998126D02*
X140524895Y-80998126D01*
X140524895Y-80804602D01*
X140563600Y-80688488D01*
X140641009Y-80611078D01*
X140718419Y-80572373D01*
X140873238Y-80533669D01*
X140989352Y-80533669D01*
X141144171Y-80572373D01*
X141221580Y-80611078D01*
X141298990Y-80688488D01*
X141337695Y-80804602D01*
X141337695Y-80998126D01*
X137929257Y-89231464D02*
X137929257Y-89666892D01*
X138364685Y-89710435D01*
X138321142Y-89666892D01*
X138277600Y-89579807D01*
X138277600Y-89362092D01*
X138321142Y-89275007D01*
X138364685Y-89231464D01*
X138451771Y-89187921D01*
X138669485Y-89187921D01*
X138756571Y-89231464D01*
X138800114Y-89275007D01*
X138843657Y-89362092D01*
X138843657Y-89579807D01*
X138800114Y-89666892D01*
X138756571Y-89710435D01*
X128683657Y-89187921D02*
X128683657Y-89710435D01*
X128683657Y-89449178D02*
X127769257Y-89449178D01*
X127899885Y-89536264D01*
X127986971Y-89623350D01*
X128030514Y-89710435D01*
X143009257Y-89753978D02*
X143009257Y-89144378D01*
X143923657Y-89536264D01*
X140469257Y-89275007D02*
X140469257Y-89449178D01*
X140512800Y-89536264D01*
X140556342Y-89579807D01*
X140686971Y-89666892D01*
X140861142Y-89710435D01*
X141209485Y-89710435D01*
X141296571Y-89666892D01*
X141340114Y-89623350D01*
X141383657Y-89536264D01*
X141383657Y-89362092D01*
X141340114Y-89275007D01*
X141296571Y-89231464D01*
X141209485Y-89187921D01*
X140991771Y-89187921D01*
X140904685Y-89231464D01*
X140861142Y-89275007D01*
X140817600Y-89362092D01*
X140817600Y-89536264D01*
X140861142Y-89623350D01*
X140904685Y-89666892D01*
X140991771Y-89710435D01*
X128637695Y-82159269D02*
X128250647Y-82430202D01*
X128637695Y-82623726D02*
X127824895Y-82623726D01*
X127824895Y-82314088D01*
X127863600Y-82236678D01*
X127902304Y-82197973D01*
X127979714Y-82159269D01*
X128095828Y-82159269D01*
X128173238Y-82197973D01*
X128211942Y-82236678D01*
X128250647Y-82314088D01*
X128250647Y-82623726D01*
X127824895Y-81888335D02*
X128637695Y-81346469D01*
X127824895Y-81346469D02*
X128637695Y-81888335D01*
X125229257Y-89492721D02*
X125229257Y-89405635D01*
X125272800Y-89318550D01*
X125316342Y-89275007D01*
X125403428Y-89231464D01*
X125577600Y-89187921D01*
X125795314Y-89187921D01*
X125969485Y-89231464D01*
X126056571Y-89275007D01*
X126100114Y-89318550D01*
X126143657Y-89405635D01*
X126143657Y-89492721D01*
X126100114Y-89579807D01*
X126056571Y-89623350D01*
X125969485Y-89666892D01*
X125795314Y-89710435D01*
X125577600Y-89710435D01*
X125403428Y-89666892D01*
X125316342Y-89623350D01*
X125272800Y-89579807D01*
X125229257Y-89492721D01*
X130396342Y-89710435D02*
X130352800Y-89666892D01*
X130309257Y-89579807D01*
X130309257Y-89362092D01*
X130352800Y-89275007D01*
X130396342Y-89231464D01*
X130483428Y-89187921D01*
X130570514Y-89187921D01*
X130701142Y-89231464D01*
X131223657Y-89753978D01*
X131223657Y-89187921D01*
X132849257Y-89753978D02*
X132849257Y-89187921D01*
X133197600Y-89492721D01*
X133197600Y-89362092D01*
X133241142Y-89275007D01*
X133284685Y-89231464D01*
X133371771Y-89187921D01*
X133589485Y-89187921D01*
X133676571Y-89231464D01*
X133720114Y-89275007D01*
X133763657Y-89362092D01*
X133763657Y-89623350D01*
X133720114Y-89710435D01*
X133676571Y-89753978D01*
X135694057Y-89275007D02*
X136303657Y-89275007D01*
X135345714Y-89492721D02*
X135998857Y-89710435D01*
X135998857Y-89144378D01*
X143877695Y-82159269D02*
X143490647Y-82430202D01*
X143877695Y-82623726D02*
X143064895Y-82623726D01*
X143064895Y-82314088D01*
X143103600Y-82236678D01*
X143142304Y-82197973D01*
X143219714Y-82159269D01*
X143335828Y-82159269D01*
X143413238Y-82197973D01*
X143451942Y-82236678D01*
X143490647Y-82314088D01*
X143490647Y-82623726D01*
X143877695Y-81810926D02*
X143064895Y-81810926D01*
X163583257Y-112677478D02*
X163583257Y-112111421D01*
X163931600Y-112416221D01*
X163931600Y-112285592D01*
X163975142Y-112198507D01*
X164018685Y-112154964D01*
X164105771Y-112111421D01*
X164323485Y-112111421D01*
X164410571Y-112154964D01*
X164454114Y-112198507D01*
X164497657Y-112285592D01*
X164497657Y-112546850D01*
X164454114Y-112633935D01*
X164410571Y-112677478D01*
X159456380Y-107534654D02*
X158456380Y-107534654D01*
X159170666Y-107201321D01*
X158456380Y-106867988D01*
X159456380Y-106867988D01*
X158456380Y-106201321D02*
X158456380Y-106010845D01*
X158504000Y-105915607D01*
X158599238Y-105820369D01*
X158789714Y-105772750D01*
X159123047Y-105772750D01*
X159313523Y-105820369D01*
X159408761Y-105915607D01*
X159456380Y-106010845D01*
X159456380Y-106201321D01*
X159408761Y-106296559D01*
X159313523Y-106391797D01*
X159123047Y-106439416D01*
X158789714Y-106439416D01*
X158599238Y-106391797D01*
X158504000Y-106296559D01*
X158456380Y-106201321D01*
X159408761Y-105391797D02*
X159456380Y-105248940D01*
X159456380Y-105010845D01*
X159408761Y-104915607D01*
X159361142Y-104867988D01*
X159265904Y-104820369D01*
X159170666Y-104820369D01*
X159075428Y-104867988D01*
X159027809Y-104915607D01*
X158980190Y-105010845D01*
X158932571Y-105201321D01*
X158884952Y-105296559D01*
X158837333Y-105344178D01*
X158742095Y-105391797D01*
X158646857Y-105391797D01*
X158551619Y-105344178D01*
X158504000Y-105296559D01*
X158456380Y-105201321D01*
X158456380Y-104963226D01*
X158504000Y-104820369D01*
X159456380Y-104391797D02*
X158456380Y-104391797D01*
X156868761Y-107582273D02*
X156916380Y-107439416D01*
X156916380Y-107201321D01*
X156868761Y-107106083D01*
X156821142Y-107058464D01*
X156725904Y-107010845D01*
X156630666Y-107010845D01*
X156535428Y-107058464D01*
X156487809Y-107106083D01*
X156440190Y-107201321D01*
X156392571Y-107391797D01*
X156344952Y-107487035D01*
X156297333Y-107534654D01*
X156202095Y-107582273D01*
X156106857Y-107582273D01*
X156011619Y-107534654D01*
X155964000Y-107487035D01*
X155916380Y-107391797D01*
X155916380Y-107153702D01*
X155964000Y-107010845D01*
X156821142Y-106010845D02*
X156868761Y-106058464D01*
X156916380Y-106201321D01*
X156916380Y-106296559D01*
X156868761Y-106439416D01*
X156773523Y-106534654D01*
X156678285Y-106582273D01*
X156487809Y-106629892D01*
X156344952Y-106629892D01*
X156154476Y-106582273D01*
X156059238Y-106534654D01*
X155964000Y-106439416D01*
X155916380Y-106296559D01*
X155916380Y-106201321D01*
X155964000Y-106058464D01*
X156011619Y-106010845D01*
X156916380Y-105582273D02*
X155916380Y-105582273D01*
X156916380Y-105010845D02*
X156344952Y-105439416D01*
X155916380Y-105010845D02*
X156487809Y-105582273D01*
X155964000Y-100660845D02*
X155916380Y-100756083D01*
X155916380Y-100898940D01*
X155964000Y-101041797D01*
X156059238Y-101137035D01*
X156154476Y-101184654D01*
X156344952Y-101232273D01*
X156487809Y-101232273D01*
X156678285Y-101184654D01*
X156773523Y-101137035D01*
X156868761Y-101041797D01*
X156916380Y-100898940D01*
X156916380Y-100803702D01*
X156868761Y-100660845D01*
X156821142Y-100613226D01*
X156487809Y-100613226D01*
X156487809Y-100803702D01*
X156916380Y-100184654D02*
X155916380Y-100184654D01*
X155916380Y-99803702D01*
X155964000Y-99708464D01*
X156011619Y-99660845D01*
X156106857Y-99613226D01*
X156249714Y-99613226D01*
X156344952Y-99660845D01*
X156392571Y-99708464D01*
X156440190Y-99803702D01*
X156440190Y-100184654D01*
X156916380Y-99184654D02*
X155916380Y-99184654D01*
X155916380Y-98517988D02*
X155916380Y-98327511D01*
X155964000Y-98232273D01*
X156059238Y-98137035D01*
X156249714Y-98089416D01*
X156583047Y-98089416D01*
X156773523Y-98137035D01*
X156868761Y-98232273D01*
X156916380Y-98327511D01*
X156916380Y-98517988D01*
X156868761Y-98613226D01*
X156773523Y-98708464D01*
X156583047Y-98756083D01*
X156249714Y-98756083D01*
X156059238Y-98708464D01*
X155964000Y-98613226D01*
X155916380Y-98517988D01*
X155916380Y-97470369D02*
X155916380Y-97375130D01*
X155964000Y-97279892D01*
X156011619Y-97232273D01*
X156106857Y-97184654D01*
X156297333Y-97137035D01*
X156535428Y-97137035D01*
X156725904Y-97184654D01*
X156821142Y-97232273D01*
X156868761Y-97279892D01*
X156916380Y-97375130D01*
X156916380Y-97470369D01*
X156868761Y-97565607D01*
X156821142Y-97613226D01*
X156725904Y-97660845D01*
X156535428Y-97708464D01*
X156297333Y-97708464D01*
X156106857Y-97660845D01*
X156011619Y-97613226D01*
X155964000Y-97565607D01*
X155916380Y-97470369D01*
X156268057Y-102673507D02*
X156877657Y-102673507D01*
X155919714Y-102891221D02*
X156572857Y-103108935D01*
X156572857Y-102542878D01*
X164441142Y-106963226D02*
X164488761Y-107010845D01*
X164536380Y-107153702D01*
X164536380Y-107248940D01*
X164488761Y-107391797D01*
X164393523Y-107487035D01*
X164298285Y-107534654D01*
X164107809Y-107582273D01*
X163964952Y-107582273D01*
X163774476Y-107534654D01*
X163679238Y-107487035D01*
X163584000Y-107391797D01*
X163536380Y-107248940D01*
X163536380Y-107153702D01*
X163584000Y-107010845D01*
X163631619Y-106963226D01*
X164488761Y-106582273D02*
X164536380Y-106439416D01*
X164536380Y-106201321D01*
X164488761Y-106106083D01*
X164441142Y-106058464D01*
X164345904Y-106010845D01*
X164250666Y-106010845D01*
X164155428Y-106058464D01*
X164107809Y-106106083D01*
X164060190Y-106201321D01*
X164012571Y-106391797D01*
X163964952Y-106487035D01*
X163917333Y-106534654D01*
X163822095Y-106582273D01*
X163726857Y-106582273D01*
X163631619Y-106534654D01*
X163584000Y-106487035D01*
X163536380Y-106391797D01*
X163536380Y-106153702D01*
X163584000Y-106010845D01*
X161996380Y-107534654D02*
X160996380Y-107534654D01*
X161710666Y-107201321D01*
X160996380Y-106867988D01*
X161996380Y-106867988D01*
X161996380Y-106391797D02*
X160996380Y-106391797D01*
X161948761Y-105963226D02*
X161996380Y-105820369D01*
X161996380Y-105582273D01*
X161948761Y-105487035D01*
X161901142Y-105439416D01*
X161805904Y-105391797D01*
X161710666Y-105391797D01*
X161615428Y-105439416D01*
X161567809Y-105487035D01*
X161520190Y-105582273D01*
X161472571Y-105772750D01*
X161424952Y-105867988D01*
X161377333Y-105915607D01*
X161282095Y-105963226D01*
X161186857Y-105963226D01*
X161091619Y-105915607D01*
X161044000Y-105867988D01*
X160996380Y-105772750D01*
X160996380Y-105534654D01*
X161044000Y-105391797D01*
X160996380Y-104772750D02*
X160996380Y-104582273D01*
X161044000Y-104487035D01*
X161139238Y-104391797D01*
X161329714Y-104344178D01*
X161663047Y-104344178D01*
X161853523Y-104391797D01*
X161948761Y-104487035D01*
X161996380Y-104582273D01*
X161996380Y-104772750D01*
X161948761Y-104867988D01*
X161853523Y-104963226D01*
X161663047Y-105010845D01*
X161329714Y-105010845D01*
X161139238Y-104963226D01*
X161044000Y-104867988D01*
X160996380Y-104772750D01*
X163584000Y-100660845D02*
X163536380Y-100756083D01*
X163536380Y-100898940D01*
X163584000Y-101041797D01*
X163679238Y-101137035D01*
X163774476Y-101184654D01*
X163964952Y-101232273D01*
X164107809Y-101232273D01*
X164298285Y-101184654D01*
X164393523Y-101137035D01*
X164488761Y-101041797D01*
X164536380Y-100898940D01*
X164536380Y-100803702D01*
X164488761Y-100660845D01*
X164441142Y-100613226D01*
X164107809Y-100613226D01*
X164107809Y-100803702D01*
X164536380Y-100184654D02*
X163536380Y-100184654D01*
X163536380Y-99803702D01*
X163584000Y-99708464D01*
X163631619Y-99660845D01*
X163726857Y-99613226D01*
X163869714Y-99613226D01*
X163964952Y-99660845D01*
X164012571Y-99708464D01*
X164060190Y-99803702D01*
X164060190Y-100184654D01*
X164536380Y-99184654D02*
X163536380Y-99184654D01*
X163536380Y-98517988D02*
X163536380Y-98327511D01*
X163584000Y-98232273D01*
X163679238Y-98137035D01*
X163869714Y-98089416D01*
X164203047Y-98089416D01*
X164393523Y-98137035D01*
X164488761Y-98232273D01*
X164536380Y-98327511D01*
X164536380Y-98517988D01*
X164488761Y-98613226D01*
X164393523Y-98708464D01*
X164203047Y-98756083D01*
X163869714Y-98756083D01*
X163679238Y-98708464D01*
X163584000Y-98613226D01*
X163536380Y-98517988D01*
X163536380Y-97756083D02*
X163536380Y-97137035D01*
X163917333Y-97470369D01*
X163917333Y-97327511D01*
X163964952Y-97232273D01*
X164012571Y-97184654D01*
X164107809Y-97137035D01*
X164345904Y-97137035D01*
X164441142Y-97184654D01*
X164488761Y-97232273D01*
X164536380Y-97327511D01*
X164536380Y-97613226D01*
X164488761Y-97708464D01*
X164441142Y-97756083D01*
X158456380Y-110979511D02*
X158456380Y-110408083D01*
X159456380Y-110693797D02*
X158456380Y-110693797D01*
X159456380Y-110074750D02*
X158456380Y-110074750D01*
X158456380Y-109836654D01*
X158504000Y-109693797D01*
X158599238Y-109598559D01*
X158694476Y-109550940D01*
X158884952Y-109503321D01*
X159027809Y-109503321D01*
X159218285Y-109550940D01*
X159313523Y-109598559D01*
X159408761Y-109693797D01*
X159456380Y-109836654D01*
X159456380Y-110074750D01*
X159456380Y-109074750D02*
X158456380Y-109074750D01*
X160917000Y-100660845D02*
X160869380Y-100756083D01*
X160869380Y-100898940D01*
X160917000Y-101041797D01*
X161012238Y-101137035D01*
X161107476Y-101184654D01*
X161297952Y-101232273D01*
X161440809Y-101232273D01*
X161631285Y-101184654D01*
X161726523Y-101137035D01*
X161821761Y-101041797D01*
X161869380Y-100898940D01*
X161869380Y-100803702D01*
X161821761Y-100660845D01*
X161774142Y-100613226D01*
X161440809Y-100613226D01*
X161440809Y-100803702D01*
X161869380Y-100184654D02*
X160869380Y-100184654D01*
X160869380Y-99803702D01*
X160917000Y-99708464D01*
X160964619Y-99660845D01*
X161059857Y-99613226D01*
X161202714Y-99613226D01*
X161297952Y-99660845D01*
X161345571Y-99708464D01*
X161393190Y-99803702D01*
X161393190Y-100184654D01*
X161869380Y-99184654D02*
X160869380Y-99184654D01*
X160869380Y-98517988D02*
X160869380Y-98327511D01*
X160917000Y-98232273D01*
X161012238Y-98137035D01*
X161202714Y-98089416D01*
X161536047Y-98089416D01*
X161726523Y-98137035D01*
X161821761Y-98232273D01*
X161869380Y-98327511D01*
X161869380Y-98517988D01*
X161821761Y-98613226D01*
X161726523Y-98708464D01*
X161536047Y-98756083D01*
X161202714Y-98756083D01*
X161012238Y-98708464D01*
X160917000Y-98613226D01*
X160869380Y-98517988D01*
X160964619Y-97708464D02*
X160917000Y-97660845D01*
X160869380Y-97565607D01*
X160869380Y-97327511D01*
X160917000Y-97232273D01*
X160964619Y-97184654D01*
X161059857Y-97137035D01*
X161155095Y-97137035D01*
X161297952Y-97184654D01*
X161869380Y-97756083D01*
X161869380Y-97137035D01*
X158377000Y-100660845D02*
X158329380Y-100756083D01*
X158329380Y-100898940D01*
X158377000Y-101041797D01*
X158472238Y-101137035D01*
X158567476Y-101184654D01*
X158757952Y-101232273D01*
X158900809Y-101232273D01*
X159091285Y-101184654D01*
X159186523Y-101137035D01*
X159281761Y-101041797D01*
X159329380Y-100898940D01*
X159329380Y-100803702D01*
X159281761Y-100660845D01*
X159234142Y-100613226D01*
X158900809Y-100613226D01*
X158900809Y-100803702D01*
X159329380Y-100184654D02*
X158329380Y-100184654D01*
X158329380Y-99803702D01*
X158377000Y-99708464D01*
X158424619Y-99660845D01*
X158519857Y-99613226D01*
X158662714Y-99613226D01*
X158757952Y-99660845D01*
X158805571Y-99708464D01*
X158853190Y-99803702D01*
X158853190Y-100184654D01*
X159329380Y-99184654D02*
X158329380Y-99184654D01*
X158329380Y-98517988D02*
X158329380Y-98327511D01*
X158377000Y-98232273D01*
X158472238Y-98137035D01*
X158662714Y-98089416D01*
X158996047Y-98089416D01*
X159186523Y-98137035D01*
X159281761Y-98232273D01*
X159329380Y-98327511D01*
X159329380Y-98517988D01*
X159281761Y-98613226D01*
X159186523Y-98708464D01*
X158996047Y-98756083D01*
X158662714Y-98756083D01*
X158472238Y-98708464D01*
X158377000Y-98613226D01*
X158329380Y-98517988D01*
X159329380Y-97137035D02*
X159329380Y-97708464D01*
X159329380Y-97422750D02*
X158329380Y-97422750D01*
X158472238Y-97517988D01*
X158567476Y-97613226D01*
X158615095Y-97708464D01*
X160996380Y-110979511D02*
X160996380Y-110408083D01*
X161996380Y-110693797D02*
X160996380Y-110693797D01*
X161996380Y-110074750D02*
X160996380Y-110074750D01*
X160996380Y-109836654D01*
X161044000Y-109693797D01*
X161139238Y-109598559D01*
X161234476Y-109550940D01*
X161424952Y-109503321D01*
X161567809Y-109503321D01*
X161758285Y-109550940D01*
X161853523Y-109598559D01*
X161948761Y-109693797D01*
X161996380Y-109836654D01*
X161996380Y-110074750D01*
X160996380Y-108884273D02*
X160996380Y-108693797D01*
X161044000Y-108598559D01*
X161139238Y-108503321D01*
X161329714Y-108455702D01*
X161663047Y-108455702D01*
X161853523Y-108503321D01*
X161948761Y-108598559D01*
X161996380Y-108693797D01*
X161996380Y-108884273D01*
X161948761Y-108979511D01*
X161853523Y-109074750D01*
X161663047Y-109122369D01*
X161329714Y-109122369D01*
X161139238Y-109074750D01*
X161044000Y-108979511D01*
X160996380Y-108884273D01*
X163536380Y-110979511D02*
X163536380Y-110408083D01*
X164536380Y-110693797D02*
X163536380Y-110693797D01*
X164536380Y-110074750D02*
X163536380Y-110074750D01*
X164250666Y-109741416D01*
X163536380Y-109408083D01*
X164536380Y-109408083D01*
X164488761Y-108979511D02*
X164536380Y-108836654D01*
X164536380Y-108598559D01*
X164488761Y-108503321D01*
X164441142Y-108455702D01*
X164345904Y-108408083D01*
X164250666Y-108408083D01*
X164155428Y-108455702D01*
X164107809Y-108503321D01*
X164060190Y-108598559D01*
X164012571Y-108789035D01*
X163964952Y-108884273D01*
X163917333Y-108931892D01*
X163822095Y-108979511D01*
X163726857Y-108979511D01*
X163631619Y-108931892D01*
X163584000Y-108884273D01*
X163536380Y-108789035D01*
X163536380Y-108550940D01*
X163584000Y-108408083D01*
X163583257Y-103152478D02*
X163583257Y-102542878D01*
X164497657Y-102934764D01*
X161043257Y-102673507D02*
X161043257Y-102847678D01*
X161086800Y-102934764D01*
X161130342Y-102978307D01*
X161260971Y-103065392D01*
X161435142Y-103108935D01*
X161783485Y-103108935D01*
X161870571Y-103065392D01*
X161914114Y-103021850D01*
X161957657Y-102934764D01*
X161957657Y-102760592D01*
X161914114Y-102673507D01*
X161870571Y-102629964D01*
X161783485Y-102586421D01*
X161565771Y-102586421D01*
X161478685Y-102629964D01*
X161435142Y-102673507D01*
X161391600Y-102760592D01*
X161391600Y-102934764D01*
X161435142Y-103021850D01*
X161478685Y-103065392D01*
X161565771Y-103108935D01*
X155963257Y-112416221D02*
X155963257Y-112329135D01*
X156006800Y-112242050D01*
X156050342Y-112198507D01*
X156137428Y-112154964D01*
X156311600Y-112111421D01*
X156529314Y-112111421D01*
X156703485Y-112154964D01*
X156790571Y-112198507D01*
X156834114Y-112242050D01*
X156877657Y-112329135D01*
X156877657Y-112416221D01*
X156834114Y-112503307D01*
X156790571Y-112546850D01*
X156703485Y-112590392D01*
X156529314Y-112633935D01*
X156311600Y-112633935D01*
X156137428Y-112590392D01*
X156050342Y-112546850D01*
X156006800Y-112503307D01*
X155963257Y-112416221D01*
X161130342Y-112633935D02*
X161086800Y-112590392D01*
X161043257Y-112503307D01*
X161043257Y-112285592D01*
X161086800Y-112198507D01*
X161130342Y-112154964D01*
X161217428Y-112111421D01*
X161304514Y-112111421D01*
X161435142Y-112154964D01*
X161957657Y-112677478D01*
X161957657Y-112111421D01*
X155916380Y-110979511D02*
X155916380Y-110408083D01*
X156916380Y-110693797D02*
X155916380Y-110693797D01*
X156821142Y-109503321D02*
X156868761Y-109550940D01*
X156916380Y-109693797D01*
X156916380Y-109789035D01*
X156868761Y-109931892D01*
X156773523Y-110027130D01*
X156678285Y-110074750D01*
X156487809Y-110122369D01*
X156344952Y-110122369D01*
X156154476Y-110074750D01*
X156059238Y-110027130D01*
X155964000Y-109931892D01*
X155916380Y-109789035D01*
X155916380Y-109693797D01*
X155964000Y-109550940D01*
X156011619Y-109503321D01*
X156916380Y-109074750D02*
X155916380Y-109074750D01*
X156916380Y-108503321D02*
X156344952Y-108931892D01*
X155916380Y-108503321D02*
X156487809Y-109074750D01*
X158503257Y-102629964D02*
X158503257Y-103065392D01*
X158938685Y-103108935D01*
X158895142Y-103065392D01*
X158851600Y-102978307D01*
X158851600Y-102760592D01*
X158895142Y-102673507D01*
X158938685Y-102629964D01*
X159025771Y-102586421D01*
X159243485Y-102586421D01*
X159330571Y-102629964D01*
X159374114Y-102673507D01*
X159417657Y-102760592D01*
X159417657Y-102978307D01*
X159374114Y-103065392D01*
X159330571Y-103108935D01*
X159417657Y-112111421D02*
X159417657Y-112633935D01*
X159417657Y-112372678D02*
X158503257Y-112372678D01*
X158633885Y-112459764D01*
X158720971Y-112546850D01*
X158764514Y-112633935D01*
X161051142Y-95300714D02*
X161051142Y-94786428D01*
X161951142Y-95043571D02*
X161051142Y-95043571D01*
X161051142Y-94572142D02*
X161951142Y-93972142D01*
X161051142Y-93972142D02*
X161951142Y-94572142D01*
X153558142Y-95300714D02*
X153558142Y-94786428D01*
X154458142Y-95043571D02*
X153558142Y-95043571D01*
X153558142Y-94572142D02*
X154458142Y-93972142D01*
X153558142Y-93972142D02*
X154458142Y-94572142D01*
X154458142Y-92225000D02*
X154029571Y-92525000D01*
X154458142Y-92739285D02*
X153558142Y-92739285D01*
X153558142Y-92396428D01*
X153601000Y-92310714D01*
X153643857Y-92267857D01*
X153729571Y-92225000D01*
X153858142Y-92225000D01*
X153943857Y-92267857D01*
X153986714Y-92310714D01*
X154029571Y-92396428D01*
X154029571Y-92739285D01*
X153558142Y-91925000D02*
X154458142Y-91325000D01*
X153558142Y-91325000D02*
X154458142Y-91925000D01*
X161951142Y-92225000D02*
X161522571Y-92525000D01*
X161951142Y-92739285D02*
X161051142Y-92739285D01*
X161051142Y-92396428D01*
X161094000Y-92310714D01*
X161136857Y-92267857D01*
X161222571Y-92225000D01*
X161351142Y-92225000D01*
X161436857Y-92267857D01*
X161479714Y-92310714D01*
X161522571Y-92396428D01*
X161522571Y-92739285D01*
X161051142Y-91925000D02*
X161951142Y-91325000D01*
X161051142Y-91325000D02*
X161951142Y-91925000D01*
X153685142Y-118414714D02*
X153685142Y-117900428D01*
X154585142Y-118157571D02*
X153685142Y-118157571D01*
X153685142Y-117686142D02*
X154585142Y-117086142D01*
X153685142Y-117086142D02*
X154585142Y-117686142D01*
X162078142Y-115339000D02*
X161649571Y-115639000D01*
X162078142Y-115853285D02*
X161178142Y-115853285D01*
X161178142Y-115510428D01*
X161221000Y-115424714D01*
X161263857Y-115381857D01*
X161349571Y-115339000D01*
X161478142Y-115339000D01*
X161563857Y-115381857D01*
X161606714Y-115424714D01*
X161649571Y-115510428D01*
X161649571Y-115853285D01*
X161178142Y-115039000D02*
X162078142Y-114439000D01*
X161178142Y-114439000D02*
X162078142Y-115039000D01*
X154585142Y-115339000D02*
X154156571Y-115639000D01*
X154585142Y-115853285D02*
X153685142Y-115853285D01*
X153685142Y-115510428D01*
X153728000Y-115424714D01*
X153770857Y-115381857D01*
X153856571Y-115339000D01*
X153985142Y-115339000D01*
X154070857Y-115381857D01*
X154113714Y-115424714D01*
X154156571Y-115510428D01*
X154156571Y-115853285D01*
X153685142Y-115039000D02*
X154585142Y-114439000D01*
X153685142Y-114439000D02*
X154585142Y-115039000D01*
X161178142Y-118414714D02*
X161178142Y-117900428D01*
X162078142Y-118157571D02*
X161178142Y-118157571D01*
X161178142Y-117686142D02*
X162078142Y-117086142D01*
X161178142Y-117086142D02*
X162078142Y-117686142D01*
X166737695Y-82159269D02*
X166350647Y-82430202D01*
X166737695Y-82623726D02*
X165924895Y-82623726D01*
X165924895Y-82314088D01*
X165963600Y-82236678D01*
X166002304Y-82197973D01*
X166079714Y-82159269D01*
X166195828Y-82159269D01*
X166273238Y-82197973D01*
X166311942Y-82236678D01*
X166350647Y-82314088D01*
X166350647Y-82623726D01*
X166737695Y-81810926D02*
X165924895Y-81810926D01*
X151497695Y-82159269D02*
X151110647Y-82430202D01*
X151497695Y-82623726D02*
X150684895Y-82623726D01*
X150684895Y-82314088D01*
X150723600Y-82236678D01*
X150762304Y-82197973D01*
X150839714Y-82159269D01*
X150955828Y-82159269D01*
X151033238Y-82197973D01*
X151071942Y-82236678D01*
X151110647Y-82314088D01*
X151110647Y-82623726D01*
X150684895Y-81888335D02*
X151497695Y-81346469D01*
X150684895Y-81346469D02*
X151497695Y-81888335D01*
X164197695Y-82623726D02*
X163384895Y-82623726D01*
X163384895Y-82430202D01*
X163423600Y-82314088D01*
X163501009Y-82236678D01*
X163578419Y-82197973D01*
X163733238Y-82159269D01*
X163849352Y-82159269D01*
X164004171Y-82197973D01*
X164081580Y-82236678D01*
X164158990Y-82314088D01*
X164197695Y-82430202D01*
X164197695Y-82623726D01*
X164120285Y-81346469D02*
X164158990Y-81385173D01*
X164197695Y-81501288D01*
X164197695Y-81578697D01*
X164158990Y-81694811D01*
X164081580Y-81772221D01*
X164004171Y-81810926D01*
X163849352Y-81849630D01*
X163733238Y-81849630D01*
X163578419Y-81810926D01*
X163501009Y-81772221D01*
X163423600Y-81694811D01*
X163384895Y-81578697D01*
X163384895Y-81501288D01*
X163423600Y-81385173D01*
X163462304Y-81346469D01*
X164197695Y-80998126D02*
X163384895Y-80998126D01*
X163384895Y-80804602D01*
X163423600Y-80688488D01*
X163501009Y-80611078D01*
X163578419Y-80572373D01*
X163733238Y-80533669D01*
X163849352Y-80533669D01*
X164004171Y-80572373D01*
X164081580Y-80611078D01*
X164158990Y-80688488D01*
X164197695Y-80804602D01*
X164197695Y-80998126D01*
X156500285Y-82159269D02*
X156538990Y-82197973D01*
X156577695Y-82314088D01*
X156577695Y-82391497D01*
X156538990Y-82507611D01*
X156461580Y-82585021D01*
X156384171Y-82623726D01*
X156229352Y-82662430D01*
X156113238Y-82662430D01*
X155958419Y-82623726D01*
X155881009Y-82585021D01*
X155803600Y-82507611D01*
X155764895Y-82391497D01*
X155764895Y-82314088D01*
X155803600Y-82197973D01*
X155842304Y-82159269D01*
X155764895Y-81927040D02*
X155764895Y-81462583D01*
X156577695Y-81694811D02*
X155764895Y-81694811D01*
X156538990Y-81230354D02*
X156577695Y-81114240D01*
X156577695Y-80920716D01*
X156538990Y-80843307D01*
X156500285Y-80804602D01*
X156422876Y-80765897D01*
X156345466Y-80765897D01*
X156268057Y-80804602D01*
X156229352Y-80843307D01*
X156190647Y-80920716D01*
X156151942Y-81075535D01*
X156113238Y-81152945D01*
X156074533Y-81191650D01*
X155997123Y-81230354D01*
X155919714Y-81230354D01*
X155842304Y-81191650D01*
X155803600Y-81152945D01*
X155764895Y-81075535D01*
X155764895Y-80882011D01*
X155803600Y-80765897D01*
X148144895Y-82739840D02*
X148144895Y-82275383D01*
X148957695Y-82507611D02*
X148144895Y-82507611D01*
X148144895Y-82081859D02*
X148957695Y-81539992D01*
X148144895Y-81539992D02*
X148957695Y-82081859D01*
X154037695Y-82159269D02*
X153650647Y-82430202D01*
X154037695Y-82623726D02*
X153224895Y-82623726D01*
X153224895Y-82314088D01*
X153263600Y-82236678D01*
X153302304Y-82197973D01*
X153379714Y-82159269D01*
X153495828Y-82159269D01*
X153573238Y-82197973D01*
X153611942Y-82236678D01*
X153650647Y-82314088D01*
X153650647Y-82623726D01*
X153224895Y-81927040D02*
X153224895Y-81462583D01*
X154037695Y-81694811D02*
X153224895Y-81694811D01*
X153998990Y-81230354D02*
X154037695Y-81114240D01*
X154037695Y-80920716D01*
X153998990Y-80843307D01*
X153960285Y-80804602D01*
X153882876Y-80765897D01*
X153805466Y-80765897D01*
X153728057Y-80804602D01*
X153689352Y-80843307D01*
X153650647Y-80920716D01*
X153611942Y-81075535D01*
X153573238Y-81152945D01*
X153534533Y-81191650D01*
X153457123Y-81230354D01*
X153379714Y-81230354D01*
X153302304Y-81191650D01*
X153263600Y-81152945D01*
X153224895Y-81075535D01*
X153224895Y-80882011D01*
X153263600Y-80765897D01*
X161657695Y-82623726D02*
X160844895Y-82623726D01*
X160844895Y-82430202D01*
X160883600Y-82314088D01*
X160961009Y-82236678D01*
X161038419Y-82197973D01*
X161193238Y-82159269D01*
X161309352Y-82159269D01*
X161464171Y-82197973D01*
X161541580Y-82236678D01*
X161618990Y-82314088D01*
X161657695Y-82430202D01*
X161657695Y-82623726D01*
X161618990Y-81849630D02*
X161657695Y-81733516D01*
X161657695Y-81539992D01*
X161618990Y-81462583D01*
X161580285Y-81423878D01*
X161502876Y-81385173D01*
X161425466Y-81385173D01*
X161348057Y-81423878D01*
X161309352Y-81462583D01*
X161270647Y-81539992D01*
X161231942Y-81694811D01*
X161193238Y-81772221D01*
X161154533Y-81810926D01*
X161077123Y-81849630D01*
X160999714Y-81849630D01*
X160922304Y-81810926D01*
X160883600Y-81772221D01*
X160844895Y-81694811D01*
X160844895Y-81501288D01*
X160883600Y-81385173D01*
X161657695Y-80572373D02*
X161270647Y-80843307D01*
X161657695Y-81036830D02*
X160844895Y-81036830D01*
X160844895Y-80727192D01*
X160883600Y-80649783D01*
X160922304Y-80611078D01*
X160999714Y-80572373D01*
X161115828Y-80572373D01*
X161193238Y-80611078D01*
X161231942Y-80649783D01*
X161270647Y-80727192D01*
X161270647Y-81036830D01*
X159117695Y-82623726D02*
X158304895Y-82623726D01*
X158304895Y-82430202D01*
X158343600Y-82314088D01*
X158421009Y-82236678D01*
X158498419Y-82197973D01*
X158653238Y-82159269D01*
X158769352Y-82159269D01*
X158924171Y-82197973D01*
X159001580Y-82236678D01*
X159078990Y-82314088D01*
X159117695Y-82430202D01*
X159117695Y-82623726D01*
X158304895Y-81927040D02*
X158304895Y-81462583D01*
X159117695Y-81694811D02*
X158304895Y-81694811D01*
X159117695Y-80727192D02*
X158730647Y-80998126D01*
X159117695Y-81191650D02*
X158304895Y-81191650D01*
X158304895Y-80882011D01*
X158343600Y-80804602D01*
X158382304Y-80765897D01*
X158459714Y-80727192D01*
X158575828Y-80727192D01*
X158653238Y-80765897D01*
X158691942Y-80804602D01*
X158730647Y-80882011D01*
X158730647Y-81191650D01*
X158554057Y-89275007D02*
X159163657Y-89275007D01*
X158205714Y-89492721D02*
X158858857Y-89710435D01*
X158858857Y-89144378D01*
X155709257Y-89753978D02*
X155709257Y-89187921D01*
X156057600Y-89492721D01*
X156057600Y-89362092D01*
X156101142Y-89275007D01*
X156144685Y-89231464D01*
X156231771Y-89187921D01*
X156449485Y-89187921D01*
X156536571Y-89231464D01*
X156580114Y-89275007D01*
X156623657Y-89362092D01*
X156623657Y-89623350D01*
X156580114Y-89710435D01*
X156536571Y-89753978D01*
X148089257Y-89492721D02*
X148089257Y-89405635D01*
X148132800Y-89318550D01*
X148176342Y-89275007D01*
X148263428Y-89231464D01*
X148437600Y-89187921D01*
X148655314Y-89187921D01*
X148829485Y-89231464D01*
X148916571Y-89275007D01*
X148960114Y-89318550D01*
X149003657Y-89405635D01*
X149003657Y-89492721D01*
X148960114Y-89579807D01*
X148916571Y-89623350D01*
X148829485Y-89666892D01*
X148655314Y-89710435D01*
X148437600Y-89710435D01*
X148263428Y-89666892D01*
X148176342Y-89623350D01*
X148132800Y-89579807D01*
X148089257Y-89492721D01*
X153256342Y-89710435D02*
X153212800Y-89666892D01*
X153169257Y-89579807D01*
X153169257Y-89362092D01*
X153212800Y-89275007D01*
X153256342Y-89231464D01*
X153343428Y-89187921D01*
X153430514Y-89187921D01*
X153561142Y-89231464D01*
X154083657Y-89753978D01*
X154083657Y-89187921D01*
X160789257Y-89231464D02*
X160789257Y-89666892D01*
X161224685Y-89710435D01*
X161181142Y-89666892D01*
X161137600Y-89579807D01*
X161137600Y-89362092D01*
X161181142Y-89275007D01*
X161224685Y-89231464D01*
X161311771Y-89187921D01*
X161529485Y-89187921D01*
X161616571Y-89231464D01*
X161660114Y-89275007D01*
X161703657Y-89362092D01*
X161703657Y-89579807D01*
X161660114Y-89666892D01*
X161616571Y-89710435D01*
X163329257Y-89275007D02*
X163329257Y-89449178D01*
X163372800Y-89536264D01*
X163416342Y-89579807D01*
X163546971Y-89666892D01*
X163721142Y-89710435D01*
X164069485Y-89710435D01*
X164156571Y-89666892D01*
X164200114Y-89623350D01*
X164243657Y-89536264D01*
X164243657Y-89362092D01*
X164200114Y-89275007D01*
X164156571Y-89231464D01*
X164069485Y-89187921D01*
X163851771Y-89187921D01*
X163764685Y-89231464D01*
X163721142Y-89275007D01*
X163677600Y-89362092D01*
X163677600Y-89536264D01*
X163721142Y-89623350D01*
X163764685Y-89666892D01*
X163851771Y-89710435D01*
X165869257Y-89753978D02*
X165869257Y-89144378D01*
X166783657Y-89536264D01*
X151543657Y-89187921D02*
X151543657Y-89710435D01*
X151543657Y-89449178D02*
X150629257Y-89449178D01*
X150759885Y-89536264D01*
X150846971Y-89623350D01*
X150890514Y-89710435D01*
X171701666Y-100434666D02*
X171701666Y-100001333D01*
X171968333Y-100234666D01*
X171968333Y-100134666D01*
X172001666Y-100068000D01*
X172035000Y-100034666D01*
X172101666Y-100001333D01*
X172268333Y-100001333D01*
X172335000Y-100034666D01*
X172368333Y-100068000D01*
X172401666Y-100134666D01*
X172401666Y-100334666D01*
X172368333Y-100401333D01*
X172335000Y-100434666D01*
X171701666Y-99801333D02*
X172401666Y-99568000D01*
X171701666Y-99334666D01*
X171701666Y-99168000D02*
X171701666Y-98734666D01*
X171968333Y-98968000D01*
X171968333Y-98868000D01*
X172001666Y-98801333D01*
X172035000Y-98768000D01*
X172101666Y-98734666D01*
X172268333Y-98734666D01*
X172335000Y-98768000D01*
X172368333Y-98801333D01*
X172401666Y-98868000D01*
X172401666Y-99068000D01*
X172368333Y-99134666D01*
X172335000Y-99168000D01*
X169195000Y-100101333D02*
X169161666Y-100168000D01*
X169161666Y-100268000D01*
X169195000Y-100368000D01*
X169261666Y-100434666D01*
X169328333Y-100468000D01*
X169461666Y-100501333D01*
X169561666Y-100501333D01*
X169695000Y-100468000D01*
X169761666Y-100434666D01*
X169828333Y-100368000D01*
X169861666Y-100268000D01*
X169861666Y-100201333D01*
X169828333Y-100101333D01*
X169795000Y-100068000D01*
X169561666Y-100068000D01*
X169561666Y-100201333D01*
X169861666Y-99768000D02*
X169161666Y-99768000D01*
X169861666Y-99368000D01*
X169161666Y-99368000D01*
X169861666Y-99034666D02*
X169161666Y-99034666D01*
X169161666Y-98868000D01*
X169195000Y-98768000D01*
X169261666Y-98701333D01*
X169328333Y-98668000D01*
X169461666Y-98634666D01*
X169561666Y-98634666D01*
X169695000Y-98668000D01*
X169761666Y-98701333D01*
X169828333Y-98768000D01*
X169861666Y-98868000D01*
X169861666Y-99034666D01*
X143877695Y-127782616D02*
X143490647Y-128053550D01*
X143877695Y-128247073D02*
X143064895Y-128247073D01*
X143064895Y-127937435D01*
X143103600Y-127860026D01*
X143142304Y-127821321D01*
X143219714Y-127782616D01*
X143335828Y-127782616D01*
X143413238Y-127821321D01*
X143451942Y-127860026D01*
X143490647Y-127937435D01*
X143490647Y-128247073D01*
X143877695Y-127434273D02*
X143064895Y-127434273D01*
X128637695Y-128169664D02*
X128250647Y-128440597D01*
X128637695Y-128634121D02*
X127824895Y-128634121D01*
X127824895Y-128324483D01*
X127863600Y-128247073D01*
X127902304Y-128208369D01*
X127979714Y-128169664D01*
X128095828Y-128169664D01*
X128173238Y-128208369D01*
X128211942Y-128247073D01*
X128250647Y-128324483D01*
X128250647Y-128634121D01*
X127824895Y-127898730D02*
X128637695Y-127356864D01*
X127824895Y-127356864D02*
X128637695Y-127898730D01*
X141337695Y-129485626D02*
X140524895Y-129485626D01*
X140524895Y-129292102D01*
X140563600Y-129175988D01*
X140641009Y-129098578D01*
X140718419Y-129059873D01*
X140873238Y-129021169D01*
X140989352Y-129021169D01*
X141144171Y-129059873D01*
X141221580Y-129098578D01*
X141298990Y-129175988D01*
X141337695Y-129292102D01*
X141337695Y-129485626D01*
X141260285Y-128208369D02*
X141298990Y-128247073D01*
X141337695Y-128363188D01*
X141337695Y-128440597D01*
X141298990Y-128556711D01*
X141221580Y-128634121D01*
X141144171Y-128672826D01*
X140989352Y-128711530D01*
X140873238Y-128711530D01*
X140718419Y-128672826D01*
X140641009Y-128634121D01*
X140563600Y-128556711D01*
X140524895Y-128440597D01*
X140524895Y-128363188D01*
X140563600Y-128247073D01*
X140602304Y-128208369D01*
X141337695Y-127860026D02*
X140524895Y-127860026D01*
X140524895Y-127666502D01*
X140563600Y-127550388D01*
X140641009Y-127472978D01*
X140718419Y-127434273D01*
X140873238Y-127395569D01*
X140989352Y-127395569D01*
X141144171Y-127434273D01*
X141221580Y-127472978D01*
X141298990Y-127550388D01*
X141337695Y-127666502D01*
X141337695Y-127860026D01*
X133640285Y-128788940D02*
X133678990Y-128827645D01*
X133717695Y-128943759D01*
X133717695Y-129021169D01*
X133678990Y-129137283D01*
X133601580Y-129214692D01*
X133524171Y-129253397D01*
X133369352Y-129292102D01*
X133253238Y-129292102D01*
X133098419Y-129253397D01*
X133021009Y-129214692D01*
X132943600Y-129137283D01*
X132904895Y-129021169D01*
X132904895Y-128943759D01*
X132943600Y-128827645D01*
X132982304Y-128788940D01*
X132904895Y-128556711D02*
X132904895Y-128092254D01*
X133717695Y-128324483D02*
X132904895Y-128324483D01*
X133678990Y-127860026D02*
X133717695Y-127743911D01*
X133717695Y-127550388D01*
X133678990Y-127472978D01*
X133640285Y-127434273D01*
X133562876Y-127395569D01*
X133485466Y-127395569D01*
X133408057Y-127434273D01*
X133369352Y-127472978D01*
X133330647Y-127550388D01*
X133291942Y-127705207D01*
X133253238Y-127782616D01*
X133214533Y-127821321D01*
X133137123Y-127860026D01*
X133059714Y-127860026D01*
X132982304Y-127821321D01*
X132943600Y-127782616D01*
X132904895Y-127705207D01*
X132904895Y-127511683D01*
X132943600Y-127395569D01*
X125284895Y-128556711D02*
X125284895Y-128092254D01*
X126097695Y-128324483D02*
X125284895Y-128324483D01*
X125284895Y-127898730D02*
X126097695Y-127356864D01*
X125284895Y-127356864D02*
X126097695Y-127898730D01*
X131177695Y-128788940D02*
X130790647Y-129059873D01*
X131177695Y-129253397D02*
X130364895Y-129253397D01*
X130364895Y-128943759D01*
X130403600Y-128866350D01*
X130442304Y-128827645D01*
X130519714Y-128788940D01*
X130635828Y-128788940D01*
X130713238Y-128827645D01*
X130751942Y-128866350D01*
X130790647Y-128943759D01*
X130790647Y-129253397D01*
X130364895Y-128556711D02*
X130364895Y-128092254D01*
X131177695Y-128324483D02*
X130364895Y-128324483D01*
X131138990Y-127860026D02*
X131177695Y-127743911D01*
X131177695Y-127550388D01*
X131138990Y-127472978D01*
X131100285Y-127434273D01*
X131022876Y-127395569D01*
X130945466Y-127395569D01*
X130868057Y-127434273D01*
X130829352Y-127472978D01*
X130790647Y-127550388D01*
X130751942Y-127705207D01*
X130713238Y-127782616D01*
X130674533Y-127821321D01*
X130597123Y-127860026D01*
X130519714Y-127860026D01*
X130442304Y-127821321D01*
X130403600Y-127782616D01*
X130364895Y-127705207D01*
X130364895Y-127511683D01*
X130403600Y-127395569D01*
X138797695Y-129446921D02*
X137984895Y-129446921D01*
X137984895Y-129253397D01*
X138023600Y-129137283D01*
X138101009Y-129059873D01*
X138178419Y-129021169D01*
X138333238Y-128982464D01*
X138449352Y-128982464D01*
X138604171Y-129021169D01*
X138681580Y-129059873D01*
X138758990Y-129137283D01*
X138797695Y-129253397D01*
X138797695Y-129446921D01*
X138758990Y-128672826D02*
X138797695Y-128556711D01*
X138797695Y-128363188D01*
X138758990Y-128285778D01*
X138720285Y-128247073D01*
X138642876Y-128208369D01*
X138565466Y-128208369D01*
X138488057Y-128247073D01*
X138449352Y-128285778D01*
X138410647Y-128363188D01*
X138371942Y-128518007D01*
X138333238Y-128595416D01*
X138294533Y-128634121D01*
X138217123Y-128672826D01*
X138139714Y-128672826D01*
X138062304Y-128634121D01*
X138023600Y-128595416D01*
X137984895Y-128518007D01*
X137984895Y-128324483D01*
X138023600Y-128208369D01*
X138797695Y-127395569D02*
X138410647Y-127666502D01*
X138797695Y-127860026D02*
X137984895Y-127860026D01*
X137984895Y-127550388D01*
X138023600Y-127472978D01*
X138062304Y-127434273D01*
X138139714Y-127395569D01*
X138255828Y-127395569D01*
X138333238Y-127434273D01*
X138371942Y-127472978D01*
X138410647Y-127550388D01*
X138410647Y-127860026D01*
X136257695Y-129292102D02*
X135444895Y-129292102D01*
X135444895Y-129098578D01*
X135483600Y-128982464D01*
X135561009Y-128905054D01*
X135638419Y-128866350D01*
X135793238Y-128827645D01*
X135909352Y-128827645D01*
X136064171Y-128866350D01*
X136141580Y-128905054D01*
X136218990Y-128982464D01*
X136257695Y-129098578D01*
X136257695Y-129292102D01*
X135444895Y-128595416D02*
X135444895Y-128130959D01*
X136257695Y-128363188D02*
X135444895Y-128363188D01*
X136257695Y-127395569D02*
X135870647Y-127666502D01*
X136257695Y-127860026D02*
X135444895Y-127860026D01*
X135444895Y-127550388D01*
X135483600Y-127472978D01*
X135522304Y-127434273D01*
X135599714Y-127395569D01*
X135715828Y-127395569D01*
X135793238Y-127434273D01*
X135831942Y-127472978D01*
X135870647Y-127550388D01*
X135870647Y-127860026D01*
X148144895Y-128556711D02*
X148144895Y-128092254D01*
X148957695Y-128324483D02*
X148144895Y-128324483D01*
X148144895Y-127898730D02*
X148957695Y-127356864D01*
X148144895Y-127356864D02*
X148957695Y-127898730D01*
X159117695Y-129292102D02*
X158304895Y-129292102D01*
X158304895Y-129098578D01*
X158343600Y-128982464D01*
X158421009Y-128905054D01*
X158498419Y-128866350D01*
X158653238Y-128827645D01*
X158769352Y-128827645D01*
X158924171Y-128866350D01*
X159001580Y-128905054D01*
X159078990Y-128982464D01*
X159117695Y-129098578D01*
X159117695Y-129292102D01*
X158304895Y-128595416D02*
X158304895Y-128130959D01*
X159117695Y-128363188D02*
X158304895Y-128363188D01*
X159117695Y-127395569D02*
X158730647Y-127666502D01*
X159117695Y-127860026D02*
X158304895Y-127860026D01*
X158304895Y-127550388D01*
X158343600Y-127472978D01*
X158382304Y-127434273D01*
X158459714Y-127395569D01*
X158575828Y-127395569D01*
X158653238Y-127434273D01*
X158691942Y-127472978D01*
X158730647Y-127550388D01*
X158730647Y-127860026D01*
X161657695Y-129446921D02*
X160844895Y-129446921D01*
X160844895Y-129253397D01*
X160883600Y-129137283D01*
X160961009Y-129059873D01*
X161038419Y-129021169D01*
X161193238Y-128982464D01*
X161309352Y-128982464D01*
X161464171Y-129021169D01*
X161541580Y-129059873D01*
X161618990Y-129137283D01*
X161657695Y-129253397D01*
X161657695Y-129446921D01*
X161618990Y-128672826D02*
X161657695Y-128556711D01*
X161657695Y-128363188D01*
X161618990Y-128285778D01*
X161580285Y-128247073D01*
X161502876Y-128208369D01*
X161425466Y-128208369D01*
X161348057Y-128247073D01*
X161309352Y-128285778D01*
X161270647Y-128363188D01*
X161231942Y-128518007D01*
X161193238Y-128595416D01*
X161154533Y-128634121D01*
X161077123Y-128672826D01*
X160999714Y-128672826D01*
X160922304Y-128634121D01*
X160883600Y-128595416D01*
X160844895Y-128518007D01*
X160844895Y-128324483D01*
X160883600Y-128208369D01*
X161657695Y-127395569D02*
X161270647Y-127666502D01*
X161657695Y-127860026D02*
X160844895Y-127860026D01*
X160844895Y-127550388D01*
X160883600Y-127472978D01*
X160922304Y-127434273D01*
X160999714Y-127395569D01*
X161115828Y-127395569D01*
X161193238Y-127434273D01*
X161231942Y-127472978D01*
X161270647Y-127550388D01*
X161270647Y-127860026D01*
X166737695Y-127782616D02*
X166350647Y-128053550D01*
X166737695Y-128247073D02*
X165924895Y-128247073D01*
X165924895Y-127937435D01*
X165963600Y-127860026D01*
X166002304Y-127821321D01*
X166079714Y-127782616D01*
X166195828Y-127782616D01*
X166273238Y-127821321D01*
X166311942Y-127860026D01*
X166350647Y-127937435D01*
X166350647Y-128247073D01*
X166737695Y-127434273D02*
X165924895Y-127434273D01*
X151497695Y-128169664D02*
X151110647Y-128440597D01*
X151497695Y-128634121D02*
X150684895Y-128634121D01*
X150684895Y-128324483D01*
X150723600Y-128247073D01*
X150762304Y-128208369D01*
X150839714Y-128169664D01*
X150955828Y-128169664D01*
X151033238Y-128208369D01*
X151071942Y-128247073D01*
X151110647Y-128324483D01*
X151110647Y-128634121D01*
X150684895Y-127898730D02*
X151497695Y-127356864D01*
X150684895Y-127356864D02*
X151497695Y-127898730D01*
X154037695Y-128788940D02*
X153650647Y-129059873D01*
X154037695Y-129253397D02*
X153224895Y-129253397D01*
X153224895Y-128943759D01*
X153263600Y-128866350D01*
X153302304Y-128827645D01*
X153379714Y-128788940D01*
X153495828Y-128788940D01*
X153573238Y-128827645D01*
X153611942Y-128866350D01*
X153650647Y-128943759D01*
X153650647Y-129253397D01*
X153224895Y-128556711D02*
X153224895Y-128092254D01*
X154037695Y-128324483D02*
X153224895Y-128324483D01*
X153998990Y-127860026D02*
X154037695Y-127743911D01*
X154037695Y-127550388D01*
X153998990Y-127472978D01*
X153960285Y-127434273D01*
X153882876Y-127395569D01*
X153805466Y-127395569D01*
X153728057Y-127434273D01*
X153689352Y-127472978D01*
X153650647Y-127550388D01*
X153611942Y-127705207D01*
X153573238Y-127782616D01*
X153534533Y-127821321D01*
X153457123Y-127860026D01*
X153379714Y-127860026D01*
X153302304Y-127821321D01*
X153263600Y-127782616D01*
X153224895Y-127705207D01*
X153224895Y-127511683D01*
X153263600Y-127395569D01*
X156500285Y-128788940D02*
X156538990Y-128827645D01*
X156577695Y-128943759D01*
X156577695Y-129021169D01*
X156538990Y-129137283D01*
X156461580Y-129214692D01*
X156384171Y-129253397D01*
X156229352Y-129292102D01*
X156113238Y-129292102D01*
X155958419Y-129253397D01*
X155881009Y-129214692D01*
X155803600Y-129137283D01*
X155764895Y-129021169D01*
X155764895Y-128943759D01*
X155803600Y-128827645D01*
X155842304Y-128788940D01*
X155764895Y-128556711D02*
X155764895Y-128092254D01*
X156577695Y-128324483D02*
X155764895Y-128324483D01*
X156538990Y-127860026D02*
X156577695Y-127743911D01*
X156577695Y-127550388D01*
X156538990Y-127472978D01*
X156500285Y-127434273D01*
X156422876Y-127395569D01*
X156345466Y-127395569D01*
X156268057Y-127434273D01*
X156229352Y-127472978D01*
X156190647Y-127550388D01*
X156151942Y-127705207D01*
X156113238Y-127782616D01*
X156074533Y-127821321D01*
X155997123Y-127860026D01*
X155919714Y-127860026D01*
X155842304Y-127821321D01*
X155803600Y-127782616D01*
X155764895Y-127705207D01*
X155764895Y-127511683D01*
X155803600Y-127395569D01*
X164197695Y-129485626D02*
X163384895Y-129485626D01*
X163384895Y-129292102D01*
X163423600Y-129175988D01*
X163501009Y-129098578D01*
X163578419Y-129059873D01*
X163733238Y-129021169D01*
X163849352Y-129021169D01*
X164004171Y-129059873D01*
X164081580Y-129098578D01*
X164158990Y-129175988D01*
X164197695Y-129292102D01*
X164197695Y-129485626D01*
X164120285Y-128208369D02*
X164158990Y-128247073D01*
X164197695Y-128363188D01*
X164197695Y-128440597D01*
X164158990Y-128556711D01*
X164081580Y-128634121D01*
X164004171Y-128672826D01*
X163849352Y-128711530D01*
X163733238Y-128711530D01*
X163578419Y-128672826D01*
X163501009Y-128634121D01*
X163423600Y-128556711D01*
X163384895Y-128440597D01*
X163384895Y-128363188D01*
X163423600Y-128247073D01*
X163462304Y-128208369D01*
X164197695Y-127860026D02*
X163384895Y-127860026D01*
X163384895Y-127666502D01*
X163423600Y-127550388D01*
X163501009Y-127472978D01*
X163578419Y-127434273D01*
X163733238Y-127395569D01*
X163849352Y-127395569D01*
X164004171Y-127434273D01*
X164081580Y-127472978D01*
X164158990Y-127550388D01*
X164197695Y-127666502D01*
X164197695Y-127860026D01*
X135694057Y-120390007D02*
X136303657Y-120390007D01*
X135345714Y-120607721D02*
X135998857Y-120825435D01*
X135998857Y-120259378D01*
X132849257Y-120868978D02*
X132849257Y-120302921D01*
X133197600Y-120607721D01*
X133197600Y-120477092D01*
X133241142Y-120390007D01*
X133284685Y-120346464D01*
X133371771Y-120302921D01*
X133589485Y-120302921D01*
X133676571Y-120346464D01*
X133720114Y-120390007D01*
X133763657Y-120477092D01*
X133763657Y-120738350D01*
X133720114Y-120825435D01*
X133676571Y-120868978D01*
X125229257Y-120607721D02*
X125229257Y-120520635D01*
X125272800Y-120433550D01*
X125316342Y-120390007D01*
X125403428Y-120346464D01*
X125577600Y-120302921D01*
X125795314Y-120302921D01*
X125969485Y-120346464D01*
X126056571Y-120390007D01*
X126100114Y-120433550D01*
X126143657Y-120520635D01*
X126143657Y-120607721D01*
X126100114Y-120694807D01*
X126056571Y-120738350D01*
X125969485Y-120781892D01*
X125795314Y-120825435D01*
X125577600Y-120825435D01*
X125403428Y-120781892D01*
X125316342Y-120738350D01*
X125272800Y-120694807D01*
X125229257Y-120607721D01*
X130396342Y-120825435D02*
X130352800Y-120781892D01*
X130309257Y-120694807D01*
X130309257Y-120477092D01*
X130352800Y-120390007D01*
X130396342Y-120346464D01*
X130483428Y-120302921D01*
X130570514Y-120302921D01*
X130701142Y-120346464D01*
X131223657Y-120868978D01*
X131223657Y-120302921D01*
X137929257Y-120346464D02*
X137929257Y-120781892D01*
X138364685Y-120825435D01*
X138321142Y-120781892D01*
X138277600Y-120694807D01*
X138277600Y-120477092D01*
X138321142Y-120390007D01*
X138364685Y-120346464D01*
X138451771Y-120302921D01*
X138669485Y-120302921D01*
X138756571Y-120346464D01*
X138800114Y-120390007D01*
X138843657Y-120477092D01*
X138843657Y-120694807D01*
X138800114Y-120781892D01*
X138756571Y-120825435D01*
X140469257Y-120390007D02*
X140469257Y-120564178D01*
X140512800Y-120651264D01*
X140556342Y-120694807D01*
X140686971Y-120781892D01*
X140861142Y-120825435D01*
X141209485Y-120825435D01*
X141296571Y-120781892D01*
X141340114Y-120738350D01*
X141383657Y-120651264D01*
X141383657Y-120477092D01*
X141340114Y-120390007D01*
X141296571Y-120346464D01*
X141209485Y-120302921D01*
X140991771Y-120302921D01*
X140904685Y-120346464D01*
X140861142Y-120390007D01*
X140817600Y-120477092D01*
X140817600Y-120651264D01*
X140861142Y-120738350D01*
X140904685Y-120781892D01*
X140991771Y-120825435D01*
X143009257Y-120868978D02*
X143009257Y-120259378D01*
X143923657Y-120651264D01*
X128683657Y-120302921D02*
X128683657Y-120825435D01*
X128683657Y-120564178D02*
X127769257Y-120564178D01*
X127899885Y-120651264D01*
X127986971Y-120738350D01*
X128030514Y-120825435D01*
X165869257Y-120868978D02*
X165869257Y-120259378D01*
X166783657Y-120651264D01*
X163329257Y-120390007D02*
X163329257Y-120564178D01*
X163372800Y-120651264D01*
X163416342Y-120694807D01*
X163546971Y-120781892D01*
X163721142Y-120825435D01*
X164069485Y-120825435D01*
X164156571Y-120781892D01*
X164200114Y-120738350D01*
X164243657Y-120651264D01*
X164243657Y-120477092D01*
X164200114Y-120390007D01*
X164156571Y-120346464D01*
X164069485Y-120302921D01*
X163851771Y-120302921D01*
X163764685Y-120346464D01*
X163721142Y-120390007D01*
X163677600Y-120477092D01*
X163677600Y-120651264D01*
X163721142Y-120738350D01*
X163764685Y-120781892D01*
X163851771Y-120825435D01*
X160789257Y-120346464D02*
X160789257Y-120781892D01*
X161224685Y-120825435D01*
X161181142Y-120781892D01*
X161137600Y-120694807D01*
X161137600Y-120477092D01*
X161181142Y-120390007D01*
X161224685Y-120346464D01*
X161311771Y-120302921D01*
X161529485Y-120302921D01*
X161616571Y-120346464D01*
X161660114Y-120390007D01*
X161703657Y-120477092D01*
X161703657Y-120694807D01*
X161660114Y-120781892D01*
X161616571Y-120825435D01*
X153256342Y-120825435D02*
X153212800Y-120781892D01*
X153169257Y-120694807D01*
X153169257Y-120477092D01*
X153212800Y-120390007D01*
X153256342Y-120346464D01*
X153343428Y-120302921D01*
X153430514Y-120302921D01*
X153561142Y-120346464D01*
X154083657Y-120868978D01*
X154083657Y-120302921D01*
X148089257Y-120607721D02*
X148089257Y-120520635D01*
X148132800Y-120433550D01*
X148176342Y-120390007D01*
X148263428Y-120346464D01*
X148437600Y-120302921D01*
X148655314Y-120302921D01*
X148829485Y-120346464D01*
X148916571Y-120390007D01*
X148960114Y-120433550D01*
X149003657Y-120520635D01*
X149003657Y-120607721D01*
X148960114Y-120694807D01*
X148916571Y-120738350D01*
X148829485Y-120781892D01*
X148655314Y-120825435D01*
X148437600Y-120825435D01*
X148263428Y-120781892D01*
X148176342Y-120738350D01*
X148132800Y-120694807D01*
X148089257Y-120607721D01*
X155709257Y-120868978D02*
X155709257Y-120302921D01*
X156057600Y-120607721D01*
X156057600Y-120477092D01*
X156101142Y-120390007D01*
X156144685Y-120346464D01*
X156231771Y-120302921D01*
X156449485Y-120302921D01*
X156536571Y-120346464D01*
X156580114Y-120390007D01*
X156623657Y-120477092D01*
X156623657Y-120738350D01*
X156580114Y-120825435D01*
X156536571Y-120868978D01*
X158554057Y-120390007D02*
X159163657Y-120390007D01*
X158205714Y-120607721D02*
X158858857Y-120825435D01*
X158858857Y-120259378D01*
X151543657Y-120302921D02*
X151543657Y-120825435D01*
X151543657Y-120564178D02*
X150629257Y-120564178D01*
X150759885Y-120651264D01*
X150846971Y-120738350D01*
X150890514Y-120825435D01*
D12*
X159934285Y-116373285D02*
X159991428Y-116201857D01*
X160048571Y-116144714D01*
X160162857Y-116087571D01*
X160334285Y-116087571D01*
X160448571Y-116144714D01*
X160505714Y-116201857D01*
X160562857Y-116316142D01*
X160562857Y-116773285D01*
X159362857Y-116773285D01*
X159362857Y-116373285D01*
X159420000Y-116259000D01*
X159477142Y-116201857D01*
X159591428Y-116144714D01*
X159705714Y-116144714D01*
X159820000Y-116201857D01*
X159877142Y-116259000D01*
X159934285Y-116373285D01*
X159934285Y-116773285D01*
X160448571Y-92973571D02*
X160505714Y-93030714D01*
X160562857Y-93202142D01*
X160562857Y-93316428D01*
X160505714Y-93487857D01*
X160391428Y-93602142D01*
X160277142Y-93659285D01*
X160048571Y-93716428D01*
X159877142Y-93716428D01*
X159648571Y-93659285D01*
X159534285Y-93602142D01*
X159420000Y-93487857D01*
X159362857Y-93316428D01*
X159362857Y-93202142D01*
X159420000Y-93030714D01*
X159477142Y-92973571D01*
X152600000Y-116744714D02*
X152600000Y-116173285D01*
X152942857Y-116859000D02*
X151742857Y-116459000D01*
X152942857Y-116059000D01*
X152942857Y-93659285D02*
X151742857Y-93659285D01*
X151742857Y-93373571D01*
X151800000Y-93202142D01*
X151914285Y-93087857D01*
X152028571Y-93030714D01*
X152257142Y-92973571D01*
X152428571Y-92973571D01*
X152657142Y-93030714D01*
X152771428Y-93087857D01*
X152885714Y-93202142D01*
X152942857Y-93373571D01*
X152942857Y-93659285D01*
D13*
X153903333Y-111098833D02*
X153903333Y-110432166D01*
X154303333Y-111232166D02*
X152903333Y-110765500D01*
X154303333Y-110298833D01*
X154303333Y-107632166D02*
X154303333Y-107698833D01*
X154236666Y-107832166D01*
X154036666Y-108032166D01*
X153636666Y-108365500D01*
X153436666Y-108498833D01*
X153236666Y-108565500D01*
X153103333Y-108565500D01*
X152970000Y-108498833D01*
X152903333Y-108365500D01*
X152903333Y-108298833D01*
X152970000Y-108165500D01*
X153103333Y-108098833D01*
X153170000Y-108098833D01*
X153303333Y-108165500D01*
X153370000Y-108232166D01*
X153636666Y-108632166D01*
X153703333Y-108698833D01*
X153836666Y-108765500D01*
X154036666Y-108765500D01*
X154170000Y-108698833D01*
X154236666Y-108632166D01*
X154303333Y-108498833D01*
X154303333Y-108298833D01*
X154236666Y-108165500D01*
X154170000Y-108098833D01*
X153903333Y-107898833D01*
X153703333Y-107832166D01*
X153570000Y-107832166D01*
X153570000Y-105498833D02*
X153636666Y-105298833D01*
X153703333Y-105232166D01*
X153836666Y-105165500D01*
X154036666Y-105165500D01*
X154170000Y-105232166D01*
X154236666Y-105298833D01*
X154303333Y-105432166D01*
X154303333Y-105965500D01*
X152903333Y-105965500D01*
X152903333Y-105498833D01*
X152970000Y-105365500D01*
X153036666Y-105298833D01*
X153170000Y-105232166D01*
X153303333Y-105232166D01*
X153436666Y-105298833D01*
X153503333Y-105365500D01*
X153570000Y-105498833D01*
X153570000Y-105965500D01*
X152903333Y-103232166D02*
X152903333Y-102965500D01*
X152970000Y-102832166D01*
X153103333Y-102698833D01*
X153370000Y-102632166D01*
X153836666Y-102632166D01*
X154103333Y-102698833D01*
X154236666Y-102832166D01*
X154303333Y-102965500D01*
X154303333Y-103232166D01*
X154236666Y-103365500D01*
X154103333Y-103498833D01*
X153836666Y-103565500D01*
X153370000Y-103565500D01*
X153103333Y-103498833D01*
X152970000Y-103365500D01*
X152903333Y-103232166D01*
X154303333Y-102032166D02*
X152903333Y-102032166D01*
X154303333Y-101232166D01*
X152903333Y-101232166D01*
X154303333Y-99898833D02*
X154303333Y-100565500D01*
X152903333Y-100565500D01*
X153636666Y-99165500D02*
X154303333Y-99165500D01*
X152903333Y-99632166D02*
X153636666Y-99165500D01*
X152903333Y-98698833D01*
D11*
X172590666Y-95802333D02*
X173290666Y-95569000D01*
X172590666Y-95335666D01*
X173224000Y-94702333D02*
X173257333Y-94735666D01*
X173290666Y-94835666D01*
X173290666Y-94902333D01*
X173257333Y-95002333D01*
X173190666Y-95069000D01*
X173124000Y-95102333D01*
X172990666Y-95135666D01*
X172890666Y-95135666D01*
X172757333Y-95102333D01*
X172690666Y-95069000D01*
X172624000Y-95002333D01*
X172590666Y-94902333D01*
X172590666Y-94835666D01*
X172624000Y-94735666D01*
X172657333Y-94702333D01*
X173224000Y-94002333D02*
X173257333Y-94035666D01*
X173290666Y-94135666D01*
X173290666Y-94202333D01*
X173257333Y-94302333D01*
X173190666Y-94369000D01*
X173124000Y-94402333D01*
X172990666Y-94435666D01*
X172890666Y-94435666D01*
X172757333Y-94402333D01*
X172690666Y-94369000D01*
X172624000Y-94302333D01*
X172590666Y-94202333D01*
X172590666Y-94135666D01*
X172624000Y-94035666D01*
X172657333Y-94002333D01*
D14*
%TO.C,U1*%
X149164523Y-105742619D02*
X150192619Y-105742619D01*
X150313571Y-105682142D01*
X150374047Y-105621666D01*
X150434523Y-105500714D01*
X150434523Y-105258809D01*
X150374047Y-105137857D01*
X150313571Y-105077380D01*
X150192619Y-105016904D01*
X149164523Y-105016904D01*
X150434523Y-103746904D02*
X150434523Y-104472619D01*
X150434523Y-104109761D02*
X149164523Y-104109761D01*
X149345952Y-104230714D01*
X149466904Y-104351666D01*
X149527380Y-104472619D01*
D13*
%TO.C,J1*%
X167764666Y-116565333D02*
X168264666Y-116565333D01*
X168364666Y-116598666D01*
X168431333Y-116665333D01*
X168464666Y-116765333D01*
X168464666Y-116832000D01*
X168464666Y-115865333D02*
X168464666Y-116265333D01*
X168464666Y-116065333D02*
X167764666Y-116065333D01*
X167864666Y-116132000D01*
X167931333Y-116198666D01*
X167964666Y-116265333D01*
D12*
%TO.C,U2*%
X146677000Y-85477666D02*
X146743666Y-85544333D01*
X146810333Y-85744333D01*
X146810333Y-85877666D01*
X146743666Y-86077666D01*
X146610333Y-86211000D01*
X146477000Y-86277666D01*
X146210333Y-86344333D01*
X146010333Y-86344333D01*
X145743666Y-86277666D01*
X145610333Y-86211000D01*
X145477000Y-86077666D01*
X145410333Y-85877666D01*
X145410333Y-85744333D01*
X145477000Y-85544333D01*
X145543666Y-85477666D01*
%TO.C,U5*%
X123950333Y-86218666D02*
X122550333Y-86218666D01*
X122550333Y-85885333D01*
X122617000Y-85685333D01*
X122750333Y-85552000D01*
X122883666Y-85485333D01*
X123150333Y-85418666D01*
X123350333Y-85418666D01*
X123617000Y-85485333D01*
X123750333Y-85552000D01*
X123883666Y-85685333D01*
X123950333Y-85885333D01*
X123950333Y-86218666D01*
%TO.C,U4*%
X123423333Y-124507333D02*
X123423333Y-123840666D01*
X123823333Y-124640666D02*
X122423333Y-124174000D01*
X123823333Y-123707333D01*
%TO.C,U3*%
X146204000Y-124174000D02*
X146270666Y-123974000D01*
X146337333Y-123907333D01*
X146470666Y-123840666D01*
X146670666Y-123840666D01*
X146804000Y-123907333D01*
X146870666Y-123974000D01*
X146937333Y-124107333D01*
X146937333Y-124640666D01*
X145537333Y-124640666D01*
X145537333Y-124174000D01*
X145604000Y-124040666D01*
X145670666Y-123974000D01*
X145804000Y-123907333D01*
X145937333Y-123907333D01*
X146070666Y-123974000D01*
X146137333Y-124040666D01*
X146204000Y-124174000D01*
X146204000Y-124640666D01*
D13*
%TO.C,D1*%
X158513428Y-118171857D02*
X157913428Y-118171857D01*
X157913428Y-118029000D01*
X157942000Y-117943285D01*
X157999142Y-117886142D01*
X158056285Y-117857571D01*
X158170571Y-117829000D01*
X158256285Y-117829000D01*
X158370571Y-117857571D01*
X158427714Y-117886142D01*
X158484857Y-117943285D01*
X158513428Y-118029000D01*
X158513428Y-118171857D01*
X158513428Y-117257571D02*
X158513428Y-117600428D01*
X158513428Y-117429000D02*
X157913428Y-117429000D01*
X157999142Y-117486142D01*
X158056285Y-117543285D01*
X158084857Y-117600428D01*
%TO.C,D2*%
X158513428Y-115631857D02*
X157913428Y-115631857D01*
X157913428Y-115489000D01*
X157942000Y-115403285D01*
X157999142Y-115346142D01*
X158056285Y-115317571D01*
X158170571Y-115289000D01*
X158256285Y-115289000D01*
X158370571Y-115317571D01*
X158427714Y-115346142D01*
X158484857Y-115403285D01*
X158513428Y-115489000D01*
X158513428Y-115631857D01*
X157970571Y-115060428D02*
X157942000Y-115031857D01*
X157913428Y-114974714D01*
X157913428Y-114831857D01*
X157942000Y-114774714D01*
X157970571Y-114746142D01*
X158027714Y-114717571D01*
X158084857Y-114717571D01*
X158170571Y-114746142D01*
X158513428Y-115089000D01*
X158513428Y-114717571D01*
D15*
%TO.C,D4*%
X166114790Y-115601447D02*
X165555990Y-115601447D01*
X165555990Y-115468400D01*
X165582600Y-115388571D01*
X165635819Y-115335352D01*
X165689038Y-115308742D01*
X165795476Y-115282133D01*
X165875304Y-115282133D01*
X165981742Y-115308742D01*
X166034961Y-115335352D01*
X166088180Y-115388571D01*
X166114790Y-115468400D01*
X166114790Y-115601447D01*
X165742257Y-114803161D02*
X166114790Y-114803161D01*
X165529380Y-114936209D02*
X165928523Y-115069257D01*
X165928523Y-114723333D01*
D13*
%TO.C,D5*%
X166133428Y-95057857D02*
X165533428Y-95057857D01*
X165533428Y-94915000D01*
X165562000Y-94829285D01*
X165619142Y-94772142D01*
X165676285Y-94743571D01*
X165790571Y-94715000D01*
X165876285Y-94715000D01*
X165990571Y-94743571D01*
X166047714Y-94772142D01*
X166104857Y-94829285D01*
X166133428Y-94915000D01*
X166133428Y-95057857D01*
X165533428Y-94172142D02*
X165533428Y-94457857D01*
X165819142Y-94486428D01*
X165790571Y-94457857D01*
X165762000Y-94400714D01*
X165762000Y-94257857D01*
X165790571Y-94200714D01*
X165819142Y-94172142D01*
X165876285Y-94143571D01*
X166019142Y-94143571D01*
X166076285Y-94172142D01*
X166104857Y-94200714D01*
X166133428Y-94257857D01*
X166133428Y-94400714D01*
X166104857Y-94457857D01*
X166076285Y-94486428D01*
%TO.C,D6*%
X166133428Y-92517857D02*
X165533428Y-92517857D01*
X165533428Y-92375000D01*
X165562000Y-92289285D01*
X165619142Y-92232142D01*
X165676285Y-92203571D01*
X165790571Y-92175000D01*
X165876285Y-92175000D01*
X165990571Y-92203571D01*
X166047714Y-92232142D01*
X166104857Y-92289285D01*
X166133428Y-92375000D01*
X166133428Y-92517857D01*
X165533428Y-91660714D02*
X165533428Y-91775000D01*
X165562000Y-91832142D01*
X165590571Y-91860714D01*
X165676285Y-91917857D01*
X165790571Y-91946428D01*
X166019142Y-91946428D01*
X166076285Y-91917857D01*
X166104857Y-91889285D01*
X166133428Y-91832142D01*
X166133428Y-91717857D01*
X166104857Y-91660714D01*
X166076285Y-91632142D01*
X166019142Y-91603571D01*
X165876285Y-91603571D01*
X165819142Y-91632142D01*
X165790571Y-91660714D01*
X165762000Y-91717857D01*
X165762000Y-91832142D01*
X165790571Y-91889285D01*
X165819142Y-91917857D01*
X165876285Y-91946428D01*
%TO.C,D7*%
X158513428Y-95057857D02*
X157913428Y-95057857D01*
X157913428Y-94915000D01*
X157942000Y-94829285D01*
X157999142Y-94772142D01*
X158056285Y-94743571D01*
X158170571Y-94715000D01*
X158256285Y-94715000D01*
X158370571Y-94743571D01*
X158427714Y-94772142D01*
X158484857Y-94829285D01*
X158513428Y-94915000D01*
X158513428Y-95057857D01*
X157913428Y-94515000D02*
X157913428Y-94115000D01*
X158513428Y-94372142D01*
%TO.C,D8*%
X158513428Y-92517857D02*
X157913428Y-92517857D01*
X157913428Y-92375000D01*
X157942000Y-92289285D01*
X157999142Y-92232142D01*
X158056285Y-92203571D01*
X158170571Y-92175000D01*
X158256285Y-92175000D01*
X158370571Y-92203571D01*
X158427714Y-92232142D01*
X158484857Y-92289285D01*
X158513428Y-92375000D01*
X158513428Y-92517857D01*
X158170571Y-91832142D02*
X158142000Y-91889285D01*
X158113428Y-91917857D01*
X158056285Y-91946428D01*
X158027714Y-91946428D01*
X157970571Y-91917857D01*
X157942000Y-91889285D01*
X157913428Y-91832142D01*
X157913428Y-91717857D01*
X157942000Y-91660714D01*
X157970571Y-91632142D01*
X158027714Y-91603571D01*
X158056285Y-91603571D01*
X158113428Y-91632142D01*
X158142000Y-91660714D01*
X158170571Y-91717857D01*
X158170571Y-91832142D01*
X158199142Y-91889285D01*
X158227714Y-91917857D01*
X158284857Y-91946428D01*
X158399142Y-91946428D01*
X158456285Y-91917857D01*
X158484857Y-91889285D01*
X158513428Y-91832142D01*
X158513428Y-91717857D01*
X158484857Y-91660714D01*
X158456285Y-91632142D01*
X158399142Y-91603571D01*
X158284857Y-91603571D01*
X158227714Y-91632142D01*
X158199142Y-91660714D01*
X158170571Y-91717857D01*
%TO.C,R1*%
X126427666Y-102351666D02*
X126094333Y-102585000D01*
X126427666Y-102751666D02*
X125727666Y-102751666D01*
X125727666Y-102485000D01*
X125761000Y-102418333D01*
X125794333Y-102385000D01*
X125861000Y-102351666D01*
X125961000Y-102351666D01*
X126027666Y-102385000D01*
X126061000Y-102418333D01*
X126094333Y-102485000D01*
X126094333Y-102751666D01*
X126427666Y-101685000D02*
X126427666Y-102085000D01*
X126427666Y-101885000D02*
X125727666Y-101885000D01*
X125827666Y-101951666D01*
X125894333Y-102018333D01*
X125927666Y-102085000D01*
%TO.C,U6*%
X133451666Y-110106666D02*
X133451666Y-110673333D01*
X133485000Y-110740000D01*
X133518333Y-110773333D01*
X133585000Y-110806666D01*
X133718333Y-110806666D01*
X133785000Y-110773333D01*
X133818333Y-110740000D01*
X133851666Y-110673333D01*
X133851666Y-110106666D01*
X134485000Y-110106666D02*
X134351666Y-110106666D01*
X134285000Y-110140000D01*
X134251666Y-110173333D01*
X134185000Y-110273333D01*
X134151666Y-110406666D01*
X134151666Y-110673333D01*
X134185000Y-110740000D01*
X134218333Y-110773333D01*
X134285000Y-110806666D01*
X134418333Y-110806666D01*
X134485000Y-110773333D01*
X134518333Y-110740000D01*
X134551666Y-110673333D01*
X134551666Y-110506666D01*
X134518333Y-110440000D01*
X134485000Y-110406666D01*
X134418333Y-110373333D01*
X134285000Y-110373333D01*
X134218333Y-110406666D01*
X134185000Y-110440000D01*
X134151666Y-110506666D01*
%TO.C,J5*%
X167764666Y-93705333D02*
X168264666Y-93705333D01*
X168364666Y-93738666D01*
X168431333Y-93805333D01*
X168464666Y-93905333D01*
X168464666Y-93972000D01*
X167764666Y-93038666D02*
X167764666Y-93372000D01*
X168098000Y-93405333D01*
X168064666Y-93372000D01*
X168031333Y-93305333D01*
X168031333Y-93138666D01*
X168064666Y-93072000D01*
X168098000Y-93038666D01*
X168164666Y-93005333D01*
X168331333Y-93005333D01*
X168398000Y-93038666D01*
X168431333Y-93072000D01*
X168464666Y-93138666D01*
X168464666Y-93305333D01*
X168431333Y-93372000D01*
X168398000Y-93405333D01*
%TO.C,D3*%
X166133428Y-118171857D02*
X165533428Y-118171857D01*
X165533428Y-118029000D01*
X165562000Y-117943285D01*
X165619142Y-117886142D01*
X165676285Y-117857571D01*
X165790571Y-117829000D01*
X165876285Y-117829000D01*
X165990571Y-117857571D01*
X166047714Y-117886142D01*
X166104857Y-117943285D01*
X166133428Y-118029000D01*
X166133428Y-118171857D01*
X165533428Y-117629000D02*
X165533428Y-117257571D01*
X165762000Y-117457571D01*
X165762000Y-117371857D01*
X165790571Y-117314714D01*
X165819142Y-117286142D01*
X165876285Y-117257571D01*
X166019142Y-117257571D01*
X166076285Y-117286142D01*
X166104857Y-117314714D01*
X166133428Y-117371857D01*
X166133428Y-117543285D01*
X166104857Y-117600428D01*
X166076285Y-117629000D01*
%TO.C,J2*%
X166621666Y-105135333D02*
X167121666Y-105135333D01*
X167221666Y-105168666D01*
X167288333Y-105235333D01*
X167321666Y-105335333D01*
X167321666Y-105402000D01*
X166688333Y-104835333D02*
X166655000Y-104802000D01*
X166621666Y-104735333D01*
X166621666Y-104568666D01*
X166655000Y-104502000D01*
X166688333Y-104468666D01*
X166755000Y-104435333D01*
X166821666Y-104435333D01*
X166921666Y-104468666D01*
X167321666Y-104868666D01*
X167321666Y-104435333D01*
%TO.C,C1*%
X127216000Y-108546666D02*
X127249333Y-108580000D01*
X127282666Y-108680000D01*
X127282666Y-108746666D01*
X127249333Y-108846666D01*
X127182666Y-108913333D01*
X127116000Y-108946666D01*
X126982666Y-108980000D01*
X126882666Y-108980000D01*
X126749333Y-108946666D01*
X126682666Y-108913333D01*
X126616000Y-108846666D01*
X126582666Y-108746666D01*
X126582666Y-108680000D01*
X126616000Y-108580000D01*
X126649333Y-108546666D01*
X127282666Y-107880000D02*
X127282666Y-108280000D01*
X127282666Y-108080000D02*
X126582666Y-108080000D01*
X126682666Y-108146666D01*
X126749333Y-108213333D01*
X126782666Y-108280000D01*
%TO.C,R2*%
X119261466Y-100396733D02*
X119024400Y-100058066D01*
X118855066Y-100396733D02*
X118855066Y-99685533D01*
X119126000Y-99685533D01*
X119193733Y-99719400D01*
X119227600Y-99753266D01*
X119261466Y-99821000D01*
X119261466Y-99922600D01*
X119227600Y-99990333D01*
X119193733Y-100024200D01*
X119126000Y-100058066D01*
X118855066Y-100058066D01*
X119532400Y-99753266D02*
X119566266Y-99719400D01*
X119634000Y-99685533D01*
X119803333Y-99685533D01*
X119871066Y-99719400D01*
X119904933Y-99753266D01*
X119938800Y-99821000D01*
X119938800Y-99888733D01*
X119904933Y-99990333D01*
X119498533Y-100396733D01*
X119938800Y-100396733D01*
%TO.C,R7*%
X142323333Y-105032380D02*
X141990000Y-104556190D01*
X141751904Y-105032380D02*
X141751904Y-104032380D01*
X142132857Y-104032380D01*
X142228095Y-104080000D01*
X142275714Y-104127619D01*
X142323333Y-104222857D01*
X142323333Y-104365714D01*
X142275714Y-104460952D01*
X142228095Y-104508571D01*
X142132857Y-104556190D01*
X141751904Y-104556190D01*
X142656666Y-104032380D02*
X143323333Y-104032380D01*
X142894761Y-105032380D01*
%TO.C,R3*%
X142323333Y-111032380D02*
X141990000Y-110556190D01*
X141751904Y-111032380D02*
X141751904Y-110032380D01*
X142132857Y-110032380D01*
X142228095Y-110080000D01*
X142275714Y-110127619D01*
X142323333Y-110222857D01*
X142323333Y-110365714D01*
X142275714Y-110460952D01*
X142228095Y-110508571D01*
X142132857Y-110556190D01*
X141751904Y-110556190D01*
X142656666Y-110032380D02*
X143275714Y-110032380D01*
X142942380Y-110413333D01*
X143085238Y-110413333D01*
X143180476Y-110460952D01*
X143228095Y-110508571D01*
X143275714Y-110603809D01*
X143275714Y-110841904D01*
X143228095Y-110937142D01*
X143180476Y-110984761D01*
X143085238Y-111032380D01*
X142799523Y-111032380D01*
X142704285Y-110984761D01*
X142656666Y-110937142D01*
%TO.C,R5*%
X142323333Y-108032380D02*
X141990000Y-107556190D01*
X141751904Y-108032380D02*
X141751904Y-107032380D01*
X142132857Y-107032380D01*
X142228095Y-107080000D01*
X142275714Y-107127619D01*
X142323333Y-107222857D01*
X142323333Y-107365714D01*
X142275714Y-107460952D01*
X142228095Y-107508571D01*
X142132857Y-107556190D01*
X141751904Y-107556190D01*
X143228095Y-107032380D02*
X142751904Y-107032380D01*
X142704285Y-107508571D01*
X142751904Y-107460952D01*
X142847142Y-107413333D01*
X143085238Y-107413333D01*
X143180476Y-107460952D01*
X143228095Y-107508571D01*
X143275714Y-107603809D01*
X143275714Y-107841904D01*
X143228095Y-107937142D01*
X143180476Y-107984761D01*
X143085238Y-108032380D01*
X142847142Y-108032380D01*
X142751904Y-107984761D01*
X142704285Y-107937142D01*
%TO.C,R4*%
X146323333Y-109532380D02*
X145990000Y-109056190D01*
X145751904Y-109532380D02*
X145751904Y-108532380D01*
X146132857Y-108532380D01*
X146228095Y-108580000D01*
X146275714Y-108627619D01*
X146323333Y-108722857D01*
X146323333Y-108865714D01*
X146275714Y-108960952D01*
X146228095Y-109008571D01*
X146132857Y-109056190D01*
X145751904Y-109056190D01*
X147180476Y-108865714D02*
X147180476Y-109532380D01*
X146942380Y-108484761D02*
X146704285Y-109199047D01*
X147323333Y-109199047D01*
%TO.C,R6*%
X146323333Y-106532380D02*
X145990000Y-106056190D01*
X145751904Y-106532380D02*
X145751904Y-105532380D01*
X146132857Y-105532380D01*
X146228095Y-105580000D01*
X146275714Y-105627619D01*
X146323333Y-105722857D01*
X146323333Y-105865714D01*
X146275714Y-105960952D01*
X146228095Y-106008571D01*
X146132857Y-106056190D01*
X145751904Y-106056190D01*
X147180476Y-105532380D02*
X146990000Y-105532380D01*
X146894761Y-105580000D01*
X146847142Y-105627619D01*
X146751904Y-105770476D01*
X146704285Y-105960952D01*
X146704285Y-106341904D01*
X146751904Y-106437142D01*
X146799523Y-106484761D01*
X146894761Y-106532380D01*
X147085238Y-106532380D01*
X147180476Y-106484761D01*
X147228095Y-106437142D01*
X147275714Y-106341904D01*
X147275714Y-106103809D01*
X147228095Y-106008571D01*
X147180476Y-105960952D01*
X147085238Y-105913333D01*
X146894761Y-105913333D01*
X146799523Y-105960952D01*
X146751904Y-106008571D01*
X146704285Y-106103809D01*
%TO.C,R9*%
X142323333Y-102032380D02*
X141990000Y-101556190D01*
X141751904Y-102032380D02*
X141751904Y-101032380D01*
X142132857Y-101032380D01*
X142228095Y-101080000D01*
X142275714Y-101127619D01*
X142323333Y-101222857D01*
X142323333Y-101365714D01*
X142275714Y-101460952D01*
X142228095Y-101508571D01*
X142132857Y-101556190D01*
X141751904Y-101556190D01*
X142799523Y-102032380D02*
X142990000Y-102032380D01*
X143085238Y-101984761D01*
X143132857Y-101937142D01*
X143228095Y-101794285D01*
X143275714Y-101603809D01*
X143275714Y-101222857D01*
X143228095Y-101127619D01*
X143180476Y-101080000D01*
X143085238Y-101032380D01*
X142894761Y-101032380D01*
X142799523Y-101080000D01*
X142751904Y-101127619D01*
X142704285Y-101222857D01*
X142704285Y-101460952D01*
X142751904Y-101556190D01*
X142799523Y-101603809D01*
X142894761Y-101651428D01*
X143085238Y-101651428D01*
X143180476Y-101603809D01*
X143228095Y-101556190D01*
X143275714Y-101460952D01*
%TO.C,R10*%
X145847142Y-100532380D02*
X145513809Y-100056190D01*
X145275714Y-100532380D02*
X145275714Y-99532380D01*
X145656666Y-99532380D01*
X145751904Y-99580000D01*
X145799523Y-99627619D01*
X145847142Y-99722857D01*
X145847142Y-99865714D01*
X145799523Y-99960952D01*
X145751904Y-100008571D01*
X145656666Y-100056190D01*
X145275714Y-100056190D01*
X146799523Y-100532380D02*
X146228095Y-100532380D01*
X146513809Y-100532380D02*
X146513809Y-99532380D01*
X146418571Y-99675238D01*
X146323333Y-99770476D01*
X146228095Y-99818095D01*
X147418571Y-99532380D02*
X147513809Y-99532380D01*
X147609047Y-99580000D01*
X147656666Y-99627619D01*
X147704285Y-99722857D01*
X147751904Y-99913333D01*
X147751904Y-100151428D01*
X147704285Y-100341904D01*
X147656666Y-100437142D01*
X147609047Y-100484761D01*
X147513809Y-100532380D01*
X147418571Y-100532380D01*
X147323333Y-100484761D01*
X147275714Y-100437142D01*
X147228095Y-100341904D01*
X147180476Y-100151428D01*
X147180476Y-99913333D01*
X147228095Y-99722857D01*
X147275714Y-99627619D01*
X147323333Y-99580000D01*
X147418571Y-99532380D01*
%TO.C,R8*%
X146323333Y-103532380D02*
X145990000Y-103056190D01*
X145751904Y-103532380D02*
X145751904Y-102532380D01*
X146132857Y-102532380D01*
X146228095Y-102580000D01*
X146275714Y-102627619D01*
X146323333Y-102722857D01*
X146323333Y-102865714D01*
X146275714Y-102960952D01*
X146228095Y-103008571D01*
X146132857Y-103056190D01*
X145751904Y-103056190D01*
X146894761Y-102960952D02*
X146799523Y-102913333D01*
X146751904Y-102865714D01*
X146704285Y-102770476D01*
X146704285Y-102722857D01*
X146751904Y-102627619D01*
X146799523Y-102580000D01*
X146894761Y-102532380D01*
X147085238Y-102532380D01*
X147180476Y-102580000D01*
X147228095Y-102627619D01*
X147275714Y-102722857D01*
X147275714Y-102770476D01*
X147228095Y-102865714D01*
X147180476Y-102913333D01*
X147085238Y-102960952D01*
X146894761Y-102960952D01*
X146799523Y-103008571D01*
X146751904Y-103056190D01*
X146704285Y-103151428D01*
X146704285Y-103341904D01*
X146751904Y-103437142D01*
X146799523Y-103484761D01*
X146894761Y-103532380D01*
X147085238Y-103532380D01*
X147180476Y-103484761D01*
X147228095Y-103437142D01*
X147275714Y-103341904D01*
X147275714Y-103151428D01*
X147228095Y-103056190D01*
X147180476Y-103008571D01*
X147085238Y-102960952D01*
%TO.C,C2*%
X123917142Y-108596666D02*
X123964761Y-108644285D01*
X124012380Y-108787142D01*
X124012380Y-108882380D01*
X123964761Y-109025238D01*
X123869523Y-109120476D01*
X123774285Y-109168095D01*
X123583809Y-109215714D01*
X123440952Y-109215714D01*
X123250476Y-109168095D01*
X123155238Y-109120476D01*
X123060000Y-109025238D01*
X123012380Y-108882380D01*
X123012380Y-108787142D01*
X123060000Y-108644285D01*
X123107619Y-108596666D01*
X123107619Y-108215714D02*
X123060000Y-108168095D01*
X123012380Y-108072857D01*
X123012380Y-107834761D01*
X123060000Y-107739523D01*
X123107619Y-107691904D01*
X123202857Y-107644285D01*
X123298095Y-107644285D01*
X123440952Y-107691904D01*
X124012380Y-108263333D01*
X124012380Y-107644285D01*
D16*
%TO.C,U1*%
X113604400Y-101088600D02*
X123604400Y-101088600D01*
X115534400Y-119513600D02*
X115534400Y-90363600D01*
X115534400Y-90363600D02*
X151114400Y-90363600D01*
X123604400Y-101088600D02*
X123604400Y-108788600D01*
X151114400Y-119513600D02*
X115534400Y-119513600D01*
X123604400Y-108788600D02*
X113604400Y-108788600D01*
X113604400Y-108788600D02*
X113604400Y-101088600D01*
X151114400Y-90363600D02*
X151114400Y-119513600D01*
D10*
%TO.C,J1*%
X169231000Y-113732000D02*
X170561000Y-113732000D01*
X169231000Y-116332000D02*
X171891000Y-116332000D01*
X171891000Y-116332000D02*
X171891000Y-118932000D01*
X169231000Y-116332000D02*
X169231000Y-118932000D01*
X169231000Y-118932000D02*
X171891000Y-118932000D01*
X169231000Y-115062000D02*
X169231000Y-113732000D01*
%TO.C,U2*%
X147260000Y-85912000D02*
X147260000Y-84582000D01*
X149860000Y-83252000D02*
X167700000Y-83252000D01*
X167700000Y-85912000D02*
X167700000Y-83252000D01*
%TO.C,U5*%
X124400000Y-85912000D02*
X124400000Y-84582000D01*
X144840000Y-85912000D02*
X144840000Y-83252000D01*
X127000000Y-83252000D02*
X144840000Y-83252000D01*
%TO.C,U4*%
X124400000Y-126806000D02*
X124400000Y-125476000D01*
X127000000Y-124146000D02*
X144840000Y-124146000D01*
X144840000Y-126806000D02*
X144840000Y-124146000D01*
%TO.C,U3*%
X147260000Y-126806000D02*
X147260000Y-125476000D01*
X167700000Y-126806000D02*
X167700000Y-124146000D01*
X149860000Y-124146000D02*
X167700000Y-124146000D01*
%TO.C,R1*%
X128345000Y-102493578D02*
X128345000Y-101976422D01*
X126925000Y-102493578D02*
X126925000Y-101976422D01*
%TO.C,U6*%
X134050000Y-109962000D02*
X132100000Y-109962000D01*
X134050000Y-99842000D02*
X136000000Y-99842000D01*
X134050000Y-109962000D02*
X137500000Y-109962000D01*
X134050000Y-99842000D02*
X132100000Y-99842000D01*
%TO.C,J5*%
X169231000Y-90872000D02*
X170561000Y-90872000D01*
X171891000Y-93472000D02*
X171891000Y-96072000D01*
X169231000Y-93472000D02*
X169231000Y-96072000D01*
X169231000Y-92202000D02*
X169231000Y-90872000D01*
X169231000Y-96072000D02*
X171891000Y-96072000D01*
X169231000Y-93472000D02*
X171891000Y-93472000D01*
%TO.C,S1*%
X149860000Y-85792000D02*
X167700000Y-85792000D01*
X167700000Y-88452000D02*
X167700000Y-85792000D01*
X147260000Y-88452000D02*
X147260000Y-87122000D01*
%TO.C,S2*%
X124400000Y-88452000D02*
X124400000Y-87122000D01*
X144840000Y-88452000D02*
X144840000Y-85792000D01*
X127000000Y-85792000D02*
X144840000Y-85792000D01*
%TO.C,S3*%
X127000000Y-121606000D02*
X144840000Y-121606000D01*
X124400000Y-124266000D02*
X124400000Y-122936000D01*
X144840000Y-124266000D02*
X144840000Y-121606000D01*
%TO.C,S4*%
X147260000Y-124266000D02*
X147260000Y-122936000D01*
X149860000Y-121606000D02*
X167700000Y-121606000D01*
X167700000Y-124266000D02*
X167700000Y-121606000D01*
%TO.C,J2*%
X168088000Y-103632000D02*
X170688000Y-103632000D01*
X168088000Y-103632000D02*
X168088000Y-108772000D01*
X168088000Y-108772000D02*
X173288000Y-108772000D01*
X170688000Y-101032000D02*
X173288000Y-101032000D01*
X170688000Y-103632000D02*
X170688000Y-101032000D01*
X173288000Y-101032000D02*
X173288000Y-108772000D01*
X168088000Y-101032000D02*
X169418000Y-101032000D01*
X168088000Y-102362000D02*
X168088000Y-101032000D01*
%TO.C,C1*%
X129200000Y-108688578D02*
X129200000Y-108171422D01*
X127780000Y-108688578D02*
X127780000Y-108171422D01*
%TO.C,R2*%
X119638578Y-97715000D02*
X119121422Y-97715000D01*
X119638578Y-99135000D02*
X119121422Y-99135000D01*
%TO.C,R7*%
X142717064Y-102195000D02*
X142262936Y-102195000D01*
X142717064Y-103665000D02*
X142262936Y-103665000D01*
%TO.C,R3*%
X142717064Y-108195000D02*
X142262936Y-108195000D01*
X142717064Y-109665000D02*
X142262936Y-109665000D01*
%TO.C,R5*%
X142717064Y-106665000D02*
X142262936Y-106665000D01*
X142717064Y-105195000D02*
X142262936Y-105195000D01*
%TO.C,R4*%
X146717064Y-106695000D02*
X146262936Y-106695000D01*
X146717064Y-108165000D02*
X146262936Y-108165000D01*
%TO.C,R6*%
X146717064Y-103695000D02*
X146262936Y-103695000D01*
X146717064Y-105165000D02*
X146262936Y-105165000D01*
%TO.C,R9*%
X142717064Y-100665000D02*
X142262936Y-100665000D01*
X142717064Y-99195000D02*
X142262936Y-99195000D01*
%TO.C,R10*%
X146717064Y-99165000D02*
X146262936Y-99165000D01*
X146717064Y-97695000D02*
X146262936Y-97695000D01*
%TO.C,R8*%
X146717064Y-102165000D02*
X146262936Y-102165000D01*
X146717064Y-100695000D02*
X146262936Y-100695000D01*
%TO.C,C2*%
X125975000Y-108691252D02*
X125975000Y-108168748D01*
X124505000Y-108691252D02*
X124505000Y-108168748D01*
%TD*%
M02*
