%TF.GenerationSoftware,KiCad,Pcbnew,(5.99.0-8139-gd24b034cbc)*%
%TF.CreationDate,2021-01-06T10:54:56+00:00*%
%TF.ProjectId,neon,6e656f6e-2e6b-4696-9361-645f70636258,1.0*%
%TF.SameCoordinates,Original*%
%TF.FileFunction,Soldermask,Bot*%
%TF.FilePolarity,Negative*%
%FSLAX46Y46*%
G04 Gerber Fmt 4.6, Leading zero omitted, Abs format (unit mm)*
G04 Created by KiCad (PCBNEW (5.99.0-8139-gd24b034cbc)) date 2021-01-06 10:54:56*
%MOMM*%
%LPD*%
G01*
G04 APERTURE LIST*
G04 Aperture macros list*
%AMRoundRect*
0 Rectangle with rounded corners*
0 $1 Rounding radius*
0 $2 $3 $4 $5 $6 $7 $8 $9 X,Y pos of 4 corners*
0 Add a 4 corners polygon primitive as box body*
4,1,4,$2,$3,$4,$5,$6,$7,$8,$9,$2,$3,0*
0 Add four circle primitives for the rounded corners*
1,1,$1+$1,$2,$3,0*
1,1,$1+$1,$4,$5,0*
1,1,$1+$1,$6,$7,0*
1,1,$1+$1,$8,$9,0*
0 Add four rect primitives between the rounded corners*
20,1,$1+$1,$2,$3,$4,$5,0*
20,1,$1+$1,$4,$5,$6,$7,0*
20,1,$1+$1,$6,$7,$8,$9,0*
20,1,$1+$1,$8,$9,$2,$3,0*%
G04 Aperture macros list end*
%ADD10C,1.750000*%
%ADD11RoundRect,0.050000X-0.850000X-0.850000X0.850000X-0.850000X0.850000X0.850000X-0.850000X0.850000X0*%
%ADD12O,1.800000X1.800000*%
%ADD13RoundRect,0.050000X0.850000X-0.850000X0.850000X0.850000X-0.850000X0.850000X-0.850000X-0.850000X0*%
%ADD14C,3.300000*%
G04 APERTURE END LIST*
D10*
%TO.C,U1*%
X118784400Y-117653600D03*
X121324400Y-117653600D03*
X123864400Y-117653600D03*
X126404400Y-117653600D03*
X128944400Y-117653600D03*
X131484400Y-117653600D03*
X134024400Y-117653600D03*
X136564400Y-117653600D03*
X139104400Y-117653600D03*
X141644400Y-117653600D03*
X144184400Y-117653600D03*
X146724400Y-117653600D03*
X149264400Y-117653600D03*
X118784400Y-115114600D03*
X121324400Y-115114600D03*
X123864400Y-115114600D03*
X126404400Y-115114600D03*
X128944400Y-115114600D03*
X131484400Y-115114600D03*
X134024400Y-115114600D03*
X136564400Y-115114600D03*
X139104400Y-115114600D03*
X141644400Y-115114600D03*
X144184400Y-115114600D03*
X146724400Y-115114600D03*
X149264400Y-115114600D03*
X118784400Y-94763600D03*
X121324400Y-94763600D03*
X123864400Y-94763600D03*
X126404400Y-94763600D03*
X128944400Y-94763600D03*
X131484400Y-94763600D03*
X134024400Y-94763600D03*
X136564400Y-94763600D03*
X139104400Y-94763600D03*
X141644400Y-94763600D03*
X144184400Y-94763600D03*
X146724400Y-94763600D03*
X149264400Y-94763600D03*
X118784400Y-92223600D03*
X121324400Y-92223600D03*
X123864400Y-92223600D03*
X126404400Y-92223600D03*
X128944400Y-92223600D03*
X131484400Y-92223600D03*
X134024400Y-92223600D03*
X136564400Y-92223600D03*
X139104400Y-92223600D03*
X141644400Y-92223600D03*
X144184400Y-92223600D03*
X146724400Y-92223600D03*
X149264400Y-92223600D03*
%TD*%
D11*
%TO.C,J1*%
X170561000Y-115062000D03*
D12*
X170561000Y-117602000D03*
%TD*%
D13*
%TO.C,U2*%
X148590000Y-84582000D03*
D12*
X151130000Y-84582000D03*
X153670000Y-84582000D03*
X156210000Y-84582000D03*
X158750000Y-84582000D03*
X161290000Y-84582000D03*
X163830000Y-84582000D03*
X166370000Y-84582000D03*
%TD*%
D13*
%TO.C,U5*%
X125730000Y-84582000D03*
D12*
X128270000Y-84582000D03*
X130810000Y-84582000D03*
X133350000Y-84582000D03*
X135890000Y-84582000D03*
X138430000Y-84582000D03*
X140970000Y-84582000D03*
X143510000Y-84582000D03*
%TD*%
D13*
%TO.C,U4*%
X125730000Y-125476000D03*
D12*
X128270000Y-125476000D03*
X130810000Y-125476000D03*
X133350000Y-125476000D03*
X135890000Y-125476000D03*
X138430000Y-125476000D03*
X140970000Y-125476000D03*
X143510000Y-125476000D03*
%TD*%
D13*
%TO.C,U3*%
X148590000Y-125476000D03*
D12*
X151130000Y-125476000D03*
X153670000Y-125476000D03*
X156210000Y-125476000D03*
X158750000Y-125476000D03*
X161290000Y-125476000D03*
X163830000Y-125476000D03*
X166370000Y-125476000D03*
%TD*%
D11*
%TO.C,J5*%
X170561000Y-92202000D03*
D12*
X170561000Y-94742000D03*
%TD*%
D14*
%TO.C,H1*%
X119380000Y-83820000D03*
%TD*%
%TO.C,H2*%
X171704000Y-83820000D03*
%TD*%
%TO.C,H3*%
X119380000Y-126034800D03*
%TD*%
%TO.C,H4*%
X171704000Y-126034800D03*
%TD*%
D13*
%TO.C,S1*%
X148590000Y-87122000D03*
D12*
X151130000Y-87122000D03*
X153670000Y-87122000D03*
X156210000Y-87122000D03*
X158750000Y-87122000D03*
X161290000Y-87122000D03*
X163830000Y-87122000D03*
X166370000Y-87122000D03*
%TD*%
D13*
%TO.C,S2*%
X125730000Y-87122000D03*
D12*
X128270000Y-87122000D03*
X130810000Y-87122000D03*
X133350000Y-87122000D03*
X135890000Y-87122000D03*
X138430000Y-87122000D03*
X140970000Y-87122000D03*
X143510000Y-87122000D03*
%TD*%
D13*
%TO.C,S3*%
X125730000Y-122936000D03*
D12*
X128270000Y-122936000D03*
X130810000Y-122936000D03*
X133350000Y-122936000D03*
X135890000Y-122936000D03*
X138430000Y-122936000D03*
X140970000Y-122936000D03*
X143510000Y-122936000D03*
%TD*%
D13*
%TO.C,S4*%
X148590000Y-122936000D03*
D12*
X151130000Y-122936000D03*
X153670000Y-122936000D03*
X156210000Y-122936000D03*
X158750000Y-122936000D03*
X161290000Y-122936000D03*
X163830000Y-122936000D03*
X166370000Y-122936000D03*
%TD*%
D11*
%TO.C,J2*%
X169418000Y-102362000D03*
D12*
X171958000Y-102362000D03*
X169418000Y-104902000D03*
X171958000Y-104902000D03*
X169418000Y-107442000D03*
X171958000Y-107442000D03*
%TD*%
M02*
