M48
; DRILL file {KiCad (5.99.0-8139-gd24b034cbc)} date 01/06/21 10:55:02
; FORMAT={-:-/ absolute / inch / decimal}
; #@! TF.CreationDate,2021-01-06T10:55:02+00:00
; #@! TF.GenerationSoftware,Kicad,Pcbnew,(5.99.0-8139-gd24b034cbc)
; #@! TF.FileFunction,Plated,1,2,PTH
FMAT,2
INCH
T1C0.0157
T2C0.0394
T3C0.0433
%
G90
G05
T1
X4.96Y-3.94
X4.9898Y-4.387
X5.0291Y-4.1606
X5.245Y-3.99
X5.31Y-3.955
X6.1875Y-3.675
X6.1875Y-4.585
X6.4875Y-3.675
X6.4875Y-4.585
T2
X4.95Y-3.33
X4.95Y-3.43
X4.95Y-4.84
X4.95Y-4.94
X5.05Y-3.33
X5.05Y-3.43
X5.05Y-4.84
X5.05Y-4.94
X5.15Y-3.33
X5.15Y-3.43
X5.15Y-4.84
X5.15Y-4.94
X5.25Y-3.33
X5.25Y-3.43
X5.25Y-4.84
X5.25Y-4.94
X5.35Y-3.33
X5.35Y-3.43
X5.35Y-4.84
X5.35Y-4.94
X5.45Y-3.33
X5.45Y-3.43
X5.45Y-4.84
X5.45Y-4.94
X5.55Y-3.33
X5.55Y-3.43
X5.55Y-4.84
X5.55Y-4.94
X5.65Y-3.33
X5.65Y-3.43
X5.65Y-4.84
X5.65Y-4.94
X5.85Y-3.33
X5.85Y-3.43
X5.85Y-4.84
X5.85Y-4.94
X5.95Y-3.33
X5.95Y-3.43
X5.95Y-4.84
X5.95Y-4.94
X6.05Y-3.33
X6.05Y-3.43
X6.05Y-4.84
X6.05Y-4.94
X6.15Y-3.33
X6.15Y-3.43
X6.15Y-4.84
X6.15Y-4.94
X6.25Y-3.33
X6.25Y-3.43
X6.25Y-4.84
X6.25Y-4.94
X6.35Y-3.33
X6.35Y-3.43
X6.35Y-4.84
X6.35Y-4.94
X6.45Y-3.33
X6.45Y-3.43
X6.45Y-4.84
X6.45Y-4.94
X6.55Y-3.33
X6.55Y-3.43
X6.55Y-4.84
X6.55Y-4.94
X6.67Y-4.03
X6.67Y-4.13
X6.67Y-4.23
X6.715Y-3.63
X6.715Y-3.73
X6.715Y-4.53
X6.715Y-4.63
X6.77Y-4.03
X6.77Y-4.13
X6.77Y-4.23
T3
X4.6766Y-3.6309
X4.6766Y-3.7309
X4.6766Y-4.5321
X4.6766Y-4.632
X4.7766Y-3.6309
X4.7766Y-3.7309
X4.7766Y-4.5321
X4.7766Y-4.632
X4.8766Y-3.6309
X4.8766Y-3.7309
X4.8766Y-4.5321
X4.8766Y-4.632
X4.9766Y-3.6309
X4.9766Y-3.7309
X4.9766Y-4.5321
X4.9766Y-4.632
X5.0766Y-3.6309
X5.0766Y-3.7309
X5.0766Y-4.5321
X5.0766Y-4.632
X5.1766Y-3.6309
X5.1766Y-3.7309
X5.1766Y-4.5321
X5.1766Y-4.632
X5.2766Y-3.6309
X5.2766Y-3.7309
X5.2766Y-4.5321
X5.2766Y-4.632
X5.3766Y-3.6309
X5.3766Y-3.7309
X5.3766Y-4.5321
X5.3766Y-4.632
X5.4766Y-3.6309
X5.4766Y-3.7309
X5.4766Y-4.5321
X5.4766Y-4.632
X5.5766Y-3.6309
X5.5766Y-3.7309
X5.5766Y-4.5321
X5.5766Y-4.632
X5.6766Y-3.6309
X5.6766Y-3.7309
X5.6766Y-4.5321
X5.6766Y-4.632
X5.7766Y-3.6309
X5.7766Y-3.7309
X5.7766Y-4.5321
X5.7766Y-4.632
X5.8766Y-3.6309
X5.8766Y-3.7309
X5.8766Y-4.5321
X5.8766Y-4.632
T0
M30
