%TF.GenerationSoftware,KiCad,Pcbnew,(5.99.0-8139-gd24b034cbc)*%
%TF.CreationDate,2021-01-06T10:54:56+00:00*%
%TF.ProjectId,neon,6e656f6e-2e6b-4696-9361-645f70636258,1.0*%
%TF.SameCoordinates,Original*%
%TF.FileFunction,Legend,Bot*%
%TF.FilePolarity,Positive*%
%FSLAX46Y46*%
G04 Gerber Fmt 4.6, Leading zero omitted, Abs format (unit mm)*
G04 Created by KiCad (PCBNEW (5.99.0-8139-gd24b034cbc)) date 2021-01-06 10:54:56*
%MOMM*%
%LPD*%
G01*
G04 APERTURE LIST*
%ADD10C,0.010000*%
G04 APERTURE END LIST*
%TO.C,G\u002A\u002A\u002A*%
G36*
X155461339Y-101669778D02*
G01*
X155575745Y-101752718D01*
X155653612Y-101865518D01*
X155691031Y-101996734D01*
X155684095Y-102134918D01*
X155628893Y-102268625D01*
X155521519Y-102386407D01*
X155472866Y-102419405D01*
X155329416Y-102470242D01*
X155179803Y-102467456D01*
X155039556Y-102413058D01*
X154924204Y-102309059D01*
X154842433Y-102201852D01*
X153846420Y-102201852D01*
X153846420Y-106201079D01*
X154585722Y-106913934D01*
X155325024Y-107626790D01*
X156637284Y-107626790D01*
X156637284Y-108849753D01*
X155189476Y-108849753D01*
X153922145Y-107604821D01*
X152654815Y-106359889D01*
X152654815Y-100883603D01*
X155134709Y-100883603D01*
X155181376Y-100960970D01*
X155232895Y-101001090D01*
X155285819Y-101000139D01*
X155351605Y-100947531D01*
X155403274Y-100884872D01*
X155405237Y-100835706D01*
X155356975Y-100779922D01*
X155322522Y-100754570D01*
X155244210Y-100734179D01*
X155178532Y-100757416D01*
X155137897Y-100811487D01*
X155134709Y-100883603D01*
X152654815Y-100883603D01*
X152654815Y-100728025D01*
X154846331Y-100728025D01*
X154899391Y-100638201D01*
X154938088Y-100584434D01*
X155048432Y-100497327D01*
X155181505Y-100452570D01*
X155244210Y-100451138D01*
X155322822Y-100449343D01*
X155457899Y-100486829D01*
X155572251Y-100564210D01*
X155651393Y-100680667D01*
X155682666Y-100775422D01*
X155690042Y-100924814D01*
X155639244Y-101071030D01*
X155637667Y-101073942D01*
X155542497Y-101189790D01*
X155417289Y-101260857D01*
X155275990Y-101286783D01*
X155132546Y-101267211D01*
X155000904Y-101201782D01*
X154895011Y-101090139D01*
X154842664Y-101010247D01*
X152937037Y-101010247D01*
X152939518Y-103620803D01*
X152941998Y-106231358D01*
X155335926Y-108567456D01*
X155845494Y-108567494D01*
X156355062Y-108567531D01*
X156355062Y-107909013D01*
X155179136Y-107907477D01*
X154374870Y-107132134D01*
X153570604Y-106356790D01*
X153564335Y-102014469D01*
X155139418Y-102014469D01*
X155150184Y-102091716D01*
X155216035Y-102161207D01*
X155253197Y-102182930D01*
X155297042Y-102184406D01*
X155349306Y-102141435D01*
X155398778Y-102084751D01*
X155408908Y-102036924D01*
X155380451Y-101974506D01*
X155373062Y-101963785D01*
X155309805Y-101926021D01*
X155230449Y-101926050D01*
X155164707Y-101965161D01*
X155139418Y-102014469D01*
X153564335Y-102014469D01*
X153564198Y-101919630D01*
X154848266Y-101919630D01*
X154894506Y-101830213D01*
X154972824Y-101727182D01*
X155100367Y-101651496D01*
X155261671Y-101625417D01*
X155309805Y-101627913D01*
X155314302Y-101628146D01*
X155461339Y-101669778D01*
G37*
G36*
X155461339Y-90161383D02*
G01*
X155575745Y-90244323D01*
X155653612Y-90357123D01*
X155691031Y-90488339D01*
X155684095Y-90626523D01*
X155628893Y-90760230D01*
X155521519Y-90878012D01*
X155472866Y-90911010D01*
X155329416Y-90961847D01*
X155179803Y-90959061D01*
X155039556Y-90904663D01*
X154924204Y-90800664D01*
X154842433Y-90693457D01*
X154296010Y-90693457D01*
X153617046Y-91469568D01*
X152938083Y-92245679D01*
X152937037Y-96259145D01*
X153932471Y-97254943D01*
X154927904Y-98250741D01*
X155853333Y-98250741D01*
X155853333Y-97999877D01*
X157358519Y-97999877D01*
X157358519Y-98752469D01*
X155853333Y-98752469D01*
X155853333Y-98532963D01*
X154803176Y-98532963D01*
X153728995Y-97459121D01*
X152654815Y-96385279D01*
X152654815Y-92114302D01*
X153398997Y-91262768D01*
X154060297Y-90506074D01*
X155139418Y-90506074D01*
X155150184Y-90583321D01*
X155216035Y-90652812D01*
X155253197Y-90674535D01*
X155297042Y-90676011D01*
X155349306Y-90633040D01*
X155398778Y-90576356D01*
X155408908Y-90528529D01*
X155380451Y-90466111D01*
X155373062Y-90455390D01*
X155309805Y-90417626D01*
X155230449Y-90417655D01*
X155164707Y-90456765D01*
X155139418Y-90506074D01*
X154060297Y-90506074D01*
X154143180Y-90411235D01*
X154848266Y-90411235D01*
X154894506Y-90321817D01*
X154972824Y-90218787D01*
X155100367Y-90143101D01*
X155261671Y-90117022D01*
X155309805Y-90119518D01*
X155314302Y-90119751D01*
X155461339Y-90161383D01*
G37*
G36*
X155420134Y-91792273D02*
G01*
X155544854Y-91864284D01*
X155639244Y-91981070D01*
X155686415Y-92110996D01*
X155690362Y-92259464D01*
X155645630Y-92394418D01*
X155558594Y-92504669D01*
X155435627Y-92579025D01*
X155283103Y-92606297D01*
X155118415Y-92586318D01*
X154985131Y-92522915D01*
X154896639Y-92417618D01*
X154848266Y-92324074D01*
X153971852Y-92324074D01*
X153971852Y-96258771D01*
X154449682Y-96737349D01*
X154927513Y-97215926D01*
X155390423Y-97215926D01*
X155459247Y-97215892D01*
X155618788Y-97215025D01*
X155728264Y-97212022D01*
X155797067Y-97205612D01*
X155834586Y-97194521D01*
X155850212Y-97177478D01*
X155853333Y-97153210D01*
X155853408Y-97147905D01*
X155857147Y-97129426D01*
X155871930Y-97115406D01*
X155905139Y-97105231D01*
X155964155Y-97098285D01*
X156056360Y-97093954D01*
X156189136Y-97091622D01*
X156369864Y-97090674D01*
X156605926Y-97090494D01*
X157358519Y-97090494D01*
X157358519Y-97623581D01*
X156605926Y-97623581D01*
X156542266Y-97623574D01*
X156320514Y-97623263D01*
X156152278Y-97622031D01*
X156030176Y-97619263D01*
X155946828Y-97614345D01*
X155894852Y-97606662D01*
X155866865Y-97595597D01*
X155855486Y-97580536D01*
X155853333Y-97560865D01*
X155851165Y-97539965D01*
X155838481Y-97522983D01*
X155806573Y-97511352D01*
X155746742Y-97504062D01*
X155650291Y-97500104D01*
X155508521Y-97498469D01*
X155312734Y-97498148D01*
X154772135Y-97498148D01*
X154230882Y-96957559D01*
X153689630Y-96416969D01*
X153689630Y-92194611D01*
X155132099Y-92194611D01*
X155152869Y-92266826D01*
X155211543Y-92312930D01*
X155288787Y-92317831D01*
X155365044Y-92274797D01*
X155405164Y-92223279D01*
X155404213Y-92170354D01*
X155351605Y-92104568D01*
X155301282Y-92062019D01*
X155259771Y-92041852D01*
X155255428Y-92042095D01*
X155201858Y-92071523D01*
X155153275Y-92131303D01*
X155132099Y-92194611D01*
X153689630Y-92194611D01*
X153689630Y-92041852D01*
X154842664Y-92041852D01*
X154895011Y-91961960D01*
X154896877Y-91959136D01*
X155003454Y-91848468D01*
X155135487Y-91784007D01*
X155259771Y-91767891D01*
X155279030Y-91765394D01*
X155420134Y-91792273D01*
G37*
G36*
X155393623Y-102828247D02*
G01*
X155528297Y-102900149D01*
X155623675Y-103005457D01*
X155677869Y-103132433D01*
X155688992Y-103269340D01*
X155655156Y-103404439D01*
X155574472Y-103525993D01*
X155445054Y-103622262D01*
X155438513Y-103625534D01*
X155316051Y-103658229D01*
X155182874Y-103652153D01*
X155056742Y-103612713D01*
X154955416Y-103545313D01*
X154896655Y-103455358D01*
X154864247Y-103410948D01*
X154785047Y-103393457D01*
X154693086Y-103393457D01*
X154693086Y-106232479D01*
X155015042Y-106553338D01*
X155336997Y-106874198D01*
X157483951Y-106874198D01*
X157483951Y-107266173D01*
X157484270Y-107399096D01*
X157486461Y-107519523D01*
X157492167Y-107595454D01*
X157503016Y-107637076D01*
X157520639Y-107654578D01*
X157546667Y-107658148D01*
X157550073Y-107658176D01*
X157569158Y-107661320D01*
X157583639Y-107674965D01*
X157594150Y-107706570D01*
X157601327Y-107763593D01*
X157605804Y-107853494D01*
X157608215Y-107983733D01*
X157609197Y-108161769D01*
X157609383Y-108395062D01*
X157609383Y-109131976D01*
X157044938Y-109131976D01*
X157044938Y-107658148D01*
X157123333Y-107658148D01*
X157156372Y-107656626D01*
X157182214Y-107643578D01*
X157195721Y-107606202D01*
X157200893Y-107531703D01*
X157201728Y-107407284D01*
X157201728Y-107156420D01*
X155211366Y-107156420D01*
X154811115Y-106757058D01*
X154410864Y-106357695D01*
X154410864Y-103267538D01*
X155140189Y-103267538D01*
X155179814Y-103322164D01*
X155243299Y-103354481D01*
X155313522Y-103354453D01*
X155373367Y-103312047D01*
X155397846Y-103274702D01*
X155414321Y-103236667D01*
X155406145Y-103213907D01*
X155373367Y-103161287D01*
X155361867Y-103148143D01*
X155292653Y-103117294D01*
X155213495Y-103129333D01*
X155151141Y-103181790D01*
X155141542Y-103200636D01*
X155140189Y-103267538D01*
X154410864Y-103267538D01*
X154410864Y-103079877D01*
X154638210Y-103079679D01*
X154704092Y-103079394D01*
X154797413Y-103075365D01*
X154853245Y-103061972D01*
X154888407Y-103033518D01*
X154919722Y-102984301D01*
X154948151Y-102944085D01*
X155050798Y-102862007D01*
X155180576Y-102813473D01*
X155292653Y-102809577D01*
X155314232Y-102808827D01*
X155393623Y-102828247D01*
G37*
G36*
X157483951Y-118936440D02*
G01*
X157567326Y-118980936D01*
X157585474Y-118992608D01*
X157652534Y-119061156D01*
X157707749Y-119150865D01*
X157713331Y-119163319D01*
X157757053Y-119295250D01*
X157757077Y-119410282D01*
X157713806Y-119533963D01*
X157660707Y-119615308D01*
X157546777Y-119706651D01*
X157405700Y-119756389D01*
X157252787Y-119760030D01*
X157103349Y-119713083D01*
X157023252Y-119648344D01*
X156950097Y-119535042D01*
X156907835Y-119402292D01*
X156907306Y-119348038D01*
X157203587Y-119348038D01*
X157221108Y-119417368D01*
X157269930Y-119465979D01*
X157345426Y-119474874D01*
X157388037Y-119453736D01*
X157441841Y-119398393D01*
X157461686Y-119364171D01*
X157464675Y-119317392D01*
X157425752Y-119258410D01*
X157393439Y-119222293D01*
X157347715Y-119201635D01*
X157283807Y-119221875D01*
X157280956Y-119223209D01*
X157221994Y-119276986D01*
X157203587Y-119348038D01*
X156907306Y-119348038D01*
X156906570Y-119272703D01*
X156921719Y-119221808D01*
X156969690Y-119127996D01*
X157034107Y-119039197D01*
X157101386Y-118973011D01*
X157157940Y-118947037D01*
X157163014Y-118946193D01*
X157176894Y-118929710D01*
X157187147Y-118886656D01*
X157194265Y-118809805D01*
X157198740Y-118691930D01*
X157201063Y-118525803D01*
X157201728Y-118304198D01*
X157201728Y-117661358D01*
X154285432Y-117661358D01*
X154285432Y-113581820D01*
X155138843Y-113581820D01*
X155190280Y-113659106D01*
X155247816Y-113690947D01*
X155322610Y-113680500D01*
X155383834Y-113614545D01*
X155407334Y-113565856D01*
X155406160Y-113525030D01*
X155365044Y-113477302D01*
X155326737Y-113448301D01*
X155243841Y-113430377D01*
X155169728Y-113465655D01*
X155143496Y-113503124D01*
X155138843Y-113581820D01*
X154285432Y-113581820D01*
X154285432Y-113428025D01*
X154566849Y-113428025D01*
X154594025Y-113428021D01*
X154718386Y-113426903D01*
X154796652Y-113421011D01*
X154843000Y-113406324D01*
X154871604Y-113378821D01*
X154896639Y-113334482D01*
X154913727Y-113305947D01*
X155008492Y-113216052D01*
X155135888Y-113160174D01*
X155243841Y-113145857D01*
X155278207Y-113141300D01*
X155417740Y-113162416D01*
X155536781Y-113226509D01*
X155610035Y-113306339D01*
X155674167Y-113443590D01*
X155688439Y-113592707D01*
X155652165Y-113738006D01*
X155564658Y-113863806D01*
X155476469Y-113930448D01*
X155332958Y-113980897D01*
X155182938Y-113978449D01*
X155040783Y-113924106D01*
X154920869Y-113818873D01*
X154859399Y-113751894D01*
X154794225Y-113718149D01*
X154700926Y-113710248D01*
X154567654Y-113710247D01*
X154567654Y-117379136D01*
X157483951Y-117379136D01*
X157483951Y-118936440D01*
G37*
G36*
X156738794Y-102874469D02*
G01*
X156838602Y-102974039D01*
X156899729Y-103101279D01*
X156920879Y-103241951D01*
X156900758Y-103381817D01*
X156838070Y-103506639D01*
X156731519Y-103602178D01*
X156718176Y-103610101D01*
X156678790Y-103637444D01*
X156654857Y-103670838D01*
X156642528Y-103724448D01*
X156637953Y-103812441D01*
X156637284Y-103948984D01*
X156637284Y-104240124D01*
X155414321Y-104240124D01*
X155414321Y-106152963D01*
X158299259Y-106152963D01*
X158299259Y-107658148D01*
X158487407Y-107658148D01*
X158487407Y-109131976D01*
X157891605Y-109131976D01*
X157891605Y-108395062D01*
X157891607Y-108355042D01*
X157891875Y-108130789D01*
X157893036Y-107960638D01*
X157895726Y-107837130D01*
X157900579Y-107752805D01*
X157908230Y-107700204D01*
X157919314Y-107671867D01*
X157934466Y-107660335D01*
X157954321Y-107658148D01*
X157963272Y-107657904D01*
X157982572Y-107652346D01*
X157996600Y-107633173D01*
X158006196Y-107592202D01*
X158012198Y-107521249D01*
X158015446Y-107412132D01*
X158016779Y-107256665D01*
X158017037Y-107046667D01*
X158017037Y-106435185D01*
X155132099Y-106435185D01*
X155132099Y-103957902D01*
X156355062Y-103957902D01*
X156355062Y-103807009D01*
X156354985Y-103790177D01*
X156347505Y-103698297D01*
X156320016Y-103639187D01*
X156261505Y-103586946D01*
X156154827Y-103479063D01*
X156089488Y-103342787D01*
X156080119Y-103242687D01*
X156370535Y-103242687D01*
X156396772Y-103310111D01*
X156454740Y-103354006D01*
X156527885Y-103362687D01*
X156599654Y-103324469D01*
X156616363Y-103302510D01*
X156637284Y-103236667D01*
X156631798Y-103201238D01*
X156587567Y-103141591D01*
X156517192Y-103113477D01*
X156442776Y-103122422D01*
X156386420Y-103173951D01*
X156370535Y-103242687D01*
X156080119Y-103242687D01*
X156075922Y-103197856D01*
X156115185Y-103057237D01*
X156208332Y-102933899D01*
X156210691Y-102931748D01*
X156352924Y-102838709D01*
X156505210Y-102805768D01*
X156517192Y-102807948D01*
X156661651Y-102834223D01*
X156738794Y-102874469D01*
G37*
G36*
X156768479Y-91850317D02*
G01*
X156874372Y-91961960D01*
X156926719Y-92041852D01*
X158079753Y-92041852D01*
X158079753Y-95194046D01*
X158597161Y-95710741D01*
X159114568Y-96227436D01*
X159114568Y-96789034D01*
X159114888Y-96986995D01*
X159116479Y-97130985D01*
X159120307Y-97229575D01*
X159127336Y-97291336D01*
X159138532Y-97324840D01*
X159154859Y-97338657D01*
X159177284Y-97341358D01*
X159180690Y-97341386D01*
X159199775Y-97344530D01*
X159214256Y-97358175D01*
X159224768Y-97389780D01*
X159231944Y-97446803D01*
X159236421Y-97536704D01*
X159238833Y-97666943D01*
X159239814Y-97844979D01*
X159240000Y-98078272D01*
X159240000Y-98815185D01*
X158706914Y-98815185D01*
X158706914Y-98078272D01*
X158706916Y-98038252D01*
X158707184Y-97813999D01*
X158708345Y-97643848D01*
X158711035Y-97520340D01*
X158715888Y-97436015D01*
X158723539Y-97383413D01*
X158734623Y-97355077D01*
X158749775Y-97343545D01*
X158769630Y-97341358D01*
X158781684Y-97340881D01*
X158802208Y-97333309D01*
X158816286Y-97309209D01*
X158825128Y-97259346D01*
X158829945Y-97174480D01*
X158831947Y-97045375D01*
X158832346Y-96862792D01*
X158832346Y-96384226D01*
X158314938Y-95867531D01*
X157797531Y-95350837D01*
X157797531Y-92324074D01*
X156924621Y-92324074D01*
X156860118Y-92428443D01*
X156847814Y-92447448D01*
X156759535Y-92539923D01*
X156642490Y-92590760D01*
X156483247Y-92606297D01*
X156350898Y-92586169D01*
X156223607Y-92518063D01*
X156131637Y-92412437D01*
X156081237Y-92280354D01*
X156080120Y-92216545D01*
X156361523Y-92216545D01*
X156404339Y-92274797D01*
X156442646Y-92303798D01*
X156525542Y-92321722D01*
X156599654Y-92286445D01*
X156624277Y-92251336D01*
X156632407Y-92169993D01*
X156588007Y-92091129D01*
X156536488Y-92051009D01*
X156483564Y-92051960D01*
X156417778Y-92104568D01*
X156368969Y-92163108D01*
X156361523Y-92216545D01*
X156080120Y-92216545D01*
X156078655Y-92132878D01*
X156130139Y-91981070D01*
X156131716Y-91978158D01*
X156226886Y-91862309D01*
X156352094Y-91791242D01*
X156493393Y-91765316D01*
X156536488Y-91771197D01*
X156636837Y-91784888D01*
X156768479Y-91850317D01*
G37*
G36*
X159508773Y-106171480D02*
G01*
X159620035Y-106244831D01*
X159695237Y-106349569D01*
X159726686Y-106446756D01*
X159740501Y-106538348D01*
X159731716Y-106610049D01*
X159687834Y-106728004D01*
X159619516Y-106834531D01*
X159540743Y-106904035D01*
X159513513Y-106919594D01*
X159487497Y-106943420D01*
X159471553Y-106981555D01*
X159463217Y-107046101D01*
X159460023Y-107149158D01*
X159459506Y-107302830D01*
X159459506Y-107658148D01*
X159741728Y-107658148D01*
X159741728Y-109131976D01*
X158863704Y-109131976D01*
X158863704Y-107658148D01*
X159182570Y-107658148D01*
X159160334Y-107305371D01*
X159152214Y-107180829D01*
X159142322Y-107067399D01*
X159129348Y-106992542D01*
X159109401Y-106942788D01*
X159078590Y-106904665D01*
X159033023Y-106864705D01*
X158938743Y-106756086D01*
X158886901Y-106612930D01*
X158888946Y-106550107D01*
X159177284Y-106550107D01*
X159178565Y-106567405D01*
X159214524Y-106635397D01*
X159283139Y-106669515D01*
X159361743Y-106656666D01*
X159409248Y-106622260D01*
X159439364Y-106552786D01*
X159408325Y-106470143D01*
X159398143Y-106456857D01*
X159328368Y-106409761D01*
X159256366Y-106413735D01*
X159200038Y-106462582D01*
X159177284Y-106550107D01*
X158888946Y-106550107D01*
X158892108Y-106453025D01*
X158955265Y-106283091D01*
X159004041Y-106218973D01*
X159109087Y-106153262D01*
X159238255Y-106124344D01*
X159328368Y-106128596D01*
X159376498Y-106130867D01*
X159508773Y-106171480D01*
G37*
G36*
X156679730Y-90154240D02*
G01*
X156794712Y-90225024D01*
X156871048Y-90314413D01*
X156921117Y-90411235D01*
X158044334Y-90411235D01*
X159114568Y-92123991D01*
X159114568Y-95225405D01*
X159631975Y-95742099D01*
X160149383Y-96258794D01*
X160149383Y-97341358D01*
X160400247Y-97341358D01*
X160400247Y-98815185D01*
X159647654Y-98815185D01*
X159647654Y-97341358D01*
X159867161Y-97341358D01*
X159867161Y-96384226D01*
X159349753Y-95867531D01*
X158832346Y-95350837D01*
X158832346Y-92235732D01*
X158354136Y-91465909D01*
X157875926Y-90696085D01*
X157389877Y-90695979D01*
X156903827Y-90695873D01*
X156841111Y-90795356D01*
X156752646Y-90891629D01*
X156627337Y-90952277D01*
X156485872Y-90964420D01*
X156341715Y-90927119D01*
X156208332Y-90839435D01*
X156160892Y-90788164D01*
X156093900Y-90659054D01*
X156077075Y-90519637D01*
X156077621Y-90517090D01*
X156371596Y-90517090D01*
X156384445Y-90595694D01*
X156418851Y-90643199D01*
X156488326Y-90673315D01*
X156570968Y-90642276D01*
X156584255Y-90632094D01*
X156631350Y-90562319D01*
X156627377Y-90490317D01*
X156578530Y-90433989D01*
X156491005Y-90411235D01*
X156473706Y-90412516D01*
X156405715Y-90448475D01*
X156371596Y-90517090D01*
X156077621Y-90517090D01*
X156106517Y-90382531D01*
X156178323Y-90260356D01*
X156288593Y-90165729D01*
X156433427Y-90111270D01*
X156491005Y-90112135D01*
X156549705Y-90113015D01*
X156679730Y-90154240D01*
G37*
G36*
X160643185Y-115448785D02*
G01*
X160746565Y-115569914D01*
X160749652Y-115575066D01*
X160799158Y-115716434D01*
X160793122Y-115865086D01*
X160734601Y-116006815D01*
X160626648Y-116127417D01*
X160531892Y-116203210D01*
X160519772Y-117575124D01*
X160518091Y-117783711D01*
X160516337Y-118109818D01*
X160516235Y-118377766D01*
X160517832Y-118590468D01*
X160521175Y-118750834D01*
X160526311Y-118861777D01*
X160533290Y-118926207D01*
X160542157Y-118947037D01*
X160577525Y-118956026D01*
X160645161Y-119010626D01*
X160709715Y-119099812D01*
X160761696Y-119206196D01*
X160791613Y-119312391D01*
X160789973Y-119401010D01*
X160731900Y-119553912D01*
X160642351Y-119672646D01*
X160521820Y-119740634D01*
X160365188Y-119762229D01*
X160308119Y-119758809D01*
X160157118Y-119712973D01*
X160037309Y-119621091D01*
X159958344Y-119492596D01*
X159931235Y-119344343D01*
X160228277Y-119344343D01*
X160254209Y-119398393D01*
X160297647Y-119446478D01*
X160373785Y-119475518D01*
X160448790Y-119447516D01*
X160465331Y-119431157D01*
X160495049Y-119356420D01*
X160476081Y-119278804D01*
X160412242Y-119221875D01*
X160369378Y-119205108D01*
X160320279Y-119208856D01*
X160270297Y-119258410D01*
X160242166Y-119296280D01*
X160228277Y-119344343D01*
X159931235Y-119344343D01*
X159929877Y-119336919D01*
X159930813Y-119314375D01*
X159963552Y-119187981D01*
X160032178Y-119069765D01*
X160121820Y-118986844D01*
X160212099Y-118933515D01*
X160212099Y-116188977D01*
X160132101Y-116136560D01*
X160054520Y-116066793D01*
X159984856Y-115933285D01*
X159968068Y-115810748D01*
X160251547Y-115810748D01*
X160291172Y-115865374D01*
X160354657Y-115897691D01*
X160369378Y-115897685D01*
X160424880Y-115897663D01*
X160484725Y-115855257D01*
X160509204Y-115817912D01*
X160525679Y-115779877D01*
X160517503Y-115757117D01*
X160484725Y-115704497D01*
X160473225Y-115691353D01*
X160404011Y-115660504D01*
X160324853Y-115672543D01*
X160262499Y-115725000D01*
X160252900Y-115743846D01*
X160251547Y-115810748D01*
X159968068Y-115810748D01*
X159961235Y-115760875D01*
X159976572Y-115641253D01*
X160036927Y-115513422D01*
X160132585Y-115420245D01*
X160252292Y-115364456D01*
X160384796Y-115348792D01*
X160404011Y-115352691D01*
X160518845Y-115375990D01*
X160643185Y-115448785D01*
G37*
G36*
X153971649Y-118950911D02*
G01*
X154087800Y-119018414D01*
X154165673Y-119119434D01*
X154201425Y-119197902D01*
X156355062Y-119197902D01*
X156355062Y-118351235D01*
X153658272Y-118351235D01*
X153658272Y-112382699D01*
X155132099Y-112382699D01*
X155138885Y-112425157D01*
X155183090Y-112481978D01*
X155251764Y-112502645D01*
X155325236Y-112484014D01*
X155383834Y-112422940D01*
X155386700Y-112416905D01*
X160241357Y-112416905D01*
X160281709Y-112476243D01*
X160350494Y-112504195D01*
X160433877Y-112486069D01*
X160469759Y-112452904D01*
X160494321Y-112382699D01*
X160493626Y-112365677D01*
X160464015Y-112283899D01*
X160403696Y-112242315D01*
X160330537Y-112246988D01*
X160262405Y-112303984D01*
X160243274Y-112340871D01*
X160241357Y-112416905D01*
X155386700Y-112416905D01*
X155408958Y-112370049D01*
X155402986Y-112334256D01*
X155356975Y-112288317D01*
X155291745Y-112247935D01*
X155213192Y-112245282D01*
X155154907Y-112292332D01*
X155132099Y-112382699D01*
X153658272Y-112382699D01*
X153658272Y-112236420D01*
X154846331Y-112236420D01*
X154899391Y-112146596D01*
X154970870Y-112058076D01*
X155100411Y-111980761D01*
X155213192Y-111962345D01*
X155262369Y-111954315D01*
X155310486Y-111956990D01*
X155449194Y-111993242D01*
X155565315Y-112063713D01*
X155639500Y-112157953D01*
X155675252Y-112236420D01*
X159951168Y-112236420D01*
X159986920Y-112157953D01*
X160056241Y-112067175D01*
X160170422Y-111997279D01*
X160308894Y-111960027D01*
X160403696Y-111959974D01*
X160454235Y-111959946D01*
X160589023Y-112001559D01*
X160648198Y-112040057D01*
X160722443Y-112129660D01*
X160778490Y-112265947D01*
X160789101Y-112310958D01*
X160784827Y-112452581D01*
X160731328Y-112585334D01*
X160638420Y-112696255D01*
X160515915Y-112772381D01*
X160373628Y-112800747D01*
X160354516Y-112800291D01*
X160214077Y-112770542D01*
X160088560Y-112702791D01*
X160001041Y-112608921D01*
X159947713Y-112518642D01*
X155678707Y-112518642D01*
X155625379Y-112608921D01*
X155536451Y-112709603D01*
X155412247Y-112773861D01*
X155271461Y-112794677D01*
X155128633Y-112772257D01*
X154998303Y-112706807D01*
X154895011Y-112598534D01*
X154882962Y-112580585D01*
X154860103Y-112554607D01*
X154827847Y-112537147D01*
X154775530Y-112526513D01*
X154692489Y-112521012D01*
X154568060Y-112518953D01*
X154391579Y-112518642D01*
X153940494Y-112518642D01*
X153940494Y-118069013D01*
X156637284Y-118069013D01*
X156637284Y-119480124D01*
X154201425Y-119480124D01*
X154165673Y-119558591D01*
X154148216Y-119590250D01*
X154056763Y-119680272D01*
X153926160Y-119740318D01*
X153772175Y-119762229D01*
X153726705Y-119761500D01*
X153644534Y-119749495D01*
X153577352Y-119713240D01*
X153497792Y-119640603D01*
X153461499Y-119603319D01*
X153405992Y-119532597D01*
X153381689Y-119462673D01*
X153376512Y-119366220D01*
X153376850Y-119342704D01*
X153665387Y-119342704D01*
X153683823Y-119421980D01*
X153738999Y-119469326D01*
X153813826Y-119475397D01*
X153891217Y-119430847D01*
X153925986Y-119386463D01*
X153933460Y-119318361D01*
X153880025Y-119246972D01*
X153865657Y-119235325D01*
X153786551Y-119208994D01*
X153714874Y-119235936D01*
X153670522Y-119310152D01*
X153665387Y-119342704D01*
X153376850Y-119342704D01*
X153376865Y-119341730D01*
X153397722Y-119192339D01*
X153456537Y-119079718D01*
X153561452Y-118987176D01*
X153562478Y-118986487D01*
X153692092Y-118931249D01*
X153786551Y-118924181D01*
X153834114Y-118920623D01*
X153971649Y-118950911D01*
G37*
G36*
X154940471Y-110915458D02*
G01*
X154964978Y-110888390D01*
X155038062Y-110821294D01*
X155111723Y-110787045D01*
X155213921Y-110770856D01*
X155230286Y-110769479D01*
X155245815Y-110770624D01*
X155398087Y-110781844D01*
X155532668Y-110843715D01*
X155628719Y-110952760D01*
X155680864Y-111044419D01*
X157814288Y-111044617D01*
X159947713Y-111044815D01*
X160003378Y-110950580D01*
X160080933Y-110858425D01*
X160200366Y-110790360D01*
X160336489Y-110765479D01*
X160388361Y-110771585D01*
X160475652Y-110781858D01*
X160604203Y-110837573D01*
X160708491Y-110930701D01*
X160774864Y-111059316D01*
X160786801Y-111115942D01*
X160780030Y-111272247D01*
X160721635Y-111424701D01*
X160721460Y-111425002D01*
X160628197Y-111528493D01*
X160503719Y-111590240D01*
X160363512Y-111610318D01*
X160223062Y-111588800D01*
X160097855Y-111525760D01*
X160003378Y-111421272D01*
X159947713Y-111327037D01*
X157814288Y-111327236D01*
X155680864Y-111327434D01*
X155628719Y-111419092D01*
X155621869Y-111430650D01*
X155522174Y-111535591D01*
X155384421Y-111593150D01*
X155213921Y-111600996D01*
X155180400Y-111597379D01*
X155089140Y-111577568D01*
X155018484Y-111535502D01*
X154940471Y-111456394D01*
X154825676Y-111327037D01*
X152937037Y-111327037D01*
X152937235Y-114564753D01*
X152937434Y-117802469D01*
X153032613Y-117856635D01*
X153119089Y-117930410D01*
X153184977Y-118050813D01*
X153210079Y-118192252D01*
X153191874Y-118338402D01*
X153127838Y-118472941D01*
X153119934Y-118483594D01*
X153012823Y-118575601D01*
X152878500Y-118623261D01*
X152733191Y-118626032D01*
X152593123Y-118583373D01*
X152474525Y-118494741D01*
X152468140Y-118487729D01*
X152407129Y-118408800D01*
X152379245Y-118331202D01*
X152372593Y-118223262D01*
X152375149Y-118200835D01*
X152655935Y-118200835D01*
X152676092Y-118273543D01*
X152736894Y-118327261D01*
X152778581Y-118343700D01*
X152828211Y-118340739D01*
X152878005Y-118291757D01*
X152919157Y-118234380D01*
X152937037Y-118195831D01*
X152932296Y-118179594D01*
X152891700Y-118131923D01*
X152830944Y-118088181D01*
X152776210Y-118069013D01*
X152725148Y-118079928D01*
X152673321Y-118129507D01*
X152655935Y-118200835D01*
X152375149Y-118200835D01*
X152389888Y-118071548D01*
X152453449Y-117934834D01*
X152564991Y-117836305D01*
X152654815Y-117783245D01*
X152654815Y-111217682D01*
X155130623Y-111217682D01*
X155169728Y-111289408D01*
X155206717Y-111315399D01*
X155285429Y-111320510D01*
X155362424Y-111269692D01*
X155403210Y-111213751D01*
X155404528Y-111173048D01*
X160235288Y-111173048D01*
X160255458Y-111247188D01*
X160297607Y-111293679D01*
X160373715Y-111322397D01*
X160448790Y-111294429D01*
X160484666Y-111237950D01*
X160490514Y-111153985D01*
X160456691Y-111082445D01*
X160388361Y-111048009D01*
X160317830Y-111060285D01*
X160261443Y-111106356D01*
X160235288Y-111173048D01*
X155404528Y-111173048D01*
X155405086Y-111155816D01*
X155351478Y-111091737D01*
X155318989Y-111069152D01*
X155245815Y-111057646D01*
X155181484Y-111087860D01*
X155138814Y-111145852D01*
X155130623Y-111217682D01*
X152654815Y-111217682D01*
X152654815Y-111044815D01*
X154825676Y-111044815D01*
X154940471Y-110915458D01*
G37*
G36*
X160660736Y-106224788D02*
G01*
X160748032Y-106351030D01*
X160752614Y-106361235D01*
X160791557Y-106518381D01*
X160774353Y-106668812D01*
X160704602Y-106800325D01*
X160585903Y-106900719D01*
X160494718Y-106952593D01*
X160494519Y-107305371D01*
X160494321Y-107658148D01*
X160651111Y-107658148D01*
X160651111Y-109131976D01*
X160086667Y-109131976D01*
X160086667Y-108395062D01*
X160086669Y-108355042D01*
X160086937Y-108130789D01*
X160088098Y-107960638D01*
X160090788Y-107837130D01*
X160095641Y-107752805D01*
X160103292Y-107700204D01*
X160114376Y-107671867D01*
X160129528Y-107660335D01*
X160149383Y-107658148D01*
X160163574Y-107657480D01*
X160186073Y-107647852D01*
X160200289Y-107618260D01*
X160208108Y-107558017D01*
X160211415Y-107456436D01*
X160212099Y-107302830D01*
X160211926Y-107204887D01*
X160209891Y-107082299D01*
X160203714Y-107003300D01*
X160191132Y-106955877D01*
X160169882Y-106928014D01*
X160137703Y-106907696D01*
X160076594Y-106857647D01*
X160005039Y-106760641D01*
X159951156Y-106648633D01*
X159937623Y-106584312D01*
X160241357Y-106584312D01*
X160281709Y-106643651D01*
X160350494Y-106671603D01*
X160433877Y-106653476D01*
X160469759Y-106620311D01*
X160494321Y-106550107D01*
X160493626Y-106533085D01*
X160464015Y-106451307D01*
X160403696Y-106409722D01*
X160330537Y-106414396D01*
X160262405Y-106471392D01*
X160243274Y-106508279D01*
X160241357Y-106584312D01*
X159937623Y-106584312D01*
X159929877Y-106547501D01*
X159933198Y-106492965D01*
X159979707Y-106345222D01*
X160073357Y-106227627D01*
X160204280Y-106149890D01*
X160362607Y-106121722D01*
X160375763Y-106121832D01*
X160403696Y-106126509D01*
X160537535Y-106148917D01*
X160660736Y-106224788D01*
G37*
G36*
X160466841Y-101627266D02*
G01*
X160567754Y-101672404D01*
X160667228Y-101752405D01*
X160746091Y-101848519D01*
X160785169Y-101942000D01*
X160791053Y-102010283D01*
X160787362Y-102071145D01*
X160782281Y-102097570D01*
X160776543Y-102170653D01*
X160752556Y-102246180D01*
X160686055Y-102332059D01*
X160593646Y-102407967D01*
X160492010Y-102457114D01*
X160459422Y-102465583D01*
X160300872Y-102470695D01*
X160154485Y-102417722D01*
X160032227Y-102310478D01*
X159945556Y-102201854D01*
X158424691Y-102203061D01*
X156903827Y-102204268D01*
X156841111Y-102303751D01*
X156752757Y-102399819D01*
X156627458Y-102460513D01*
X156486146Y-102472913D01*
X156342534Y-102436039D01*
X156210335Y-102348907D01*
X156167950Y-102304560D01*
X156094633Y-102177929D01*
X156072337Y-102045056D01*
X156075735Y-102025485D01*
X156371596Y-102025485D01*
X156384445Y-102104089D01*
X156418851Y-102151594D01*
X156488326Y-102181710D01*
X156570968Y-102150671D01*
X156584255Y-102140489D01*
X156631350Y-102070714D01*
X156628772Y-102023992D01*
X160226599Y-102023992D01*
X160242698Y-102106360D01*
X160275499Y-102151595D01*
X160345082Y-102181667D01*
X160428005Y-102150671D01*
X160467035Y-102113110D01*
X160491551Y-102041651D01*
X160470664Y-101975773D01*
X160412634Y-101933171D01*
X160325718Y-101931537D01*
X160266439Y-101959260D01*
X160226599Y-102023992D01*
X156628772Y-102023992D01*
X156627377Y-101998712D01*
X156578530Y-101942384D01*
X156491005Y-101919630D01*
X156473706Y-101920911D01*
X156405715Y-101956870D01*
X156371596Y-102025485D01*
X156075735Y-102025485D01*
X156094828Y-101915542D01*
X156155876Y-101798992D01*
X156249248Y-101705009D01*
X156368713Y-101643194D01*
X156491005Y-101625602D01*
X156508037Y-101623152D01*
X156660990Y-101654485D01*
X156767766Y-101710429D01*
X156863228Y-101813746D01*
X156925701Y-101919630D01*
X158443468Y-101919630D01*
X158666532Y-101919385D01*
X158984649Y-101918071D01*
X159265428Y-101915694D01*
X159504640Y-101912334D01*
X159698056Y-101908071D01*
X159841447Y-101902987D01*
X159930583Y-101897163D01*
X159961235Y-101890678D01*
X159962799Y-101883149D01*
X159990519Y-101833602D01*
X160041919Y-101765838D01*
X160050678Y-101755858D01*
X160167403Y-101669846D01*
X160312467Y-101624053D01*
X160325718Y-101624252D01*
X160462310Y-101626302D01*
X160466841Y-101627266D01*
G37*
G36*
X160589023Y-100493164D02*
G01*
X160648198Y-100531662D01*
X160722443Y-100621264D01*
X160778490Y-100757552D01*
X160789101Y-100802563D01*
X160784827Y-100944186D01*
X160731328Y-101076939D01*
X160638420Y-101187860D01*
X160515915Y-101263986D01*
X160373628Y-101292352D01*
X160354516Y-101291896D01*
X160214077Y-101262147D01*
X160088560Y-101194396D01*
X160001041Y-101100526D01*
X159947713Y-101010247D01*
X156926719Y-101010247D01*
X156874372Y-101090139D01*
X156872506Y-101092963D01*
X156765928Y-101203631D01*
X156633895Y-101268093D01*
X156490353Y-101286705D01*
X156349249Y-101259827D01*
X156224529Y-101187815D01*
X156130139Y-101071030D01*
X156082904Y-100941142D01*
X156080583Y-100855697D01*
X156355062Y-100855697D01*
X156371806Y-100892196D01*
X156417778Y-100947531D01*
X156476317Y-100996340D01*
X156529755Y-101003786D01*
X156588007Y-100960970D01*
X156619293Y-100908510D01*
X160241357Y-100908510D01*
X160281709Y-100967848D01*
X160350494Y-100995800D01*
X160433877Y-100977673D01*
X160469759Y-100944509D01*
X160494321Y-100874304D01*
X160493626Y-100857282D01*
X160464015Y-100775504D01*
X160403696Y-100733920D01*
X160330537Y-100738593D01*
X160262405Y-100795589D01*
X160243274Y-100832476D01*
X160241357Y-100908510D01*
X156619293Y-100908510D01*
X156629261Y-100891796D01*
X156628336Y-100813850D01*
X156585611Y-100752741D01*
X156507820Y-100728025D01*
X156502624Y-100728228D01*
X156438528Y-100752823D01*
X156380399Y-100802786D01*
X156355062Y-100855697D01*
X156080583Y-100855697D01*
X156078866Y-100792522D01*
X156123699Y-100657540D01*
X156211034Y-100547334D01*
X156334499Y-100473042D01*
X156487724Y-100445803D01*
X156507820Y-100448068D01*
X156630850Y-100461928D01*
X156769852Y-100525667D01*
X156869992Y-100638201D01*
X156923052Y-100728025D01*
X159951168Y-100728025D01*
X159986920Y-100649558D01*
X160056241Y-100558780D01*
X160170422Y-100488884D01*
X160308894Y-100451632D01*
X160403696Y-100451579D01*
X160454235Y-100451551D01*
X160589023Y-100493164D01*
G37*
G36*
X161278272Y-97359194D02*
G01*
X161368062Y-97412235D01*
X161370409Y-97413646D01*
X161447544Y-97481192D01*
X161508459Y-97567946D01*
X161548887Y-97687283D01*
X161551126Y-97838097D01*
X161503083Y-97974552D01*
X161411551Y-98085662D01*
X161283320Y-98160443D01*
X161125183Y-98187908D01*
X161017446Y-98176082D01*
X160880359Y-98118269D01*
X160778147Y-98022257D01*
X160715676Y-97899175D01*
X160698703Y-97767124D01*
X160996049Y-97767124D01*
X161011080Y-97830474D01*
X161064989Y-97887809D01*
X161139747Y-97900553D01*
X161181126Y-97880511D01*
X161234913Y-97825953D01*
X161247779Y-97805134D01*
X161260131Y-97752928D01*
X161229042Y-97692682D01*
X161220241Y-97681034D01*
X161149643Y-97631198D01*
X161076529Y-97632837D01*
X161019223Y-97680097D01*
X160996049Y-97767124D01*
X160698703Y-97767124D01*
X160697806Y-97760153D01*
X160729403Y-97616319D01*
X160815328Y-97478802D01*
X160842160Y-97450107D01*
X160906326Y-97394715D01*
X160952261Y-97372716D01*
X160958861Y-97371517D01*
X160974249Y-97352244D01*
X160984912Y-97303069D01*
X160991600Y-97215795D01*
X160995062Y-97082225D01*
X160996049Y-96894161D01*
X160996049Y-96415605D01*
X160462963Y-95883210D01*
X159929877Y-95350816D01*
X159929877Y-92636599D01*
X159788765Y-92501391D01*
X159718251Y-92430669D01*
X159671600Y-92367346D01*
X159651827Y-92302049D01*
X159648616Y-92230629D01*
X159937603Y-92230629D01*
X159977821Y-92284281D01*
X160041611Y-92315975D01*
X160111782Y-92315843D01*
X160171144Y-92274022D01*
X160202057Y-92221343D01*
X160202870Y-92155585D01*
X160147547Y-92087228D01*
X160087908Y-92053232D01*
X160017058Y-92068297D01*
X159947812Y-92145861D01*
X159938148Y-92164881D01*
X159937603Y-92230629D01*
X159648616Y-92230629D01*
X159647772Y-92211857D01*
X159657888Y-92104688D01*
X159713947Y-91955779D01*
X159811175Y-91845316D01*
X159940531Y-91779317D01*
X160087908Y-91764314D01*
X160092972Y-91763799D01*
X160259456Y-91804780D01*
X160310681Y-91831175D01*
X160411460Y-91925656D01*
X160471469Y-92049309D01*
X160490116Y-92188411D01*
X160466813Y-92329236D01*
X160400968Y-92458061D01*
X160291991Y-92561162D01*
X160212099Y-92613510D01*
X160212099Y-95230915D01*
X160745185Y-95740269D01*
X161149643Y-96126721D01*
X161278272Y-96249623D01*
X161278272Y-97359194D01*
G37*
G36*
X162471435Y-98308629D02*
G01*
X162593287Y-98390158D01*
X162676761Y-98517284D01*
X162714480Y-98669967D01*
X162694932Y-98821446D01*
X162620121Y-98957164D01*
X162493682Y-99066219D01*
X162479252Y-99074600D01*
X162336307Y-99120676D01*
X162187621Y-99111958D01*
X162048428Y-99051786D01*
X161933963Y-98943500D01*
X161922409Y-98928205D01*
X161870631Y-98875325D01*
X161808543Y-98851861D01*
X161710131Y-98846544D01*
X161662605Y-98847359D01*
X161582233Y-98859532D01*
X161517398Y-98896135D01*
X161440930Y-98969590D01*
X161426010Y-98984953D01*
X161306325Y-99080651D01*
X161184250Y-99122143D01*
X161043803Y-99115290D01*
X160972408Y-99094872D01*
X160843966Y-99015279D01*
X160750326Y-98896714D01*
X160700306Y-98752594D01*
X160700954Y-98710601D01*
X160996049Y-98710601D01*
X160997331Y-98727899D01*
X161033290Y-98795891D01*
X161101904Y-98830009D01*
X161180508Y-98817160D01*
X161228013Y-98782754D01*
X161258130Y-98713280D01*
X161250809Y-98693785D01*
X162156296Y-98693785D01*
X162156499Y-98698981D01*
X162181094Y-98763077D01*
X162231057Y-98821206D01*
X162283968Y-98846544D01*
X162320467Y-98829800D01*
X162375803Y-98783827D01*
X162424611Y-98725288D01*
X162432057Y-98671851D01*
X162389242Y-98613598D01*
X162320068Y-98572344D01*
X162242121Y-98573270D01*
X162181012Y-98615994D01*
X162156296Y-98693785D01*
X161250809Y-98693785D01*
X161227091Y-98630637D01*
X161216909Y-98617351D01*
X161147134Y-98570255D01*
X161075132Y-98574229D01*
X161018803Y-98623076D01*
X160996049Y-98710601D01*
X160700954Y-98710601D01*
X160702721Y-98596332D01*
X160738133Y-98508127D01*
X160816869Y-98403778D01*
X160916738Y-98318625D01*
X161017896Y-98273026D01*
X161077897Y-98265882D01*
X161147134Y-98273136D01*
X161217728Y-98280532D01*
X161349022Y-98331085D01*
X161454036Y-98409208D01*
X161515031Y-98506565D01*
X161516866Y-98511867D01*
X161542896Y-98544250D01*
X161599640Y-98560114D01*
X161702913Y-98564321D01*
X161777864Y-98563101D01*
X161846803Y-98552684D01*
X161888131Y-98523857D01*
X161922532Y-98467499D01*
X161981282Y-98390205D01*
X162096007Y-98313281D01*
X162234272Y-98273329D01*
X162320068Y-98276561D01*
X162376084Y-98278671D01*
X162471435Y-98308629D01*
G37*
G36*
X161865131Y-102863269D02*
G01*
X161967081Y-102947517D01*
X162036551Y-103066440D01*
X162062222Y-103217666D01*
X162046188Y-103362357D01*
X161983539Y-103502867D01*
X161874235Y-103602178D01*
X161855326Y-103613723D01*
X161806218Y-103655618D01*
X161784739Y-103712410D01*
X161780000Y-103807872D01*
X161780000Y-103957902D01*
X163661482Y-103957902D01*
X163661482Y-106435185D01*
X161435062Y-106435185D01*
X161435062Y-107046667D01*
X161435087Y-107133939D01*
X161435657Y-107322116D01*
X161437623Y-107458890D01*
X161441825Y-107552446D01*
X161449103Y-107610966D01*
X161460294Y-107642634D01*
X161476240Y-107655634D01*
X161497778Y-107658148D01*
X161501184Y-107658176D01*
X161520269Y-107661320D01*
X161534750Y-107674965D01*
X161545261Y-107706570D01*
X161552438Y-107763593D01*
X161556915Y-107853494D01*
X161559326Y-107983733D01*
X161560308Y-108161769D01*
X161560494Y-108395062D01*
X161560494Y-109131976D01*
X161027407Y-109131976D01*
X161027407Y-108395062D01*
X161027410Y-108355042D01*
X161027677Y-108130789D01*
X161028839Y-107960638D01*
X161031528Y-107837130D01*
X161036381Y-107752805D01*
X161044033Y-107700204D01*
X161055117Y-107671867D01*
X161070269Y-107660335D01*
X161090123Y-107658148D01*
X161095428Y-107658074D01*
X161113908Y-107654335D01*
X161127928Y-107639552D01*
X161138103Y-107606343D01*
X161145048Y-107547327D01*
X161149380Y-107455122D01*
X161151712Y-107322346D01*
X161152660Y-107141618D01*
X161152840Y-106905556D01*
X161152840Y-106152963D01*
X163379259Y-106152963D01*
X163379259Y-104240124D01*
X161497778Y-104240124D01*
X161497778Y-103945829D01*
X161497777Y-103940163D01*
X161496716Y-103803736D01*
X161491437Y-103715482D01*
X161478698Y-103661344D01*
X161455261Y-103627265D01*
X161417886Y-103599187D01*
X161404034Y-103589713D01*
X161296518Y-103479083D01*
X161233915Y-103341336D01*
X161225243Y-103242687D01*
X161513251Y-103242687D01*
X161539488Y-103310111D01*
X161597456Y-103354006D01*
X161670601Y-103362687D01*
X161742370Y-103324469D01*
X161759079Y-103302510D01*
X161780000Y-103236667D01*
X161774514Y-103201238D01*
X161730283Y-103141591D01*
X161659908Y-103113477D01*
X161585492Y-103122422D01*
X161529136Y-103173951D01*
X161513251Y-103242687D01*
X161225243Y-103242687D01*
X161220855Y-103192781D01*
X161261966Y-103049730D01*
X161264283Y-103045301D01*
X161358874Y-102920542D01*
X161477572Y-102842334D01*
X161609059Y-102808303D01*
X161659908Y-102811275D01*
X161742018Y-102816073D01*
X161865131Y-102863269D01*
G37*
G36*
X161625500Y-115395015D02*
G01*
X161737616Y-115474943D01*
X161820678Y-115583641D01*
X161866405Y-115711858D01*
X161866518Y-115850341D01*
X161812738Y-115989840D01*
X161809704Y-115994725D01*
X161743864Y-116078415D01*
X161671744Y-116142397D01*
X161591852Y-116194744D01*
X161591852Y-117441852D01*
X163863337Y-117441852D01*
X164028952Y-117278294D01*
X164194568Y-117114735D01*
X164194568Y-113665182D01*
X164031009Y-113499567D01*
X163867451Y-113333951D01*
X163346846Y-113333951D01*
X163211638Y-113475062D01*
X163140459Y-113546014D01*
X163077359Y-113592368D01*
X163012205Y-113611894D01*
X162922104Y-113615711D01*
X162893639Y-113615253D01*
X162745182Y-113594018D01*
X162633344Y-113535236D01*
X162541373Y-113430770D01*
X162491332Y-113326418D01*
X162475299Y-113205672D01*
X162763191Y-113205672D01*
X162790134Y-113277349D01*
X162864349Y-113321701D01*
X162921334Y-113325561D01*
X162987691Y-113302255D01*
X163020874Y-113259827D01*
X163029322Y-113179541D01*
X162985044Y-113101006D01*
X162940661Y-113066236D01*
X162872559Y-113058762D01*
X162801170Y-113112198D01*
X162789522Y-113126566D01*
X162763191Y-113205672D01*
X162475299Y-113205672D01*
X162471828Y-113179532D01*
X162500398Y-113035062D01*
X162573211Y-112909182D01*
X162686439Y-112818066D01*
X162794478Y-112781493D01*
X162872559Y-112778855D01*
X162938131Y-112776640D01*
X163076769Y-112811707D01*
X163192919Y-112881780D01*
X163269103Y-112981943D01*
X163275747Y-112995918D01*
X163295735Y-113021923D01*
X163330694Y-113038289D01*
X163392558Y-113047234D01*
X163493263Y-113050974D01*
X163644744Y-113051729D01*
X163989431Y-113051729D01*
X164248789Y-113309740D01*
X164508148Y-113567751D01*
X164508148Y-117236637D01*
X164265859Y-117480356D01*
X164023570Y-117724074D01*
X161309630Y-117724074D01*
X161309630Y-116201053D01*
X161215395Y-116145387D01*
X161158359Y-116103612D01*
X161073652Y-115991920D01*
X161031628Y-115857430D01*
X161031387Y-115766259D01*
X161313336Y-115766259D01*
X161328672Y-115834753D01*
X161339892Y-115849994D01*
X161408374Y-115893547D01*
X161487625Y-115896123D01*
X161550897Y-115855257D01*
X161575377Y-115817912D01*
X161591852Y-115779877D01*
X161583676Y-115757117D01*
X161550897Y-115704497D01*
X161536752Y-115688317D01*
X161472423Y-115658328D01*
X161402331Y-115668012D01*
X161343595Y-115707333D01*
X161313336Y-115766259D01*
X161031387Y-115766259D01*
X161031250Y-115714714D01*
X161071481Y-115578346D01*
X161151286Y-115462898D01*
X161269627Y-115382942D01*
X161347220Y-115358479D01*
X161472423Y-115353855D01*
X161492608Y-115353110D01*
X161625500Y-115395015D01*
G37*
G36*
X164028952Y-106961504D02*
G01*
X164194568Y-106797945D01*
X164194568Y-103348392D01*
X164031009Y-103182776D01*
X163867451Y-103017161D01*
X163340743Y-103017161D01*
X163226730Y-103145585D01*
X163224113Y-103148526D01*
X163142934Y-103228505D01*
X163066685Y-103270688D01*
X162968205Y-103290274D01*
X162857170Y-103292645D01*
X162704931Y-103254246D01*
X162588717Y-103168541D01*
X162514563Y-103040738D01*
X162491925Y-102897671D01*
X162771374Y-102897671D01*
X162810297Y-102956652D01*
X162842610Y-102992769D01*
X162888335Y-103013428D01*
X162952242Y-102993187D01*
X163006732Y-102955417D01*
X163034321Y-102880562D01*
X163032624Y-102854225D01*
X162999330Y-102777421D01*
X162936785Y-102742444D01*
X162862556Y-102753969D01*
X162794209Y-102816669D01*
X162774363Y-102850892D01*
X162771374Y-102897671D01*
X162491925Y-102897671D01*
X162488503Y-102876050D01*
X162490441Y-102826288D01*
X162529249Y-102668672D01*
X162614941Y-102551284D01*
X162743641Y-102478005D01*
X162911470Y-102452716D01*
X162936785Y-102453959D01*
X162951553Y-102454683D01*
X163088682Y-102489834D01*
X163204536Y-102560544D01*
X163279129Y-102655773D01*
X163291641Y-102681249D01*
X163313030Y-102707052D01*
X163349430Y-102722895D01*
X163412767Y-102731205D01*
X163514966Y-102734410D01*
X163667955Y-102734939D01*
X164020711Y-102734939D01*
X164264430Y-102977228D01*
X164508148Y-103219517D01*
X164508148Y-106919847D01*
X164265859Y-107163566D01*
X164023570Y-107407284D01*
X162438519Y-107407284D01*
X162438519Y-107541634D01*
X162443915Y-107626793D01*
X162469863Y-107684480D01*
X162528797Y-107729313D01*
X162532542Y-107731558D01*
X162636870Y-107829187D01*
X162698622Y-107960852D01*
X162713575Y-108111324D01*
X162677504Y-108265372D01*
X162673009Y-108275820D01*
X162587323Y-108403284D01*
X162465608Y-108479493D01*
X162307300Y-108504815D01*
X162225078Y-108500582D01*
X162070897Y-108459448D01*
X161961276Y-108374209D01*
X161895806Y-108244453D01*
X161879186Y-108110851D01*
X162158649Y-108110851D01*
X162193926Y-108184963D01*
X162229035Y-108209586D01*
X162310378Y-108217716D01*
X162389242Y-108173316D01*
X162429362Y-108121797D01*
X162428411Y-108068873D01*
X162375803Y-108003087D01*
X162317263Y-107954278D01*
X162263826Y-107946832D01*
X162205573Y-107989648D01*
X162176572Y-108027954D01*
X162158649Y-108110851D01*
X161879186Y-108110851D01*
X161874074Y-108069766D01*
X161876813Y-107999601D01*
X161899690Y-107902502D01*
X161953846Y-107819021D01*
X161966062Y-107805067D01*
X162035036Y-107740914D01*
X162094958Y-107704748D01*
X162113453Y-107697088D01*
X162136130Y-107673325D01*
X162149081Y-107625287D01*
X162154930Y-107540171D01*
X162156296Y-107405171D01*
X162156296Y-107125062D01*
X163863337Y-107125062D01*
X164028952Y-106961504D01*
G37*
G36*
X164028952Y-96644713D02*
G01*
X164194568Y-96481155D01*
X164194568Y-92655306D01*
X164031009Y-92489690D01*
X163867451Y-92324074D01*
X163598607Y-92324074D01*
X163468312Y-92324941D01*
X163385732Y-92330444D01*
X163335878Y-92344936D01*
X163303763Y-92372773D01*
X163274400Y-92418309D01*
X163221932Y-92487018D01*
X163107267Y-92567335D01*
X162971785Y-92604559D01*
X162829723Y-92599987D01*
X162695321Y-92554913D01*
X162582815Y-92470632D01*
X162506445Y-92348441D01*
X162505414Y-92345707D01*
X162478124Y-92189749D01*
X162789417Y-92189749D01*
X162792054Y-92206139D01*
X162829303Y-92283649D01*
X162891923Y-92320187D01*
X162963765Y-92305072D01*
X162993839Y-92278853D01*
X163026754Y-92206286D01*
X163020329Y-92129540D01*
X162973484Y-92074216D01*
X162940317Y-92060861D01*
X162861056Y-92063410D01*
X162804776Y-92110127D01*
X162789417Y-92189749D01*
X162478124Y-92189749D01*
X162478043Y-92189288D01*
X162512044Y-92037127D01*
X162606121Y-91895123D01*
X162720475Y-91806539D01*
X162860338Y-91763685D01*
X162940317Y-91769224D01*
X163005386Y-91773730D01*
X163142651Y-91835619D01*
X163259168Y-91948296D01*
X163280146Y-91976060D01*
X163311383Y-92008163D01*
X163351388Y-92027637D01*
X163413649Y-92037639D01*
X163511652Y-92041325D01*
X163658884Y-92041852D01*
X163989431Y-92041852D01*
X164248789Y-92299864D01*
X164508148Y-92557875D01*
X164508148Y-96571777D01*
X164250137Y-96831135D01*
X163992125Y-97090494D01*
X162438519Y-97090494D01*
X162438717Y-97223766D01*
X162443896Y-97306208D01*
X162469229Y-97363922D01*
X162526930Y-97407091D01*
X162558848Y-97429357D01*
X162639184Y-97522648D01*
X162697950Y-97642538D01*
X162720741Y-97762598D01*
X162716511Y-97825704D01*
X162668101Y-97972508D01*
X162572138Y-98086946D01*
X162436784Y-98161314D01*
X162270200Y-98187908D01*
X162224730Y-98187179D01*
X162142559Y-98175174D01*
X162075377Y-98138919D01*
X161995817Y-98066282D01*
X161945276Y-98013720D01*
X161897999Y-97947823D01*
X161878125Y-97875817D01*
X161874236Y-97773717D01*
X162158155Y-97773717D01*
X162175676Y-97843047D01*
X162224498Y-97891658D01*
X162299994Y-97900553D01*
X162342605Y-97879415D01*
X162396409Y-97824072D01*
X162416254Y-97789850D01*
X162419243Y-97743071D01*
X162380320Y-97684089D01*
X162348007Y-97647972D01*
X162302282Y-97627314D01*
X162238375Y-97647554D01*
X162235524Y-97648888D01*
X162176562Y-97702665D01*
X162158155Y-97773717D01*
X161874236Y-97773717D01*
X161874074Y-97769472D01*
X161874411Y-97732632D01*
X161883616Y-97633493D01*
X161912707Y-97559982D01*
X161971397Y-97483561D01*
X162002487Y-97450438D01*
X162067062Y-97394733D01*
X162112508Y-97372716D01*
X162132518Y-97361587D01*
X162146745Y-97317447D01*
X162154163Y-97230358D01*
X162156296Y-97090494D01*
X162156296Y-96808272D01*
X163863337Y-96808272D01*
X164028952Y-96644713D01*
G37*
G36*
X161580493Y-117903461D02*
G01*
X161706830Y-117965968D01*
X161802909Y-118072808D01*
X161856238Y-118163087D01*
X163174354Y-118162616D01*
X164492469Y-118162146D01*
X164718983Y-117888234D01*
X164945497Y-117614321D01*
X164946329Y-115066482D01*
X164947161Y-112518642D01*
X161856238Y-112518642D01*
X161802909Y-112608921D01*
X161744444Y-112683584D01*
X161627003Y-112761560D01*
X161488706Y-112794991D01*
X161343974Y-112783555D01*
X161207229Y-112726930D01*
X161092892Y-112624793D01*
X161046448Y-112526096D01*
X161027261Y-112394617D01*
X161028179Y-112382699D01*
X161309630Y-112382699D01*
X161316416Y-112425157D01*
X161360621Y-112481978D01*
X161429295Y-112502645D01*
X161502767Y-112484014D01*
X161561365Y-112422940D01*
X161586489Y-112370049D01*
X161580517Y-112334256D01*
X161534506Y-112288317D01*
X161469276Y-112247935D01*
X161390723Y-112245282D01*
X161332438Y-112292332D01*
X161309630Y-112382699D01*
X161028179Y-112382699D01*
X161037754Y-112258443D01*
X161078695Y-112143595D01*
X161111916Y-112097100D01*
X161218004Y-112012385D01*
X161348776Y-111966004D01*
X161390723Y-111963511D01*
X161489149Y-111957663D01*
X161624039Y-111987070D01*
X161738361Y-112053931D01*
X161817031Y-112157953D01*
X161852783Y-112236420D01*
X165229383Y-112236420D01*
X165229383Y-117741048D01*
X164649259Y-118444202D01*
X163251021Y-118444756D01*
X161852783Y-118445309D01*
X161817031Y-118523776D01*
X161789669Y-118571449D01*
X161694368Y-118660080D01*
X161569677Y-118711429D01*
X161430681Y-118725203D01*
X161292462Y-118701107D01*
X161170105Y-118638848D01*
X161078695Y-118538134D01*
X161038448Y-118426748D01*
X161029233Y-118315845D01*
X161309630Y-118315845D01*
X161331621Y-118391738D01*
X161389916Y-118435240D01*
X161465664Y-118435956D01*
X161539955Y-118387963D01*
X161573041Y-118346540D01*
X161591852Y-118309568D01*
X161578982Y-118282185D01*
X161533922Y-118231042D01*
X161478770Y-118183831D01*
X161437302Y-118163087D01*
X161432959Y-118163330D01*
X161379389Y-118192757D01*
X161330806Y-118252537D01*
X161309630Y-118315845D01*
X161029233Y-118315845D01*
X161027152Y-118290806D01*
X161045555Y-118158862D01*
X161092892Y-118056936D01*
X161164150Y-117985173D01*
X161294731Y-117912741D01*
X161437302Y-117885804D01*
X161438319Y-117885612D01*
X161580493Y-117903461D01*
G37*
G36*
X163701932Y-107702236D02*
G01*
X163818711Y-107771742D01*
X163896263Y-107872275D01*
X163910237Y-107897559D01*
X163938091Y-107920649D01*
X163988440Y-107933543D01*
X164074687Y-107939148D01*
X164210232Y-107940371D01*
X164493246Y-107940371D01*
X165040388Y-107297531D01*
X165040811Y-104749692D01*
X165041235Y-102201852D01*
X162077901Y-102201854D01*
X161991230Y-102310478D01*
X161876474Y-102411814D01*
X161736539Y-102466346D01*
X161588768Y-102470139D01*
X161447634Y-102422891D01*
X161327610Y-102324301D01*
X161266775Y-102239025D01*
X161222466Y-102112060D01*
X161226394Y-102025485D01*
X161514312Y-102025485D01*
X161527161Y-102104089D01*
X161561567Y-102151594D01*
X161631042Y-102181710D01*
X161713684Y-102150671D01*
X161726971Y-102140489D01*
X161774066Y-102070714D01*
X161770093Y-101998712D01*
X161721246Y-101942384D01*
X161633721Y-101919630D01*
X161616422Y-101920911D01*
X161548431Y-101956870D01*
X161514312Y-102025485D01*
X161226394Y-102025485D01*
X161229031Y-101967384D01*
X161243131Y-101912414D01*
X161312109Y-101785096D01*
X161415854Y-101692671D01*
X161541837Y-101637318D01*
X161633721Y-101626414D01*
X161677531Y-101621216D01*
X161810407Y-101646545D01*
X161927937Y-101715484D01*
X162017593Y-101830213D01*
X162063833Y-101919630D01*
X165323457Y-101919630D01*
X165323457Y-107426757D01*
X164986358Y-107823790D01*
X164649259Y-108220824D01*
X164298254Y-108221708D01*
X163947249Y-108222593D01*
X163894189Y-108312417D01*
X163815149Y-108408110D01*
X163683279Y-108480703D01*
X163511922Y-108504815D01*
X163377639Y-108484243D01*
X163254698Y-108418281D01*
X163165210Y-108318194D01*
X163112015Y-108195630D01*
X163103522Y-108115063D01*
X163385720Y-108115063D01*
X163428536Y-108173316D01*
X163466843Y-108202317D01*
X163549739Y-108220241D01*
X163623852Y-108184963D01*
X163648475Y-108149854D01*
X163656604Y-108068512D01*
X163612205Y-107989648D01*
X163560686Y-107949528D01*
X163507761Y-107950478D01*
X163441975Y-108003087D01*
X163393167Y-108061626D01*
X163385720Y-108115063D01*
X163103522Y-108115063D01*
X163097953Y-108062237D01*
X163125864Y-107929660D01*
X163198588Y-107809547D01*
X163318966Y-107713544D01*
X163421816Y-107675857D01*
X163560686Y-107668797D01*
X163563706Y-107668644D01*
X163701932Y-107702236D01*
G37*
G36*
X163625052Y-97355939D02*
G01*
X163710679Y-97374672D01*
X163777060Y-97415810D01*
X163852392Y-97493415D01*
X163967904Y-97623581D01*
X164230187Y-97622730D01*
X164492469Y-97621880D01*
X164765787Y-97301310D01*
X165039106Y-96980741D01*
X165040170Y-94833018D01*
X165041235Y-92685295D01*
X164453581Y-92097030D01*
X163865928Y-91508766D01*
X162283339Y-91508766D01*
X162236878Y-91598611D01*
X162201672Y-91651041D01*
X162096952Y-91733523D01*
X161962229Y-91778762D01*
X161813942Y-91782640D01*
X161668533Y-91741036D01*
X161597230Y-91688640D01*
X161517178Y-91588923D01*
X161458164Y-91472875D01*
X161435750Y-91365594D01*
X161437539Y-91356020D01*
X161749268Y-91356020D01*
X161766642Y-91428912D01*
X161826108Y-91482690D01*
X161896611Y-91501991D01*
X161951541Y-91478178D01*
X161964506Y-91465815D01*
X161997726Y-91393719D01*
X161989269Y-91315326D01*
X161945822Y-91252360D01*
X161874074Y-91226544D01*
X161825195Y-91236227D01*
X161770086Y-91284847D01*
X161749268Y-91356020D01*
X161437539Y-91356020D01*
X161452479Y-91276072D01*
X161503299Y-91161343D01*
X161574121Y-91058816D01*
X161650546Y-90993438D01*
X161714632Y-90966561D01*
X161865570Y-90942729D01*
X161874074Y-90944004D01*
X162014639Y-90965065D01*
X162144943Y-91029586D01*
X162239585Y-91132309D01*
X162295250Y-91226544D01*
X164021552Y-91226544D01*
X164672504Y-91876943D01*
X165323457Y-92527341D01*
X165323179Y-97106173D01*
X164986219Y-97504078D01*
X164649259Y-97901982D01*
X164311633Y-97903893D01*
X163974007Y-97905803D01*
X163838798Y-98046914D01*
X163768076Y-98117428D01*
X163704753Y-98164080D01*
X163639456Y-98183853D01*
X163549264Y-98187908D01*
X163442095Y-98177791D01*
X163293186Y-98121733D01*
X163182723Y-98024505D01*
X163116724Y-97895149D01*
X163103444Y-97764692D01*
X163379259Y-97764692D01*
X163395021Y-97803606D01*
X163442103Y-97858881D01*
X163457480Y-97872141D01*
X163514395Y-97898821D01*
X163583214Y-97880092D01*
X163635924Y-97842320D01*
X163661482Y-97764692D01*
X163647708Y-97704320D01*
X163593859Y-97649318D01*
X163518420Y-97635081D01*
X163442103Y-97670502D01*
X163400591Y-97717430D01*
X163379259Y-97764692D01*
X163103444Y-97764692D01*
X163101206Y-97742708D01*
X163142187Y-97576223D01*
X163164527Y-97530637D01*
X163260161Y-97422228D01*
X163394852Y-97361724D01*
X163518420Y-97353657D01*
X163565909Y-97350558D01*
X163625052Y-97355939D01*
G37*
G36*
X161701523Y-118992418D02*
G01*
X161800572Y-119103667D01*
X161856238Y-119197902D01*
X163174354Y-119197360D01*
X164492469Y-119196819D01*
X165174506Y-118415584D01*
X165856543Y-117634350D01*
X165856543Y-111327037D01*
X163857469Y-111327236D01*
X161858395Y-111327434D01*
X161806250Y-111419092D01*
X161799608Y-111430310D01*
X161700021Y-111535309D01*
X161562449Y-111593081D01*
X161392616Y-111601108D01*
X161291938Y-111584908D01*
X161210836Y-111546909D01*
X161131266Y-111472646D01*
X161103860Y-111441835D01*
X161054450Y-111371026D01*
X161032434Y-111295298D01*
X161028867Y-111217682D01*
X161308154Y-111217682D01*
X161347259Y-111289408D01*
X161384248Y-111315399D01*
X161462960Y-111320510D01*
X161539955Y-111269692D01*
X161580741Y-111213751D01*
X161582617Y-111155816D01*
X161529008Y-111091737D01*
X161496520Y-111069152D01*
X161423346Y-111057646D01*
X161359015Y-111087860D01*
X161316345Y-111145852D01*
X161308154Y-111217682D01*
X161028867Y-111217682D01*
X161027407Y-111185926D01*
X161027950Y-111139581D01*
X161038068Y-111046050D01*
X161069039Y-110975500D01*
X161131266Y-110899207D01*
X161203279Y-110830524D01*
X161282774Y-110789583D01*
X161392616Y-110770744D01*
X161408435Y-110769410D01*
X161423346Y-110770518D01*
X161575703Y-110781839D01*
X161710216Y-110843795D01*
X161806250Y-110952760D01*
X161858395Y-111044419D01*
X166138765Y-111044815D01*
X166136655Y-117771111D01*
X165392957Y-118623538D01*
X164649259Y-119475964D01*
X161852783Y-119480124D01*
X161817031Y-119558591D01*
X161798062Y-119592140D01*
X161707684Y-119679587D01*
X161581847Y-119739765D01*
X161439900Y-119762229D01*
X161385495Y-119759800D01*
X161233769Y-119719095D01*
X161121318Y-119630884D01*
X161051434Y-119498650D01*
X161028269Y-119332069D01*
X161309630Y-119332069D01*
X161330746Y-119418765D01*
X161387466Y-119469780D01*
X161462863Y-119473347D01*
X161539955Y-119422778D01*
X161553723Y-119407403D01*
X161585596Y-119361109D01*
X161579008Y-119319895D01*
X161532820Y-119257380D01*
X161501823Y-119222653D01*
X161455975Y-119201591D01*
X161391708Y-119221875D01*
X161338596Y-119258331D01*
X161309630Y-119332069D01*
X161028269Y-119332069D01*
X161027407Y-119325874D01*
X161027452Y-119313217D01*
X161035577Y-119209861D01*
X161066142Y-119133527D01*
X161131266Y-119052293D01*
X161203279Y-118983610D01*
X161282774Y-118942670D01*
X161392616Y-118923831D01*
X161396102Y-118923504D01*
X161455975Y-118926574D01*
X161566407Y-118932234D01*
X161701523Y-118992418D01*
G37*
G36*
X162334684Y-108601681D02*
G01*
X162473392Y-108637934D01*
X162589513Y-108708404D01*
X162663698Y-108802644D01*
X162699450Y-108881111D01*
X163595959Y-108878981D01*
X164492469Y-108876851D01*
X165856543Y-107309463D01*
X165856543Y-101010247D01*
X162069435Y-101010247D01*
X162017088Y-101090139D01*
X162015222Y-101092963D01*
X161908645Y-101203631D01*
X161776611Y-101268093D01*
X161633069Y-101286705D01*
X161491965Y-101259827D01*
X161367245Y-101187815D01*
X161272855Y-101071030D01*
X161235948Y-100984760D01*
X161219968Y-100843661D01*
X161517317Y-100843661D01*
X161524442Y-100913260D01*
X161569379Y-100968532D01*
X161638844Y-100994871D01*
X161719556Y-100977673D01*
X161724333Y-100974925D01*
X161769673Y-100915775D01*
X161776744Y-100836181D01*
X161742370Y-100765655D01*
X161703803Y-100738882D01*
X161625137Y-100735281D01*
X161547176Y-100788132D01*
X161517317Y-100843661D01*
X161219968Y-100843661D01*
X161219366Y-100838350D01*
X161260706Y-100680667D01*
X161307153Y-100601987D01*
X161409478Y-100513091D01*
X161537634Y-100460724D01*
X161625137Y-100451340D01*
X161676966Y-100445783D01*
X161812818Y-100469164D01*
X161930535Y-100531765D01*
X162015460Y-100634482D01*
X162063833Y-100728025D01*
X166138765Y-100728025D01*
X166138765Y-107440409D01*
X165383701Y-108301871D01*
X164628637Y-109163334D01*
X162699980Y-109163334D01*
X162657451Y-109242801D01*
X162644374Y-109265223D01*
X162543730Y-109368775D01*
X162406176Y-109427955D01*
X162242470Y-109437711D01*
X162135152Y-109420192D01*
X162056006Y-109382198D01*
X161977933Y-109308942D01*
X161969762Y-109299956D01*
X161908522Y-109220596D01*
X161880666Y-109143039D01*
X161874074Y-109035361D01*
X161874984Y-109012934D01*
X162157416Y-109012934D01*
X162177574Y-109085642D01*
X162238375Y-109139360D01*
X162280062Y-109155799D01*
X162329693Y-109152838D01*
X162379486Y-109103855D01*
X162420639Y-109046479D01*
X162438519Y-109007930D01*
X162433778Y-108991693D01*
X162393181Y-108944022D01*
X162332425Y-108900280D01*
X162277691Y-108881111D01*
X162226630Y-108892027D01*
X162174802Y-108941606D01*
X162157416Y-109012934D01*
X161874984Y-109012934D01*
X161876412Y-108977763D01*
X161914983Y-108817164D01*
X161998394Y-108698183D01*
X162123352Y-108624303D01*
X162277691Y-108600381D01*
X162286567Y-108599006D01*
X162334684Y-108601681D01*
G37*
G36*
X163692639Y-98305403D02*
G01*
X163813819Y-98372837D01*
X163896941Y-98470778D01*
X163922024Y-98515049D01*
X163951561Y-98543268D01*
X163999361Y-98557925D01*
X164080243Y-98563462D01*
X164209022Y-98564321D01*
X164472730Y-98564321D01*
X165164637Y-97773495D01*
X165856543Y-96982669D01*
X165856543Y-92653701D01*
X164876792Y-91673579D01*
X163897040Y-90693457D01*
X163332222Y-90693459D01*
X163246807Y-90800509D01*
X163221648Y-90829464D01*
X163098845Y-90920265D01*
X162959428Y-90961456D01*
X162816627Y-90955267D01*
X162683672Y-90903926D01*
X162573794Y-90809663D01*
X162500221Y-90674708D01*
X162488828Y-90634178D01*
X162485701Y-90574138D01*
X162788889Y-90574138D01*
X162797537Y-90608629D01*
X162832098Y-90638930D01*
X162908889Y-90646420D01*
X162968568Y-90643192D01*
X163012016Y-90621495D01*
X163027829Y-90567805D01*
X163024863Y-90509565D01*
X162998039Y-90450212D01*
X162989321Y-90442134D01*
X162917177Y-90411814D01*
X162848231Y-90430518D01*
X162799722Y-90488031D01*
X162788889Y-90574138D01*
X162485701Y-90574138D01*
X162480861Y-90481215D01*
X162524245Y-90343442D01*
X162610017Y-90230066D01*
X162729214Y-90150295D01*
X162872873Y-90113336D01*
X162917177Y-90117529D01*
X163032032Y-90128396D01*
X163053373Y-90135299D01*
X163141887Y-90182254D01*
X163227086Y-90249629D01*
X163291221Y-90321585D01*
X163316543Y-90382283D01*
X163339818Y-90392643D01*
X163414403Y-90402294D01*
X163528309Y-90408830D01*
X163669151Y-90411235D01*
X164021758Y-90411235D01*
X165080262Y-91469395D01*
X166138765Y-92527556D01*
X166138765Y-97117675D01*
X165382347Y-97982109D01*
X164625928Y-98846544D01*
X164276976Y-98846742D01*
X163928025Y-98846940D01*
X163873859Y-98942119D01*
X163847093Y-98981644D01*
X163741952Y-99069378D01*
X163607704Y-99116177D01*
X163460997Y-99118166D01*
X163318477Y-99071466D01*
X163314471Y-99069290D01*
X163198653Y-98973722D01*
X163127910Y-98848413D01*
X163102550Y-98707155D01*
X163107792Y-98670176D01*
X163395794Y-98670176D01*
X163408643Y-98748780D01*
X163455321Y-98806217D01*
X163528173Y-98830000D01*
X163603300Y-98795402D01*
X163652926Y-98722235D01*
X163652582Y-98645964D01*
X163604490Y-98587597D01*
X163515202Y-98564321D01*
X163497904Y-98565602D01*
X163429912Y-98601561D01*
X163395794Y-98670176D01*
X163107792Y-98670176D01*
X163122880Y-98563741D01*
X163189207Y-98431963D01*
X163301839Y-98325614D01*
X163412433Y-98280669D01*
X163515202Y-98275135D01*
X163552483Y-98273128D01*
X163692639Y-98305403D01*
G37*
D10*
X145467908Y-104463165D02*
X145518742Y-104486684D01*
X145518742Y-104486684D02*
X145626882Y-104494134D01*
X145626882Y-104494134D02*
X145692682Y-104494572D01*
X145692682Y-104494572D02*
X145823459Y-104497287D01*
X145823459Y-104497287D02*
X145898992Y-104508658D01*
X145898992Y-104508658D02*
X145936505Y-104533528D01*
X145936505Y-104533528D02*
X145950914Y-104567143D01*
X145950914Y-104567143D02*
X145978176Y-104633034D01*
X145978176Y-104633034D02*
X146004107Y-104633396D01*
X146004107Y-104633396D02*
X146024148Y-104575203D01*
X146024148Y-104575203D02*
X146033736Y-104465425D01*
X146033736Y-104465425D02*
X146034000Y-104440143D01*
X146034000Y-104440143D02*
X146028729Y-104330843D01*
X146028729Y-104330843D02*
X146015134Y-104258353D01*
X146015134Y-104258353D02*
X146001946Y-104240572D01*
X146001946Y-104240572D02*
X145968068Y-104270770D01*
X145968068Y-104270770D02*
X145950914Y-104313143D01*
X145950914Y-104313143D02*
X145925439Y-104358901D01*
X145925439Y-104358901D02*
X145867214Y-104380503D01*
X145867214Y-104380503D02*
X145762809Y-104385715D01*
X145762809Y-104385715D02*
X145661097Y-104382535D01*
X145661097Y-104382535D02*
X145615871Y-104367700D01*
X145615871Y-104367700D02*
X145611141Y-104333268D01*
X145611141Y-104333268D02*
X145616714Y-104313143D01*
X145616714Y-104313143D02*
X145619304Y-104253993D01*
X145619304Y-104253993D02*
X145587008Y-104240449D01*
X145587008Y-104240449D02*
X145538740Y-104269411D01*
X145538740Y-104269411D02*
X145495538Y-104332993D01*
X145495538Y-104332993D02*
X145463725Y-104414846D01*
X145463725Y-104414846D02*
X145467908Y-104463165D01*
X145467908Y-104463165D02*
X145467908Y-104463165D01*
G36*
X145619304Y-104253993D02*
G01*
X145616714Y-104313143D01*
X145611141Y-104333268D01*
X145615871Y-104367700D01*
X145661097Y-104382535D01*
X145762809Y-104385715D01*
X145867214Y-104380503D01*
X145925439Y-104358901D01*
X145950914Y-104313143D01*
X145968068Y-104270770D01*
X146001946Y-104240572D01*
X146015134Y-104258353D01*
X146028729Y-104330843D01*
X146034000Y-104440143D01*
X146033736Y-104465425D01*
X146024148Y-104575203D01*
X146004107Y-104633396D01*
X145978176Y-104633034D01*
X145950914Y-104567143D01*
X145936505Y-104533528D01*
X145898992Y-104508658D01*
X145823459Y-104497287D01*
X145692682Y-104494572D01*
X145626882Y-104494134D01*
X145518742Y-104486684D01*
X145467908Y-104463165D01*
X145463725Y-104414846D01*
X145495538Y-104332993D01*
X145538740Y-104269411D01*
X145587008Y-104240449D01*
X145619304Y-104253993D01*
G37*
X145619304Y-104253993D02*
X145616714Y-104313143D01*
X145611141Y-104333268D01*
X145615871Y-104367700D01*
X145661097Y-104382535D01*
X145762809Y-104385715D01*
X145867214Y-104380503D01*
X145925439Y-104358901D01*
X145950914Y-104313143D01*
X145968068Y-104270770D01*
X146001946Y-104240572D01*
X146015134Y-104258353D01*
X146028729Y-104330843D01*
X146034000Y-104440143D01*
X146033736Y-104465425D01*
X146024148Y-104575203D01*
X146004107Y-104633396D01*
X145978176Y-104633034D01*
X145950914Y-104567143D01*
X145936505Y-104533528D01*
X145898992Y-104508658D01*
X145823459Y-104497287D01*
X145692682Y-104494572D01*
X145626882Y-104494134D01*
X145518742Y-104486684D01*
X145467908Y-104463165D01*
X145463725Y-104414846D01*
X145495538Y-104332993D01*
X145538740Y-104269411D01*
X145587008Y-104240449D01*
X145619304Y-104253993D01*
X144376067Y-106432851D02*
X144421343Y-106518498D01*
X144421343Y-106518498D02*
X144455140Y-106557311D01*
X144455140Y-106557311D02*
X144501184Y-106581250D01*
X144501184Y-106581250D02*
X144576108Y-106593836D01*
X144576108Y-106593836D02*
X144696544Y-106598587D01*
X144696544Y-106598587D02*
X144802343Y-106599143D01*
X144802343Y-106599143D02*
X144964502Y-106596537D01*
X144964502Y-106596537D02*
X145065234Y-106587596D01*
X145065234Y-106587596D02*
X145115533Y-106570636D01*
X145115533Y-106570636D02*
X145126857Y-106549462D01*
X145126857Y-106549462D02*
X145092609Y-106510364D01*
X145092609Y-106510364D02*
X144997524Y-106479801D01*
X144997524Y-106479801D02*
X144853088Y-106460327D01*
X144853088Y-106460327D02*
X144699361Y-106454400D01*
X144699361Y-106454400D02*
X144580572Y-106440526D01*
X144580572Y-106440526D02*
X144525782Y-106396138D01*
X144525782Y-106396138D02*
X144532338Y-106315917D01*
X144532338Y-106315917D02*
X144582002Y-106219064D01*
X144582002Y-106219064D02*
X144628526Y-106149780D01*
X144628526Y-106149780D02*
X144674453Y-106111503D01*
X144674453Y-106111503D02*
X144742194Y-106095042D01*
X144742194Y-106095042D02*
X144854164Y-106091207D01*
X144854164Y-106091207D02*
X144893959Y-106091143D01*
X144893959Y-106091143D02*
X145028122Y-106086834D01*
X145028122Y-106086834D02*
X145101787Y-106072222D01*
X145101787Y-106072222D02*
X145126607Y-106044775D01*
X145126607Y-106044775D02*
X145126857Y-106040597D01*
X145126857Y-106040597D02*
X145097468Y-105985242D01*
X145097468Y-105985242D02*
X145069460Y-105968025D01*
X145069460Y-105968025D02*
X144984532Y-105950885D01*
X144984532Y-105950885D02*
X144860713Y-105943567D01*
X144860713Y-105943567D02*
X144719574Y-105945116D01*
X144719574Y-105945116D02*
X144582684Y-105954577D01*
X144582684Y-105954577D02*
X144471611Y-105970997D01*
X144471611Y-105970997D02*
X144407924Y-105993420D01*
X144407924Y-105993420D02*
X144403573Y-105997500D01*
X144403573Y-105997500D02*
X144382056Y-106047349D01*
X144382056Y-106047349D02*
X144418673Y-106081368D01*
X144418673Y-106081368D02*
X144454648Y-106110713D01*
X144454648Y-106110713D02*
X144452186Y-106154197D01*
X144452186Y-106154197D02*
X144420909Y-106220369D01*
X144420909Y-106220369D02*
X144373205Y-106338859D01*
X144373205Y-106338859D02*
X144376067Y-106432851D01*
X144376067Y-106432851D02*
X144376067Y-106432851D01*
G36*
X144984532Y-105950885D02*
G01*
X145069460Y-105968025D01*
X145097468Y-105985242D01*
X145126857Y-106040597D01*
X145126607Y-106044775D01*
X145101787Y-106072222D01*
X145028122Y-106086834D01*
X144893959Y-106091143D01*
X144854164Y-106091207D01*
X144742194Y-106095042D01*
X144674453Y-106111503D01*
X144628526Y-106149780D01*
X144582002Y-106219064D01*
X144532338Y-106315917D01*
X144525782Y-106396138D01*
X144580572Y-106440526D01*
X144699361Y-106454400D01*
X144853088Y-106460327D01*
X144997524Y-106479801D01*
X145092609Y-106510364D01*
X145126857Y-106549462D01*
X145115533Y-106570636D01*
X145065234Y-106587596D01*
X144964502Y-106596537D01*
X144802343Y-106599143D01*
X144696544Y-106598587D01*
X144576108Y-106593836D01*
X144501184Y-106581250D01*
X144455140Y-106557311D01*
X144421343Y-106518498D01*
X144376067Y-106432851D01*
X144373205Y-106338859D01*
X144420909Y-106220369D01*
X144452186Y-106154197D01*
X144454648Y-106110713D01*
X144418673Y-106081368D01*
X144382056Y-106047349D01*
X144403573Y-105997500D01*
X144407924Y-105993420D01*
X144471611Y-105970997D01*
X144582684Y-105954577D01*
X144719574Y-105945116D01*
X144860713Y-105943567D01*
X144984532Y-105950885D01*
G37*
X144984532Y-105950885D02*
X145069460Y-105968025D01*
X145097468Y-105985242D01*
X145126857Y-106040597D01*
X145126607Y-106044775D01*
X145101787Y-106072222D01*
X145028122Y-106086834D01*
X144893959Y-106091143D01*
X144854164Y-106091207D01*
X144742194Y-106095042D01*
X144674453Y-106111503D01*
X144628526Y-106149780D01*
X144582002Y-106219064D01*
X144532338Y-106315917D01*
X144525782Y-106396138D01*
X144580572Y-106440526D01*
X144699361Y-106454400D01*
X144853088Y-106460327D01*
X144997524Y-106479801D01*
X145092609Y-106510364D01*
X145126857Y-106549462D01*
X145115533Y-106570636D01*
X145065234Y-106587596D01*
X144964502Y-106596537D01*
X144802343Y-106599143D01*
X144696544Y-106598587D01*
X144576108Y-106593836D01*
X144501184Y-106581250D01*
X144455140Y-106557311D01*
X144421343Y-106518498D01*
X144376067Y-106432851D01*
X144373205Y-106338859D01*
X144420909Y-106220369D01*
X144452186Y-106154197D01*
X144454648Y-106110713D01*
X144418673Y-106081368D01*
X144382056Y-106047349D01*
X144403573Y-105997500D01*
X144407924Y-105993420D01*
X144471611Y-105970997D01*
X144582684Y-105954577D01*
X144719574Y-105945116D01*
X144860713Y-105943567D01*
X144984532Y-105950885D01*
X145907481Y-104989811D02*
X145967657Y-104996024D01*
X145967657Y-104996024D02*
X146043645Y-104964320D01*
X146043645Y-104964320D02*
X146056771Y-104909857D01*
X146056771Y-104909857D02*
X146018655Y-104859751D01*
X146018655Y-104859751D02*
X145949927Y-104833243D01*
X145949927Y-104833243D02*
X145901819Y-104869954D01*
X145901819Y-104869954D02*
X145888857Y-104934666D01*
X145888857Y-104934666D02*
X145907481Y-104989811D01*
X145907481Y-104989811D02*
X145907481Y-104989811D01*
G36*
X146018655Y-104859751D02*
G01*
X146056771Y-104909857D01*
X146043645Y-104964320D01*
X145967657Y-104996024D01*
X145907481Y-104989811D01*
X145888857Y-104934666D01*
X145901819Y-104869954D01*
X145949927Y-104833243D01*
X146018655Y-104859751D01*
G37*
X146018655Y-104859751D02*
X146056771Y-104909857D01*
X146043645Y-104964320D01*
X145967657Y-104996024D01*
X145907481Y-104989811D01*
X145888857Y-104934666D01*
X145901819Y-104869954D01*
X145949927Y-104833243D01*
X146018655Y-104859751D01*
X145484468Y-105542719D02*
X145565251Y-105614807D01*
X145565251Y-105614807D02*
X145677274Y-105653447D01*
X145677274Y-105653447D02*
X145802035Y-105654253D01*
X145802035Y-105654253D02*
X145921031Y-105612840D01*
X145921031Y-105612840D02*
X145981220Y-105566650D01*
X145981220Y-105566650D02*
X146053420Y-105473829D01*
X146053420Y-105473829D02*
X146061523Y-105390582D01*
X146061523Y-105390582D02*
X146007043Y-105295469D01*
X146007043Y-105295469D02*
X146000920Y-105287806D01*
X146000920Y-105287806D02*
X145937725Y-105232769D01*
X145937725Y-105232769D02*
X145937725Y-105355507D01*
X145937725Y-105355507D02*
X145961038Y-105408542D01*
X145961038Y-105408542D02*
X145961428Y-105420722D01*
X145961428Y-105420722D02*
X145932641Y-105476319D01*
X145932641Y-105476319D02*
X145886845Y-105511648D01*
X145886845Y-105511648D02*
X145803079Y-105542102D01*
X145803079Y-105542102D02*
X145770363Y-105522533D01*
X145770363Y-105522533D02*
X145793943Y-105459209D01*
X145793943Y-105459209D02*
X145816587Y-105427715D01*
X145816587Y-105427715D02*
X145886019Y-105362069D01*
X145886019Y-105362069D02*
X145937725Y-105355507D01*
X145937725Y-105355507D02*
X145937725Y-105232769D01*
X145937725Y-105232769D02*
X145934025Y-105229546D01*
X145934025Y-105229546D02*
X145841531Y-105205072D01*
X145841531Y-105205072D02*
X145768872Y-105202143D01*
X145768872Y-105202143D02*
X145662071Y-105218639D01*
X145662071Y-105218639D02*
X145662071Y-105335691D01*
X145662071Y-105335691D02*
X145729489Y-105337894D01*
X145729489Y-105337894D02*
X145735270Y-105374427D01*
X145735270Y-105374427D02*
X145683662Y-105444215D01*
X145683662Y-105444215D02*
X145615200Y-105501875D01*
X145615200Y-105501875D02*
X145574790Y-105497510D01*
X145574790Y-105497510D02*
X145568424Y-105431917D01*
X145568424Y-105431917D02*
X145568833Y-105428929D01*
X145568833Y-105428929D02*
X145610154Y-105355572D01*
X145610154Y-105355572D02*
X145662071Y-105335691D01*
X145662071Y-105335691D02*
X145662071Y-105218639D01*
X145662071Y-105218639D02*
X145613893Y-105226081D01*
X145613893Y-105226081D02*
X145507363Y-105294160D01*
X145507363Y-105294160D02*
X145456658Y-105400780D01*
X145456658Y-105400780D02*
X145453428Y-105441567D01*
X145453428Y-105441567D02*
X145484468Y-105542719D01*
X145484468Y-105542719D02*
X145484468Y-105542719D01*
G36*
X146007043Y-105295469D02*
G01*
X146061523Y-105390582D01*
X146053420Y-105473829D01*
X145981220Y-105566650D01*
X145921031Y-105612840D01*
X145802035Y-105654253D01*
X145677274Y-105653447D01*
X145565251Y-105614807D01*
X145484468Y-105542719D01*
X145478274Y-105522533D01*
X145770363Y-105522533D01*
X145803079Y-105542102D01*
X145886845Y-105511648D01*
X145932641Y-105476319D01*
X145961428Y-105420722D01*
X145961038Y-105408542D01*
X145937725Y-105355507D01*
X145886019Y-105362069D01*
X145816587Y-105427715D01*
X145793943Y-105459209D01*
X145770363Y-105522533D01*
X145478274Y-105522533D01*
X145453428Y-105441567D01*
X145454192Y-105431917D01*
X145568424Y-105431917D01*
X145574790Y-105497510D01*
X145615200Y-105501875D01*
X145683662Y-105444215D01*
X145735270Y-105374427D01*
X145729489Y-105337894D01*
X145662071Y-105335691D01*
X145610154Y-105355572D01*
X145568833Y-105428929D01*
X145568424Y-105431917D01*
X145454192Y-105431917D01*
X145456658Y-105400780D01*
X145507363Y-105294160D01*
X145613893Y-105226081D01*
X145662071Y-105218639D01*
X145768872Y-105202143D01*
X145841531Y-105205072D01*
X145934025Y-105229546D01*
X145937725Y-105232769D01*
X146000920Y-105287806D01*
X146007043Y-105295469D01*
G37*
X146007043Y-105295469D02*
X146061523Y-105390582D01*
X146053420Y-105473829D01*
X145981220Y-105566650D01*
X145921031Y-105612840D01*
X145802035Y-105654253D01*
X145677274Y-105653447D01*
X145565251Y-105614807D01*
X145484468Y-105542719D01*
X145478274Y-105522533D01*
X145770363Y-105522533D01*
X145803079Y-105542102D01*
X145886845Y-105511648D01*
X145932641Y-105476319D01*
X145961428Y-105420722D01*
X145961038Y-105408542D01*
X145937725Y-105355507D01*
X145886019Y-105362069D01*
X145816587Y-105427715D01*
X145793943Y-105459209D01*
X145770363Y-105522533D01*
X145478274Y-105522533D01*
X145453428Y-105441567D01*
X145454192Y-105431917D01*
X145568424Y-105431917D01*
X145574790Y-105497510D01*
X145615200Y-105501875D01*
X145683662Y-105444215D01*
X145735270Y-105374427D01*
X145729489Y-105337894D01*
X145662071Y-105335691D01*
X145610154Y-105355572D01*
X145568833Y-105428929D01*
X145568424Y-105431917D01*
X145454192Y-105431917D01*
X145456658Y-105400780D01*
X145507363Y-105294160D01*
X145613893Y-105226081D01*
X145662071Y-105218639D01*
X145768872Y-105202143D01*
X145841531Y-105205072D01*
X145934025Y-105229546D01*
X145937725Y-105232769D01*
X146000920Y-105287806D01*
X146007043Y-105295469D01*
X136236312Y-105394066D02*
X136454571Y-105513417D01*
X136454571Y-105513417D02*
X136454571Y-106728400D01*
X136454571Y-106728400D02*
X137219870Y-108051107D01*
X137219870Y-108051107D02*
X137406471Y-108373866D01*
X137406471Y-108373866D02*
X137559536Y-108639663D01*
X137559536Y-108639663D02*
X137681976Y-108854296D01*
X137681976Y-108854296D02*
X137776700Y-109023561D01*
X137776700Y-109023561D02*
X137846619Y-109153252D01*
X137846619Y-109153252D02*
X137894643Y-109249166D01*
X137894643Y-109249166D02*
X137923681Y-109317099D01*
X137923681Y-109317099D02*
X137936644Y-109362845D01*
X137936644Y-109362845D02*
X137936442Y-109392202D01*
X137936442Y-109392202D02*
X137925985Y-109410964D01*
X137925985Y-109410964D02*
X137909298Y-109424191D01*
X137909298Y-109424191D02*
X137873359Y-109455220D01*
X137873359Y-109455220D02*
X137850894Y-109500815D01*
X137850894Y-109500815D02*
X137838822Y-109576794D01*
X137838822Y-109576794D02*
X137834062Y-109698973D01*
X137834062Y-109698973D02*
X137833428Y-109813619D01*
X137833428Y-109813619D02*
X137833428Y-110152672D01*
X137833428Y-110152672D02*
X138113486Y-110314992D01*
X138113486Y-110314992D02*
X138393543Y-110477312D01*
X138393543Y-110477312D02*
X138635644Y-110344912D01*
X138635644Y-110344912D02*
X138877744Y-110212512D01*
X138877744Y-110212512D02*
X141371802Y-111642858D01*
X141371802Y-111642858D02*
X141979329Y-111642857D01*
X141979329Y-111642857D02*
X142586857Y-111642857D01*
X142586857Y-111642857D02*
X142586857Y-111748266D01*
X142586857Y-111748266D02*
X142593577Y-111802461D01*
X142593577Y-111802461D02*
X142621684Y-111850252D01*
X142621684Y-111850252D02*
X142683096Y-111902957D01*
X142683096Y-111902957D02*
X142789732Y-111971893D01*
X142789732Y-111971893D02*
X142876977Y-112023761D01*
X142876977Y-112023761D02*
X143167098Y-112193847D01*
X143167098Y-112193847D02*
X143448477Y-112031596D01*
X143448477Y-112031596D02*
X143585659Y-111949673D01*
X143585659Y-111949673D02*
X143671051Y-111888871D01*
X143671051Y-111888871D02*
X143717425Y-111837169D01*
X143717425Y-111837169D02*
X143737553Y-111782549D01*
X143737553Y-111782549D02*
X143741227Y-111756102D01*
X143741227Y-111756102D02*
X143752598Y-111642857D01*
X143752598Y-111642857D02*
X144985668Y-111642857D01*
X144985668Y-111642857D02*
X146242364Y-110912030D01*
X146242364Y-110912030D02*
X147499061Y-110181202D01*
X147499061Y-110181202D02*
X147759078Y-110320447D01*
X147759078Y-110320447D02*
X148019096Y-110459693D01*
X148019096Y-110459693D02*
X148574000Y-110142201D01*
X148574000Y-110142201D02*
X148574000Y-109806984D01*
X148574000Y-109806984D02*
X148572855Y-109648355D01*
X148572855Y-109648355D02*
X148566733Y-109545416D01*
X148566733Y-109545416D02*
X148551606Y-109481293D01*
X148551606Y-109481293D02*
X148523444Y-109439112D01*
X148523444Y-109439112D02*
X148478218Y-109401996D01*
X148478218Y-109401996D02*
X148477106Y-109401185D01*
X148477106Y-109401185D02*
X148380211Y-109330603D01*
X148380211Y-109330603D02*
X149130248Y-108025043D01*
X149130248Y-108025043D02*
X149880285Y-106719484D01*
X149880285Y-106719484D02*
X149880285Y-105599883D01*
X149880285Y-105599883D02*
X150161500Y-105436487D01*
X150161500Y-105436487D02*
X150442714Y-105273092D01*
X150442714Y-105273092D02*
X150461638Y-104585286D01*
X150461638Y-104585286D02*
X150170962Y-104424831D01*
X150170962Y-104424831D02*
X149880285Y-104264376D01*
X149880285Y-104264376D02*
X149880285Y-103138969D01*
X149880285Y-103138969D02*
X149131844Y-101851164D01*
X149131844Y-101851164D02*
X148383402Y-100563360D01*
X148383402Y-100563360D02*
X148478701Y-100493939D01*
X148478701Y-100493939D02*
X148523366Y-100457334D01*
X148523366Y-100457334D02*
X148551334Y-100415514D01*
X148551334Y-100415514D02*
X148566499Y-100351781D01*
X148566499Y-100351781D02*
X148572756Y-100249437D01*
X148572756Y-100249437D02*
X148573999Y-100091784D01*
X148573999Y-100091784D02*
X148574000Y-100085373D01*
X148574000Y-100085373D02*
X148574000Y-99746227D01*
X148574000Y-99746227D02*
X148294266Y-99591810D01*
X148294266Y-99591810D02*
X148014532Y-99437394D01*
X148014532Y-99437394D02*
X147527640Y-99702978D01*
X147527640Y-99702978D02*
X146237651Y-98960061D01*
X146237651Y-98960061D02*
X144947662Y-98217143D01*
X144947662Y-98217143D02*
X143752598Y-98217143D01*
X143752598Y-98217143D02*
X143741227Y-98103899D01*
X143741227Y-98103899D02*
X143728258Y-98044521D01*
X143728258Y-98044521D02*
X143694360Y-97993065D01*
X143694360Y-97993065D02*
X143626759Y-97937510D01*
X143626759Y-97937510D02*
X143512685Y-97865838D01*
X143512685Y-97865838D02*
X143448477Y-97828405D01*
X143448477Y-97828405D02*
X143167098Y-97666155D01*
X143167098Y-97666155D02*
X142876977Y-97836240D01*
X142876977Y-97836240D02*
X142738658Y-97919773D01*
X142738658Y-97919773D02*
X142652473Y-97980511D01*
X142652473Y-97980511D02*
X142606506Y-98029773D01*
X142606506Y-98029773D02*
X142588836Y-98078876D01*
X142588836Y-98078876D02*
X142586857Y-98111735D01*
X142586857Y-98111735D02*
X142586857Y-98217143D01*
X142586857Y-98217143D02*
X142582259Y-98217143D01*
X142582259Y-98217143D02*
X142582259Y-98434857D01*
X142582259Y-98434857D02*
X142593629Y-98551483D01*
X142593629Y-98551483D02*
X142607248Y-98615282D01*
X142607248Y-98615282D02*
X142642786Y-98669802D01*
X142642786Y-98669802D02*
X142713605Y-98728612D01*
X142713605Y-98728612D02*
X142833068Y-98805283D01*
X142833068Y-98805283D02*
X142859000Y-98820963D01*
X142859000Y-98820963D02*
X142984083Y-98892413D01*
X142984083Y-98892413D02*
X143090008Y-98946008D01*
X143090008Y-98946008D02*
X143158131Y-98972506D01*
X143158131Y-98972506D02*
X143167428Y-98973818D01*
X143167428Y-98973818D02*
X143222520Y-98955975D01*
X143222520Y-98955975D02*
X143320315Y-98908607D01*
X143320315Y-98908607D02*
X143442169Y-98840955D01*
X143442169Y-98840955D02*
X143475857Y-98820963D01*
X143475857Y-98820963D02*
X143604854Y-98739937D01*
X143604854Y-98739937D02*
X143682951Y-98679063D01*
X143682951Y-98679063D02*
X143723510Y-98624770D01*
X143723510Y-98624770D02*
X143739893Y-98563491D01*
X143739893Y-98563491D02*
X143741227Y-98551483D01*
X143741227Y-98551483D02*
X143752598Y-98434857D01*
X143752598Y-98434857D02*
X144321799Y-98435188D01*
X144321799Y-98435188D02*
X144891000Y-98435518D01*
X144891000Y-98435518D02*
X146168488Y-99169973D01*
X146168488Y-99169973D02*
X147445977Y-99904429D01*
X147445977Y-99904429D02*
X147456631Y-100175581D01*
X147456631Y-100175581D02*
X147467285Y-100446734D01*
X147467285Y-100446734D02*
X147736944Y-100599690D01*
X147736944Y-100599690D02*
X147878895Y-100676356D01*
X147878895Y-100676356D02*
X147974791Y-100717121D01*
X147974791Y-100717121D02*
X148038638Y-100726821D01*
X148038638Y-100726821D02*
X148074598Y-100716256D01*
X148074598Y-100716256D02*
X148145552Y-100691608D01*
X148145552Y-100691608D02*
X148178582Y-100691861D01*
X148178582Y-100691861D02*
X148204240Y-100724852D01*
X148204240Y-100724852D02*
X148262133Y-100813849D01*
X148262133Y-100813849D02*
X148348132Y-100952059D01*
X148348132Y-100952059D02*
X148458109Y-101132683D01*
X148458109Y-101132683D02*
X148587935Y-101348927D01*
X148587935Y-101348927D02*
X148733482Y-101593995D01*
X148733482Y-101593995D02*
X148890620Y-101861089D01*
X148890620Y-101861089D02*
X148935025Y-101937000D01*
X148935025Y-101937000D02*
X149655481Y-103170143D01*
X149655481Y-103170143D02*
X149662497Y-104403857D01*
X149662497Y-104403857D02*
X149481106Y-104505736D01*
X149481106Y-104505736D02*
X149299714Y-104607615D01*
X149299714Y-104607615D02*
X149299714Y-105256593D01*
X149299714Y-105256593D02*
X149480620Y-105356368D01*
X149480620Y-105356368D02*
X149661525Y-105456143D01*
X149661525Y-105456143D02*
X149662571Y-106664647D01*
X149662571Y-106664647D02*
X148936341Y-107929109D01*
X148936341Y-107929109D02*
X148777181Y-108205088D01*
X148777181Y-108205088D02*
X148628416Y-108460849D01*
X148628416Y-108460849D02*
X148494067Y-108689646D01*
X148494067Y-108689646D02*
X148378151Y-108884734D01*
X148378151Y-108884734D02*
X148284686Y-109039365D01*
X148284686Y-109039365D02*
X148217692Y-109146793D01*
X148217692Y-109146793D02*
X148181187Y-109200272D01*
X148181187Y-109200272D02*
X148176353Y-109204996D01*
X148176353Y-109204996D02*
X148120069Y-109198817D01*
X148120069Y-109198817D02*
X148073493Y-109179439D01*
X148073493Y-109179439D02*
X148026267Y-109168232D01*
X148026267Y-109168232D02*
X147959950Y-109183272D01*
X147959950Y-109183272D02*
X147860614Y-109229603D01*
X147860614Y-109229603D02*
X147726767Y-109304973D01*
X147726767Y-109304973D02*
X147449142Y-109467488D01*
X147449142Y-109467488D02*
X147449142Y-109959180D01*
X147449142Y-109959180D02*
X146188251Y-110692162D01*
X146188251Y-110692162D02*
X144927359Y-111425143D01*
X144927359Y-111425143D02*
X143752598Y-111425143D01*
X143752598Y-111425143D02*
X143741227Y-111308517D01*
X143741227Y-111308517D02*
X143727608Y-111244719D01*
X143727608Y-111244719D02*
X143692070Y-111190199D01*
X143692070Y-111190199D02*
X143621251Y-111131388D01*
X143621251Y-111131388D02*
X143501789Y-111054718D01*
X143501789Y-111054718D02*
X143475857Y-111039037D01*
X143475857Y-111039037D02*
X143350774Y-110967587D01*
X143350774Y-110967587D02*
X143244848Y-110913993D01*
X143244848Y-110913993D02*
X143176726Y-110887494D01*
X143176726Y-110887494D02*
X143167428Y-110886183D01*
X143167428Y-110886183D02*
X143112337Y-110904026D01*
X143112337Y-110904026D02*
X143014541Y-110951394D01*
X143014541Y-110951394D02*
X142892687Y-111019046D01*
X142892687Y-111019046D02*
X142859000Y-111039037D01*
X142859000Y-111039037D02*
X142730003Y-111120063D01*
X142730003Y-111120063D02*
X142651906Y-111180938D01*
X142651906Y-111180938D02*
X142611347Y-111235231D01*
X142611347Y-111235231D02*
X142594963Y-111296510D01*
X142594963Y-111296510D02*
X142593629Y-111308517D01*
X142593629Y-111308517D02*
X142582259Y-111425143D01*
X142582259Y-111425143D02*
X141423624Y-111425143D01*
X141423624Y-111425143D02*
X138976428Y-110016377D01*
X138976428Y-110016377D02*
X138940142Y-109462473D01*
X138940142Y-109462473D02*
X138670361Y-109305991D01*
X138670361Y-109305991D02*
X138400580Y-109149508D01*
X138400580Y-109149508D02*
X138289361Y-109214087D01*
X138289361Y-109214087D02*
X138178143Y-109278665D01*
X138178143Y-109278665D02*
X137425214Y-107976773D01*
X137425214Y-107976773D02*
X136672285Y-106674880D01*
X136672285Y-106674880D02*
X136672285Y-105550098D01*
X136672285Y-105550098D02*
X136926285Y-105399200D01*
X136926285Y-105399200D02*
X137180285Y-105248301D01*
X137180285Y-105248301D02*
X137180285Y-104606630D01*
X137180285Y-104606630D02*
X136672285Y-104309942D01*
X136672285Y-104309942D02*
X136672285Y-103217476D01*
X136672285Y-103217476D02*
X137402939Y-101941953D01*
X137402939Y-101941953D02*
X137561881Y-101664680D01*
X137561881Y-101664680D02*
X137709576Y-101407409D01*
X137709576Y-101407409D02*
X137842142Y-101176872D01*
X137842142Y-101176872D02*
X137955696Y-100979805D01*
X137955696Y-100979805D02*
X138046356Y-100822942D01*
X138046356Y-100822942D02*
X138110238Y-100713018D01*
X138110238Y-100713018D02*
X138143461Y-100656769D01*
X138143461Y-100656769D02*
X138147252Y-100650854D01*
X138147252Y-100650854D02*
X138185245Y-100654832D01*
X138185245Y-100654832D02*
X138262533Y-100684132D01*
X138262533Y-100684132D02*
X138286297Y-100695072D01*
X138286297Y-100695072D02*
X138411682Y-100754864D01*
X138411682Y-100754864D02*
X138940142Y-100443014D01*
X138940142Y-100443014D02*
X138950682Y-100167874D01*
X138950682Y-100167874D02*
X138961722Y-100022514D01*
X138961722Y-100022514D02*
X138980685Y-99912890D01*
X138980685Y-99912890D02*
X139004396Y-99857155D01*
X139004396Y-99857155D02*
X139005111Y-99856536D01*
X139005111Y-99856536D02*
X139045472Y-99830669D01*
X139045472Y-99830669D02*
X139141464Y-99772646D01*
X139141464Y-99772646D02*
X139285922Y-99686692D01*
X139285922Y-99686692D02*
X139471685Y-99577033D01*
X139471685Y-99577033D02*
X139691590Y-99447897D01*
X139691590Y-99447897D02*
X139938475Y-99303510D01*
X139938475Y-99303510D02*
X140205178Y-99148097D01*
X140205178Y-99148097D02*
X140240427Y-99127597D01*
X140240427Y-99127597D02*
X141431855Y-98434858D01*
X141431855Y-98434858D02*
X142007057Y-98434858D01*
X142007057Y-98434858D02*
X142582259Y-98434857D01*
X142582259Y-98434857D02*
X142582259Y-98217143D01*
X142582259Y-98217143D02*
X141375340Y-98217143D01*
X141375340Y-98217143D02*
X140175884Y-98913137D01*
X140175884Y-98913137D02*
X139905359Y-99070151D01*
X139905359Y-99070151D02*
X139652932Y-99216736D01*
X139652932Y-99216736D02*
X139425877Y-99348662D01*
X139425877Y-99348662D02*
X139231471Y-99461699D01*
X139231471Y-99461699D02*
X139076990Y-99551616D01*
X139076990Y-99551616D02*
X138969708Y-99614181D01*
X138969708Y-99614181D02*
X138916903Y-99645165D01*
X138916903Y-99645165D02*
X138914258Y-99646750D01*
X138914258Y-99646750D02*
X138863652Y-99659098D01*
X138863652Y-99659098D02*
X138788147Y-99640981D01*
X138788147Y-99640981D02*
X138672718Y-99588009D01*
X138672718Y-99588009D02*
X138621695Y-99561272D01*
X138621695Y-99561272D02*
X138391303Y-99438175D01*
X138391303Y-99438175D02*
X138112366Y-99596879D01*
X138112366Y-99596879D02*
X137833428Y-99755582D01*
X137833428Y-99755582D02*
X137833428Y-100088651D01*
X137833428Y-100088651D02*
X137835358Y-100250391D01*
X137835358Y-100250391D02*
X137843086Y-100355421D01*
X137843086Y-100355421D02*
X137859519Y-100419543D01*
X137859519Y-100419543D02*
X137887562Y-100458561D01*
X137887562Y-100458561D02*
X137903838Y-100471503D01*
X137903838Y-100471503D02*
X137919574Y-100486267D01*
X137919574Y-100486267D02*
X137927127Y-100507764D01*
X137927127Y-100507764D02*
X137923580Y-100541788D01*
X137923580Y-100541788D02*
X137906014Y-100594135D01*
X137906014Y-100594135D02*
X137871511Y-100670602D01*
X137871511Y-100670602D02*
X137817151Y-100776984D01*
X137817151Y-100776984D02*
X137740017Y-100919076D01*
X137740017Y-100919076D02*
X137637190Y-101102675D01*
X137637190Y-101102675D02*
X137505752Y-101333576D01*
X137505752Y-101333576D02*
X137342783Y-101617576D01*
X137342783Y-101617576D02*
X137214410Y-101840605D01*
X137214410Y-101840605D02*
X136454571Y-103159924D01*
X136454571Y-103159924D02*
X136454571Y-104341289D01*
X136454571Y-104341289D02*
X136245928Y-104464975D01*
X136245928Y-104464975D02*
X136037285Y-104588662D01*
X136037285Y-104588662D02*
X136027669Y-104931688D01*
X136027669Y-104931688D02*
X136018054Y-105274715D01*
X136018054Y-105274715D02*
X136236312Y-105394066D01*
X136236312Y-105394066D02*
X136236312Y-105394066D01*
G36*
X142586857Y-98111735D02*
G01*
X142588836Y-98078876D01*
X142606506Y-98029773D01*
X142652473Y-97980511D01*
X142738658Y-97919773D01*
X142876977Y-97836240D01*
X143167098Y-97666155D01*
X143448477Y-97828405D01*
X143512685Y-97865838D01*
X143626759Y-97937510D01*
X143694360Y-97993065D01*
X143728258Y-98044521D01*
X143741227Y-98103899D01*
X143752598Y-98217143D01*
X144947662Y-98217143D01*
X146237651Y-98960061D01*
X147527640Y-99702978D01*
X148014532Y-99437394D01*
X148294266Y-99591810D01*
X148574000Y-99746227D01*
X148574000Y-100085373D01*
X148573999Y-100091784D01*
X148572756Y-100249437D01*
X148566499Y-100351781D01*
X148551334Y-100415514D01*
X148523366Y-100457334D01*
X148478701Y-100493939D01*
X148383402Y-100563360D01*
X149131844Y-101851164D01*
X149880285Y-103138969D01*
X149880285Y-104264376D01*
X150170962Y-104424831D01*
X150461638Y-104585286D01*
X150442714Y-105273092D01*
X150161500Y-105436487D01*
X149880285Y-105599883D01*
X149880285Y-106719484D01*
X149130248Y-108025043D01*
X148380211Y-109330603D01*
X148477106Y-109401185D01*
X148478218Y-109401996D01*
X148523444Y-109439112D01*
X148551606Y-109481293D01*
X148566733Y-109545416D01*
X148572855Y-109648355D01*
X148574000Y-109806984D01*
X148574000Y-110142201D01*
X148019096Y-110459693D01*
X147759078Y-110320447D01*
X147499061Y-110181202D01*
X146242364Y-110912030D01*
X144985668Y-111642857D01*
X143752598Y-111642857D01*
X143741227Y-111756102D01*
X143737553Y-111782549D01*
X143717425Y-111837169D01*
X143671051Y-111888871D01*
X143585659Y-111949673D01*
X143448477Y-112031596D01*
X143167098Y-112193847D01*
X142876977Y-112023761D01*
X142789732Y-111971893D01*
X142683096Y-111902957D01*
X142621684Y-111850252D01*
X142593577Y-111802461D01*
X142586857Y-111748266D01*
X142586857Y-111642857D01*
X141979329Y-111642857D01*
X141371802Y-111642858D01*
X138877744Y-110212512D01*
X138635644Y-110344912D01*
X138393543Y-110477312D01*
X138113486Y-110314992D01*
X137833428Y-110152672D01*
X137833428Y-109813619D01*
X137834062Y-109698973D01*
X137838822Y-109576794D01*
X137850894Y-109500815D01*
X137873359Y-109455220D01*
X137909298Y-109424191D01*
X137925985Y-109410964D01*
X137936442Y-109392202D01*
X137936644Y-109362845D01*
X137923681Y-109317099D01*
X137894643Y-109249166D01*
X137846619Y-109153252D01*
X137776700Y-109023561D01*
X137681976Y-108854296D01*
X137559536Y-108639663D01*
X137406471Y-108373866D01*
X137219870Y-108051107D01*
X136454571Y-106728400D01*
X136454571Y-105513417D01*
X136236312Y-105394066D01*
X136018054Y-105274715D01*
X136027669Y-104931688D01*
X136037285Y-104588662D01*
X136245928Y-104464975D01*
X136454571Y-104341289D01*
X136454571Y-103217476D01*
X136672285Y-103217476D01*
X136672285Y-104309942D01*
X137180285Y-104606630D01*
X137180285Y-105248301D01*
X136926285Y-105399200D01*
X136672285Y-105550098D01*
X136672285Y-106674880D01*
X137425214Y-107976773D01*
X138178143Y-109278665D01*
X138289361Y-109214087D01*
X138400580Y-109149508D01*
X138670361Y-109305991D01*
X138940142Y-109462473D01*
X138976428Y-110016377D01*
X141423624Y-111425143D01*
X142582259Y-111425143D01*
X142593629Y-111308517D01*
X142594963Y-111296510D01*
X142611347Y-111235231D01*
X142651906Y-111180938D01*
X142730003Y-111120063D01*
X142859000Y-111039037D01*
X142892687Y-111019046D01*
X143014541Y-110951394D01*
X143112337Y-110904026D01*
X143167428Y-110886183D01*
X143176726Y-110887494D01*
X143244848Y-110913993D01*
X143350774Y-110967587D01*
X143475857Y-111039037D01*
X143501789Y-111054718D01*
X143621251Y-111131388D01*
X143692070Y-111190199D01*
X143727608Y-111244719D01*
X143741227Y-111308517D01*
X143752598Y-111425143D01*
X144927359Y-111425143D01*
X146188251Y-110692162D01*
X147449142Y-109959180D01*
X147449142Y-109467488D01*
X147726767Y-109304973D01*
X147860614Y-109229603D01*
X147959950Y-109183272D01*
X148026267Y-109168232D01*
X148073493Y-109179439D01*
X148120069Y-109198817D01*
X148176353Y-109204996D01*
X148181187Y-109200272D01*
X148217692Y-109146793D01*
X148284686Y-109039365D01*
X148378151Y-108884734D01*
X148494067Y-108689646D01*
X148628416Y-108460849D01*
X148777181Y-108205088D01*
X148936341Y-107929109D01*
X149662571Y-106664647D01*
X149661525Y-105456143D01*
X149480620Y-105356368D01*
X149299714Y-105256593D01*
X149299714Y-104607615D01*
X149481106Y-104505736D01*
X149662497Y-104403857D01*
X149655481Y-103170143D01*
X148935025Y-101937000D01*
X148890620Y-101861089D01*
X148733482Y-101593995D01*
X148587935Y-101348927D01*
X148458109Y-101132683D01*
X148348132Y-100952059D01*
X148262133Y-100813849D01*
X148204240Y-100724852D01*
X148178582Y-100691861D01*
X148145552Y-100691608D01*
X148074598Y-100716256D01*
X148038638Y-100726821D01*
X147974791Y-100717121D01*
X147878895Y-100676356D01*
X147736944Y-100599690D01*
X147467285Y-100446734D01*
X147456631Y-100175581D01*
X147445977Y-99904429D01*
X146168488Y-99169973D01*
X144891000Y-98435518D01*
X144321799Y-98435188D01*
X143752598Y-98434857D01*
X143741227Y-98551483D01*
X143739893Y-98563491D01*
X143723510Y-98624770D01*
X143682951Y-98679063D01*
X143604854Y-98739937D01*
X143475857Y-98820963D01*
X143442169Y-98840955D01*
X143320315Y-98908607D01*
X143222520Y-98955975D01*
X143167428Y-98973818D01*
X143158131Y-98972506D01*
X143090008Y-98946008D01*
X142984083Y-98892413D01*
X142859000Y-98820963D01*
X142833068Y-98805283D01*
X142713605Y-98728612D01*
X142642786Y-98669802D01*
X142607248Y-98615282D01*
X142593629Y-98551483D01*
X142582259Y-98434857D01*
X142007057Y-98434858D01*
X141431855Y-98434858D01*
X140240427Y-99127597D01*
X140205178Y-99148097D01*
X139938475Y-99303510D01*
X139691590Y-99447897D01*
X139471685Y-99577033D01*
X139285922Y-99686692D01*
X139141464Y-99772646D01*
X139045472Y-99830669D01*
X139005111Y-99856536D01*
X139004396Y-99857155D01*
X138980685Y-99912890D01*
X138961722Y-100022514D01*
X138950682Y-100167874D01*
X138940142Y-100443014D01*
X138411682Y-100754864D01*
X138286297Y-100695072D01*
X138262533Y-100684132D01*
X138185245Y-100654832D01*
X138147252Y-100650854D01*
X138143461Y-100656769D01*
X138110238Y-100713018D01*
X138046356Y-100822942D01*
X137955696Y-100979805D01*
X137842142Y-101176872D01*
X137709576Y-101407409D01*
X137561881Y-101664680D01*
X137402939Y-101941953D01*
X136672285Y-103217476D01*
X136454571Y-103217476D01*
X136454571Y-103159924D01*
X137214410Y-101840605D01*
X137342783Y-101617576D01*
X137505752Y-101333576D01*
X137637190Y-101102675D01*
X137740017Y-100919076D01*
X137817151Y-100776984D01*
X137871511Y-100670602D01*
X137906014Y-100594135D01*
X137923580Y-100541788D01*
X137927127Y-100507764D01*
X137919574Y-100486267D01*
X137903838Y-100471503D01*
X137887562Y-100458561D01*
X137859519Y-100419543D01*
X137843086Y-100355421D01*
X137835358Y-100250391D01*
X137833428Y-100088651D01*
X137833428Y-99755582D01*
X138112366Y-99596879D01*
X138391303Y-99438175D01*
X138621695Y-99561272D01*
X138672718Y-99588009D01*
X138788147Y-99640981D01*
X138863652Y-99659098D01*
X138914258Y-99646750D01*
X138916903Y-99645165D01*
X138969708Y-99614181D01*
X139076990Y-99551616D01*
X139231471Y-99461699D01*
X139425877Y-99348662D01*
X139652932Y-99216736D01*
X139905359Y-99070151D01*
X140175884Y-98913137D01*
X141375340Y-98217143D01*
X142586857Y-98217143D01*
X142586857Y-98111735D01*
G37*
X142586857Y-98111735D02*
X142588836Y-98078876D01*
X142606506Y-98029773D01*
X142652473Y-97980511D01*
X142738658Y-97919773D01*
X142876977Y-97836240D01*
X143167098Y-97666155D01*
X143448477Y-97828405D01*
X143512685Y-97865838D01*
X143626759Y-97937510D01*
X143694360Y-97993065D01*
X143728258Y-98044521D01*
X143741227Y-98103899D01*
X143752598Y-98217143D01*
X144947662Y-98217143D01*
X146237651Y-98960061D01*
X147527640Y-99702978D01*
X148014532Y-99437394D01*
X148294266Y-99591810D01*
X148574000Y-99746227D01*
X148574000Y-100085373D01*
X148573999Y-100091784D01*
X148572756Y-100249437D01*
X148566499Y-100351781D01*
X148551334Y-100415514D01*
X148523366Y-100457334D01*
X148478701Y-100493939D01*
X148383402Y-100563360D01*
X149131844Y-101851164D01*
X149880285Y-103138969D01*
X149880285Y-104264376D01*
X150170962Y-104424831D01*
X150461638Y-104585286D01*
X150442714Y-105273092D01*
X150161500Y-105436487D01*
X149880285Y-105599883D01*
X149880285Y-106719484D01*
X149130248Y-108025043D01*
X148380211Y-109330603D01*
X148477106Y-109401185D01*
X148478218Y-109401996D01*
X148523444Y-109439112D01*
X148551606Y-109481293D01*
X148566733Y-109545416D01*
X148572855Y-109648355D01*
X148574000Y-109806984D01*
X148574000Y-110142201D01*
X148019096Y-110459693D01*
X147759078Y-110320447D01*
X147499061Y-110181202D01*
X146242364Y-110912030D01*
X144985668Y-111642857D01*
X143752598Y-111642857D01*
X143741227Y-111756102D01*
X143737553Y-111782549D01*
X143717425Y-111837169D01*
X143671051Y-111888871D01*
X143585659Y-111949673D01*
X143448477Y-112031596D01*
X143167098Y-112193847D01*
X142876977Y-112023761D01*
X142789732Y-111971893D01*
X142683096Y-111902957D01*
X142621684Y-111850252D01*
X142593577Y-111802461D01*
X142586857Y-111748266D01*
X142586857Y-111642857D01*
X141979329Y-111642857D01*
X141371802Y-111642858D01*
X138877744Y-110212512D01*
X138635644Y-110344912D01*
X138393543Y-110477312D01*
X138113486Y-110314992D01*
X137833428Y-110152672D01*
X137833428Y-109813619D01*
X137834062Y-109698973D01*
X137838822Y-109576794D01*
X137850894Y-109500815D01*
X137873359Y-109455220D01*
X137909298Y-109424191D01*
X137925985Y-109410964D01*
X137936442Y-109392202D01*
X137936644Y-109362845D01*
X137923681Y-109317099D01*
X137894643Y-109249166D01*
X137846619Y-109153252D01*
X137776700Y-109023561D01*
X137681976Y-108854296D01*
X137559536Y-108639663D01*
X137406471Y-108373866D01*
X137219870Y-108051107D01*
X136454571Y-106728400D01*
X136454571Y-105513417D01*
X136236312Y-105394066D01*
X136018054Y-105274715D01*
X136027669Y-104931688D01*
X136037285Y-104588662D01*
X136245928Y-104464975D01*
X136454571Y-104341289D01*
X136454571Y-103217476D01*
X136672285Y-103217476D01*
X136672285Y-104309942D01*
X137180285Y-104606630D01*
X137180285Y-105248301D01*
X136926285Y-105399200D01*
X136672285Y-105550098D01*
X136672285Y-106674880D01*
X137425214Y-107976773D01*
X138178143Y-109278665D01*
X138289361Y-109214087D01*
X138400580Y-109149508D01*
X138670361Y-109305991D01*
X138940142Y-109462473D01*
X138976428Y-110016377D01*
X141423624Y-111425143D01*
X142582259Y-111425143D01*
X142593629Y-111308517D01*
X142594963Y-111296510D01*
X142611347Y-111235231D01*
X142651906Y-111180938D01*
X142730003Y-111120063D01*
X142859000Y-111039037D01*
X142892687Y-111019046D01*
X143014541Y-110951394D01*
X143112337Y-110904026D01*
X143167428Y-110886183D01*
X143176726Y-110887494D01*
X143244848Y-110913993D01*
X143350774Y-110967587D01*
X143475857Y-111039037D01*
X143501789Y-111054718D01*
X143621251Y-111131388D01*
X143692070Y-111190199D01*
X143727608Y-111244719D01*
X143741227Y-111308517D01*
X143752598Y-111425143D01*
X144927359Y-111425143D01*
X146188251Y-110692162D01*
X147449142Y-109959180D01*
X147449142Y-109467488D01*
X147726767Y-109304973D01*
X147860614Y-109229603D01*
X147959950Y-109183272D01*
X148026267Y-109168232D01*
X148073493Y-109179439D01*
X148120069Y-109198817D01*
X148176353Y-109204996D01*
X148181187Y-109200272D01*
X148217692Y-109146793D01*
X148284686Y-109039365D01*
X148378151Y-108884734D01*
X148494067Y-108689646D01*
X148628416Y-108460849D01*
X148777181Y-108205088D01*
X148936341Y-107929109D01*
X149662571Y-106664647D01*
X149661525Y-105456143D01*
X149480620Y-105356368D01*
X149299714Y-105256593D01*
X149299714Y-104607615D01*
X149481106Y-104505736D01*
X149662497Y-104403857D01*
X149655481Y-103170143D01*
X148935025Y-101937000D01*
X148890620Y-101861089D01*
X148733482Y-101593995D01*
X148587935Y-101348927D01*
X148458109Y-101132683D01*
X148348132Y-100952059D01*
X148262133Y-100813849D01*
X148204240Y-100724852D01*
X148178582Y-100691861D01*
X148145552Y-100691608D01*
X148074598Y-100716256D01*
X148038638Y-100726821D01*
X147974791Y-100717121D01*
X147878895Y-100676356D01*
X147736944Y-100599690D01*
X147467285Y-100446734D01*
X147456631Y-100175581D01*
X147445977Y-99904429D01*
X146168488Y-99169973D01*
X144891000Y-98435518D01*
X144321799Y-98435188D01*
X143752598Y-98434857D01*
X143741227Y-98551483D01*
X143739893Y-98563491D01*
X143723510Y-98624770D01*
X143682951Y-98679063D01*
X143604854Y-98739937D01*
X143475857Y-98820963D01*
X143442169Y-98840955D01*
X143320315Y-98908607D01*
X143222520Y-98955975D01*
X143167428Y-98973818D01*
X143158131Y-98972506D01*
X143090008Y-98946008D01*
X142984083Y-98892413D01*
X142859000Y-98820963D01*
X142833068Y-98805283D01*
X142713605Y-98728612D01*
X142642786Y-98669802D01*
X142607248Y-98615282D01*
X142593629Y-98551483D01*
X142582259Y-98434857D01*
X142007057Y-98434858D01*
X141431855Y-98434858D01*
X140240427Y-99127597D01*
X140205178Y-99148097D01*
X139938475Y-99303510D01*
X139691590Y-99447897D01*
X139471685Y-99577033D01*
X139285922Y-99686692D01*
X139141464Y-99772646D01*
X139045472Y-99830669D01*
X139005111Y-99856536D01*
X139004396Y-99857155D01*
X138980685Y-99912890D01*
X138961722Y-100022514D01*
X138950682Y-100167874D01*
X138940142Y-100443014D01*
X138411682Y-100754864D01*
X138286297Y-100695072D01*
X138262533Y-100684132D01*
X138185245Y-100654832D01*
X138147252Y-100650854D01*
X138143461Y-100656769D01*
X138110238Y-100713018D01*
X138046356Y-100822942D01*
X137955696Y-100979805D01*
X137842142Y-101176872D01*
X137709576Y-101407409D01*
X137561881Y-101664680D01*
X137402939Y-101941953D01*
X136672285Y-103217476D01*
X136454571Y-103217476D01*
X136454571Y-103159924D01*
X137214410Y-101840605D01*
X137342783Y-101617576D01*
X137505752Y-101333576D01*
X137637190Y-101102675D01*
X137740017Y-100919076D01*
X137817151Y-100776984D01*
X137871511Y-100670602D01*
X137906014Y-100594135D01*
X137923580Y-100541788D01*
X137927127Y-100507764D01*
X137919574Y-100486267D01*
X137903838Y-100471503D01*
X137887562Y-100458561D01*
X137859519Y-100419543D01*
X137843086Y-100355421D01*
X137835358Y-100250391D01*
X137833428Y-100088651D01*
X137833428Y-99755582D01*
X138112366Y-99596879D01*
X138391303Y-99438175D01*
X138621695Y-99561272D01*
X138672718Y-99588009D01*
X138788147Y-99640981D01*
X138863652Y-99659098D01*
X138914258Y-99646750D01*
X138916903Y-99645165D01*
X138969708Y-99614181D01*
X139076990Y-99551616D01*
X139231471Y-99461699D01*
X139425877Y-99348662D01*
X139652932Y-99216736D01*
X139905359Y-99070151D01*
X140175884Y-98913137D01*
X141375340Y-98217143D01*
X142586857Y-98217143D01*
X142586857Y-98111735D01*
X140997625Y-103197043D02*
X141008428Y-103423513D01*
X141008428Y-103423513D02*
X142020501Y-103859257D01*
X142020501Y-103859257D02*
X143032575Y-104295000D01*
X143032575Y-104295000D02*
X142074930Y-104313143D01*
X142074930Y-104313143D02*
X141816904Y-104319075D01*
X141816904Y-104319075D02*
X141581764Y-104326470D01*
X141581764Y-104326470D02*
X141379570Y-104334851D01*
X141379570Y-104334851D02*
X141220385Y-104343742D01*
X141220385Y-104343742D02*
X141114269Y-104352667D01*
X141114269Y-104352667D02*
X141071928Y-104360642D01*
X141071928Y-104360642D02*
X141036532Y-104418480D01*
X141036532Y-104418480D02*
X141026598Y-104507641D01*
X141026598Y-104507641D02*
X141040804Y-104595899D01*
X141040804Y-104595899D02*
X141077828Y-104651029D01*
X141077828Y-104651029D02*
X141083967Y-104653975D01*
X141083967Y-104653975D02*
X141132574Y-104659094D01*
X141132574Y-104659094D02*
X141245096Y-104663791D01*
X141245096Y-104663791D02*
X141412878Y-104667926D01*
X141412878Y-104667926D02*
X141627263Y-104671355D01*
X141627263Y-104671355D02*
X141879595Y-104673937D01*
X141879595Y-104673937D02*
X142161219Y-104675530D01*
X142161219Y-104675530D02*
X142426539Y-104676000D01*
X142426539Y-104676000D02*
X143711714Y-104676000D01*
X143711714Y-104676000D02*
X143711714Y-104214760D01*
X143711714Y-104214760D02*
X142722928Y-103787060D01*
X142722928Y-103787060D02*
X142471780Y-103677897D01*
X142471780Y-103677897D02*
X142241809Y-103576930D01*
X142241809Y-103576930D02*
X142041602Y-103488008D01*
X142041602Y-103488008D02*
X141879742Y-103414979D01*
X141879742Y-103414979D02*
X141764815Y-103361694D01*
X141764815Y-103361694D02*
X141705405Y-103332001D01*
X141705405Y-103332001D02*
X141699671Y-103328251D01*
X141699671Y-103328251D02*
X141724930Y-103319927D01*
X141724930Y-103319927D02*
X141814265Y-103312486D01*
X141814265Y-103312486D02*
X141959183Y-103306208D01*
X141959183Y-103306208D02*
X142151192Y-103301372D01*
X142151192Y-103301372D02*
X142381797Y-103298257D01*
X142381797Y-103298257D02*
X142642506Y-103297143D01*
X142642506Y-103297143D02*
X142644914Y-103297143D01*
X142644914Y-103297143D02*
X142950916Y-103296735D01*
X142950916Y-103296735D02*
X143192059Y-103294726D01*
X143192059Y-103294726D02*
X143376054Y-103289933D01*
X143376054Y-103289933D02*
X143510611Y-103281178D01*
X143510611Y-103281178D02*
X143603441Y-103267280D01*
X143603441Y-103267280D02*
X143662255Y-103247058D01*
X143662255Y-103247058D02*
X143694764Y-103219333D01*
X143694764Y-103219333D02*
X143708679Y-103182925D01*
X143708679Y-103182925D02*
X143711710Y-103136653D01*
X143711710Y-103136653D02*
X143711714Y-103133857D01*
X143711714Y-103133857D02*
X143692064Y-103050588D01*
X143692064Y-103050588D02*
X143668171Y-103014115D01*
X143668171Y-103014115D02*
X143635270Y-103001838D01*
X143635270Y-103001838D02*
X143560228Y-102991844D01*
X143560228Y-102991844D02*
X143438130Y-102983973D01*
X143438130Y-102983973D02*
X143264058Y-102978071D01*
X143264058Y-102978071D02*
X143033096Y-102973978D01*
X143033096Y-102973978D02*
X142740327Y-102971538D01*
X142740327Y-102971538D02*
X142380836Y-102970595D01*
X142380836Y-102970595D02*
X142305725Y-102970572D01*
X142305725Y-102970572D02*
X140986822Y-102970572D01*
X140986822Y-102970572D02*
X140997625Y-103197043D01*
X140997625Y-103197043D02*
X140997625Y-103197043D01*
G36*
X142380836Y-102970595D02*
G01*
X142740327Y-102971538D01*
X143033096Y-102973978D01*
X143264058Y-102978071D01*
X143438130Y-102983973D01*
X143560228Y-102991844D01*
X143635270Y-103001838D01*
X143668171Y-103014115D01*
X143692064Y-103050588D01*
X143711714Y-103133857D01*
X143711710Y-103136653D01*
X143708679Y-103182925D01*
X143694764Y-103219333D01*
X143662255Y-103247058D01*
X143603441Y-103267280D01*
X143510611Y-103281178D01*
X143376054Y-103289933D01*
X143192059Y-103294726D01*
X142950916Y-103296735D01*
X142644914Y-103297143D01*
X142642506Y-103297143D01*
X142381797Y-103298257D01*
X142151192Y-103301372D01*
X141959183Y-103306208D01*
X141814265Y-103312486D01*
X141724930Y-103319927D01*
X141699671Y-103328251D01*
X141705405Y-103332001D01*
X141764815Y-103361694D01*
X141879742Y-103414979D01*
X142041602Y-103488008D01*
X142241809Y-103576930D01*
X142471780Y-103677897D01*
X142722928Y-103787060D01*
X143711714Y-104214760D01*
X143711714Y-104676000D01*
X142426539Y-104676000D01*
X142161219Y-104675530D01*
X141879595Y-104673937D01*
X141627263Y-104671355D01*
X141412878Y-104667926D01*
X141245096Y-104663791D01*
X141132574Y-104659094D01*
X141083967Y-104653975D01*
X141077828Y-104651029D01*
X141040804Y-104595899D01*
X141026598Y-104507641D01*
X141036532Y-104418480D01*
X141071928Y-104360642D01*
X141114269Y-104352667D01*
X141220385Y-104343742D01*
X141379570Y-104334851D01*
X141581764Y-104326470D01*
X141816904Y-104319075D01*
X142074930Y-104313143D01*
X143032575Y-104295000D01*
X142020501Y-103859257D01*
X141008428Y-103423513D01*
X140997625Y-103197043D01*
X140986822Y-102970572D01*
X142305725Y-102970572D01*
X142380836Y-102970595D01*
G37*
X142380836Y-102970595D02*
X142740327Y-102971538D01*
X143033096Y-102973978D01*
X143264058Y-102978071D01*
X143438130Y-102983973D01*
X143560228Y-102991844D01*
X143635270Y-103001838D01*
X143668171Y-103014115D01*
X143692064Y-103050588D01*
X143711714Y-103133857D01*
X143711710Y-103136653D01*
X143708679Y-103182925D01*
X143694764Y-103219333D01*
X143662255Y-103247058D01*
X143603441Y-103267280D01*
X143510611Y-103281178D01*
X143376054Y-103289933D01*
X143192059Y-103294726D01*
X142950916Y-103296735D01*
X142644914Y-103297143D01*
X142642506Y-103297143D01*
X142381797Y-103298257D01*
X142151192Y-103301372D01*
X141959183Y-103306208D01*
X141814265Y-103312486D01*
X141724930Y-103319927D01*
X141699671Y-103328251D01*
X141705405Y-103332001D01*
X141764815Y-103361694D01*
X141879742Y-103414979D01*
X142041602Y-103488008D01*
X142241809Y-103576930D01*
X142471780Y-103677897D01*
X142722928Y-103787060D01*
X143711714Y-104214760D01*
X143711714Y-104676000D01*
X142426539Y-104676000D01*
X142161219Y-104675530D01*
X141879595Y-104673937D01*
X141627263Y-104671355D01*
X141412878Y-104667926D01*
X141245096Y-104663791D01*
X141132574Y-104659094D01*
X141083967Y-104653975D01*
X141077828Y-104651029D01*
X141040804Y-104595899D01*
X141026598Y-104507641D01*
X141036532Y-104418480D01*
X141071928Y-104360642D01*
X141114269Y-104352667D01*
X141220385Y-104343742D01*
X141379570Y-104334851D01*
X141581764Y-104326470D01*
X141816904Y-104319075D01*
X142074930Y-104313143D01*
X143032575Y-104295000D01*
X142020501Y-103859257D01*
X141008428Y-103423513D01*
X140997625Y-103197043D01*
X140986822Y-102970572D01*
X142305725Y-102970572D01*
X142380836Y-102970595D01*
X141834671Y-106234356D02*
X141875132Y-106424105D01*
X141875132Y-106424105D02*
X141960487Y-106587756D01*
X141960487Y-106587756D02*
X142097806Y-106745127D01*
X142097806Y-106745127D02*
X142098559Y-106745858D01*
X142098559Y-106745858D02*
X142162642Y-106804890D01*
X142162642Y-106804890D02*
X142219896Y-106842401D01*
X142219896Y-106842401D02*
X142289626Y-106864100D01*
X142289626Y-106864100D02*
X142391137Y-106875691D01*
X142391137Y-106875691D02*
X142543735Y-106882881D01*
X142543735Y-106882881D02*
X142564773Y-106883659D01*
X142564773Y-106883659D02*
X142720617Y-106888922D01*
X142720617Y-106888922D02*
X142836357Y-106885527D01*
X142836357Y-106885527D02*
X142917952Y-106864301D01*
X142917952Y-106864301D02*
X142971360Y-106816071D01*
X142971360Y-106816071D02*
X143002539Y-106731663D01*
X143002539Y-106731663D02*
X143017448Y-106601904D01*
X143017448Y-106601904D02*
X143022044Y-106417620D01*
X143022044Y-106417620D02*
X143022285Y-106179266D01*
X143022285Y-106179266D02*
X143023281Y-105941347D01*
X143023281Y-105941347D02*
X143028305Y-105769328D01*
X143028305Y-105769328D02*
X143040410Y-105656541D01*
X143040410Y-105656541D02*
X143062651Y-105596321D01*
X143062651Y-105596321D02*
X143098081Y-105582001D01*
X143098081Y-105582001D02*
X143149753Y-105606916D01*
X143149753Y-105606916D02*
X143220722Y-105664400D01*
X143220722Y-105664400D02*
X143247341Y-105687990D01*
X143247341Y-105687990D02*
X143364685Y-105792836D01*
X143364685Y-105792836D02*
X143378867Y-106295775D01*
X143378867Y-106295775D02*
X143386580Y-106482229D01*
X143386580Y-106482229D02*
X143397881Y-106644243D01*
X143397881Y-106644243D02*
X143411406Y-106767155D01*
X143411406Y-106767155D02*
X143425795Y-106836302D01*
X143425795Y-106836302D02*
X143429825Y-106844072D01*
X143429825Y-106844072D02*
X143503046Y-106884871D01*
X143503046Y-106884871D02*
X143593555Y-106879862D01*
X143593555Y-106879862D02*
X143665523Y-106832686D01*
X143665523Y-106832686D02*
X143674152Y-106819243D01*
X143674152Y-106819243D02*
X143687882Y-106758183D01*
X143687882Y-106758183D02*
X143699301Y-106639296D01*
X143699301Y-106639296D02*
X143707474Y-106477315D01*
X143707474Y-106477315D02*
X143711469Y-106286972D01*
X143711469Y-106286972D02*
X143711714Y-106225747D01*
X143711714Y-106225747D02*
X143711714Y-105702436D01*
X143711714Y-105702436D02*
X143583143Y-105534052D01*
X143583143Y-105534052D02*
X143497030Y-105428974D01*
X143497030Y-105428974D02*
X143415091Y-105354205D01*
X143415091Y-105354205D02*
X143322656Y-105304690D01*
X143322656Y-105304690D02*
X143205056Y-105275378D01*
X143205056Y-105275378D02*
X143047620Y-105261215D01*
X143047620Y-105261215D02*
X142835679Y-105257147D01*
X142835679Y-105257147D02*
X142779159Y-105257107D01*
X142779159Y-105257107D02*
X142547377Y-105261344D01*
X142547377Y-105261344D02*
X142529637Y-105262525D01*
X142529637Y-105262525D02*
X142529637Y-105583143D01*
X142529637Y-105583143D02*
X142659428Y-105583143D01*
X142659428Y-105583143D02*
X142659428Y-106562858D01*
X142659428Y-106562858D02*
X142535212Y-106562858D01*
X142535212Y-106562858D02*
X142389127Y-106527701D01*
X142389127Y-106527701D02*
X142299355Y-106468918D01*
X142299355Y-106468918D02*
X142243633Y-106418047D01*
X142243633Y-106418047D02*
X142210419Y-106368097D01*
X142210419Y-106368097D02*
X142193904Y-106299098D01*
X142193904Y-106299098D02*
X142188281Y-106191085D01*
X142188281Y-106191085D02*
X142187714Y-106085126D01*
X142187714Y-106085126D02*
X142189605Y-105937598D01*
X142189605Y-105937598D02*
X142199011Y-105841719D01*
X142199011Y-105841719D02*
X142221529Y-105776592D01*
X142221529Y-105776592D02*
X142262758Y-105721322D01*
X142262758Y-105721322D02*
X142293780Y-105689209D01*
X142293780Y-105689209D02*
X142401815Y-105608589D01*
X142401815Y-105608589D02*
X142521119Y-105583221D01*
X142521119Y-105583221D02*
X142529637Y-105583143D01*
X142529637Y-105583143D02*
X142529637Y-105262525D01*
X142529637Y-105262525D02*
X142371053Y-105273089D01*
X142371053Y-105273089D02*
X142257048Y-105291776D01*
X142257048Y-105291776D02*
X142227585Y-105302464D01*
X142227585Y-105302464D02*
X142157291Y-105354204D01*
X142157291Y-105354204D02*
X142065437Y-105441765D01*
X142065437Y-105441765D02*
X141994257Y-105520355D01*
X141994257Y-105520355D02*
X141922284Y-105609270D01*
X141922284Y-105609270D02*
X141877775Y-105682418D01*
X141877775Y-105682418D02*
X141852812Y-105763148D01*
X141852812Y-105763148D02*
X141839476Y-105874809D01*
X141839476Y-105874809D02*
X141832036Y-105998693D01*
X141832036Y-105998693D02*
X141834671Y-106234356D01*
X141834671Y-106234356D02*
X141834671Y-106234356D01*
G36*
X142779159Y-105257107D02*
G01*
X142835679Y-105257147D01*
X143047620Y-105261215D01*
X143205056Y-105275378D01*
X143322656Y-105304690D01*
X143415091Y-105354205D01*
X143497030Y-105428974D01*
X143583143Y-105534052D01*
X143711714Y-105702436D01*
X143711714Y-106225747D01*
X143711469Y-106286972D01*
X143707474Y-106477315D01*
X143699301Y-106639296D01*
X143687882Y-106758183D01*
X143674152Y-106819243D01*
X143665523Y-106832686D01*
X143593555Y-106879862D01*
X143503046Y-106884871D01*
X143429825Y-106844072D01*
X143425795Y-106836302D01*
X143411406Y-106767155D01*
X143397881Y-106644243D01*
X143386580Y-106482229D01*
X143378867Y-106295775D01*
X143364685Y-105792836D01*
X143247341Y-105687990D01*
X143220722Y-105664400D01*
X143149753Y-105606916D01*
X143098081Y-105582001D01*
X143062651Y-105596321D01*
X143040410Y-105656541D01*
X143028305Y-105769328D01*
X143023281Y-105941347D01*
X143022285Y-106179266D01*
X143022044Y-106417620D01*
X143017448Y-106601904D01*
X143002539Y-106731663D01*
X142971360Y-106816071D01*
X142917952Y-106864301D01*
X142836357Y-106885527D01*
X142720617Y-106888922D01*
X142564773Y-106883659D01*
X142543735Y-106882881D01*
X142391137Y-106875691D01*
X142289626Y-106864100D01*
X142219896Y-106842401D01*
X142162642Y-106804890D01*
X142098559Y-106745858D01*
X142097806Y-106745127D01*
X141960487Y-106587756D01*
X141875132Y-106424105D01*
X141834671Y-106234356D01*
X141833003Y-106085126D01*
X142187714Y-106085126D01*
X142188281Y-106191085D01*
X142193904Y-106299098D01*
X142210419Y-106368097D01*
X142243633Y-106418047D01*
X142299355Y-106468918D01*
X142389127Y-106527701D01*
X142535212Y-106562858D01*
X142659428Y-106562858D01*
X142659428Y-105583143D01*
X142529637Y-105583143D01*
X142521119Y-105583221D01*
X142401815Y-105608589D01*
X142293780Y-105689209D01*
X142262758Y-105721322D01*
X142221529Y-105776592D01*
X142199011Y-105841719D01*
X142189605Y-105937598D01*
X142187714Y-106085126D01*
X141833003Y-106085126D01*
X141832036Y-105998693D01*
X141839476Y-105874809D01*
X141852812Y-105763148D01*
X141877775Y-105682418D01*
X141922284Y-105609270D01*
X141994257Y-105520355D01*
X142065437Y-105441765D01*
X142157291Y-105354204D01*
X142227585Y-105302464D01*
X142257048Y-105291776D01*
X142371053Y-105273089D01*
X142529637Y-105262525D01*
X142547377Y-105261344D01*
X142779159Y-105257107D01*
G37*
X142779159Y-105257107D02*
X142835679Y-105257147D01*
X143047620Y-105261215D01*
X143205056Y-105275378D01*
X143322656Y-105304690D01*
X143415091Y-105354205D01*
X143497030Y-105428974D01*
X143583143Y-105534052D01*
X143711714Y-105702436D01*
X143711714Y-106225747D01*
X143711469Y-106286972D01*
X143707474Y-106477315D01*
X143699301Y-106639296D01*
X143687882Y-106758183D01*
X143674152Y-106819243D01*
X143665523Y-106832686D01*
X143593555Y-106879862D01*
X143503046Y-106884871D01*
X143429825Y-106844072D01*
X143425795Y-106836302D01*
X143411406Y-106767155D01*
X143397881Y-106644243D01*
X143386580Y-106482229D01*
X143378867Y-106295775D01*
X143364685Y-105792836D01*
X143247341Y-105687990D01*
X143220722Y-105664400D01*
X143149753Y-105606916D01*
X143098081Y-105582001D01*
X143062651Y-105596321D01*
X143040410Y-105656541D01*
X143028305Y-105769328D01*
X143023281Y-105941347D01*
X143022285Y-106179266D01*
X143022044Y-106417620D01*
X143017448Y-106601904D01*
X143002539Y-106731663D01*
X142971360Y-106816071D01*
X142917952Y-106864301D01*
X142836357Y-106885527D01*
X142720617Y-106888922D01*
X142564773Y-106883659D01*
X142543735Y-106882881D01*
X142391137Y-106875691D01*
X142289626Y-106864100D01*
X142219896Y-106842401D01*
X142162642Y-106804890D01*
X142098559Y-106745858D01*
X142097806Y-106745127D01*
X141960487Y-106587756D01*
X141875132Y-106424105D01*
X141834671Y-106234356D01*
X141833003Y-106085126D01*
X142187714Y-106085126D01*
X142188281Y-106191085D01*
X142193904Y-106299098D01*
X142210419Y-106368097D01*
X142243633Y-106418047D01*
X142299355Y-106468918D01*
X142389127Y-106527701D01*
X142535212Y-106562858D01*
X142659428Y-106562858D01*
X142659428Y-105583143D01*
X142529637Y-105583143D01*
X142521119Y-105583221D01*
X142401815Y-105608589D01*
X142293780Y-105689209D01*
X142262758Y-105721322D01*
X142221529Y-105776592D01*
X142199011Y-105841719D01*
X142189605Y-105937598D01*
X142187714Y-106085126D01*
X141833003Y-106085126D01*
X141832036Y-105998693D01*
X141839476Y-105874809D01*
X141852812Y-105763148D01*
X141877775Y-105682418D01*
X141922284Y-105609270D01*
X141994257Y-105520355D01*
X142065437Y-105441765D01*
X142157291Y-105354204D01*
X142227585Y-105302464D01*
X142257048Y-105291776D01*
X142371053Y-105273089D01*
X142529637Y-105262525D01*
X142547377Y-105261344D01*
X142779159Y-105257107D01*
X144407010Y-104605088D02*
X144456599Y-104670604D01*
X144456599Y-104670604D02*
X144533742Y-104748104D01*
X144533742Y-104748104D02*
X144608010Y-104777883D01*
X144608010Y-104777883D02*
X144687183Y-104777689D01*
X144687183Y-104777689D02*
X144818428Y-104766715D01*
X144818428Y-104766715D02*
X144829211Y-104519455D01*
X144829211Y-104519455D02*
X144837535Y-104387535D01*
X144837535Y-104387535D02*
X144850946Y-104314050D01*
X144850946Y-104314050D02*
X144873798Y-104284870D01*
X144873798Y-104284870D02*
X144901782Y-104283923D01*
X144901782Y-104283923D02*
X144938141Y-104307248D01*
X144938141Y-104307248D02*
X144961989Y-104370108D01*
X144961989Y-104370108D02*
X144978008Y-104486990D01*
X144978008Y-104486990D02*
X144981714Y-104531183D01*
X144981714Y-104531183D02*
X144996710Y-104666441D01*
X144996710Y-104666441D02*
X145017991Y-104740926D01*
X145017991Y-104740926D02*
X145049177Y-104766392D01*
X145049177Y-104766392D02*
X145054285Y-104766715D01*
X145054285Y-104766715D02*
X145085918Y-104748821D01*
X145085918Y-104748821D02*
X145105787Y-104686727D01*
X145105787Y-104686727D02*
X145117349Y-104567813D01*
X145117349Y-104567813D02*
X145119267Y-104529503D01*
X145119267Y-104529503D02*
X145121989Y-104395829D01*
X145121989Y-104395829D02*
X145111801Y-104311532D01*
X145111801Y-104311532D02*
X145083323Y-104253809D01*
X145083323Y-104253809D02*
X145044357Y-104212003D01*
X145044357Y-104212003D02*
X144976806Y-104163824D01*
X144976806Y-104163824D02*
X144889940Y-104139271D01*
X144889940Y-104139271D02*
X144758874Y-104131779D01*
X144758874Y-104131779D02*
X144740071Y-104131715D01*
X144740071Y-104131715D02*
X144649777Y-104138982D01*
X144649777Y-104138982D02*
X144649777Y-104283405D01*
X144649777Y-104283405D02*
X144695576Y-104283407D01*
X144695576Y-104283407D02*
X144718789Y-104312393D01*
X144718789Y-104312393D02*
X144726933Y-104387228D01*
X144726933Y-104387228D02*
X144727714Y-104458286D01*
X144727714Y-104458286D02*
X144724987Y-104567371D01*
X144724987Y-104567371D02*
X144711571Y-104620907D01*
X144711571Y-104620907D02*
X144679617Y-104635863D01*
X144679617Y-104635863D02*
X144646801Y-104633167D01*
X144646801Y-104633167D02*
X144572636Y-104590572D01*
X144572636Y-104590572D02*
X144524469Y-104506347D01*
X144524469Y-104506347D02*
X144514459Y-104410103D01*
X144514459Y-104410103D02*
X144533242Y-104356586D01*
X144533242Y-104356586D02*
X144599315Y-104300611D01*
X144599315Y-104300611D02*
X144649777Y-104283405D01*
X144649777Y-104283405D02*
X144649777Y-104138982D01*
X144649777Y-104138982D02*
X144577447Y-104144804D01*
X144577447Y-104144804D02*
X144470922Y-104190622D01*
X144470922Y-104190622D02*
X144407727Y-104278997D01*
X144407727Y-104278997D02*
X144376126Y-104411885D01*
X144376126Y-104411885D02*
X144373055Y-104518983D01*
X144373055Y-104518983D02*
X144407010Y-104605088D01*
X144407010Y-104605088D02*
X144407010Y-104605088D01*
G36*
X144758874Y-104131779D02*
G01*
X144889940Y-104139271D01*
X144976806Y-104163824D01*
X145044357Y-104212003D01*
X145083323Y-104253809D01*
X145111801Y-104311532D01*
X145121989Y-104395829D01*
X145119267Y-104529503D01*
X145117349Y-104567813D01*
X145105787Y-104686727D01*
X145085918Y-104748821D01*
X145054285Y-104766715D01*
X145049177Y-104766392D01*
X145017991Y-104740926D01*
X144996710Y-104666441D01*
X144981714Y-104531183D01*
X144978008Y-104486990D01*
X144961989Y-104370108D01*
X144938141Y-104307248D01*
X144901782Y-104283923D01*
X144873798Y-104284870D01*
X144850946Y-104314050D01*
X144837535Y-104387535D01*
X144829211Y-104519455D01*
X144818428Y-104766715D01*
X144687183Y-104777689D01*
X144608010Y-104777883D01*
X144533742Y-104748104D01*
X144456599Y-104670604D01*
X144407010Y-104605088D01*
X144373055Y-104518983D01*
X144376126Y-104411885D01*
X144376549Y-104410103D01*
X144514459Y-104410103D01*
X144524469Y-104506347D01*
X144572636Y-104590572D01*
X144646801Y-104633167D01*
X144679617Y-104635863D01*
X144711571Y-104620907D01*
X144724987Y-104567371D01*
X144727714Y-104458286D01*
X144726933Y-104387228D01*
X144718789Y-104312393D01*
X144695576Y-104283407D01*
X144649777Y-104283405D01*
X144599315Y-104300611D01*
X144533242Y-104356586D01*
X144514459Y-104410103D01*
X144376549Y-104410103D01*
X144407727Y-104278997D01*
X144470922Y-104190622D01*
X144577447Y-104144804D01*
X144649777Y-104138982D01*
X144740071Y-104131715D01*
X144758874Y-104131779D01*
G37*
X144758874Y-104131779D02*
X144889940Y-104139271D01*
X144976806Y-104163824D01*
X145044357Y-104212003D01*
X145083323Y-104253809D01*
X145111801Y-104311532D01*
X145121989Y-104395829D01*
X145119267Y-104529503D01*
X145117349Y-104567813D01*
X145105787Y-104686727D01*
X145085918Y-104748821D01*
X145054285Y-104766715D01*
X145049177Y-104766392D01*
X145017991Y-104740926D01*
X144996710Y-104666441D01*
X144981714Y-104531183D01*
X144978008Y-104486990D01*
X144961989Y-104370108D01*
X144938141Y-104307248D01*
X144901782Y-104283923D01*
X144873798Y-104284870D01*
X144850946Y-104314050D01*
X144837535Y-104387535D01*
X144829211Y-104519455D01*
X144818428Y-104766715D01*
X144687183Y-104777689D01*
X144608010Y-104777883D01*
X144533742Y-104748104D01*
X144456599Y-104670604D01*
X144407010Y-104605088D01*
X144373055Y-104518983D01*
X144376126Y-104411885D01*
X144376549Y-104410103D01*
X144514459Y-104410103D01*
X144524469Y-104506347D01*
X144572636Y-104590572D01*
X144646801Y-104633167D01*
X144679617Y-104635863D01*
X144711571Y-104620907D01*
X144724987Y-104567371D01*
X144727714Y-104458286D01*
X144726933Y-104387228D01*
X144718789Y-104312393D01*
X144695576Y-104283407D01*
X144649777Y-104283405D01*
X144599315Y-104300611D01*
X144533242Y-104356586D01*
X144514459Y-104410103D01*
X144376549Y-104410103D01*
X144407727Y-104278997D01*
X144470922Y-104190622D01*
X144577447Y-104144804D01*
X144649777Y-104138982D01*
X144740071Y-104131715D01*
X144758874Y-104131779D01*
X138114642Y-105375164D02*
X138323285Y-105496986D01*
X138323285Y-105496986D02*
X138343861Y-106226694D01*
X138343861Y-106226694D02*
X139004859Y-107362535D01*
X139004859Y-107362535D02*
X139665857Y-108498377D01*
X139665857Y-108498377D02*
X140790714Y-109145090D01*
X140790714Y-109145090D02*
X141915571Y-109791804D01*
X141915571Y-109791804D02*
X144537045Y-109792286D01*
X144537045Y-109792286D02*
X145639308Y-109154275D01*
X145639308Y-109154275D02*
X145898678Y-109003257D01*
X145898678Y-109003257D02*
X146139516Y-108861327D01*
X146139516Y-108861327D02*
X146354204Y-108733105D01*
X146354204Y-108733105D02*
X146535123Y-108623212D01*
X146535123Y-108623212D02*
X146674654Y-108536267D01*
X146674654Y-108536267D02*
X146765179Y-108476891D01*
X146765179Y-108476891D02*
X146797705Y-108451781D01*
X146797705Y-108451781D02*
X146828564Y-108405856D01*
X146828564Y-108405856D02*
X146890768Y-108304640D01*
X146890768Y-108304640D02*
X146979732Y-108155898D01*
X146979732Y-108155898D02*
X147090873Y-107967394D01*
X147090873Y-107967394D02*
X147219608Y-107746890D01*
X147219608Y-107746890D02*
X147361354Y-107502152D01*
X147361354Y-107502152D02*
X147478062Y-107299316D01*
X147478062Y-107299316D02*
X148102285Y-106211333D01*
X148102285Y-106211333D02*
X148102285Y-105526029D01*
X148102285Y-105526029D02*
X148338142Y-105390376D01*
X148338142Y-105390376D02*
X148574000Y-105254723D01*
X148574000Y-105254723D02*
X148574000Y-104605278D01*
X148574000Y-104605278D02*
X148338142Y-104469625D01*
X148338142Y-104469625D02*
X148102285Y-104333972D01*
X148102285Y-104333972D02*
X148102285Y-103604738D01*
X148102285Y-103604738D02*
X146777857Y-101325944D01*
X146777857Y-101325944D02*
X145653000Y-100678928D01*
X145653000Y-100678928D02*
X144528143Y-100031911D01*
X144528143Y-100031911D02*
X141965311Y-100031440D01*
X141965311Y-100031440D02*
X141965311Y-100249143D01*
X141965311Y-100249143D02*
X144467959Y-100249143D01*
X144467959Y-100249143D02*
X145550336Y-100872076D01*
X145550336Y-100872076D02*
X146632714Y-101495009D01*
X146632714Y-101495009D02*
X147879282Y-103641857D01*
X147879282Y-103641857D02*
X147881674Y-103986572D01*
X147881674Y-103986572D02*
X147884065Y-104331286D01*
X147884065Y-104331286D02*
X147657532Y-104459552D01*
X147657532Y-104459552D02*
X147431000Y-104587818D01*
X147431000Y-104587818D02*
X147431000Y-105272183D01*
X147431000Y-105272183D02*
X147657532Y-105400449D01*
X147657532Y-105400449D02*
X147884065Y-105528715D01*
X147884065Y-105528715D02*
X147884318Y-105843109D01*
X147884318Y-105843109D02*
X147884571Y-106157504D01*
X147884571Y-106157504D02*
X147261872Y-107240109D01*
X147261872Y-107240109D02*
X146639172Y-108322715D01*
X146639172Y-108322715D02*
X145558787Y-108948643D01*
X145558787Y-108948643D02*
X144478402Y-109574572D01*
X144478402Y-109574572D02*
X141975113Y-109574572D01*
X141975113Y-109574572D02*
X140929342Y-108973770D01*
X140929342Y-108973770D02*
X140676394Y-108827644D01*
X140676394Y-108827644D02*
X140441928Y-108690656D01*
X140441928Y-108690656D02*
X140233842Y-108567539D01*
X140233842Y-108567539D02*
X140060034Y-108463027D01*
X140060034Y-108463027D02*
X139928401Y-108381852D01*
X139928401Y-108381852D02*
X139846840Y-108328748D01*
X139846840Y-108328748D02*
X139824447Y-108311556D01*
X139824447Y-108311556D02*
X139792483Y-108266144D01*
X139792483Y-108266144D02*
X139729141Y-108165703D01*
X139729141Y-108165703D02*
X139639172Y-108018145D01*
X139639172Y-108018145D02*
X139527326Y-107831379D01*
X139527326Y-107831379D02*
X139398352Y-107613317D01*
X139398352Y-107613317D02*
X139257001Y-107371870D01*
X139257001Y-107371870D02*
X139162233Y-107208720D01*
X139162233Y-107208720D02*
X138559143Y-106167297D01*
X138559143Y-106167297D02*
X138559143Y-105860042D01*
X138559143Y-105860042D02*
X138559142Y-105552787D01*
X138559142Y-105552787D02*
X138804071Y-105412084D01*
X138804071Y-105412084D02*
X139049000Y-105271382D01*
X139049000Y-105271382D02*
X139049000Y-104588619D01*
X139049000Y-104588619D02*
X138804071Y-104447916D01*
X138804071Y-104447916D02*
X138559143Y-104307214D01*
X138559143Y-104307214D02*
X138559143Y-103993641D01*
X138559143Y-103993641D02*
X138559142Y-103680069D01*
X138559142Y-103680069D02*
X139181213Y-102590535D01*
X139181213Y-102590535D02*
X139803283Y-101501000D01*
X139803283Y-101501000D02*
X140884297Y-100875072D01*
X140884297Y-100875072D02*
X141965311Y-100249143D01*
X141965311Y-100249143D02*
X141965311Y-100031440D01*
X141965311Y-100031440D02*
X141906669Y-100031429D01*
X141906669Y-100031429D02*
X140804406Y-100670289D01*
X140804406Y-100670289D02*
X140545957Y-100820545D01*
X140545957Y-100820545D02*
X140306621Y-100960574D01*
X140306621Y-100960574D02*
X140093881Y-101085932D01*
X140093881Y-101085932D02*
X139915216Y-101192172D01*
X139915216Y-101192172D02*
X139778110Y-101274849D01*
X139778110Y-101274849D02*
X139690044Y-101329519D01*
X139690044Y-101329519D02*
X139659334Y-101350646D01*
X139659334Y-101350646D02*
X139631652Y-101390935D01*
X139631652Y-101390935D02*
X139572355Y-101486648D01*
X139572355Y-101486648D02*
X139485918Y-101630251D01*
X139485918Y-101630251D02*
X139376814Y-101814207D01*
X139376814Y-101814207D02*
X139249519Y-102030979D01*
X139249519Y-102030979D02*
X139108508Y-102273033D01*
X139108508Y-102273033D02*
X138988311Y-102480715D01*
X138988311Y-102480715D02*
X138360096Y-103569286D01*
X138360096Y-103569286D02*
X138341691Y-103966212D01*
X138341691Y-103966212D02*
X138323285Y-104363139D01*
X138323285Y-104363139D02*
X138114642Y-104484899D01*
X138114642Y-104484899D02*
X137906000Y-104606659D01*
X137906000Y-104606659D02*
X137906000Y-105253342D01*
X137906000Y-105253342D02*
X138114642Y-105375164D01*
X138114642Y-105375164D02*
X138114642Y-105375164D01*
G36*
X145653000Y-100678928D02*
G01*
X146777857Y-101325944D01*
X148102285Y-103604738D01*
X148102285Y-104333972D01*
X148338142Y-104469625D01*
X148574000Y-104605278D01*
X148574000Y-105254723D01*
X148338142Y-105390376D01*
X148102285Y-105526029D01*
X148102285Y-106211333D01*
X147478062Y-107299316D01*
X147361354Y-107502152D01*
X147219608Y-107746890D01*
X147090873Y-107967394D01*
X146979732Y-108155898D01*
X146890768Y-108304640D01*
X146828564Y-108405856D01*
X146797705Y-108451781D01*
X146765179Y-108476891D01*
X146674654Y-108536267D01*
X146535123Y-108623212D01*
X146354204Y-108733105D01*
X146139516Y-108861327D01*
X145898678Y-109003257D01*
X145639308Y-109154275D01*
X144537045Y-109792286D01*
X141915571Y-109791804D01*
X140790714Y-109145090D01*
X139665857Y-108498377D01*
X139004859Y-107362535D01*
X138343861Y-106226694D01*
X138323285Y-105496986D01*
X138114642Y-105375164D01*
X137906000Y-105253342D01*
X137906000Y-104606659D01*
X138114642Y-104484899D01*
X138323285Y-104363139D01*
X138341691Y-103966212D01*
X138354959Y-103680069D01*
X138559142Y-103680069D01*
X138559143Y-103993641D01*
X138559143Y-104307214D01*
X138804071Y-104447916D01*
X139049000Y-104588619D01*
X139049000Y-105271382D01*
X138804071Y-105412084D01*
X138559142Y-105552787D01*
X138559143Y-105860042D01*
X138559143Y-106167297D01*
X139162233Y-107208720D01*
X139257001Y-107371870D01*
X139398352Y-107613317D01*
X139527326Y-107831379D01*
X139639172Y-108018145D01*
X139729141Y-108165703D01*
X139792483Y-108266144D01*
X139824447Y-108311556D01*
X139846840Y-108328748D01*
X139928401Y-108381852D01*
X140060034Y-108463027D01*
X140233842Y-108567539D01*
X140441928Y-108690656D01*
X140676394Y-108827644D01*
X140929342Y-108973770D01*
X141975113Y-109574572D01*
X144478402Y-109574572D01*
X145558787Y-108948643D01*
X146639172Y-108322715D01*
X147261872Y-107240109D01*
X147884571Y-106157504D01*
X147884318Y-105843109D01*
X147884065Y-105528715D01*
X147657532Y-105400449D01*
X147431000Y-105272183D01*
X147431000Y-104587818D01*
X147657532Y-104459552D01*
X147884065Y-104331286D01*
X147881674Y-103986572D01*
X147879282Y-103641857D01*
X146632714Y-101495009D01*
X145550336Y-100872076D01*
X144467959Y-100249143D01*
X141965311Y-100249143D01*
X140884297Y-100875072D01*
X139803283Y-101501000D01*
X139181213Y-102590535D01*
X138559142Y-103680069D01*
X138354959Y-103680069D01*
X138360096Y-103569286D01*
X138988311Y-102480715D01*
X139108508Y-102273033D01*
X139249519Y-102030979D01*
X139376814Y-101814207D01*
X139485918Y-101630251D01*
X139572355Y-101486648D01*
X139631652Y-101390935D01*
X139659334Y-101350646D01*
X139690044Y-101329519D01*
X139778110Y-101274849D01*
X139915216Y-101192172D01*
X140093881Y-101085932D01*
X140306621Y-100960574D01*
X140545957Y-100820545D01*
X140804406Y-100670289D01*
X141906669Y-100031429D01*
X141965311Y-100031440D01*
X144528143Y-100031911D01*
X145653000Y-100678928D01*
G37*
X145653000Y-100678928D02*
X146777857Y-101325944D01*
X148102285Y-103604738D01*
X148102285Y-104333972D01*
X148338142Y-104469625D01*
X148574000Y-104605278D01*
X148574000Y-105254723D01*
X148338142Y-105390376D01*
X148102285Y-105526029D01*
X148102285Y-106211333D01*
X147478062Y-107299316D01*
X147361354Y-107502152D01*
X147219608Y-107746890D01*
X147090873Y-107967394D01*
X146979732Y-108155898D01*
X146890768Y-108304640D01*
X146828564Y-108405856D01*
X146797705Y-108451781D01*
X146765179Y-108476891D01*
X146674654Y-108536267D01*
X146535123Y-108623212D01*
X146354204Y-108733105D01*
X146139516Y-108861327D01*
X145898678Y-109003257D01*
X145639308Y-109154275D01*
X144537045Y-109792286D01*
X141915571Y-109791804D01*
X140790714Y-109145090D01*
X139665857Y-108498377D01*
X139004859Y-107362535D01*
X138343861Y-106226694D01*
X138323285Y-105496986D01*
X138114642Y-105375164D01*
X137906000Y-105253342D01*
X137906000Y-104606659D01*
X138114642Y-104484899D01*
X138323285Y-104363139D01*
X138341691Y-103966212D01*
X138354959Y-103680069D01*
X138559142Y-103680069D01*
X138559143Y-103993641D01*
X138559143Y-104307214D01*
X138804071Y-104447916D01*
X139049000Y-104588619D01*
X139049000Y-105271382D01*
X138804071Y-105412084D01*
X138559142Y-105552787D01*
X138559143Y-105860042D01*
X138559143Y-106167297D01*
X139162233Y-107208720D01*
X139257001Y-107371870D01*
X139398352Y-107613317D01*
X139527326Y-107831379D01*
X139639172Y-108018145D01*
X139729141Y-108165703D01*
X139792483Y-108266144D01*
X139824447Y-108311556D01*
X139846840Y-108328748D01*
X139928401Y-108381852D01*
X140060034Y-108463027D01*
X140233842Y-108567539D01*
X140441928Y-108690656D01*
X140676394Y-108827644D01*
X140929342Y-108973770D01*
X141975113Y-109574572D01*
X144478402Y-109574572D01*
X145558787Y-108948643D01*
X146639172Y-108322715D01*
X147261872Y-107240109D01*
X147884571Y-106157504D01*
X147884318Y-105843109D01*
X147884065Y-105528715D01*
X147657532Y-105400449D01*
X147431000Y-105272183D01*
X147431000Y-104587818D01*
X147657532Y-104459552D01*
X147884065Y-104331286D01*
X147881674Y-103986572D01*
X147879282Y-103641857D01*
X146632714Y-101495009D01*
X145550336Y-100872076D01*
X144467959Y-100249143D01*
X141965311Y-100249143D01*
X140884297Y-100875072D01*
X139803283Y-101501000D01*
X139181213Y-102590535D01*
X138559142Y-103680069D01*
X138354959Y-103680069D01*
X138360096Y-103569286D01*
X138988311Y-102480715D01*
X139108508Y-102273033D01*
X139249519Y-102030979D01*
X139376814Y-101814207D01*
X139485918Y-101630251D01*
X139572355Y-101486648D01*
X139631652Y-101390935D01*
X139659334Y-101350646D01*
X139690044Y-101329519D01*
X139778110Y-101274849D01*
X139915216Y-101192172D01*
X140093881Y-101085932D01*
X140306621Y-100960574D01*
X140545957Y-100820545D01*
X140804406Y-100670289D01*
X141906669Y-100031429D01*
X141965311Y-100031440D01*
X144528143Y-100031911D01*
X145653000Y-100678928D01*
X144044947Y-103285365D02*
X144056633Y-103330043D01*
X144056633Y-103330043D02*
X144087604Y-103369560D01*
X144087604Y-103369560D02*
X144149376Y-103411379D01*
X144149376Y-103411379D02*
X144253464Y-103462965D01*
X144253464Y-103462965D02*
X144411386Y-103531781D01*
X144411386Y-103531781D02*
X144450843Y-103548437D01*
X144450843Y-103548437D02*
X144845258Y-103714429D01*
X144845258Y-103714429D02*
X144450843Y-103732572D01*
X144450843Y-103732572D02*
X144292656Y-103742206D01*
X144292656Y-103742206D02*
X144166442Y-103754401D01*
X144166442Y-103754401D02*
X144086478Y-103767477D01*
X144086478Y-103767477D02*
X144065500Y-103777929D01*
X144065500Y-103777929D02*
X144074530Y-103837859D01*
X144074530Y-103837859D02*
X144074571Y-103841429D01*
X144074571Y-103841429D02*
X144109741Y-103856389D01*
X144109741Y-103856389D02*
X144210925Y-103867720D01*
X144210925Y-103867720D02*
X144371636Y-103874974D01*
X144371636Y-103874974D02*
X144585386Y-103877704D01*
X144585386Y-103877704D02*
X144600714Y-103877715D01*
X144600714Y-103877715D02*
X145126857Y-103877715D01*
X145126857Y-103877715D02*
X145126315Y-103777929D01*
X145126315Y-103777929D02*
X145121170Y-103732798D01*
X145121170Y-103732798D02*
X145098699Y-103694796D01*
X145098699Y-103694796D02*
X145047514Y-103656156D01*
X145047514Y-103656156D02*
X144956228Y-103609112D01*
X144956228Y-103609112D02*
X144813452Y-103545897D01*
X144813452Y-103545897D02*
X144740587Y-103514857D01*
X144740587Y-103514857D02*
X144355400Y-103351572D01*
X144355400Y-103351572D02*
X144729152Y-103333429D01*
X144729152Y-103333429D02*
X144923983Y-103319589D01*
X144923983Y-103319589D02*
X145050997Y-103299441D01*
X145050997Y-103299441D02*
X145114785Y-103271511D01*
X145114785Y-103271511D02*
X145119942Y-103234324D01*
X145119942Y-103234324D02*
X145103422Y-103213232D01*
X145103422Y-103213232D02*
X145060025Y-103204340D01*
X145060025Y-103204340D02*
X144957688Y-103196846D01*
X144957688Y-103196846D02*
X144810041Y-103191373D01*
X144810041Y-103191373D02*
X144630712Y-103188541D01*
X144630712Y-103188541D02*
X144555970Y-103188286D01*
X144555970Y-103188286D02*
X144033465Y-103188286D01*
X144033465Y-103188286D02*
X144044947Y-103285365D01*
X144044947Y-103285365D02*
X144044947Y-103285365D01*
G36*
X144630712Y-103188541D02*
G01*
X144810041Y-103191373D01*
X144957688Y-103196846D01*
X145060025Y-103204340D01*
X145103422Y-103213232D01*
X145119942Y-103234324D01*
X145114785Y-103271511D01*
X145050997Y-103299441D01*
X144923983Y-103319589D01*
X144729152Y-103333429D01*
X144355400Y-103351572D01*
X144740587Y-103514857D01*
X144813452Y-103545897D01*
X144956228Y-103609112D01*
X145047514Y-103656156D01*
X145098699Y-103694796D01*
X145121170Y-103732798D01*
X145126315Y-103777929D01*
X145126857Y-103877715D01*
X144600714Y-103877715D01*
X144585386Y-103877704D01*
X144371636Y-103874974D01*
X144210925Y-103867720D01*
X144109741Y-103856389D01*
X144074571Y-103841429D01*
X144074530Y-103837859D01*
X144065500Y-103777929D01*
X144086478Y-103767477D01*
X144166442Y-103754401D01*
X144292656Y-103742206D01*
X144450843Y-103732572D01*
X144845258Y-103714429D01*
X144450843Y-103548437D01*
X144411386Y-103531781D01*
X144253464Y-103462965D01*
X144149376Y-103411379D01*
X144087604Y-103369560D01*
X144056633Y-103330043D01*
X144044947Y-103285365D01*
X144033465Y-103188286D01*
X144555970Y-103188286D01*
X144630712Y-103188541D01*
G37*
X144630712Y-103188541D02*
X144810041Y-103191373D01*
X144957688Y-103196846D01*
X145060025Y-103204340D01*
X145103422Y-103213232D01*
X145119942Y-103234324D01*
X145114785Y-103271511D01*
X145050997Y-103299441D01*
X144923983Y-103319589D01*
X144729152Y-103333429D01*
X144355400Y-103351572D01*
X144740587Y-103514857D01*
X144813452Y-103545897D01*
X144956228Y-103609112D01*
X145047514Y-103656156D01*
X145098699Y-103694796D01*
X145121170Y-103732798D01*
X145126315Y-103777929D01*
X145126857Y-103877715D01*
X144600714Y-103877715D01*
X144585386Y-103877704D01*
X144371636Y-103874974D01*
X144210925Y-103867720D01*
X144109741Y-103856389D01*
X144074571Y-103841429D01*
X144074530Y-103837859D01*
X144065500Y-103777929D01*
X144086478Y-103767477D01*
X144166442Y-103754401D01*
X144292656Y-103742206D01*
X144450843Y-103732572D01*
X144845258Y-103714429D01*
X144450843Y-103548437D01*
X144411386Y-103531781D01*
X144253464Y-103462965D01*
X144149376Y-103411379D01*
X144087604Y-103369560D01*
X144056633Y-103330043D01*
X144044947Y-103285365D01*
X144033465Y-103188286D01*
X144555970Y-103188286D01*
X144630712Y-103188541D01*
X144387436Y-105472765D02*
X144437031Y-105574072D01*
X144437031Y-105574072D02*
X144480731Y-105638416D01*
X144480731Y-105638416D02*
X144526957Y-105673727D01*
X144526957Y-105673727D02*
X144597943Y-105688686D01*
X144597943Y-105688686D02*
X144715920Y-105691977D01*
X144715920Y-105691977D02*
X144738998Y-105692000D01*
X144738998Y-105692000D02*
X144874381Y-105687612D01*
X144874381Y-105687612D02*
X144960863Y-105670212D01*
X144960863Y-105670212D02*
X145021812Y-105633449D01*
X145021812Y-105633449D02*
X145047960Y-105608019D01*
X145047960Y-105608019D02*
X145111349Y-105492458D01*
X145111349Y-105492458D02*
X145127077Y-105349941D01*
X145127077Y-105349941D02*
X145094926Y-105208427D01*
X145094926Y-105208427D02*
X145051652Y-105134465D01*
X145051652Y-105134465D02*
X144995270Y-105076762D01*
X144995270Y-105076762D02*
X144926983Y-105048144D01*
X144926983Y-105048144D02*
X144820151Y-105039149D01*
X144820151Y-105039149D02*
X144782477Y-105038857D01*
X144782477Y-105038857D02*
X144721998Y-105040960D01*
X144721998Y-105040960D02*
X144721998Y-105190854D01*
X144721998Y-105190854D02*
X144861161Y-105196199D01*
X144861161Y-105196199D02*
X144943130Y-105240829D01*
X144943130Y-105240829D02*
X144975200Y-105330749D01*
X144975200Y-105330749D02*
X144974477Y-105398609D01*
X144974477Y-105398609D02*
X144963571Y-105528715D01*
X144963571Y-105528715D02*
X144767954Y-105528715D01*
X144767954Y-105528715D02*
X144620366Y-105515525D01*
X144620366Y-105515525D02*
X144536149Y-105472924D01*
X144536149Y-105472924D02*
X144510496Y-105396364D01*
X144510496Y-105396364D02*
X144530209Y-105303844D01*
X144530209Y-105303844D02*
X144564124Y-105237491D01*
X144564124Y-105237491D02*
X144621019Y-105204661D01*
X144621019Y-105204661D02*
X144721998Y-105190854D01*
X144721998Y-105190854D02*
X144721998Y-105040960D01*
X144721998Y-105040960D02*
X144631191Y-105044118D01*
X144631191Y-105044118D02*
X144532899Y-105065070D01*
X144532899Y-105065070D02*
X144468459Y-105109472D01*
X144468459Y-105109472D02*
X144418728Y-105185082D01*
X144418728Y-105185082D02*
X144417943Y-105186596D01*
X144417943Y-105186596D02*
X144369868Y-105332731D01*
X144369868Y-105332731D02*
X144387436Y-105472765D01*
X144387436Y-105472765D02*
X144387436Y-105472765D01*
G36*
X144820151Y-105039149D02*
G01*
X144926983Y-105048144D01*
X144995270Y-105076762D01*
X145051652Y-105134465D01*
X145094926Y-105208427D01*
X145127077Y-105349941D01*
X145111349Y-105492458D01*
X145047960Y-105608019D01*
X145021812Y-105633449D01*
X144960863Y-105670212D01*
X144874381Y-105687612D01*
X144738998Y-105692000D01*
X144715920Y-105691977D01*
X144597943Y-105688686D01*
X144526957Y-105673727D01*
X144480731Y-105638416D01*
X144437031Y-105574072D01*
X144387436Y-105472765D01*
X144377852Y-105396364D01*
X144510496Y-105396364D01*
X144536149Y-105472924D01*
X144620366Y-105515525D01*
X144767954Y-105528715D01*
X144963571Y-105528715D01*
X144974477Y-105398609D01*
X144975200Y-105330749D01*
X144943130Y-105240829D01*
X144861161Y-105196199D01*
X144721998Y-105190854D01*
X144621019Y-105204661D01*
X144564124Y-105237491D01*
X144530209Y-105303844D01*
X144510496Y-105396364D01*
X144377852Y-105396364D01*
X144369868Y-105332731D01*
X144417943Y-105186596D01*
X144418728Y-105185082D01*
X144468459Y-105109472D01*
X144532899Y-105065070D01*
X144631191Y-105044118D01*
X144721998Y-105040960D01*
X144782477Y-105038857D01*
X144820151Y-105039149D01*
G37*
X144820151Y-105039149D02*
X144926983Y-105048144D01*
X144995270Y-105076762D01*
X145051652Y-105134465D01*
X145094926Y-105208427D01*
X145127077Y-105349941D01*
X145111349Y-105492458D01*
X145047960Y-105608019D01*
X145021812Y-105633449D01*
X144960863Y-105670212D01*
X144874381Y-105687612D01*
X144738998Y-105692000D01*
X144715920Y-105691977D01*
X144597943Y-105688686D01*
X144526957Y-105673727D01*
X144480731Y-105638416D01*
X144437031Y-105574072D01*
X144387436Y-105472765D01*
X144377852Y-105396364D01*
X144510496Y-105396364D01*
X144536149Y-105472924D01*
X144620366Y-105515525D01*
X144767954Y-105528715D01*
X144963571Y-105528715D01*
X144974477Y-105398609D01*
X144975200Y-105330749D01*
X144943130Y-105240829D01*
X144861161Y-105196199D01*
X144721998Y-105190854D01*
X144621019Y-105204661D01*
X144564124Y-105237491D01*
X144530209Y-105303844D01*
X144510496Y-105396364D01*
X144377852Y-105396364D01*
X144369868Y-105332731D01*
X144417943Y-105186596D01*
X144418728Y-105185082D01*
X144468459Y-105109472D01*
X144532899Y-105065070D01*
X144631191Y-105044118D01*
X144721998Y-105040960D01*
X144782477Y-105038857D01*
X144820151Y-105039149D01*
%TD*%
M02*
