%TF.GenerationSoftware,KiCad,Pcbnew,(5.99.0-8139-gd24b034cbc)*%
%TF.CreationDate,2021-01-06T10:54:56+00:00*%
%TF.ProjectId,neon,6e656f6e-2e6b-4696-9361-645f70636258,1.0*%
%TF.SameCoordinates,Original*%
%TF.FileFunction,Copper,L2,Bot*%
%TF.FilePolarity,Positive*%
%FSLAX46Y46*%
G04 Gerber Fmt 4.6, Leading zero omitted, Abs format (unit mm)*
G04 Created by KiCad (PCBNEW (5.99.0-8139-gd24b034cbc)) date 2021-01-06 10:54:56*
%MOMM*%
%LPD*%
G01*
G04 APERTURE LIST*
%TA.AperFunction,ComponentPad*%
%ADD10C,1.650000*%
%TD*%
%TA.AperFunction,ComponentPad*%
%ADD11R,1.700000X1.700000*%
%TD*%
%TA.AperFunction,ComponentPad*%
%ADD12O,1.700000X1.700000*%
%TD*%
%TA.AperFunction,ViaPad*%
%ADD13C,0.800000*%
%TD*%
%TA.AperFunction,Conductor*%
%ADD14C,0.381000*%
%TD*%
%TA.AperFunction,Conductor*%
%ADD15C,0.500000*%
%TD*%
%TA.AperFunction,Conductor*%
%ADD16C,0.203200*%
%TD*%
G04 APERTURE END LIST*
D10*
%TO.P,U1,1,V3V3*%
%TO.N,V3V3*%
X118784400Y-117653600D03*
%TO.P,U1,2,V3V3*%
X121324400Y-117653600D03*
%TO.P,U1,3,V3V3*%
X123864400Y-117653600D03*
%TO.P,U1,4,AD0*%
%TO.N,/AD0*%
X126404400Y-117653600D03*
%TO.P,U1,5,AD2*%
%TO.N,/AD2*%
X128944400Y-117653600D03*
%TO.P,U1,6,VIO*%
%TO.N,/VIO*%
X131484400Y-117653600D03*
%TO.P,U1,7,AD5*%
%TO.N,/AD5*%
X134024400Y-117653600D03*
%TO.P,U1,8,AD7*%
%TO.N,/AD7*%
X136564400Y-117653600D03*
%TO.P,U1,9,BD1*%
%TO.N,/BD1*%
X139104400Y-117653600D03*
%TO.P,U1,10,BD3*%
%TO.N,/BD3*%
X141644400Y-117653600D03*
%TO.P,U1,11,VIO*%
%TO.N,/VIO*%
X144184400Y-117653600D03*
%TO.P,U1,12,BD6*%
%TO.N,/BD6*%
X146724400Y-117653600D03*
%TO.P,U1,13,SUSPEND*%
%TO.N,no_connect_59*%
X149264400Y-117653600D03*
%TO.P,U1,14,GND*%
%TO.N,GND*%
X118784400Y-115114600D03*
%TO.P,U1,15,GND*%
X121324400Y-115114600D03*
%TO.P,U1,16,GND*%
X123864400Y-115114600D03*
%TO.P,U1,17,RESET*%
%TO.N,no_connect_60*%
X126404400Y-115114600D03*
%TO.P,U1,18,AD1*%
%TO.N,/AD1*%
X128944400Y-115114600D03*
%TO.P,U1,19,AD3*%
%TO.N,/AD3*%
X131484400Y-115114600D03*
%TO.P,U1,20,AD4*%
%TO.N,/AD4*%
X134024400Y-115114600D03*
%TO.P,U1,21,AD6*%
%TO.N,/AD6*%
X136564400Y-115114600D03*
%TO.P,U1,22,BD0*%
%TO.N,/BD0*%
X139104400Y-115114600D03*
%TO.P,U1,23,BD2*%
%TO.N,/BD2*%
X141644400Y-115114600D03*
%TO.P,U1,24,BD4*%
%TO.N,/BD4*%
X144184400Y-115114600D03*
%TO.P,U1,25,BD5*%
%TO.N,/BD5*%
X146724400Y-115114600D03*
%TO.P,U1,26,BD7*%
%TO.N,/BD7*%
X149264400Y-115114600D03*
%TO.P,U1,27,VBUS*%
%TO.N,/VBUS*%
X118784400Y-94763600D03*
%TO.P,U1,28,VCC*%
%TO.N,/VCC*%
X121324400Y-94763600D03*
%TO.P,U1,29,CS*%
%TO.N,/CS*%
X123864400Y-94763600D03*
%TO.P,U1,30,DATA*%
%TO.N,/DATA*%
X126404400Y-94763600D03*
%TO.P,U1,31,DD7*%
%TO.N,/DD7*%
X128944400Y-94763600D03*
%TO.P,U1,32,DD5*%
%TO.N,/DD5*%
X131484400Y-94763600D03*
%TO.P,U1,33,DD4*%
%TO.N,/DD4*%
X134024400Y-94763600D03*
%TO.P,U1,34,DD2*%
%TO.N,/DD2*%
X136564400Y-94763600D03*
%TO.P,U1,35,DD0*%
%TO.N,/DD0*%
X139104400Y-94763600D03*
%TO.P,U1,36,CD6*%
%TO.N,/CD6*%
X141644400Y-94763600D03*
%TO.P,U1,37,CD4*%
%TO.N,/CD4*%
X144184400Y-94763600D03*
%TO.P,U1,38,CD3*%
%TO.N,/CD3*%
X146724400Y-94763600D03*
%TO.P,U1,39,CD1*%
%TO.N,/CD1*%
X149264400Y-94763600D03*
%TO.P,U1,40,GND*%
%TO.N,GND*%
X118784400Y-92223600D03*
%TO.P,U1,41,GND*%
X121324400Y-92223600D03*
%TO.P,U1,42,CLK*%
%TO.N,/CLK*%
X123864400Y-92223600D03*
%TO.P,U1,43,PWREN*%
%TO.N,/PWREN*%
X126404400Y-92223600D03*
%TO.P,U1,44,DD6*%
%TO.N,/DD6*%
X128944400Y-92223600D03*
%TO.P,U1,45,VIO*%
%TO.N,no_connect_61*%
X131484400Y-92223600D03*
%TO.P,U1,46,DD3*%
%TO.N,/DD3*%
X134024400Y-92223600D03*
%TO.P,U1,47,DD1*%
%TO.N,/DD1*%
X136564400Y-92223600D03*
%TO.P,U1,48,CD7*%
%TO.N,/CD7*%
X139104400Y-92223600D03*
%TO.P,U1,49,CD5*%
%TO.N,/CD5*%
X141644400Y-92223600D03*
%TO.P,U1,50,VIO*%
%TO.N,no_connect_62*%
X144184400Y-92223600D03*
%TO.P,U1,51,CD2*%
%TO.N,/CD2*%
X146724400Y-92223600D03*
%TO.P,U1,52,CD0*%
%TO.N,/CD0*%
X149264400Y-92223600D03*
%TD*%
D11*
%TO.P,J1,1,VIO*%
%TO.N,/VIO*%
X170561000Y-115062000D03*
D12*
%TO.P,J1,2,V3V3*%
%TO.N,V3V3*%
X170561000Y-117602000D03*
%TD*%
D11*
%TO.P,U2,1,C0*%
%TO.N,/CD0*%
X148590000Y-84582000D03*
D12*
%TO.P,U2,2,C1*%
%TO.N,/CD1*%
X151130000Y-84582000D03*
%TO.P,U2,3,C2*%
%TO.N,/CD2*%
X153670000Y-84582000D03*
%TO.P,U2,4,C3*%
%TO.N,/CD3*%
X156210000Y-84582000D03*
%TO.P,U2,5,C4*%
%TO.N,/CD4*%
X158750000Y-84582000D03*
%TO.P,U2,6,C5*%
%TO.N,/CD5*%
X161290000Y-84582000D03*
%TO.P,U2,7,C6*%
%TO.N,/CD6*%
X163830000Y-84582000D03*
%TO.P,U2,8,C7*%
%TO.N,/CD7*%
X166370000Y-84582000D03*
%TD*%
D11*
%TO.P,U5,1,D0*%
%TO.N,/DD0*%
X125730000Y-84582000D03*
D12*
%TO.P,U5,2,D1*%
%TO.N,/DD1*%
X128270000Y-84582000D03*
%TO.P,U5,3,D2*%
%TO.N,/DD2*%
X130810000Y-84582000D03*
%TO.P,U5,4,D3*%
%TO.N,/DD3*%
X133350000Y-84582000D03*
%TO.P,U5,5,D4*%
%TO.N,/DD4*%
X135890000Y-84582000D03*
%TO.P,U5,6,D5*%
%TO.N,/DD5*%
X138430000Y-84582000D03*
%TO.P,U5,7,D6*%
%TO.N,/DD6*%
X140970000Y-84582000D03*
%TO.P,U5,8,D7*%
%TO.N,/DD7*%
X143510000Y-84582000D03*
%TD*%
D11*
%TO.P,U4,1,A0*%
%TO.N,/AD0*%
X125730000Y-125476000D03*
D12*
%TO.P,U4,2,A1*%
%TO.N,/AD1*%
X128270000Y-125476000D03*
%TO.P,U4,3,A2*%
%TO.N,/AD2*%
X130810000Y-125476000D03*
%TO.P,U4,4,A3*%
%TO.N,/AD3*%
X133350000Y-125476000D03*
%TO.P,U4,5,A4*%
%TO.N,/AD4*%
X135890000Y-125476000D03*
%TO.P,U4,6,A5*%
%TO.N,/AD5*%
X138430000Y-125476000D03*
%TO.P,U4,7,A6*%
%TO.N,/AD6*%
X140970000Y-125476000D03*
%TO.P,U4,8,A7*%
%TO.N,/AD7*%
X143510000Y-125476000D03*
%TD*%
D11*
%TO.P,U3,1,B0*%
%TO.N,/BD0*%
X148590000Y-125476000D03*
D12*
%TO.P,U3,2,B1*%
%TO.N,/BD1*%
X151130000Y-125476000D03*
%TO.P,U3,3,B2*%
%TO.N,/BD2*%
X153670000Y-125476000D03*
%TO.P,U3,4,B3*%
%TO.N,/BD3*%
X156210000Y-125476000D03*
%TO.P,U3,5,B4*%
%TO.N,/BD4*%
X158750000Y-125476000D03*
%TO.P,U3,6,B5*%
%TO.N,/BD5*%
X161290000Y-125476000D03*
%TO.P,U3,7,B6*%
%TO.N,/BD6*%
X163830000Y-125476000D03*
%TO.P,U3,8,B7*%
%TO.N,/BD7*%
X166370000Y-125476000D03*
%TD*%
D11*
%TO.P,J5,1,VBUS*%
%TO.N,/VBUS*%
X170561000Y-92202000D03*
D12*
%TO.P,J5,2,VCC*%
%TO.N,/VCC*%
X170561000Y-94742000D03*
%TD*%
D11*
%TO.P,S1,1,0*%
%TO.N,/CD0*%
X148590000Y-87122000D03*
D12*
%TO.P,S1,2,1*%
%TO.N,/CD1*%
X151130000Y-87122000D03*
%TO.P,S1,3,2*%
%TO.N,/CD2*%
X153670000Y-87122000D03*
%TO.P,S1,4,3*%
%TO.N,/CD3*%
X156210000Y-87122000D03*
%TO.P,S1,5,4*%
%TO.N,/CD4*%
X158750000Y-87122000D03*
%TO.P,S1,6,5*%
%TO.N,/CD5*%
X161290000Y-87122000D03*
%TO.P,S1,7,6*%
%TO.N,/CD6*%
X163830000Y-87122000D03*
%TO.P,S1,8,7*%
%TO.N,/CD7*%
X166370000Y-87122000D03*
%TD*%
D11*
%TO.P,S2,1,0*%
%TO.N,/DD0*%
X125730000Y-87122000D03*
D12*
%TO.P,S2,2,1*%
%TO.N,/DD1*%
X128270000Y-87122000D03*
%TO.P,S2,3,2*%
%TO.N,/DD2*%
X130810000Y-87122000D03*
%TO.P,S2,4,3*%
%TO.N,/DD3*%
X133350000Y-87122000D03*
%TO.P,S2,5,4*%
%TO.N,/DD4*%
X135890000Y-87122000D03*
%TO.P,S2,6,5*%
%TO.N,/DD5*%
X138430000Y-87122000D03*
%TO.P,S2,7,6*%
%TO.N,/DD6*%
X140970000Y-87122000D03*
%TO.P,S2,8,7*%
%TO.N,/DD7*%
X143510000Y-87122000D03*
%TD*%
D11*
%TO.P,S3,1,0*%
%TO.N,/AD0*%
X125730000Y-122936000D03*
D12*
%TO.P,S3,2,1*%
%TO.N,/AD1*%
X128270000Y-122936000D03*
%TO.P,S3,3,2*%
%TO.N,/AD2*%
X130810000Y-122936000D03*
%TO.P,S3,4,3*%
%TO.N,/AD3*%
X133350000Y-122936000D03*
%TO.P,S3,5,4*%
%TO.N,/AD4*%
X135890000Y-122936000D03*
%TO.P,S3,6,5*%
%TO.N,/AD5*%
X138430000Y-122936000D03*
%TO.P,S3,7,6*%
%TO.N,/AD6*%
X140970000Y-122936000D03*
%TO.P,S3,8,7*%
%TO.N,/AD7*%
X143510000Y-122936000D03*
%TD*%
D11*
%TO.P,S4,1,0*%
%TO.N,/BD0*%
X148590000Y-122936000D03*
D12*
%TO.P,S4,2,1*%
%TO.N,/BD1*%
X151130000Y-122936000D03*
%TO.P,S4,3,2*%
%TO.N,/BD2*%
X153670000Y-122936000D03*
%TO.P,S4,4,3*%
%TO.N,/BD3*%
X156210000Y-122936000D03*
%TO.P,S4,5,4*%
%TO.N,/BD4*%
X158750000Y-122936000D03*
%TO.P,S4,6,5*%
%TO.N,/BD5*%
X161290000Y-122936000D03*
%TO.P,S4,7,6*%
%TO.N,/BD6*%
X163830000Y-122936000D03*
%TO.P,S4,8,7*%
%TO.N,/BD7*%
X166370000Y-122936000D03*
%TD*%
D11*
%TO.P,J2,1,GND*%
%TO.N,GND*%
X169418000Y-102362000D03*
D12*
%TO.P,J2,2,V3V3*%
%TO.N,V3V3*%
X171958000Y-102362000D03*
%TO.P,J2,3,GND*%
%TO.N,GND*%
X169418000Y-104902000D03*
%TO.P,J2,4,V3V3*%
%TO.N,V3V3*%
X171958000Y-104902000D03*
%TO.P,J2,5,GND*%
%TO.N,GND*%
X169418000Y-107442000D03*
%TO.P,J2,6,V3V3*%
%TO.N,V3V3*%
X171958000Y-107442000D03*
%TD*%
D13*
%TO.N,/VIO*%
X125984000Y-100076000D03*
X133223000Y-101346000D03*
X126740000Y-111430000D03*
%TO.N,GND*%
X164782500Y-93345000D03*
X164782500Y-116459000D03*
X157162500Y-116459000D03*
X157162500Y-93345000D03*
X127740000Y-105680000D03*
X134874000Y-100457000D03*
%TD*%
D14*
%TO.N,V3V3*%
X118784400Y-117653600D02*
X123864400Y-117653600D01*
X171958000Y-102362000D02*
X171958000Y-107442000D01*
%TO.N,/VCC*%
X166990000Y-98180000D02*
X169740000Y-98180000D01*
X166981000Y-98171000D02*
X166990000Y-98180000D01*
X169740000Y-98180000D02*
X170561000Y-97359000D01*
X123952000Y-98171000D02*
X166981000Y-98171000D01*
X170561000Y-97359000D02*
X170561000Y-94742000D01*
%TO.N,/VBUS*%
X173262000Y-92202000D02*
X173990000Y-92930000D01*
X170561000Y-92202000D02*
X173262000Y-92202000D01*
X173990000Y-92930000D02*
X173990000Y-97790000D01*
D15*
%TO.N,/VIO*%
X116490000Y-111430000D02*
X124490000Y-111430000D01*
X124490000Y-111430000D02*
X166929000Y-111430000D01*
D14*
X124490000Y-102840000D02*
X124490000Y-111430000D01*
X125984000Y-101346000D02*
X124490000Y-102840000D01*
D15*
%TO.N,V3V3*%
X171958000Y-107442000D02*
X171958000Y-111379000D01*
X172720000Y-112141000D02*
X171958000Y-111379000D01*
X172720000Y-117200000D02*
X172720000Y-112141000D01*
X170561000Y-117602000D02*
X172318000Y-117602000D01*
X172318000Y-117602000D02*
X172720000Y-117200000D01*
X169162000Y-117602000D02*
X170561000Y-117602000D01*
X168240000Y-116680000D02*
X169162000Y-117602000D01*
X118784400Y-117653600D02*
X117463600Y-117653600D01*
X117463600Y-117653600D02*
X116990000Y-117180000D01*
X116990000Y-117180000D02*
X116990000Y-113430000D01*
X116990000Y-113430000D02*
X117740000Y-112680000D01*
X117740000Y-112680000D02*
X165490000Y-112680000D01*
X165490000Y-112680000D02*
X168240000Y-115430000D01*
X168240000Y-115430000D02*
X168240000Y-116680000D01*
%TO.N,/VIO*%
X115990000Y-111930000D02*
X116490000Y-111430000D01*
X115990000Y-119180000D02*
X115990000Y-111930000D01*
X131484400Y-119685600D02*
X131240000Y-119930000D01*
X131484400Y-117653600D02*
X131484400Y-119685600D01*
X131240000Y-119930000D02*
X116740000Y-119930000D01*
X116740000Y-119930000D02*
X115990000Y-119180000D01*
X166929000Y-111430000D02*
X170561000Y-115062000D01*
D14*
X133223000Y-101346000D02*
X125984000Y-101346000D01*
X125984000Y-101346000D02*
X125984000Y-100076000D01*
%TO.N,V3V3*%
X171958000Y-102362000D02*
X171958000Y-104902000D01*
X171958000Y-107442000D02*
X171958000Y-104902000D01*
%TO.N,/VBUS*%
X118784400Y-94763600D02*
X123080800Y-99060000D01*
X172720000Y-99060000D02*
X173990000Y-97790000D01*
X123080800Y-99060000D02*
X172720000Y-99060000D01*
%TO.N,/VCC*%
X121324400Y-95543400D02*
X123952000Y-98171000D01*
D16*
X121324400Y-94763600D02*
X121324400Y-95543400D01*
%TO.N,/CD0*%
X148590000Y-84582000D02*
X148590000Y-87122000D01*
X148590000Y-87122000D02*
X148590000Y-91549200D01*
X148590000Y-91549200D02*
X149264400Y-92223600D01*
%TO.N,/CD1*%
X151130000Y-84582000D02*
X151130000Y-87122000D01*
%TO.N,/CD2*%
X153670000Y-84582000D02*
X153670000Y-87122000D01*
%TO.N,/CD3*%
X156210000Y-84582000D02*
X156210000Y-87122000D01*
%TO.N,/CD4*%
X158750000Y-84582000D02*
X158750000Y-87122000D01*
%TO.N,/CD5*%
X161290000Y-87122000D02*
X158242000Y-90170000D01*
X154432000Y-90170000D02*
X151003000Y-93599000D01*
X151003000Y-93599000D02*
X143019800Y-93599000D01*
X143019800Y-93599000D02*
X141644400Y-92223600D01*
X158242000Y-90170000D02*
X154432000Y-90170000D01*
X161290000Y-84582000D02*
X161290000Y-87122000D01*
%TO.N,/CD6*%
X163830000Y-87122000D02*
X163830000Y-88519000D01*
X163830000Y-84582000D02*
X163830000Y-87122000D01*
X142892800Y-96012000D02*
X141644400Y-94763600D01*
X154940000Y-90805000D02*
X149733000Y-96012000D01*
X163830000Y-88519000D02*
X161544000Y-90805000D01*
X161544000Y-90805000D02*
X154940000Y-90805000D01*
X149733000Y-96012000D02*
X142892800Y-96012000D01*
%TO.N,/CD7*%
X166370000Y-84582000D02*
X166370000Y-87122000D01*
%TO.N,/DD0*%
X122555000Y-95377000D02*
X124587000Y-97409000D01*
X122555000Y-91440000D02*
X122555000Y-95377000D01*
X136459000Y-97409000D02*
X139104400Y-94763600D01*
X125730000Y-88265000D02*
X122555000Y-91440000D01*
X124587000Y-97409000D02*
X136459000Y-97409000D01*
X125730000Y-87122000D02*
X125730000Y-88265000D01*
X125730000Y-84582000D02*
X125730000Y-87122000D01*
%TO.N,/DD1*%
X134112000Y-96774000D02*
X135255000Y-95631000D01*
X128270000Y-84582000D02*
X128270000Y-87122000D01*
X126492000Y-96774000D02*
X134112000Y-96774000D01*
X128270000Y-88392000D02*
X125222000Y-91440000D01*
X125222000Y-95504000D02*
X126492000Y-96774000D01*
X135255000Y-93533000D02*
X136564400Y-92223600D01*
X128270000Y-87122000D02*
X128270000Y-88392000D01*
X125222000Y-91440000D02*
X125222000Y-95504000D01*
X135255000Y-95631000D02*
X135255000Y-93533000D01*
%TO.N,/DD2*%
X130810000Y-87122000D02*
X130810000Y-84582000D01*
%TO.N,/DD3*%
X133350000Y-84582000D02*
X133350000Y-87122000D01*
%TO.N,/DD4*%
X135890000Y-87122000D02*
X135890000Y-84582000D01*
%TO.N,/DD5*%
X136017000Y-89535000D02*
X138430000Y-87122000D01*
X130192800Y-93472000D02*
X128143000Y-93472000D01*
X131484400Y-94763600D02*
X130192800Y-93472000D01*
X138430000Y-84582000D02*
X138430000Y-87122000D01*
X127635000Y-90805000D02*
X128905000Y-89535000D01*
X128905000Y-89535000D02*
X136017000Y-89535000D01*
X128143000Y-93472000D02*
X127635000Y-92964000D01*
X127635000Y-92964000D02*
X127635000Y-90805000D01*
%TO.N,/DD6*%
X137668000Y-90424000D02*
X140970000Y-87122000D01*
X130744000Y-90424000D02*
X137668000Y-90424000D01*
X128944400Y-92223600D02*
X130744000Y-90424000D01*
X140970000Y-84582000D02*
X140970000Y-87122000D01*
%TO.N,/DD7*%
X143510000Y-87122000D02*
X143510000Y-84582000D01*
%TO.N,/AD0*%
X125730000Y-125476000D02*
X125730000Y-122936000D01*
%TO.N,/AD1*%
X128270000Y-125476000D02*
X128270000Y-122936000D01*
%TO.N,/AD2*%
X130810000Y-125476000D02*
X130810000Y-122936000D01*
%TO.N,/AD3*%
X133350000Y-125476000D02*
X133350000Y-122936000D01*
%TO.N,/AD4*%
X135890000Y-125476000D02*
X135890000Y-122936000D01*
%TO.N,/AD5*%
X138430000Y-125476000D02*
X138430000Y-122936000D01*
X134024400Y-118530400D02*
X134024400Y-117653600D01*
X138430000Y-122936000D02*
X134024400Y-118530400D01*
%TO.N,/AD6*%
X140970000Y-125476000D02*
X140970000Y-122936000D01*
%TO.N,/AD7*%
X143510000Y-125476000D02*
X143510000Y-122936000D01*
X141224000Y-120650000D02*
X139560800Y-120650000D01*
X143510000Y-122936000D02*
X141224000Y-120650000D01*
X139560800Y-120650000D02*
X136564400Y-117653600D01*
%TO.N,/BD0*%
X141605000Y-119380000D02*
X140335000Y-118110000D01*
X142240000Y-119380000D02*
X141605000Y-119380000D01*
X145415000Y-121920000D02*
X144780000Y-121920000D01*
X144780000Y-121920000D02*
X142240000Y-119380000D01*
X146431000Y-122936000D02*
X145415000Y-121920000D01*
X148590000Y-125476000D02*
X148590000Y-122936000D01*
X140335000Y-118110000D02*
X140335000Y-116345200D01*
X140335000Y-116345200D02*
X139104400Y-115114600D01*
X148590000Y-122936000D02*
X146431000Y-122936000D01*
%TO.N,/BD1*%
X151130000Y-125476000D02*
X151130000Y-122936000D01*
%TO.N,/BD2*%
X153670000Y-125476000D02*
X153670000Y-122936000D01*
%TO.N,/BD3*%
X145148800Y-121158000D02*
X141644400Y-117653600D01*
X156210000Y-122936000D02*
X156210000Y-125476000D01*
X154432000Y-121158000D02*
X145148800Y-121158000D01*
X156210000Y-122936000D02*
X154432000Y-121158000D01*
%TO.N,/BD4*%
X145415000Y-116345200D02*
X144184400Y-115114600D01*
X158750000Y-122936000D02*
X155702000Y-119888000D01*
X155702000Y-119888000D02*
X146558000Y-119888000D01*
X145415000Y-118745000D02*
X145415000Y-116345200D01*
X158750000Y-125476000D02*
X158750000Y-122936000D01*
X146558000Y-119888000D02*
X145415000Y-118745000D01*
%TO.N,/BD5*%
X161290000Y-125476000D02*
X161290000Y-122936000D01*
%TO.N,/BD6*%
X163830000Y-122936000D02*
X163830000Y-125476000D01*
X148450800Y-119380000D02*
X160274000Y-119380000D01*
X146724400Y-117653600D02*
X148450800Y-119380000D01*
X160274000Y-119380000D02*
X163830000Y-122936000D01*
%TO.N,/BD7*%
X166370000Y-125476000D02*
X166370000Y-122936000D01*
%TD*%
%TA.AperFunction,Conductor*%
%TO.N,GND*%
G36*
X175429028Y-78439874D02*
G01*
X175442474Y-78442219D01*
X175447333Y-78442308D01*
X175447338Y-78442308D01*
X175557687Y-78444318D01*
X175564381Y-78444618D01*
X175609512Y-78447846D01*
X175618454Y-78448807D01*
X175692302Y-78459424D01*
X175784062Y-78472617D01*
X175792869Y-78474206D01*
X175819254Y-78479946D01*
X175827957Y-78482168D01*
X175928150Y-78511587D01*
X175988450Y-78529292D01*
X175996965Y-78532125D01*
X176022287Y-78541570D01*
X176030547Y-78544992D01*
X176182746Y-78614500D01*
X176190737Y-78618499D01*
X176214441Y-78631442D01*
X176222151Y-78636017D01*
X176356653Y-78722456D01*
X176362896Y-78726468D01*
X176370285Y-78731599D01*
X176391869Y-78747757D01*
X176398859Y-78753389D01*
X176525295Y-78862947D01*
X176531861Y-78869061D01*
X176550944Y-78888144D01*
X176557060Y-78894712D01*
X176666620Y-79021151D01*
X176672224Y-79028106D01*
X176688401Y-79049715D01*
X176688411Y-79049728D01*
X176693539Y-79057115D01*
X176783975Y-79197838D01*
X176788563Y-79205569D01*
X176801495Y-79229252D01*
X176805501Y-79237254D01*
X176875007Y-79389451D01*
X176878439Y-79397737D01*
X176887872Y-79423027D01*
X176890708Y-79431549D01*
X176937831Y-79592038D01*
X176940055Y-79600751D01*
X176945789Y-79627108D01*
X176947386Y-79635961D01*
X176971192Y-79801534D01*
X176972154Y-79810475D01*
X176973086Y-79823516D01*
X176975382Y-79855620D01*
X176975682Y-79862312D01*
X176977381Y-79955564D01*
X176977721Y-79974249D01*
X176978437Y-79978672D01*
X176980381Y-79990683D01*
X176982000Y-80010815D01*
X176982000Y-129847379D01*
X176980126Y-129869027D01*
X176977781Y-129882473D01*
X176977692Y-129887332D01*
X176977692Y-129887337D01*
X176975682Y-129997689D01*
X176975382Y-130004384D01*
X176972154Y-130049513D01*
X176971193Y-130058454D01*
X176947386Y-130224040D01*
X176945789Y-130232892D01*
X176940055Y-130259251D01*
X176937830Y-130267966D01*
X176890709Y-130428447D01*
X176887867Y-130436985D01*
X176878442Y-130462252D01*
X176875002Y-130470558D01*
X176840256Y-130546642D01*
X176805507Y-130622731D01*
X176801483Y-130630770D01*
X176788564Y-130654429D01*
X176783975Y-130662164D01*
X176693535Y-130802891D01*
X176688405Y-130810279D01*
X176672249Y-130831861D01*
X176666605Y-130838865D01*
X176557056Y-130965291D01*
X176550927Y-130971873D01*
X176531873Y-130990927D01*
X176525290Y-130997056D01*
X176398866Y-131106603D01*
X176391866Y-131112246D01*
X176370280Y-131128405D01*
X176370273Y-131128410D01*
X176362886Y-131133538D01*
X176332870Y-131152828D01*
X176222160Y-131223976D01*
X176214425Y-131228565D01*
X176190773Y-131241480D01*
X176182731Y-131245506D01*
X176098069Y-131284171D01*
X176030562Y-131315000D01*
X176022255Y-131318442D01*
X175996984Y-131327867D01*
X175988453Y-131330706D01*
X175901592Y-131356211D01*
X175827956Y-131377833D01*
X175819246Y-131380056D01*
X175792884Y-131385790D01*
X175784036Y-131387386D01*
X175618466Y-131411192D01*
X175609525Y-131412154D01*
X175596484Y-131413086D01*
X175564380Y-131415382D01*
X175557688Y-131415682D01*
X175450229Y-131417639D01*
X175450223Y-131417640D01*
X175445751Y-131417721D01*
X175429317Y-131420381D01*
X175409185Y-131422000D01*
X115572621Y-131422000D01*
X115550972Y-131420126D01*
X115542320Y-131418617D01*
X115542321Y-131418617D01*
X115537527Y-131417781D01*
X115532668Y-131417692D01*
X115532663Y-131417692D01*
X115422311Y-131415682D01*
X115415616Y-131415382D01*
X115370487Y-131412154D01*
X115361546Y-131411193D01*
X115195960Y-131387386D01*
X115187108Y-131385789D01*
X115160754Y-131380056D01*
X115160746Y-131380054D01*
X115152034Y-131377830D01*
X115143763Y-131375402D01*
X114991540Y-131330705D01*
X114983015Y-131327867D01*
X114957748Y-131318442D01*
X114949442Y-131315002D01*
X114873358Y-131280256D01*
X114797263Y-131245504D01*
X114789230Y-131241483D01*
X114765571Y-131228564D01*
X114757836Y-131223975D01*
X114617109Y-131133535D01*
X114609721Y-131128405D01*
X114588139Y-131112249D01*
X114581135Y-131106605D01*
X114454709Y-130997056D01*
X114448127Y-130990927D01*
X114429073Y-130971873D01*
X114422944Y-130965290D01*
X114313397Y-130838866D01*
X114307753Y-130831864D01*
X114307751Y-130831861D01*
X114291588Y-130810270D01*
X114286460Y-130802883D01*
X114196024Y-130662160D01*
X114191435Y-130654425D01*
X114178520Y-130630773D01*
X114174494Y-130622731D01*
X114105002Y-130470568D01*
X114101558Y-130462255D01*
X114092133Y-130436984D01*
X114089294Y-130428453D01*
X114063789Y-130341592D01*
X114042167Y-130267956D01*
X114039944Y-130259246D01*
X114034210Y-130232884D01*
X114032614Y-130224036D01*
X114008808Y-130058466D01*
X114007846Y-130049521D01*
X114007846Y-130049513D01*
X114004618Y-130004380D01*
X114004318Y-129997688D01*
X114002361Y-129890229D01*
X114002360Y-129890223D01*
X114002279Y-129885751D01*
X113999619Y-129869316D01*
X113998000Y-129849185D01*
X113998000Y-126012668D01*
X117266616Y-126012668D01*
X117283166Y-126299692D01*
X117283991Y-126303897D01*
X117283992Y-126303905D01*
X117305047Y-126411220D01*
X117338516Y-126581814D01*
X117348314Y-126610431D01*
X117426354Y-126838368D01*
X117431642Y-126853814D01*
X117560822Y-127110659D01*
X117723664Y-127347596D01*
X117917155Y-127560240D01*
X118137716Y-127744657D01*
X118141357Y-127746941D01*
X118377624Y-127895152D01*
X118377628Y-127895154D01*
X118381264Y-127897435D01*
X118643293Y-128015745D01*
X118647412Y-128016965D01*
X118914841Y-128096182D01*
X118914846Y-128096183D01*
X118918954Y-128097400D01*
X118923188Y-128098048D01*
X118923193Y-128098049D01*
X119176037Y-128136740D01*
X119203147Y-128140888D01*
X119349498Y-128143187D01*
X119486321Y-128145337D01*
X119486327Y-128145337D01*
X119490612Y-128145404D01*
X119494864Y-128144889D01*
X119494872Y-128144889D01*
X119716529Y-128118065D01*
X119776030Y-128110864D01*
X119780179Y-128109776D01*
X119780182Y-128109775D01*
X120049970Y-128038998D01*
X120054121Y-128037909D01*
X120319736Y-127927887D01*
X120368827Y-127899201D01*
X120564255Y-127785002D01*
X120564257Y-127785000D01*
X120567963Y-127782835D01*
X120794208Y-127605437D01*
X120994283Y-127398975D01*
X120996816Y-127395527D01*
X120996820Y-127395522D01*
X121161949Y-127170725D01*
X121164487Y-127167270D01*
X121195224Y-127110659D01*
X121299621Y-126918385D01*
X121299622Y-126918383D01*
X121301671Y-126914609D01*
X121403295Y-126645669D01*
X121443909Y-126468337D01*
X121466521Y-126369608D01*
X121466522Y-126369604D01*
X121467479Y-126365424D01*
X121468801Y-126350617D01*
X121492816Y-126081528D01*
X121492816Y-126081526D01*
X121493036Y-126079062D01*
X121493500Y-126034800D01*
X121473946Y-125747965D01*
X121469435Y-125726180D01*
X121416513Y-125470635D01*
X121415644Y-125466438D01*
X121319674Y-125195428D01*
X121187812Y-124939950D01*
X121022498Y-124704731D01*
X121017709Y-124699577D01*
X120829711Y-124497268D01*
X120829708Y-124497266D01*
X120826790Y-124494125D01*
X120823474Y-124491411D01*
X120823471Y-124491408D01*
X120607629Y-124314742D01*
X120607622Y-124314737D01*
X120604311Y-124312027D01*
X120359176Y-124161809D01*
X120355240Y-124160081D01*
X120099851Y-124047972D01*
X120099847Y-124047971D01*
X120095923Y-124046248D01*
X119819421Y-123967485D01*
X119608794Y-123937508D01*
X119539041Y-123927581D01*
X119539039Y-123927581D01*
X119534789Y-123926976D01*
X119383976Y-123926187D01*
X119251579Y-123925493D01*
X119251573Y-123925493D01*
X119247292Y-123925471D01*
X119243048Y-123926030D01*
X119243044Y-123926030D01*
X119117864Y-123942510D01*
X118962251Y-123962997D01*
X118958111Y-123964130D01*
X118958109Y-123964130D01*
X118689085Y-124037727D01*
X118684940Y-124038861D01*
X118663580Y-124047972D01*
X118424433Y-124149976D01*
X118424426Y-124149980D01*
X118420491Y-124151658D01*
X118416810Y-124153861D01*
X118177479Y-124297097D01*
X118177475Y-124297100D01*
X118173797Y-124299301D01*
X118170454Y-124301979D01*
X118170450Y-124301982D01*
X118083634Y-124371535D01*
X117949423Y-124479059D01*
X117946479Y-124482161D01*
X117946475Y-124482165D01*
X117754470Y-124684495D01*
X117751520Y-124687604D01*
X117583752Y-124921079D01*
X117449222Y-125175162D01*
X117350419Y-125445152D01*
X117289173Y-125726054D01*
X117266616Y-126012668D01*
X113998000Y-126012668D01*
X113998000Y-119153355D01*
X115226965Y-119153355D01*
X115227558Y-119160647D01*
X115227558Y-119160650D01*
X115231085Y-119204007D01*
X115231500Y-119214222D01*
X115231500Y-119222885D01*
X115231924Y-119226519D01*
X115231924Y-119226525D01*
X115234951Y-119252484D01*
X115235383Y-119256849D01*
X115241301Y-119329604D01*
X115243557Y-119336567D01*
X115244740Y-119342491D01*
X115246130Y-119348371D01*
X115246978Y-119355642D01*
X115271891Y-119424277D01*
X115273303Y-119428391D01*
X115293541Y-119490865D01*
X115293543Y-119490870D01*
X115295798Y-119497830D01*
X115299596Y-119504088D01*
X115302102Y-119509562D01*
X115304814Y-119514979D01*
X115307313Y-119521863D01*
X115311326Y-119527984D01*
X115311327Y-119527986D01*
X115347336Y-119582910D01*
X115349681Y-119586627D01*
X115387535Y-119649006D01*
X115391247Y-119653209D01*
X115395751Y-119658309D01*
X115397969Y-119660891D01*
X115400259Y-119663630D01*
X115404269Y-119669746D01*
X115456119Y-119718864D01*
X115458562Y-119721242D01*
X116157000Y-120419681D01*
X116169385Y-120434093D01*
X116181611Y-120450706D01*
X116187194Y-120455449D01*
X116220351Y-120483618D01*
X116227867Y-120490548D01*
X116233984Y-120496665D01*
X116236857Y-120498938D01*
X116236866Y-120498946D01*
X116257343Y-120515146D01*
X116260747Y-120517937D01*
X116310794Y-120560455D01*
X116316376Y-120565197D01*
X116322895Y-120568526D01*
X116327927Y-120571882D01*
X116333066Y-120575056D01*
X116338802Y-120579594D01*
X116345426Y-120582690D01*
X116345428Y-120582691D01*
X116404911Y-120610491D01*
X116408863Y-120612423D01*
X116473865Y-120645615D01*
X116480972Y-120647354D01*
X116486632Y-120649459D01*
X116492377Y-120651370D01*
X116499001Y-120654466D01*
X116506161Y-120655955D01*
X116506163Y-120655956D01*
X116570458Y-120669329D01*
X116574742Y-120670299D01*
X116645630Y-120687645D01*
X116651232Y-120687993D01*
X116651235Y-120687993D01*
X116656532Y-120688321D01*
X116658031Y-120688414D01*
X116661427Y-120688671D01*
X116664962Y-120688986D01*
X116672128Y-120690477D01*
X116743493Y-120688546D01*
X116746901Y-120688500D01*
X131174014Y-120688500D01*
X131192965Y-120689933D01*
X131206122Y-120691935D01*
X131206125Y-120691935D01*
X131213355Y-120693035D01*
X131220647Y-120692442D01*
X131220650Y-120692442D01*
X131264007Y-120688915D01*
X131274222Y-120688500D01*
X131282886Y-120688500D01*
X131286520Y-120688076D01*
X131286526Y-120688076D01*
X131296467Y-120686917D01*
X131312515Y-120685046D01*
X131316842Y-120684618D01*
X131346196Y-120682230D01*
X131382307Y-120679293D01*
X131382311Y-120679292D01*
X131389604Y-120678699D01*
X131396563Y-120676445D01*
X131402483Y-120675262D01*
X131408373Y-120673870D01*
X131415643Y-120673022D01*
X131422523Y-120670525D01*
X131422526Y-120670524D01*
X131466765Y-120654466D01*
X131484264Y-120648114D01*
X131488410Y-120646691D01*
X131550867Y-120626458D01*
X131550869Y-120626457D01*
X131557830Y-120624202D01*
X131564087Y-120620405D01*
X131569562Y-120617898D01*
X131574976Y-120615187D01*
X131581864Y-120612687D01*
X131642918Y-120572658D01*
X131646627Y-120570318D01*
X131704211Y-120535375D01*
X131704213Y-120535373D01*
X131709006Y-120532465D01*
X131713209Y-120528753D01*
X131713213Y-120528750D01*
X131718292Y-120524265D01*
X131720872Y-120522047D01*
X131723627Y-120519744D01*
X131729747Y-120515731D01*
X131745648Y-120498946D01*
X131778895Y-120463849D01*
X131781273Y-120461407D01*
X131974074Y-120268606D01*
X131988488Y-120256219D01*
X131999203Y-120248334D01*
X131999208Y-120248330D01*
X132005106Y-120243989D01*
X132029800Y-120214923D01*
X132038024Y-120205242D01*
X132044954Y-120197726D01*
X132051065Y-120191615D01*
X132069532Y-120168275D01*
X132072316Y-120164879D01*
X132114855Y-120114807D01*
X132114859Y-120114801D01*
X132119597Y-120109224D01*
X132122925Y-120102706D01*
X132126255Y-120097713D01*
X132129450Y-120092541D01*
X132133994Y-120086797D01*
X132137095Y-120080163D01*
X132137097Y-120080159D01*
X132164887Y-120020698D01*
X132166819Y-120016745D01*
X132196685Y-119958257D01*
X132196686Y-119958254D01*
X132200015Y-119951735D01*
X132201755Y-119944624D01*
X132203862Y-119938958D01*
X132205767Y-119933231D01*
X132208867Y-119926599D01*
X132223738Y-119855104D01*
X132224695Y-119850875D01*
X132242045Y-119779970D01*
X132242815Y-119767563D01*
X132243071Y-119764169D01*
X132243386Y-119760639D01*
X132244877Y-119753471D01*
X132242946Y-119682106D01*
X132242900Y-119678698D01*
X132242900Y-118815872D01*
X132262902Y-118747751D01*
X132296628Y-118712660D01*
X132344771Y-118678950D01*
X132509750Y-118513971D01*
X132579654Y-118414139D01*
X132640424Y-118327350D01*
X132643575Y-118322850D01*
X132645495Y-118318733D01*
X132696665Y-118269943D01*
X132766379Y-118256508D01*
X132832289Y-118282895D01*
X132863262Y-118318641D01*
X132865225Y-118322850D01*
X132868376Y-118327350D01*
X132929147Y-118414139D01*
X132999050Y-118513971D01*
X133164029Y-118678950D01*
X133168537Y-118682107D01*
X133168540Y-118682109D01*
X133225880Y-118722259D01*
X133355150Y-118812775D01*
X133360131Y-118815098D01*
X133360142Y-118815104D01*
X133501711Y-118881119D01*
X133536262Y-118908687D01*
X133538069Y-118906880D01*
X133551350Y-118920161D01*
X133564191Y-118935196D01*
X133576011Y-118951465D01*
X133582119Y-118956518D01*
X133582121Y-118956520D01*
X133609895Y-118979496D01*
X133618675Y-118987486D01*
X135991948Y-121360759D01*
X136025974Y-121423071D01*
X136020909Y-121493886D01*
X135978362Y-121550722D01*
X135907580Y-121575765D01*
X135795622Y-121579968D01*
X135723831Y-121582663D01*
X135685561Y-121590693D01*
X135503411Y-121628912D01*
X135503408Y-121628913D01*
X135498184Y-121630009D01*
X135283740Y-121714697D01*
X135086631Y-121834306D01*
X135082601Y-121837803D01*
X134917497Y-121981072D01*
X134912492Y-121985415D01*
X134909111Y-121989539D01*
X134909105Y-121989545D01*
X134874545Y-122031695D01*
X134766304Y-122163705D01*
X134763667Y-122168338D01*
X134763666Y-122168339D01*
X134730116Y-122227278D01*
X134679033Y-122276584D01*
X134609402Y-122290445D01*
X134543332Y-122264461D01*
X134516094Y-122235312D01*
X134510686Y-122227278D01*
X134418599Y-122090496D01*
X134415607Y-122086052D01*
X134415605Y-122086050D01*
X134412627Y-122081626D01*
X134253482Y-121914799D01*
X134068504Y-121777171D01*
X134063753Y-121774755D01*
X134063749Y-121774753D01*
X133867740Y-121675097D01*
X133867739Y-121675097D01*
X133862982Y-121672678D01*
X133722033Y-121628912D01*
X133647895Y-121605891D01*
X133647889Y-121605890D01*
X133642792Y-121604307D01*
X133531322Y-121589533D01*
X133419515Y-121574714D01*
X133419510Y-121574714D01*
X133414230Y-121574014D01*
X133408900Y-121574214D01*
X133408899Y-121574214D01*
X133315320Y-121577727D01*
X133183831Y-121582663D01*
X133145561Y-121590693D01*
X132963411Y-121628912D01*
X132963408Y-121628913D01*
X132958184Y-121630009D01*
X132743740Y-121714697D01*
X132546631Y-121834306D01*
X132542601Y-121837803D01*
X132377497Y-121981072D01*
X132372492Y-121985415D01*
X132369111Y-121989539D01*
X132369105Y-121989545D01*
X132334545Y-122031695D01*
X132226304Y-122163705D01*
X132223667Y-122168338D01*
X132223666Y-122168339D01*
X132190116Y-122227278D01*
X132139033Y-122276584D01*
X132069402Y-122290445D01*
X132003332Y-122264461D01*
X131976094Y-122235312D01*
X131970686Y-122227278D01*
X131878599Y-122090496D01*
X131875607Y-122086052D01*
X131875605Y-122086050D01*
X131872627Y-122081626D01*
X131713482Y-121914799D01*
X131528504Y-121777171D01*
X131523753Y-121774755D01*
X131523749Y-121774753D01*
X131327740Y-121675097D01*
X131327739Y-121675097D01*
X131322982Y-121672678D01*
X131182033Y-121628912D01*
X131107895Y-121605891D01*
X131107889Y-121605890D01*
X131102792Y-121604307D01*
X130991322Y-121589533D01*
X130879515Y-121574714D01*
X130879510Y-121574714D01*
X130874230Y-121574014D01*
X130868900Y-121574214D01*
X130868899Y-121574214D01*
X130775320Y-121577727D01*
X130643831Y-121582663D01*
X130605561Y-121590693D01*
X130423411Y-121628912D01*
X130423408Y-121628913D01*
X130418184Y-121630009D01*
X130203740Y-121714697D01*
X130006631Y-121834306D01*
X130002601Y-121837803D01*
X129837497Y-121981072D01*
X129832492Y-121985415D01*
X129829111Y-121989539D01*
X129829105Y-121989545D01*
X129794545Y-122031695D01*
X129686304Y-122163705D01*
X129683667Y-122168338D01*
X129683666Y-122168339D01*
X129650116Y-122227278D01*
X129599033Y-122276584D01*
X129529402Y-122290445D01*
X129463332Y-122264461D01*
X129436094Y-122235312D01*
X129430686Y-122227278D01*
X129338599Y-122090496D01*
X129335607Y-122086052D01*
X129335605Y-122086050D01*
X129332627Y-122081626D01*
X129173482Y-121914799D01*
X128988504Y-121777171D01*
X128983753Y-121774755D01*
X128983749Y-121774753D01*
X128787740Y-121675097D01*
X128787739Y-121675097D01*
X128782982Y-121672678D01*
X128642033Y-121628912D01*
X128567895Y-121605891D01*
X128567889Y-121605890D01*
X128562792Y-121604307D01*
X128451322Y-121589533D01*
X128339515Y-121574714D01*
X128339510Y-121574714D01*
X128334230Y-121574014D01*
X128328900Y-121574214D01*
X128328899Y-121574214D01*
X128235320Y-121577727D01*
X128103831Y-121582663D01*
X128065561Y-121590693D01*
X127883411Y-121628912D01*
X127883408Y-121628913D01*
X127878184Y-121630009D01*
X127663740Y-121714697D01*
X127466631Y-121834306D01*
X127462601Y-121837803D01*
X127297497Y-121981072D01*
X127292492Y-121985415D01*
X127287339Y-121991700D01*
X127286364Y-121992365D01*
X127285390Y-121993366D01*
X127285186Y-121993168D01*
X127228681Y-122031695D01*
X127157710Y-122033628D01*
X127096961Y-121996885D01*
X127069008Y-121947309D01*
X127059462Y-121914799D01*
X127047096Y-121872684D01*
X126985713Y-121777171D01*
X126972949Y-121757309D01*
X126972947Y-121757306D01*
X126968077Y-121749729D01*
X126925384Y-121712735D01*
X126864431Y-121659918D01*
X126864428Y-121659916D01*
X126857619Y-121654016D01*
X126775175Y-121616365D01*
X126732864Y-121597042D01*
X126732863Y-121597042D01*
X126724670Y-121593300D01*
X126715755Y-121592018D01*
X126715754Y-121592018D01*
X126584448Y-121573139D01*
X126584441Y-121573138D01*
X126580000Y-121572500D01*
X124880000Y-121572500D01*
X124806921Y-121577727D01*
X124753884Y-121593300D01*
X124675330Y-121616365D01*
X124675328Y-121616366D01*
X124666684Y-121618904D01*
X124646350Y-121631972D01*
X124551309Y-121693051D01*
X124551306Y-121693053D01*
X124543729Y-121697923D01*
X124537828Y-121704733D01*
X124453918Y-121801569D01*
X124453916Y-121801572D01*
X124448016Y-121808381D01*
X124387300Y-121941330D01*
X124386018Y-121950245D01*
X124386018Y-121950246D01*
X124367139Y-122081552D01*
X124367138Y-122081559D01*
X124366500Y-122086000D01*
X124366500Y-123786000D01*
X124371727Y-123859079D01*
X124391657Y-123926954D01*
X124403558Y-123967485D01*
X124412904Y-123999316D01*
X124417775Y-124006895D01*
X124487051Y-124114691D01*
X124487053Y-124114694D01*
X124491923Y-124122271D01*
X124497598Y-124127188D01*
X124526776Y-124191077D01*
X124516674Y-124261351D01*
X124497283Y-124291524D01*
X124453918Y-124341569D01*
X124453916Y-124341572D01*
X124448016Y-124348381D01*
X124387300Y-124481330D01*
X124386018Y-124490245D01*
X124386018Y-124490246D01*
X124367139Y-124621552D01*
X124367138Y-124621559D01*
X124366500Y-124626000D01*
X124366500Y-126326000D01*
X124371727Y-126399079D01*
X124412904Y-126539316D01*
X124417775Y-126546895D01*
X124487051Y-126654691D01*
X124487053Y-126654694D01*
X124491923Y-126662271D01*
X124498733Y-126668172D01*
X124595569Y-126752082D01*
X124595572Y-126752084D01*
X124602381Y-126757984D01*
X124610579Y-126761728D01*
X124722998Y-126813068D01*
X124735330Y-126818700D01*
X124744245Y-126819982D01*
X124744246Y-126819982D01*
X124875552Y-126838861D01*
X124875559Y-126838862D01*
X124880000Y-126839500D01*
X126580000Y-126839500D01*
X126653079Y-126834273D01*
X126731165Y-126811345D01*
X126784670Y-126795635D01*
X126784672Y-126795634D01*
X126793316Y-126793096D01*
X126859721Y-126750420D01*
X126908691Y-126718949D01*
X126908694Y-126718947D01*
X126916271Y-126714077D01*
X126941086Y-126685439D01*
X127006082Y-126610431D01*
X127006084Y-126610428D01*
X127011984Y-126603619D01*
X127072700Y-126470670D01*
X127073320Y-126466360D01*
X127110432Y-126408610D01*
X127175012Y-126379117D01*
X127245286Y-126389220D01*
X127277335Y-126410270D01*
X127445629Y-126562069D01*
X127640406Y-126685439D01*
X127853184Y-126774228D01*
X127858387Y-126775425D01*
X127858392Y-126775426D01*
X128072678Y-126824701D01*
X128072683Y-126824702D01*
X128077881Y-126825897D01*
X128083209Y-126826200D01*
X128083212Y-126826200D01*
X128233877Y-126834755D01*
X128308071Y-126838968D01*
X128313378Y-126838368D01*
X128313380Y-126838368D01*
X128487354Y-126818700D01*
X128537173Y-126813068D01*
X128542288Y-126811587D01*
X128542292Y-126811586D01*
X128671298Y-126774228D01*
X128758635Y-126748937D01*
X128966125Y-126648409D01*
X128970463Y-126645309D01*
X128970468Y-126645306D01*
X129149370Y-126517459D01*
X129153711Y-126514357D01*
X129301352Y-126365424D01*
X129312277Y-126354403D01*
X129312278Y-126354402D01*
X129316030Y-126350617D01*
X129319090Y-126346255D01*
X129319095Y-126346249D01*
X129437634Y-126177271D01*
X129493130Y-126132990D01*
X129563755Y-126125743D01*
X129627088Y-126157829D01*
X129651461Y-126189410D01*
X129671685Y-126226580D01*
X129814424Y-126407644D01*
X129818389Y-126411220D01*
X129981659Y-126558489D01*
X129981665Y-126558494D01*
X129985629Y-126562069D01*
X130180406Y-126685439D01*
X130393184Y-126774228D01*
X130398387Y-126775425D01*
X130398392Y-126775426D01*
X130612678Y-126824701D01*
X130612683Y-126824702D01*
X130617881Y-126825897D01*
X130623209Y-126826200D01*
X130623212Y-126826200D01*
X130773877Y-126834755D01*
X130848071Y-126838968D01*
X130853378Y-126838368D01*
X130853380Y-126838368D01*
X131027354Y-126818700D01*
X131077173Y-126813068D01*
X131082288Y-126811587D01*
X131082292Y-126811586D01*
X131211298Y-126774228D01*
X131298635Y-126748937D01*
X131506125Y-126648409D01*
X131510463Y-126645309D01*
X131510468Y-126645306D01*
X131689370Y-126517459D01*
X131693711Y-126514357D01*
X131841352Y-126365424D01*
X131852277Y-126354403D01*
X131852278Y-126354402D01*
X131856030Y-126350617D01*
X131859090Y-126346255D01*
X131859095Y-126346249D01*
X131977634Y-126177271D01*
X132033130Y-126132990D01*
X132103755Y-126125743D01*
X132167088Y-126157829D01*
X132191461Y-126189410D01*
X132211685Y-126226580D01*
X132354424Y-126407644D01*
X132358389Y-126411220D01*
X132521659Y-126558489D01*
X132521665Y-126558494D01*
X132525629Y-126562069D01*
X132720406Y-126685439D01*
X132933184Y-126774228D01*
X132938387Y-126775425D01*
X132938392Y-126775426D01*
X133152678Y-126824701D01*
X133152683Y-126824702D01*
X133157881Y-126825897D01*
X133163209Y-126826200D01*
X133163212Y-126826200D01*
X133313877Y-126834755D01*
X133388071Y-126838968D01*
X133393378Y-126838368D01*
X133393380Y-126838368D01*
X133567354Y-126818700D01*
X133617173Y-126813068D01*
X133622288Y-126811587D01*
X133622292Y-126811586D01*
X133751298Y-126774228D01*
X133838635Y-126748937D01*
X134046125Y-126648409D01*
X134050463Y-126645309D01*
X134050468Y-126645306D01*
X134229370Y-126517459D01*
X134233711Y-126514357D01*
X134381352Y-126365424D01*
X134392277Y-126354403D01*
X134392278Y-126354402D01*
X134396030Y-126350617D01*
X134399090Y-126346255D01*
X134399095Y-126346249D01*
X134517634Y-126177271D01*
X134573130Y-126132990D01*
X134643755Y-126125743D01*
X134707088Y-126157829D01*
X134731461Y-126189410D01*
X134751685Y-126226580D01*
X134894424Y-126407644D01*
X134898389Y-126411220D01*
X135061659Y-126558489D01*
X135061665Y-126558494D01*
X135065629Y-126562069D01*
X135260406Y-126685439D01*
X135473184Y-126774228D01*
X135478387Y-126775425D01*
X135478392Y-126775426D01*
X135692678Y-126824701D01*
X135692683Y-126824702D01*
X135697881Y-126825897D01*
X135703209Y-126826200D01*
X135703212Y-126826200D01*
X135853877Y-126834755D01*
X135928071Y-126838968D01*
X135933378Y-126838368D01*
X135933380Y-126838368D01*
X136107354Y-126818700D01*
X136157173Y-126813068D01*
X136162288Y-126811587D01*
X136162292Y-126811586D01*
X136291298Y-126774228D01*
X136378635Y-126748937D01*
X136586125Y-126648409D01*
X136590463Y-126645309D01*
X136590468Y-126645306D01*
X136769370Y-126517459D01*
X136773711Y-126514357D01*
X136921352Y-126365424D01*
X136932277Y-126354403D01*
X136932278Y-126354402D01*
X136936030Y-126350617D01*
X136939090Y-126346255D01*
X136939095Y-126346249D01*
X137057634Y-126177271D01*
X137113130Y-126132990D01*
X137183755Y-126125743D01*
X137247088Y-126157829D01*
X137271461Y-126189410D01*
X137291685Y-126226580D01*
X137434424Y-126407644D01*
X137438389Y-126411220D01*
X137601659Y-126558489D01*
X137601665Y-126558494D01*
X137605629Y-126562069D01*
X137800406Y-126685439D01*
X138013184Y-126774228D01*
X138018387Y-126775425D01*
X138018392Y-126775426D01*
X138232678Y-126824701D01*
X138232683Y-126824702D01*
X138237881Y-126825897D01*
X138243209Y-126826200D01*
X138243212Y-126826200D01*
X138393877Y-126834755D01*
X138468071Y-126838968D01*
X138473378Y-126838368D01*
X138473380Y-126838368D01*
X138647354Y-126818700D01*
X138697173Y-126813068D01*
X138702288Y-126811587D01*
X138702292Y-126811586D01*
X138831298Y-126774228D01*
X138918635Y-126748937D01*
X139126125Y-126648409D01*
X139130463Y-126645309D01*
X139130468Y-126645306D01*
X139309370Y-126517459D01*
X139313711Y-126514357D01*
X139461352Y-126365424D01*
X139472277Y-126354403D01*
X139472278Y-126354402D01*
X139476030Y-126350617D01*
X139479090Y-126346255D01*
X139479095Y-126346249D01*
X139597634Y-126177271D01*
X139653130Y-126132990D01*
X139723755Y-126125743D01*
X139787088Y-126157829D01*
X139811461Y-126189410D01*
X139831685Y-126226580D01*
X139974424Y-126407644D01*
X139978389Y-126411220D01*
X140141659Y-126558489D01*
X140141665Y-126558494D01*
X140145629Y-126562069D01*
X140340406Y-126685439D01*
X140553184Y-126774228D01*
X140558387Y-126775425D01*
X140558392Y-126775426D01*
X140772678Y-126824701D01*
X140772683Y-126824702D01*
X140777881Y-126825897D01*
X140783209Y-126826200D01*
X140783212Y-126826200D01*
X140933877Y-126834755D01*
X141008071Y-126838968D01*
X141013378Y-126838368D01*
X141013380Y-126838368D01*
X141187354Y-126818700D01*
X141237173Y-126813068D01*
X141242288Y-126811587D01*
X141242292Y-126811586D01*
X141371298Y-126774228D01*
X141458635Y-126748937D01*
X141666125Y-126648409D01*
X141670463Y-126645309D01*
X141670468Y-126645306D01*
X141849370Y-126517459D01*
X141853711Y-126514357D01*
X142001352Y-126365424D01*
X142012277Y-126354403D01*
X142012278Y-126354402D01*
X142016030Y-126350617D01*
X142019090Y-126346255D01*
X142019095Y-126346249D01*
X142137634Y-126177271D01*
X142193130Y-126132990D01*
X142263755Y-126125743D01*
X142327088Y-126157829D01*
X142351461Y-126189410D01*
X142371685Y-126226580D01*
X142514424Y-126407644D01*
X142518389Y-126411220D01*
X142681659Y-126558489D01*
X142681665Y-126558494D01*
X142685629Y-126562069D01*
X142880406Y-126685439D01*
X143093184Y-126774228D01*
X143098387Y-126775425D01*
X143098392Y-126775426D01*
X143312678Y-126824701D01*
X143312683Y-126824702D01*
X143317881Y-126825897D01*
X143323209Y-126826200D01*
X143323212Y-126826200D01*
X143473877Y-126834755D01*
X143548071Y-126838968D01*
X143553378Y-126838368D01*
X143553380Y-126838368D01*
X143727354Y-126818700D01*
X143777173Y-126813068D01*
X143782288Y-126811587D01*
X143782292Y-126811586D01*
X143911298Y-126774228D01*
X143998635Y-126748937D01*
X144206125Y-126648409D01*
X144210463Y-126645309D01*
X144210468Y-126645306D01*
X144389370Y-126517459D01*
X144393711Y-126514357D01*
X144541352Y-126365424D01*
X144552277Y-126354403D01*
X144552278Y-126354402D01*
X144556030Y-126350617D01*
X144646330Y-126221895D01*
X144685375Y-126166236D01*
X144685376Y-126166234D01*
X144688439Y-126161868D01*
X144787153Y-125953508D01*
X144849349Y-125731494D01*
X144873249Y-125502176D01*
X144873500Y-125476000D01*
X144854007Y-125246265D01*
X144796084Y-125023098D01*
X144758629Y-124939950D01*
X144703578Y-124817743D01*
X144703577Y-124817741D01*
X144701388Y-124812882D01*
X144690338Y-124796468D01*
X144670686Y-124767278D01*
X144572627Y-124621626D01*
X144413482Y-124454799D01*
X144305296Y-124374306D01*
X144232784Y-124320355D01*
X144232781Y-124320353D01*
X144228504Y-124317171D01*
X144223748Y-124314753D01*
X144220427Y-124312694D01*
X144173071Y-124259799D01*
X144161830Y-124189698D01*
X144190274Y-124124648D01*
X144213564Y-124103093D01*
X144348179Y-124006895D01*
X144393711Y-123974357D01*
X144556030Y-123810617D01*
X144653201Y-123672100D01*
X144685375Y-123626236D01*
X144685376Y-123626234D01*
X144688439Y-123621868D01*
X144787153Y-123413508D01*
X144849349Y-123191494D01*
X144873249Y-122962176D01*
X144873500Y-122936000D01*
X144854007Y-122706265D01*
X144849203Y-122687756D01*
X144851448Y-122616796D01*
X144891701Y-122558314D01*
X144957182Y-122530878D01*
X144971161Y-122530100D01*
X145110099Y-122530100D01*
X145178220Y-122550102D01*
X145199194Y-122567005D01*
X145944939Y-123312750D01*
X145952838Y-123321430D01*
X145957057Y-123328079D01*
X145962836Y-123333506D01*
X145962837Y-123333507D01*
X146008307Y-123376206D01*
X146011149Y-123378961D01*
X146027581Y-123395393D01*
X146030713Y-123397822D01*
X146033684Y-123400442D01*
X146033679Y-123400448D01*
X146038567Y-123404622D01*
X146069453Y-123433626D01*
X146086237Y-123442853D01*
X146102757Y-123453705D01*
X146117888Y-123465442D01*
X146125165Y-123468591D01*
X146156770Y-123482268D01*
X146167429Y-123487490D01*
X146197617Y-123504086D01*
X146197622Y-123504088D01*
X146204567Y-123507906D01*
X146212243Y-123509877D01*
X146212246Y-123509878D01*
X146223118Y-123512669D01*
X146241816Y-123519070D01*
X146259392Y-123526676D01*
X146287656Y-123531153D01*
X146301245Y-123533305D01*
X146312858Y-123535710D01*
X146353324Y-123546100D01*
X146372112Y-123546100D01*
X146391822Y-123547651D01*
X146411679Y-123550796D01*
X146419571Y-123550050D01*
X146455444Y-123546659D01*
X146467302Y-123546100D01*
X147100500Y-123546100D01*
X147168621Y-123566102D01*
X147215114Y-123619758D01*
X147226500Y-123672100D01*
X147226500Y-123786000D01*
X147231727Y-123859079D01*
X147251657Y-123926954D01*
X147263558Y-123967485D01*
X147272904Y-123999316D01*
X147277775Y-124006895D01*
X147347051Y-124114691D01*
X147347053Y-124114694D01*
X147351923Y-124122271D01*
X147357598Y-124127188D01*
X147386776Y-124191077D01*
X147376674Y-124261351D01*
X147357283Y-124291524D01*
X147313918Y-124341569D01*
X147313916Y-124341572D01*
X147308016Y-124348381D01*
X147247300Y-124481330D01*
X147246018Y-124490245D01*
X147246018Y-124490246D01*
X147227139Y-124621552D01*
X147227138Y-124621559D01*
X147226500Y-124626000D01*
X147226500Y-126326000D01*
X147231727Y-126399079D01*
X147272904Y-126539316D01*
X147277775Y-126546895D01*
X147347051Y-126654691D01*
X147347053Y-126654694D01*
X147351923Y-126662271D01*
X147358733Y-126668172D01*
X147455569Y-126752082D01*
X147455572Y-126752084D01*
X147462381Y-126757984D01*
X147470579Y-126761728D01*
X147582998Y-126813068D01*
X147595330Y-126818700D01*
X147604245Y-126819982D01*
X147604246Y-126819982D01*
X147735552Y-126838861D01*
X147735559Y-126838862D01*
X147740000Y-126839500D01*
X149440000Y-126839500D01*
X149513079Y-126834273D01*
X149591165Y-126811345D01*
X149644670Y-126795635D01*
X149644672Y-126795634D01*
X149653316Y-126793096D01*
X149719721Y-126750420D01*
X149768691Y-126718949D01*
X149768694Y-126718947D01*
X149776271Y-126714077D01*
X149801086Y-126685439D01*
X149866082Y-126610431D01*
X149866084Y-126610428D01*
X149871984Y-126603619D01*
X149932700Y-126470670D01*
X149933320Y-126466360D01*
X149970432Y-126408610D01*
X150035012Y-126379117D01*
X150105286Y-126389220D01*
X150137335Y-126410270D01*
X150305629Y-126562069D01*
X150500406Y-126685439D01*
X150713184Y-126774228D01*
X150718387Y-126775425D01*
X150718392Y-126775426D01*
X150932678Y-126824701D01*
X150932683Y-126824702D01*
X150937881Y-126825897D01*
X150943209Y-126826200D01*
X150943212Y-126826200D01*
X151093877Y-126834755D01*
X151168071Y-126838968D01*
X151173378Y-126838368D01*
X151173380Y-126838368D01*
X151347354Y-126818700D01*
X151397173Y-126813068D01*
X151402288Y-126811587D01*
X151402292Y-126811586D01*
X151531298Y-126774228D01*
X151618635Y-126748937D01*
X151826125Y-126648409D01*
X151830463Y-126645309D01*
X151830468Y-126645306D01*
X152009370Y-126517459D01*
X152013711Y-126514357D01*
X152161352Y-126365424D01*
X152172277Y-126354403D01*
X152172278Y-126354402D01*
X152176030Y-126350617D01*
X152179090Y-126346255D01*
X152179095Y-126346249D01*
X152297634Y-126177271D01*
X152353130Y-126132990D01*
X152423755Y-126125743D01*
X152487088Y-126157829D01*
X152511461Y-126189410D01*
X152531685Y-126226580D01*
X152674424Y-126407644D01*
X152678389Y-126411220D01*
X152841659Y-126558489D01*
X152841665Y-126558494D01*
X152845629Y-126562069D01*
X153040406Y-126685439D01*
X153253184Y-126774228D01*
X153258387Y-126775425D01*
X153258392Y-126775426D01*
X153472678Y-126824701D01*
X153472683Y-126824702D01*
X153477881Y-126825897D01*
X153483209Y-126826200D01*
X153483212Y-126826200D01*
X153633877Y-126834755D01*
X153708071Y-126838968D01*
X153713378Y-126838368D01*
X153713380Y-126838368D01*
X153887354Y-126818700D01*
X153937173Y-126813068D01*
X153942288Y-126811587D01*
X153942292Y-126811586D01*
X154071298Y-126774228D01*
X154158635Y-126748937D01*
X154366125Y-126648409D01*
X154370463Y-126645309D01*
X154370468Y-126645306D01*
X154549370Y-126517459D01*
X154553711Y-126514357D01*
X154701352Y-126365424D01*
X154712277Y-126354403D01*
X154712278Y-126354402D01*
X154716030Y-126350617D01*
X154719090Y-126346255D01*
X154719095Y-126346249D01*
X154837634Y-126177271D01*
X154893130Y-126132990D01*
X154963755Y-126125743D01*
X155027088Y-126157829D01*
X155051461Y-126189410D01*
X155071685Y-126226580D01*
X155214424Y-126407644D01*
X155218389Y-126411220D01*
X155381659Y-126558489D01*
X155381665Y-126558494D01*
X155385629Y-126562069D01*
X155580406Y-126685439D01*
X155793184Y-126774228D01*
X155798387Y-126775425D01*
X155798392Y-126775426D01*
X156012678Y-126824701D01*
X156012683Y-126824702D01*
X156017881Y-126825897D01*
X156023209Y-126826200D01*
X156023212Y-126826200D01*
X156173877Y-126834755D01*
X156248071Y-126838968D01*
X156253378Y-126838368D01*
X156253380Y-126838368D01*
X156427354Y-126818700D01*
X156477173Y-126813068D01*
X156482288Y-126811587D01*
X156482292Y-126811586D01*
X156611298Y-126774228D01*
X156698635Y-126748937D01*
X156906125Y-126648409D01*
X156910463Y-126645309D01*
X156910468Y-126645306D01*
X157089370Y-126517459D01*
X157093711Y-126514357D01*
X157241352Y-126365424D01*
X157252277Y-126354403D01*
X157252278Y-126354402D01*
X157256030Y-126350617D01*
X157259090Y-126346255D01*
X157259095Y-126346249D01*
X157377634Y-126177271D01*
X157433130Y-126132990D01*
X157503755Y-126125743D01*
X157567088Y-126157829D01*
X157591461Y-126189410D01*
X157611685Y-126226580D01*
X157754424Y-126407644D01*
X157758389Y-126411220D01*
X157921659Y-126558489D01*
X157921665Y-126558494D01*
X157925629Y-126562069D01*
X158120406Y-126685439D01*
X158333184Y-126774228D01*
X158338387Y-126775425D01*
X158338392Y-126775426D01*
X158552678Y-126824701D01*
X158552683Y-126824702D01*
X158557881Y-126825897D01*
X158563209Y-126826200D01*
X158563212Y-126826200D01*
X158713877Y-126834755D01*
X158788071Y-126838968D01*
X158793378Y-126838368D01*
X158793380Y-126838368D01*
X158967354Y-126818700D01*
X159017173Y-126813068D01*
X159022288Y-126811587D01*
X159022292Y-126811586D01*
X159151298Y-126774228D01*
X159238635Y-126748937D01*
X159446125Y-126648409D01*
X159450463Y-126645309D01*
X159450468Y-126645306D01*
X159629370Y-126517459D01*
X159633711Y-126514357D01*
X159781352Y-126365424D01*
X159792277Y-126354403D01*
X159792278Y-126354402D01*
X159796030Y-126350617D01*
X159799090Y-126346255D01*
X159799095Y-126346249D01*
X159917634Y-126177271D01*
X159973130Y-126132990D01*
X160043755Y-126125743D01*
X160107088Y-126157829D01*
X160131461Y-126189410D01*
X160151685Y-126226580D01*
X160294424Y-126407644D01*
X160298389Y-126411220D01*
X160461659Y-126558489D01*
X160461665Y-126558494D01*
X160465629Y-126562069D01*
X160660406Y-126685439D01*
X160873184Y-126774228D01*
X160878387Y-126775425D01*
X160878392Y-126775426D01*
X161092678Y-126824701D01*
X161092683Y-126824702D01*
X161097881Y-126825897D01*
X161103209Y-126826200D01*
X161103212Y-126826200D01*
X161253877Y-126834755D01*
X161328071Y-126838968D01*
X161333378Y-126838368D01*
X161333380Y-126838368D01*
X161507354Y-126818700D01*
X161557173Y-126813068D01*
X161562288Y-126811587D01*
X161562292Y-126811586D01*
X161691298Y-126774228D01*
X161778635Y-126748937D01*
X161986125Y-126648409D01*
X161990463Y-126645309D01*
X161990468Y-126645306D01*
X162169370Y-126517459D01*
X162173711Y-126514357D01*
X162321352Y-126365424D01*
X162332277Y-126354403D01*
X162332278Y-126354402D01*
X162336030Y-126350617D01*
X162339090Y-126346255D01*
X162339095Y-126346249D01*
X162457634Y-126177271D01*
X162513130Y-126132990D01*
X162583755Y-126125743D01*
X162647088Y-126157829D01*
X162671461Y-126189410D01*
X162691685Y-126226580D01*
X162834424Y-126407644D01*
X162838389Y-126411220D01*
X163001659Y-126558489D01*
X163001665Y-126558494D01*
X163005629Y-126562069D01*
X163200406Y-126685439D01*
X163413184Y-126774228D01*
X163418387Y-126775425D01*
X163418392Y-126775426D01*
X163632678Y-126824701D01*
X163632683Y-126824702D01*
X163637881Y-126825897D01*
X163643209Y-126826200D01*
X163643212Y-126826200D01*
X163793877Y-126834755D01*
X163868071Y-126838968D01*
X163873378Y-126838368D01*
X163873380Y-126838368D01*
X164047354Y-126818700D01*
X164097173Y-126813068D01*
X164102288Y-126811587D01*
X164102292Y-126811586D01*
X164231298Y-126774228D01*
X164318635Y-126748937D01*
X164526125Y-126648409D01*
X164530463Y-126645309D01*
X164530468Y-126645306D01*
X164709370Y-126517459D01*
X164713711Y-126514357D01*
X164861352Y-126365424D01*
X164872277Y-126354403D01*
X164872278Y-126354402D01*
X164876030Y-126350617D01*
X164879090Y-126346255D01*
X164879095Y-126346249D01*
X164997634Y-126177271D01*
X165053130Y-126132990D01*
X165123755Y-126125743D01*
X165187088Y-126157829D01*
X165211461Y-126189410D01*
X165231685Y-126226580D01*
X165374424Y-126407644D01*
X165378389Y-126411220D01*
X165541659Y-126558489D01*
X165541665Y-126558494D01*
X165545629Y-126562069D01*
X165740406Y-126685439D01*
X165953184Y-126774228D01*
X165958387Y-126775425D01*
X165958392Y-126775426D01*
X166172678Y-126824701D01*
X166172683Y-126824702D01*
X166177881Y-126825897D01*
X166183209Y-126826200D01*
X166183212Y-126826200D01*
X166333877Y-126834755D01*
X166408071Y-126838968D01*
X166413378Y-126838368D01*
X166413380Y-126838368D01*
X166587354Y-126818700D01*
X166637173Y-126813068D01*
X166642288Y-126811587D01*
X166642292Y-126811586D01*
X166771298Y-126774228D01*
X166858635Y-126748937D01*
X167066125Y-126648409D01*
X167070463Y-126645309D01*
X167070468Y-126645306D01*
X167249370Y-126517459D01*
X167253711Y-126514357D01*
X167401352Y-126365424D01*
X167412277Y-126354403D01*
X167412278Y-126354402D01*
X167416030Y-126350617D01*
X167506330Y-126221895D01*
X167545375Y-126166236D01*
X167545376Y-126166234D01*
X167548439Y-126161868D01*
X167619124Y-126012668D01*
X169590616Y-126012668D01*
X169607166Y-126299692D01*
X169607991Y-126303897D01*
X169607992Y-126303905D01*
X169629047Y-126411220D01*
X169662516Y-126581814D01*
X169672314Y-126610431D01*
X169750354Y-126838368D01*
X169755642Y-126853814D01*
X169884822Y-127110659D01*
X170047664Y-127347596D01*
X170241155Y-127560240D01*
X170461716Y-127744657D01*
X170465357Y-127746941D01*
X170701624Y-127895152D01*
X170701628Y-127895154D01*
X170705264Y-127897435D01*
X170967293Y-128015745D01*
X170971412Y-128016965D01*
X171238841Y-128096182D01*
X171238846Y-128096183D01*
X171242954Y-128097400D01*
X171247188Y-128098048D01*
X171247193Y-128098049D01*
X171500037Y-128136740D01*
X171527147Y-128140888D01*
X171673498Y-128143187D01*
X171810321Y-128145337D01*
X171810327Y-128145337D01*
X171814612Y-128145404D01*
X171818864Y-128144889D01*
X171818872Y-128144889D01*
X172040529Y-128118065D01*
X172100030Y-128110864D01*
X172104179Y-128109776D01*
X172104182Y-128109775D01*
X172373970Y-128038998D01*
X172378121Y-128037909D01*
X172643736Y-127927887D01*
X172692827Y-127899201D01*
X172888255Y-127785002D01*
X172888257Y-127785000D01*
X172891963Y-127782835D01*
X173118208Y-127605437D01*
X173318283Y-127398975D01*
X173320816Y-127395527D01*
X173320820Y-127395522D01*
X173485949Y-127170725D01*
X173488487Y-127167270D01*
X173519224Y-127110659D01*
X173623621Y-126918385D01*
X173623622Y-126918383D01*
X173625671Y-126914609D01*
X173727295Y-126645669D01*
X173767909Y-126468337D01*
X173790521Y-126369608D01*
X173790522Y-126369604D01*
X173791479Y-126365424D01*
X173792801Y-126350617D01*
X173816816Y-126081528D01*
X173816816Y-126081526D01*
X173817036Y-126079062D01*
X173817500Y-126034800D01*
X173797946Y-125747965D01*
X173793435Y-125726180D01*
X173740513Y-125470635D01*
X173739644Y-125466438D01*
X173643674Y-125195428D01*
X173511812Y-124939950D01*
X173346498Y-124704731D01*
X173341709Y-124699577D01*
X173153711Y-124497268D01*
X173153708Y-124497266D01*
X173150790Y-124494125D01*
X173147474Y-124491411D01*
X173147471Y-124491408D01*
X172931629Y-124314742D01*
X172931622Y-124314737D01*
X172928311Y-124312027D01*
X172683176Y-124161809D01*
X172679240Y-124160081D01*
X172423851Y-124047972D01*
X172423847Y-124047971D01*
X172419923Y-124046248D01*
X172143421Y-123967485D01*
X171932794Y-123937508D01*
X171863041Y-123927581D01*
X171863039Y-123927581D01*
X171858789Y-123926976D01*
X171707976Y-123926187D01*
X171575579Y-123925493D01*
X171575573Y-123925493D01*
X171571292Y-123925471D01*
X171567048Y-123926030D01*
X171567044Y-123926030D01*
X171441864Y-123942510D01*
X171286251Y-123962997D01*
X171282111Y-123964130D01*
X171282109Y-123964130D01*
X171013085Y-124037727D01*
X171008940Y-124038861D01*
X170987580Y-124047972D01*
X170748433Y-124149976D01*
X170748426Y-124149980D01*
X170744491Y-124151658D01*
X170740810Y-124153861D01*
X170501479Y-124297097D01*
X170501475Y-124297100D01*
X170497797Y-124299301D01*
X170494454Y-124301979D01*
X170494450Y-124301982D01*
X170407634Y-124371535D01*
X170273423Y-124479059D01*
X170270479Y-124482161D01*
X170270475Y-124482165D01*
X170078470Y-124684495D01*
X170075520Y-124687604D01*
X169907752Y-124921079D01*
X169773222Y-125175162D01*
X169674419Y-125445152D01*
X169613173Y-125726054D01*
X169590616Y-126012668D01*
X167619124Y-126012668D01*
X167647153Y-125953508D01*
X167709349Y-125731494D01*
X167733249Y-125502176D01*
X167733500Y-125476000D01*
X167714007Y-125246265D01*
X167656084Y-125023098D01*
X167618629Y-124939950D01*
X167563578Y-124817743D01*
X167563577Y-124817741D01*
X167561388Y-124812882D01*
X167550338Y-124796468D01*
X167530686Y-124767278D01*
X167432627Y-124621626D01*
X167273482Y-124454799D01*
X167165296Y-124374306D01*
X167092784Y-124320355D01*
X167092781Y-124320353D01*
X167088504Y-124317171D01*
X167083748Y-124314753D01*
X167080427Y-124312694D01*
X167033071Y-124259799D01*
X167021830Y-124189698D01*
X167050274Y-124124648D01*
X167073564Y-124103093D01*
X167208179Y-124006895D01*
X167253711Y-123974357D01*
X167416030Y-123810617D01*
X167513201Y-123672100D01*
X167545375Y-123626236D01*
X167545376Y-123626234D01*
X167548439Y-123621868D01*
X167647153Y-123413508D01*
X167709349Y-123191494D01*
X167733249Y-122962176D01*
X167733500Y-122936000D01*
X167714007Y-122706265D01*
X167712668Y-122701104D01*
X167657426Y-122488269D01*
X167656084Y-122483098D01*
X167561388Y-122272882D01*
X167550338Y-122256468D01*
X167512254Y-122199900D01*
X167432627Y-122081626D01*
X167273482Y-121914799D01*
X167088504Y-121777171D01*
X167083753Y-121774755D01*
X167083749Y-121774753D01*
X166887740Y-121675097D01*
X166887739Y-121675097D01*
X166882982Y-121672678D01*
X166742033Y-121628912D01*
X166667895Y-121605891D01*
X166667889Y-121605890D01*
X166662792Y-121604307D01*
X166551322Y-121589533D01*
X166439515Y-121574714D01*
X166439510Y-121574714D01*
X166434230Y-121574014D01*
X166428900Y-121574214D01*
X166428899Y-121574214D01*
X166335320Y-121577727D01*
X166203831Y-121582663D01*
X166165561Y-121590693D01*
X165983411Y-121628912D01*
X165983408Y-121628913D01*
X165978184Y-121630009D01*
X165763740Y-121714697D01*
X165566631Y-121834306D01*
X165562601Y-121837803D01*
X165397497Y-121981072D01*
X165392492Y-121985415D01*
X165389111Y-121989539D01*
X165389105Y-121989545D01*
X165354545Y-122031695D01*
X165246304Y-122163705D01*
X165243667Y-122168338D01*
X165243666Y-122168339D01*
X165210116Y-122227278D01*
X165159033Y-122276584D01*
X165089402Y-122290445D01*
X165023332Y-122264461D01*
X164996094Y-122235312D01*
X164990686Y-122227278D01*
X164898599Y-122090496D01*
X164895607Y-122086052D01*
X164895605Y-122086050D01*
X164892627Y-122081626D01*
X164733482Y-121914799D01*
X164548504Y-121777171D01*
X164543753Y-121774755D01*
X164543749Y-121774753D01*
X164347740Y-121675097D01*
X164347739Y-121675097D01*
X164342982Y-121672678D01*
X164202033Y-121628912D01*
X164127895Y-121605891D01*
X164127889Y-121605890D01*
X164122792Y-121604307D01*
X164011322Y-121589533D01*
X163899515Y-121574714D01*
X163899510Y-121574714D01*
X163894230Y-121574014D01*
X163888900Y-121574214D01*
X163888899Y-121574214D01*
X163795320Y-121577727D01*
X163663831Y-121582663D01*
X163462472Y-121624913D01*
X163391697Y-121619326D01*
X163347504Y-121590693D01*
X160760065Y-119003254D01*
X160752163Y-118994570D01*
X160747943Y-118987921D01*
X160696676Y-118939778D01*
X160693835Y-118937024D01*
X160677418Y-118920607D01*
X160674280Y-118918173D01*
X160671315Y-118915559D01*
X160671320Y-118915553D01*
X160666448Y-118911393D01*
X160635547Y-118882374D01*
X160618764Y-118873147D01*
X160602243Y-118862295D01*
X160593372Y-118855414D01*
X160593370Y-118855413D01*
X160587111Y-118850558D01*
X160565537Y-118841222D01*
X160548225Y-118833730D01*
X160537579Y-118828515D01*
X160500433Y-118808094D01*
X160481879Y-118803330D01*
X160463182Y-118796928D01*
X160452885Y-118792472D01*
X160452875Y-118792469D01*
X160445607Y-118789324D01*
X160437784Y-118788085D01*
X160437774Y-118788082D01*
X160403763Y-118782695D01*
X160392142Y-118780289D01*
X160359357Y-118771872D01*
X160351676Y-118769900D01*
X160332887Y-118769900D01*
X160313176Y-118768349D01*
X160293320Y-118765204D01*
X160285428Y-118765950D01*
X160249556Y-118769341D01*
X160237698Y-118769900D01*
X150338011Y-118769900D01*
X150269890Y-118749898D01*
X150223397Y-118696242D01*
X150213293Y-118625968D01*
X150242787Y-118561388D01*
X150248916Y-118554805D01*
X150289750Y-118513971D01*
X150423575Y-118322850D01*
X150425898Y-118317868D01*
X150425901Y-118317863D01*
X150519856Y-118116376D01*
X150519857Y-118116374D01*
X150522179Y-118111394D01*
X150582565Y-117886028D01*
X150602900Y-117653600D01*
X150582565Y-117421172D01*
X150544355Y-117278569D01*
X150523602Y-117201116D01*
X150523601Y-117201114D01*
X150522179Y-117195806D01*
X150512375Y-117174782D01*
X150425901Y-116989337D01*
X150425898Y-116989332D01*
X150423575Y-116984350D01*
X150289750Y-116793229D01*
X150124771Y-116628250D01*
X150118044Y-116623539D01*
X149938150Y-116497576D01*
X149933650Y-116494425D01*
X149930234Y-116492832D01*
X149881609Y-116441835D01*
X149868174Y-116372121D01*
X149894561Y-116306211D01*
X149930066Y-116275446D01*
X149933650Y-116273775D01*
X150011165Y-116219498D01*
X150120260Y-116143109D01*
X150120263Y-116143107D01*
X150124771Y-116139950D01*
X150289750Y-115974971D01*
X150423575Y-115783850D01*
X150425898Y-115778868D01*
X150425901Y-115778863D01*
X150519856Y-115577376D01*
X150519857Y-115577374D01*
X150522179Y-115572394D01*
X150547167Y-115479139D01*
X150581141Y-115352343D01*
X150581141Y-115352342D01*
X150582565Y-115347028D01*
X150602900Y-115114600D01*
X150582565Y-114882172D01*
X150581141Y-114876857D01*
X150523602Y-114662116D01*
X150523601Y-114662114D01*
X150522179Y-114656806D01*
X150519856Y-114651824D01*
X150425901Y-114450337D01*
X150425898Y-114450332D01*
X150423575Y-114445350D01*
X150289750Y-114254229D01*
X150124771Y-114089250D01*
X149933650Y-113955425D01*
X149928668Y-113953102D01*
X149928663Y-113953099D01*
X149727176Y-113859144D01*
X149727174Y-113859143D01*
X149722194Y-113856821D01*
X149716886Y-113855399D01*
X149716884Y-113855398D01*
X149502143Y-113797859D01*
X149502142Y-113797859D01*
X149496828Y-113796435D01*
X149264400Y-113776100D01*
X149031972Y-113796435D01*
X149026658Y-113797859D01*
X149026657Y-113797859D01*
X148811916Y-113855398D01*
X148811914Y-113855399D01*
X148806606Y-113856821D01*
X148801626Y-113859143D01*
X148801624Y-113859144D01*
X148600137Y-113953099D01*
X148600132Y-113953102D01*
X148595150Y-113955425D01*
X148404029Y-114089250D01*
X148239050Y-114254229D01*
X148105225Y-114445350D01*
X148103305Y-114449467D01*
X148052135Y-114498257D01*
X147982421Y-114511692D01*
X147916511Y-114485305D01*
X147885538Y-114449559D01*
X147883575Y-114445350D01*
X147749750Y-114254229D01*
X147584771Y-114089250D01*
X147393650Y-113955425D01*
X147388668Y-113953102D01*
X147388663Y-113953099D01*
X147187176Y-113859144D01*
X147187174Y-113859143D01*
X147182194Y-113856821D01*
X147176886Y-113855399D01*
X147176884Y-113855398D01*
X146962143Y-113797859D01*
X146962142Y-113797859D01*
X146956828Y-113796435D01*
X146724400Y-113776100D01*
X146491972Y-113796435D01*
X146486658Y-113797859D01*
X146486657Y-113797859D01*
X146271916Y-113855398D01*
X146271914Y-113855399D01*
X146266606Y-113856821D01*
X146261626Y-113859143D01*
X146261624Y-113859144D01*
X146060137Y-113953099D01*
X146060132Y-113953102D01*
X146055150Y-113955425D01*
X145864029Y-114089250D01*
X145699050Y-114254229D01*
X145565225Y-114445350D01*
X145563305Y-114449467D01*
X145512135Y-114498257D01*
X145442421Y-114511692D01*
X145376511Y-114485305D01*
X145345538Y-114449559D01*
X145343575Y-114445350D01*
X145209750Y-114254229D01*
X145044771Y-114089250D01*
X144853650Y-113955425D01*
X144848668Y-113953102D01*
X144848663Y-113953099D01*
X144647176Y-113859144D01*
X144647174Y-113859143D01*
X144642194Y-113856821D01*
X144636886Y-113855399D01*
X144636884Y-113855398D01*
X144422143Y-113797859D01*
X144422142Y-113797859D01*
X144416828Y-113796435D01*
X144184400Y-113776100D01*
X143951972Y-113796435D01*
X143946658Y-113797859D01*
X143946657Y-113797859D01*
X143731916Y-113855398D01*
X143731914Y-113855399D01*
X143726606Y-113856821D01*
X143721626Y-113859143D01*
X143721624Y-113859144D01*
X143520137Y-113953099D01*
X143520132Y-113953102D01*
X143515150Y-113955425D01*
X143324029Y-114089250D01*
X143159050Y-114254229D01*
X143025225Y-114445350D01*
X143023305Y-114449467D01*
X142972135Y-114498257D01*
X142902421Y-114511692D01*
X142836511Y-114485305D01*
X142805538Y-114449559D01*
X142803575Y-114445350D01*
X142669750Y-114254229D01*
X142504771Y-114089250D01*
X142313650Y-113955425D01*
X142308668Y-113953102D01*
X142308663Y-113953099D01*
X142107176Y-113859144D01*
X142107174Y-113859143D01*
X142102194Y-113856821D01*
X142096886Y-113855399D01*
X142096884Y-113855398D01*
X141882143Y-113797859D01*
X141882142Y-113797859D01*
X141876828Y-113796435D01*
X141644400Y-113776100D01*
X141411972Y-113796435D01*
X141406658Y-113797859D01*
X141406657Y-113797859D01*
X141191916Y-113855398D01*
X141191914Y-113855399D01*
X141186606Y-113856821D01*
X141181626Y-113859143D01*
X141181624Y-113859144D01*
X140980137Y-113953099D01*
X140980132Y-113953102D01*
X140975150Y-113955425D01*
X140784029Y-114089250D01*
X140619050Y-114254229D01*
X140485225Y-114445350D01*
X140483305Y-114449467D01*
X140432135Y-114498257D01*
X140362421Y-114511692D01*
X140296511Y-114485305D01*
X140265538Y-114449559D01*
X140263575Y-114445350D01*
X140129750Y-114254229D01*
X139964771Y-114089250D01*
X139773650Y-113955425D01*
X139768668Y-113953102D01*
X139768663Y-113953099D01*
X139567176Y-113859144D01*
X139567174Y-113859143D01*
X139562194Y-113856821D01*
X139556886Y-113855399D01*
X139556884Y-113855398D01*
X139342143Y-113797859D01*
X139342142Y-113797859D01*
X139336828Y-113796435D01*
X139104400Y-113776100D01*
X138871972Y-113796435D01*
X138866658Y-113797859D01*
X138866657Y-113797859D01*
X138651916Y-113855398D01*
X138651914Y-113855399D01*
X138646606Y-113856821D01*
X138641626Y-113859143D01*
X138641624Y-113859144D01*
X138440137Y-113953099D01*
X138440132Y-113953102D01*
X138435150Y-113955425D01*
X138244029Y-114089250D01*
X138079050Y-114254229D01*
X137945225Y-114445350D01*
X137943305Y-114449467D01*
X137892135Y-114498257D01*
X137822421Y-114511692D01*
X137756511Y-114485305D01*
X137725538Y-114449559D01*
X137723575Y-114445350D01*
X137589750Y-114254229D01*
X137424771Y-114089250D01*
X137233650Y-113955425D01*
X137228668Y-113953102D01*
X137228663Y-113953099D01*
X137027176Y-113859144D01*
X137027174Y-113859143D01*
X137022194Y-113856821D01*
X137016886Y-113855399D01*
X137016884Y-113855398D01*
X136802143Y-113797859D01*
X136802142Y-113797859D01*
X136796828Y-113796435D01*
X136564400Y-113776100D01*
X136331972Y-113796435D01*
X136326658Y-113797859D01*
X136326657Y-113797859D01*
X136111916Y-113855398D01*
X136111914Y-113855399D01*
X136106606Y-113856821D01*
X136101626Y-113859143D01*
X136101624Y-113859144D01*
X135900137Y-113953099D01*
X135900132Y-113953102D01*
X135895150Y-113955425D01*
X135704029Y-114089250D01*
X135539050Y-114254229D01*
X135405225Y-114445350D01*
X135403305Y-114449467D01*
X135352135Y-114498257D01*
X135282421Y-114511692D01*
X135216511Y-114485305D01*
X135185538Y-114449559D01*
X135183575Y-114445350D01*
X135049750Y-114254229D01*
X134884771Y-114089250D01*
X134693650Y-113955425D01*
X134688668Y-113953102D01*
X134688663Y-113953099D01*
X134487176Y-113859144D01*
X134487174Y-113859143D01*
X134482194Y-113856821D01*
X134476886Y-113855399D01*
X134476884Y-113855398D01*
X134262143Y-113797859D01*
X134262142Y-113797859D01*
X134256828Y-113796435D01*
X134024400Y-113776100D01*
X133791972Y-113796435D01*
X133786658Y-113797859D01*
X133786657Y-113797859D01*
X133571916Y-113855398D01*
X133571914Y-113855399D01*
X133566606Y-113856821D01*
X133561626Y-113859143D01*
X133561624Y-113859144D01*
X133360137Y-113953099D01*
X133360132Y-113953102D01*
X133355150Y-113955425D01*
X133164029Y-114089250D01*
X132999050Y-114254229D01*
X132865225Y-114445350D01*
X132863305Y-114449467D01*
X132812135Y-114498257D01*
X132742421Y-114511692D01*
X132676511Y-114485305D01*
X132645538Y-114449559D01*
X132643575Y-114445350D01*
X132509750Y-114254229D01*
X132344771Y-114089250D01*
X132153650Y-113955425D01*
X132148668Y-113953102D01*
X132148663Y-113953099D01*
X131947176Y-113859144D01*
X131947174Y-113859143D01*
X131942194Y-113856821D01*
X131936886Y-113855399D01*
X131936884Y-113855398D01*
X131722143Y-113797859D01*
X131722142Y-113797859D01*
X131716828Y-113796435D01*
X131484400Y-113776100D01*
X131251972Y-113796435D01*
X131246658Y-113797859D01*
X131246657Y-113797859D01*
X131031916Y-113855398D01*
X131031914Y-113855399D01*
X131026606Y-113856821D01*
X131021626Y-113859143D01*
X131021624Y-113859144D01*
X130820137Y-113953099D01*
X130820132Y-113953102D01*
X130815150Y-113955425D01*
X130624029Y-114089250D01*
X130459050Y-114254229D01*
X130325225Y-114445350D01*
X130323305Y-114449467D01*
X130272135Y-114498257D01*
X130202421Y-114511692D01*
X130136511Y-114485305D01*
X130105538Y-114449559D01*
X130103575Y-114445350D01*
X129969750Y-114254229D01*
X129804771Y-114089250D01*
X129613650Y-113955425D01*
X129608668Y-113953102D01*
X129608663Y-113953099D01*
X129407176Y-113859144D01*
X129407174Y-113859143D01*
X129402194Y-113856821D01*
X129396886Y-113855399D01*
X129396884Y-113855398D01*
X129182143Y-113797859D01*
X129182142Y-113797859D01*
X129176828Y-113796435D01*
X128944400Y-113776100D01*
X128711972Y-113796435D01*
X128706658Y-113797859D01*
X128706657Y-113797859D01*
X128491916Y-113855398D01*
X128491914Y-113855399D01*
X128486606Y-113856821D01*
X128481626Y-113859143D01*
X128481624Y-113859144D01*
X128280137Y-113953099D01*
X128280132Y-113953102D01*
X128275150Y-113955425D01*
X128084029Y-114089250D01*
X127919050Y-114254229D01*
X127785225Y-114445350D01*
X127783305Y-114449467D01*
X127732135Y-114498257D01*
X127662421Y-114511692D01*
X127596511Y-114485305D01*
X127565538Y-114449559D01*
X127563575Y-114445350D01*
X127429750Y-114254229D01*
X127264771Y-114089250D01*
X127073650Y-113955425D01*
X127068668Y-113953102D01*
X127068663Y-113953099D01*
X126867176Y-113859144D01*
X126867174Y-113859143D01*
X126862194Y-113856821D01*
X126856886Y-113855399D01*
X126856884Y-113855398D01*
X126642143Y-113797859D01*
X126642142Y-113797859D01*
X126636828Y-113796435D01*
X126404400Y-113776100D01*
X126171972Y-113796435D01*
X126166658Y-113797859D01*
X126166657Y-113797859D01*
X125951916Y-113855398D01*
X125951914Y-113855399D01*
X125946606Y-113856821D01*
X125941626Y-113859143D01*
X125941624Y-113859144D01*
X125740137Y-113953099D01*
X125740132Y-113953102D01*
X125735150Y-113955425D01*
X125544029Y-114089250D01*
X125379050Y-114254229D01*
X125245225Y-114445350D01*
X125243116Y-114449873D01*
X125191844Y-114498758D01*
X125122130Y-114512192D01*
X125056220Y-114485803D01*
X125024991Y-114449762D01*
X125019985Y-114441092D01*
X124979775Y-114383666D01*
X124969298Y-114375291D01*
X124955851Y-114382359D01*
X124236422Y-115101788D01*
X124228808Y-115115732D01*
X124228939Y-115117565D01*
X124233190Y-115124180D01*
X124956572Y-115847562D01*
X124968347Y-115853992D01*
X124980362Y-115844696D01*
X125019985Y-115788108D01*
X125024991Y-115779438D01*
X125076374Y-115730444D01*
X125146087Y-115717007D01*
X125211998Y-115743394D01*
X125243093Y-115779279D01*
X125245225Y-115783850D01*
X125379050Y-115974971D01*
X125544029Y-116139950D01*
X125548537Y-116143107D01*
X125548540Y-116143109D01*
X125657635Y-116219498D01*
X125735150Y-116273775D01*
X125738566Y-116275368D01*
X125787191Y-116326365D01*
X125800626Y-116396079D01*
X125774239Y-116461989D01*
X125738734Y-116492754D01*
X125735150Y-116494425D01*
X125730650Y-116497576D01*
X125550757Y-116623539D01*
X125544029Y-116628250D01*
X125379050Y-116793229D01*
X125375893Y-116797737D01*
X125375891Y-116797740D01*
X125284407Y-116928393D01*
X125245225Y-116984350D01*
X125243305Y-116988467D01*
X125192135Y-117037257D01*
X125122421Y-117050692D01*
X125056511Y-117024305D01*
X125025538Y-116988559D01*
X125023575Y-116984350D01*
X124984393Y-116928393D01*
X124892909Y-116797740D01*
X124892907Y-116797737D01*
X124889750Y-116793229D01*
X124724771Y-116628250D01*
X124718044Y-116623539D01*
X124538150Y-116497576D01*
X124533650Y-116494425D01*
X124529828Y-116492643D01*
X124481108Y-116441544D01*
X124467674Y-116371830D01*
X124494063Y-116305920D01*
X124530104Y-116274691D01*
X124537908Y-116270185D01*
X124595334Y-116229975D01*
X124603709Y-116219498D01*
X124596641Y-116206051D01*
X123877212Y-115486622D01*
X123863268Y-115479008D01*
X123861435Y-115479139D01*
X123854820Y-115483390D01*
X123131438Y-116206772D01*
X123125008Y-116218547D01*
X123134304Y-116230562D01*
X123190892Y-116270185D01*
X123198696Y-116274691D01*
X123247690Y-116326074D01*
X123261127Y-116395787D01*
X123234740Y-116461698D01*
X123199096Y-116492585D01*
X123195150Y-116494425D01*
X123190650Y-116497576D01*
X123010757Y-116623539D01*
X123004029Y-116628250D01*
X122839050Y-116793229D01*
X122835893Y-116797738D01*
X122835891Y-116797740D01*
X122763678Y-116900871D01*
X122708221Y-116945199D01*
X122660465Y-116954600D01*
X122528335Y-116954600D01*
X122460214Y-116934598D01*
X122425122Y-116900871D01*
X122352909Y-116797740D01*
X122352907Y-116797738D01*
X122349750Y-116793229D01*
X122184771Y-116628250D01*
X122178044Y-116623539D01*
X121998150Y-116497576D01*
X121993650Y-116494425D01*
X121989828Y-116492643D01*
X121941108Y-116441544D01*
X121927674Y-116371830D01*
X121954063Y-116305920D01*
X121990104Y-116274691D01*
X121997908Y-116270185D01*
X122055334Y-116229975D01*
X122063709Y-116219498D01*
X122056641Y-116206051D01*
X121337212Y-115486622D01*
X121323268Y-115479008D01*
X121321435Y-115479139D01*
X121314820Y-115483390D01*
X120591438Y-116206772D01*
X120585008Y-116218547D01*
X120594304Y-116230562D01*
X120650892Y-116270185D01*
X120658696Y-116274691D01*
X120707690Y-116326074D01*
X120721127Y-116395787D01*
X120694740Y-116461698D01*
X120659096Y-116492585D01*
X120655150Y-116494425D01*
X120650650Y-116497576D01*
X120470757Y-116623539D01*
X120464029Y-116628250D01*
X120299050Y-116793229D01*
X120295893Y-116797738D01*
X120295891Y-116797740D01*
X120223678Y-116900871D01*
X120168221Y-116945199D01*
X120120465Y-116954600D01*
X119988335Y-116954600D01*
X119920214Y-116934598D01*
X119885122Y-116900871D01*
X119812909Y-116797740D01*
X119812907Y-116797738D01*
X119809750Y-116793229D01*
X119644771Y-116628250D01*
X119638044Y-116623539D01*
X119458150Y-116497576D01*
X119453650Y-116494425D01*
X119449828Y-116492643D01*
X119401108Y-116441544D01*
X119387674Y-116371830D01*
X119414063Y-116305920D01*
X119450104Y-116274691D01*
X119457908Y-116270185D01*
X119515334Y-116229975D01*
X119523709Y-116219498D01*
X119516641Y-116206051D01*
X118514285Y-115203695D01*
X118480259Y-115141383D01*
X118482093Y-115115732D01*
X119148808Y-115115732D01*
X119148939Y-115117565D01*
X119153190Y-115124180D01*
X119876572Y-115847562D01*
X119888347Y-115853992D01*
X119900362Y-115844696D01*
X119939985Y-115788108D01*
X119945281Y-115778936D01*
X119996665Y-115729943D01*
X120066378Y-115716508D01*
X120132289Y-115742895D01*
X120163519Y-115778936D01*
X120168815Y-115788108D01*
X120209025Y-115845534D01*
X120219502Y-115853909D01*
X120232949Y-115846841D01*
X120952378Y-115127412D01*
X120958755Y-115115732D01*
X121688808Y-115115732D01*
X121688939Y-115117565D01*
X121693190Y-115124180D01*
X122416572Y-115847562D01*
X122428347Y-115853992D01*
X122440362Y-115844696D01*
X122479985Y-115788108D01*
X122485281Y-115778936D01*
X122536665Y-115729943D01*
X122606378Y-115716508D01*
X122672289Y-115742895D01*
X122703519Y-115778936D01*
X122708815Y-115788108D01*
X122749025Y-115845534D01*
X122759502Y-115853909D01*
X122772949Y-115846841D01*
X123492378Y-115127412D01*
X123499992Y-115113468D01*
X123499861Y-115111635D01*
X123495610Y-115105020D01*
X122772228Y-114381638D01*
X122760453Y-114375208D01*
X122748438Y-114384504D01*
X122708815Y-114441092D01*
X122703519Y-114450264D01*
X122652135Y-114499257D01*
X122582422Y-114512692D01*
X122516511Y-114486305D01*
X122485281Y-114450264D01*
X122479985Y-114441092D01*
X122439775Y-114383666D01*
X122429298Y-114375291D01*
X122415851Y-114382359D01*
X121696422Y-115101788D01*
X121688808Y-115115732D01*
X120958755Y-115115732D01*
X120959992Y-115113468D01*
X120959861Y-115111635D01*
X120955610Y-115105020D01*
X120232228Y-114381638D01*
X120220453Y-114375208D01*
X120208438Y-114384504D01*
X120168815Y-114441092D01*
X120163519Y-114450264D01*
X120112135Y-114499257D01*
X120042422Y-114512692D01*
X119976511Y-114486305D01*
X119945281Y-114450264D01*
X119939985Y-114441092D01*
X119899775Y-114383666D01*
X119889298Y-114375291D01*
X119875851Y-114382359D01*
X119156422Y-115101788D01*
X119148808Y-115115732D01*
X118482093Y-115115732D01*
X118485324Y-115070568D01*
X118514285Y-115025505D01*
X119517362Y-114022428D01*
X119523792Y-114010653D01*
X119523057Y-114009702D01*
X120585091Y-114009702D01*
X120592159Y-114023149D01*
X121311588Y-114742578D01*
X121325532Y-114750192D01*
X121327365Y-114750061D01*
X121333980Y-114745810D01*
X122057362Y-114022428D01*
X122063792Y-114010653D01*
X122063057Y-114009702D01*
X123125091Y-114009702D01*
X123132159Y-114023149D01*
X123851588Y-114742578D01*
X123865532Y-114750192D01*
X123867365Y-114750061D01*
X123873980Y-114745810D01*
X124597362Y-114022428D01*
X124603792Y-114010653D01*
X124594496Y-113998638D01*
X124537908Y-113959015D01*
X124528413Y-113953532D01*
X124327005Y-113859614D01*
X124316713Y-113855868D01*
X124102056Y-113798351D01*
X124091261Y-113796448D01*
X123869875Y-113777079D01*
X123858925Y-113777079D01*
X123637539Y-113796448D01*
X123626744Y-113798351D01*
X123412087Y-113855868D01*
X123401795Y-113859614D01*
X123200387Y-113953532D01*
X123190892Y-113959015D01*
X123133466Y-113999225D01*
X123125091Y-114009702D01*
X122063057Y-114009702D01*
X122054496Y-113998638D01*
X121997908Y-113959015D01*
X121988413Y-113953532D01*
X121787005Y-113859614D01*
X121776713Y-113855868D01*
X121562056Y-113798351D01*
X121551261Y-113796448D01*
X121329875Y-113777079D01*
X121318925Y-113777079D01*
X121097539Y-113796448D01*
X121086744Y-113798351D01*
X120872087Y-113855868D01*
X120861795Y-113859614D01*
X120660387Y-113953532D01*
X120650892Y-113959015D01*
X120593466Y-113999225D01*
X120585091Y-114009702D01*
X119523057Y-114009702D01*
X119514496Y-113998638D01*
X119457908Y-113959015D01*
X119448413Y-113953532D01*
X119247005Y-113859614D01*
X119236713Y-113855868D01*
X119022056Y-113798351D01*
X119011261Y-113796448D01*
X118789875Y-113777079D01*
X118778925Y-113777079D01*
X118557539Y-113796448D01*
X118546744Y-113798351D01*
X118332087Y-113855868D01*
X118321795Y-113859614D01*
X118120387Y-113953532D01*
X118110892Y-113959015D01*
X117946771Y-114073934D01*
X117879497Y-114096622D01*
X117810637Y-114079337D01*
X117762052Y-114027568D01*
X117748500Y-113970721D01*
X117748500Y-113796371D01*
X117768502Y-113728250D01*
X117785405Y-113707275D01*
X118017277Y-113475404D01*
X118079589Y-113441379D01*
X118106372Y-113438500D01*
X165123630Y-113438500D01*
X165191751Y-113458502D01*
X165212725Y-113475405D01*
X167444595Y-115707276D01*
X167478621Y-115769588D01*
X167481500Y-115796371D01*
X167481501Y-116614007D01*
X167480068Y-116632957D01*
X167478065Y-116646120D01*
X167478065Y-116646126D01*
X167476965Y-116653355D01*
X167477558Y-116660647D01*
X167477558Y-116660650D01*
X167481086Y-116704019D01*
X167481501Y-116714234D01*
X167481501Y-116722886D01*
X167481926Y-116726530D01*
X167484949Y-116752464D01*
X167485382Y-116756838D01*
X167489568Y-116808296D01*
X167491301Y-116829604D01*
X167493556Y-116836565D01*
X167494741Y-116842495D01*
X167496132Y-116848381D01*
X167496979Y-116855643D01*
X167521889Y-116924268D01*
X167523303Y-116928390D01*
X167545798Y-116997830D01*
X167549594Y-117004085D01*
X167552096Y-117009552D01*
X167554817Y-117014985D01*
X167557314Y-117021864D01*
X167576215Y-117050692D01*
X167597322Y-117082886D01*
X167599663Y-117086595D01*
X167637535Y-117149006D01*
X167645330Y-117157832D01*
X167645752Y-117158310D01*
X167647973Y-117160894D01*
X167650256Y-117163624D01*
X167654270Y-117169747D01*
X167659585Y-117174782D01*
X167706113Y-117218858D01*
X167708556Y-117221236D01*
X168579000Y-118091681D01*
X168591385Y-118106093D01*
X168603611Y-118122706D01*
X168609194Y-118127449D01*
X168642351Y-118155618D01*
X168649867Y-118162548D01*
X168655984Y-118168665D01*
X168658857Y-118170938D01*
X168658866Y-118170946D01*
X168679343Y-118187146D01*
X168682747Y-118189937D01*
X168721126Y-118222542D01*
X168738376Y-118237197D01*
X168744897Y-118240527D01*
X168749923Y-118243879D01*
X168755061Y-118247052D01*
X168760802Y-118251594D01*
X168826967Y-118282518D01*
X168830850Y-118284416D01*
X168895865Y-118317615D01*
X168902979Y-118319356D01*
X168908645Y-118321463D01*
X168914369Y-118323367D01*
X168921001Y-118326467D01*
X168992496Y-118341338D01*
X168996725Y-118342295D01*
X169067630Y-118359645D01*
X169073237Y-118359993D01*
X169073238Y-118359993D01*
X169075541Y-118360136D01*
X169080037Y-118360415D01*
X169083431Y-118360671D01*
X169086961Y-118360986D01*
X169094129Y-118362477D01*
X169165494Y-118360546D01*
X169168902Y-118360500D01*
X169367814Y-118360500D01*
X169435935Y-118380502D01*
X169466764Y-118408494D01*
X169565424Y-118533644D01*
X169594004Y-118559423D01*
X169732659Y-118684489D01*
X169732665Y-118684494D01*
X169736629Y-118688069D01*
X169741142Y-118690928D01*
X169741144Y-118690929D01*
X169775450Y-118712658D01*
X169931406Y-118811439D01*
X170144184Y-118900228D01*
X170149387Y-118901425D01*
X170149392Y-118901426D01*
X170363678Y-118950701D01*
X170363683Y-118950702D01*
X170368881Y-118951897D01*
X170374209Y-118952200D01*
X170374212Y-118952200D01*
X170524701Y-118960745D01*
X170599071Y-118964968D01*
X170604378Y-118964368D01*
X170604380Y-118964368D01*
X170725272Y-118950701D01*
X170828173Y-118939068D01*
X170833288Y-118937587D01*
X170833292Y-118937586D01*
X170931813Y-118909056D01*
X171049635Y-118874937D01*
X171257125Y-118774409D01*
X171261463Y-118771309D01*
X171261468Y-118771306D01*
X171440370Y-118643459D01*
X171444711Y-118640357D01*
X171560846Y-118523205D01*
X171603277Y-118480403D01*
X171603278Y-118480402D01*
X171607030Y-118476617D01*
X171650859Y-118414139D01*
X171706355Y-118369859D01*
X171754009Y-118360500D01*
X172252014Y-118360500D01*
X172270965Y-118361933D01*
X172284122Y-118363935D01*
X172284125Y-118363935D01*
X172291355Y-118365035D01*
X172298647Y-118364442D01*
X172298650Y-118364442D01*
X172342007Y-118360915D01*
X172352222Y-118360500D01*
X172360886Y-118360500D01*
X172364520Y-118360076D01*
X172364526Y-118360076D01*
X172374467Y-118358917D01*
X172390515Y-118357046D01*
X172394842Y-118356618D01*
X172424196Y-118354230D01*
X172460307Y-118351293D01*
X172460311Y-118351292D01*
X172467604Y-118350699D01*
X172474563Y-118348445D01*
X172480483Y-118347262D01*
X172486373Y-118345870D01*
X172493643Y-118345022D01*
X172500523Y-118342525D01*
X172500526Y-118342524D01*
X172544762Y-118326467D01*
X172562264Y-118320114D01*
X172566410Y-118318691D01*
X172628867Y-118298458D01*
X172628869Y-118298457D01*
X172635830Y-118296202D01*
X172642087Y-118292405D01*
X172647562Y-118289898D01*
X172652976Y-118287187D01*
X172659864Y-118284687D01*
X172720918Y-118244658D01*
X172724627Y-118242318D01*
X172782211Y-118207375D01*
X172782213Y-118207373D01*
X172787006Y-118204465D01*
X172791209Y-118200753D01*
X172791213Y-118200750D01*
X172796292Y-118196265D01*
X172798872Y-118194047D01*
X172801627Y-118191744D01*
X172807747Y-118187731D01*
X172823648Y-118170946D01*
X172856895Y-118135849D01*
X172859273Y-118133407D01*
X173209677Y-117783003D01*
X173224088Y-117770618D01*
X173240705Y-117758389D01*
X173273624Y-117719641D01*
X173280554Y-117712126D01*
X173286665Y-117706015D01*
X173305169Y-117682626D01*
X173307944Y-117679243D01*
X173350456Y-117629205D01*
X173350458Y-117629202D01*
X173355197Y-117623624D01*
X173358526Y-117617105D01*
X173361880Y-117612076D01*
X173365053Y-117606937D01*
X173369594Y-117601198D01*
X173400518Y-117535033D01*
X173402422Y-117531138D01*
X173435615Y-117466135D01*
X173437356Y-117459021D01*
X173439463Y-117453355D01*
X173441367Y-117447631D01*
X173444467Y-117440999D01*
X173459338Y-117369504D01*
X173460295Y-117365275D01*
X173477645Y-117294370D01*
X173478415Y-117281963D01*
X173478671Y-117278569D01*
X173478986Y-117275039D01*
X173480477Y-117267871D01*
X173478546Y-117196506D01*
X173478500Y-117193098D01*
X173478500Y-112206987D01*
X173479933Y-112188036D01*
X173481935Y-112174879D01*
X173481935Y-112174876D01*
X173483035Y-112167646D01*
X173478915Y-112116993D01*
X173478500Y-112106778D01*
X173478500Y-112098114D01*
X173475046Y-112068485D01*
X173474616Y-112064139D01*
X173469293Y-111998692D01*
X173469292Y-111998688D01*
X173468699Y-111991395D01*
X173466444Y-111984434D01*
X173465259Y-111978503D01*
X173463870Y-111972627D01*
X173463022Y-111965357D01*
X173438109Y-111896722D01*
X173436697Y-111892608D01*
X173416459Y-111830134D01*
X173416457Y-111830129D01*
X173414202Y-111823169D01*
X173410404Y-111816911D01*
X173407898Y-111811437D01*
X173405186Y-111806020D01*
X173402687Y-111799136D01*
X173362664Y-111738089D01*
X173360319Y-111734372D01*
X173325375Y-111676788D01*
X173325374Y-111676786D01*
X173322465Y-111671993D01*
X173314249Y-111662690D01*
X173312031Y-111660108D01*
X173309741Y-111657369D01*
X173305731Y-111651253D01*
X173253885Y-111602139D01*
X173251443Y-111599762D01*
X173004036Y-111352355D01*
X172753405Y-111101725D01*
X172719380Y-111039412D01*
X172716500Y-111012629D01*
X172716500Y-108634659D01*
X172736502Y-108566538D01*
X172769240Y-108532146D01*
X172841711Y-108480357D01*
X173004030Y-108316617D01*
X173088103Y-108196771D01*
X173133375Y-108132236D01*
X173133376Y-108132234D01*
X173136439Y-108127868D01*
X173153786Y-108091254D01*
X173232868Y-107924331D01*
X173235153Y-107919508D01*
X173297349Y-107697494D01*
X173321249Y-107468176D01*
X173321500Y-107442000D01*
X173321250Y-107439052D01*
X173302458Y-107217576D01*
X173302457Y-107217572D01*
X173302007Y-107212265D01*
X173244084Y-106989098D01*
X173149388Y-106778882D01*
X173020627Y-106587626D01*
X172861482Y-106420799D01*
X172749572Y-106337535D01*
X172707787Y-106306446D01*
X172665074Y-106249735D01*
X172657000Y-106205357D01*
X172657000Y-106137179D01*
X172677002Y-106069058D01*
X172709742Y-106034665D01*
X172837358Y-105943469D01*
X172837367Y-105943461D01*
X172841711Y-105940357D01*
X173004030Y-105776617D01*
X173088103Y-105656771D01*
X173133375Y-105592236D01*
X173133376Y-105592234D01*
X173136439Y-105587868D01*
X173153786Y-105551254D01*
X173232868Y-105384331D01*
X173235153Y-105379508D01*
X173297349Y-105157494D01*
X173321249Y-104928176D01*
X173321500Y-104902000D01*
X173321250Y-104899052D01*
X173302458Y-104677576D01*
X173302457Y-104677572D01*
X173302007Y-104672265D01*
X173244084Y-104449098D01*
X173149388Y-104238882D01*
X173020627Y-104047626D01*
X172861482Y-103880799D01*
X172857204Y-103877616D01*
X172707787Y-103766446D01*
X172665074Y-103709735D01*
X172657000Y-103665357D01*
X172657000Y-103597179D01*
X172677002Y-103529058D01*
X172709742Y-103494665D01*
X172837358Y-103403469D01*
X172837367Y-103403461D01*
X172841711Y-103400357D01*
X172893964Y-103347647D01*
X173000277Y-103240403D01*
X173000278Y-103240402D01*
X173004030Y-103236617D01*
X173136439Y-103047868D01*
X173235153Y-102839508D01*
X173297349Y-102617494D01*
X173321249Y-102388176D01*
X173321500Y-102362000D01*
X173321250Y-102359052D01*
X173302458Y-102137576D01*
X173302457Y-102137572D01*
X173302007Y-102132265D01*
X173295276Y-102106329D01*
X173245426Y-101914269D01*
X173244084Y-101909098D01*
X173234513Y-101887850D01*
X173151578Y-101703743D01*
X173151577Y-101703741D01*
X173149388Y-101698882D01*
X173020627Y-101507626D01*
X172861482Y-101340799D01*
X172816781Y-101307540D01*
X172680786Y-101206357D01*
X172680787Y-101206357D01*
X172676504Y-101203171D01*
X172671753Y-101200755D01*
X172671749Y-101200753D01*
X172475740Y-101101097D01*
X172475739Y-101101097D01*
X172470982Y-101098678D01*
X172339888Y-101057972D01*
X172255895Y-101031891D01*
X172255889Y-101031890D01*
X172250792Y-101030307D01*
X172116800Y-101012548D01*
X172027515Y-101000714D01*
X172027510Y-101000714D01*
X172022230Y-101000014D01*
X172016900Y-101000214D01*
X172016899Y-101000214D01*
X171908722Y-101004275D01*
X171791831Y-101008663D01*
X171721010Y-101023523D01*
X171571411Y-101054912D01*
X171571408Y-101054913D01*
X171566184Y-101056009D01*
X171351740Y-101140697D01*
X171154631Y-101260306D01*
X171150601Y-101263803D01*
X171055877Y-101346000D01*
X170980492Y-101411415D01*
X170974961Y-101418160D01*
X170973778Y-101418967D01*
X170973390Y-101419366D01*
X170973309Y-101419287D01*
X170916305Y-101458157D01*
X170845335Y-101460093D01*
X170784585Y-101423352D01*
X170756628Y-101373773D01*
X170737180Y-101307540D01*
X170729767Y-101291308D01*
X170660574Y-101183640D01*
X170648888Y-101170153D01*
X170552160Y-101086338D01*
X170537152Y-101076693D01*
X170420725Y-101023523D01*
X170403612Y-101018498D01*
X170272446Y-100999639D01*
X170263505Y-100999000D01*
X169690115Y-100999000D01*
X169674876Y-101003475D01*
X169673671Y-101004865D01*
X169672000Y-101012548D01*
X169672000Y-108761941D01*
X169676151Y-108776079D01*
X169686798Y-108777774D01*
X169690192Y-108777096D01*
X169901333Y-108715954D01*
X169911259Y-108712143D01*
X170109065Y-108616307D01*
X170118212Y-108610876D01*
X170297041Y-108483083D01*
X170305149Y-108476182D01*
X170459893Y-108320082D01*
X170466706Y-108311934D01*
X170585368Y-108142781D01*
X170640864Y-108098501D01*
X170711489Y-108091254D01*
X170774822Y-108123340D01*
X170799196Y-108154923D01*
X170819685Y-108192580D01*
X170962424Y-108373644D01*
X170966389Y-108377220D01*
X171129666Y-108524495D01*
X171129670Y-108524498D01*
X171133629Y-108528069D01*
X171138130Y-108530920D01*
X171138142Y-108530929D01*
X171140924Y-108532691D01*
X171141845Y-108533739D01*
X171142392Y-108534155D01*
X171142307Y-108534266D01*
X171187768Y-108586040D01*
X171199500Y-108639133D01*
X171199501Y-111313007D01*
X171198068Y-111331957D01*
X171196065Y-111345120D01*
X171196065Y-111345126D01*
X171194965Y-111352355D01*
X171195558Y-111359647D01*
X171195558Y-111359650D01*
X171199086Y-111403019D01*
X171199501Y-111413234D01*
X171199501Y-111421886D01*
X171199926Y-111425530D01*
X171202949Y-111451464D01*
X171203382Y-111455838D01*
X171209301Y-111528604D01*
X171211556Y-111535565D01*
X171212741Y-111541495D01*
X171214132Y-111547381D01*
X171214979Y-111554643D01*
X171239889Y-111623268D01*
X171241303Y-111627390D01*
X171263798Y-111696830D01*
X171267594Y-111703085D01*
X171270096Y-111708552D01*
X171272817Y-111713985D01*
X171275314Y-111720864D01*
X171304098Y-111764766D01*
X171315322Y-111781886D01*
X171317663Y-111785595D01*
X171355535Y-111848006D01*
X171363330Y-111856832D01*
X171363752Y-111857310D01*
X171365973Y-111859894D01*
X171368256Y-111862624D01*
X171372270Y-111868747D01*
X171377585Y-111873782D01*
X171424113Y-111917858D01*
X171426556Y-111920236D01*
X171924597Y-112418278D01*
X171958622Y-112480590D01*
X171961501Y-112507373D01*
X171961501Y-113740568D01*
X171941499Y-113808689D01*
X171887843Y-113855182D01*
X171817569Y-113865286D01*
X171752989Y-113835792D01*
X171695435Y-113785921D01*
X171695430Y-113785918D01*
X171688619Y-113780016D01*
X171680044Y-113776100D01*
X171563864Y-113723042D01*
X171563863Y-113723042D01*
X171555670Y-113719300D01*
X171546755Y-113718018D01*
X171546754Y-113718018D01*
X171415448Y-113699139D01*
X171415441Y-113699138D01*
X171411000Y-113698500D01*
X170322371Y-113698500D01*
X170254250Y-113678498D01*
X170233276Y-113661595D01*
X167512006Y-110940326D01*
X167499619Y-110925912D01*
X167491734Y-110915197D01*
X167491730Y-110915192D01*
X167487389Y-110909294D01*
X167448642Y-110876376D01*
X167441126Y-110869446D01*
X167435015Y-110863335D01*
X167411675Y-110844868D01*
X167408279Y-110842084D01*
X167358207Y-110799545D01*
X167358201Y-110799541D01*
X167352624Y-110794803D01*
X167346106Y-110791475D01*
X167341113Y-110788145D01*
X167335942Y-110784951D01*
X167330197Y-110780406D01*
X167267979Y-110751327D01*
X167264111Y-110749519D01*
X167260161Y-110747588D01*
X167201655Y-110717714D01*
X167201653Y-110717713D01*
X167195135Y-110714385D01*
X167188026Y-110712645D01*
X167182411Y-110710557D01*
X167176633Y-110708635D01*
X167169998Y-110705534D01*
X167098545Y-110690672D01*
X167094279Y-110689706D01*
X167023370Y-110672355D01*
X167017770Y-110672008D01*
X167017766Y-110672007D01*
X167010961Y-110671585D01*
X167007570Y-110671328D01*
X167004029Y-110671012D01*
X166996870Y-110669523D01*
X166930163Y-110671328D01*
X166925506Y-110671454D01*
X166922098Y-110671500D01*
X127282580Y-110671500D01*
X127208521Y-110647438D01*
X127202088Y-110642764D01*
X127202086Y-110642763D01*
X127196750Y-110638886D01*
X127022287Y-110561210D01*
X126928887Y-110541357D01*
X126841944Y-110522876D01*
X126841939Y-110522876D01*
X126835487Y-110521504D01*
X126644513Y-110521504D01*
X126638061Y-110522876D01*
X126638056Y-110522876D01*
X126551113Y-110541357D01*
X126457713Y-110561210D01*
X126283250Y-110638886D01*
X126277914Y-110642763D01*
X126277912Y-110642764D01*
X126271479Y-110647438D01*
X126197420Y-110671500D01*
X125315000Y-110671500D01*
X125246879Y-110651498D01*
X125200386Y-110597842D01*
X125189000Y-110545500D01*
X125189000Y-107714423D01*
X168086255Y-107714423D01*
X168094638Y-107766471D01*
X168097212Y-107776793D01*
X168168230Y-107984810D01*
X168172497Y-107994533D01*
X168277556Y-108187625D01*
X168283402Y-108196491D01*
X168419486Y-108369113D01*
X168426750Y-108376875D01*
X168589967Y-108524094D01*
X168598444Y-108530528D01*
X168784122Y-108648136D01*
X168793567Y-108653053D01*
X168996406Y-108737694D01*
X169006545Y-108740950D01*
X169146345Y-108773096D01*
X169160422Y-108772257D01*
X169164000Y-108762999D01*
X169164000Y-107714115D01*
X169159525Y-107698876D01*
X169158135Y-107697671D01*
X169150452Y-107696000D01*
X168101403Y-107696000D01*
X168088222Y-107699870D01*
X168086255Y-107714423D01*
X125189000Y-107714423D01*
X125189000Y-105174423D01*
X168086255Y-105174423D01*
X168094638Y-105226471D01*
X168097212Y-105236793D01*
X168168230Y-105444810D01*
X168172497Y-105454533D01*
X168277556Y-105647625D01*
X168283402Y-105656491D01*
X168419486Y-105829113D01*
X168426750Y-105836875D01*
X168589967Y-105984094D01*
X168598444Y-105990528D01*
X168717188Y-106065740D01*
X168764033Y-106119088D01*
X168774600Y-106189294D01*
X168745533Y-106254067D01*
X168715132Y-106279903D01*
X168619486Y-106337942D01*
X168610896Y-106344206D01*
X168444884Y-106488264D01*
X168437464Y-106495895D01*
X168298100Y-106665860D01*
X168292075Y-106674627D01*
X168183342Y-106865644D01*
X168178877Y-106875308D01*
X168103882Y-107081916D01*
X168101111Y-107092184D01*
X168087008Y-107170174D01*
X168088427Y-107183414D01*
X168103062Y-107188000D01*
X169145885Y-107188000D01*
X169161124Y-107183525D01*
X169162329Y-107182135D01*
X169164000Y-107174452D01*
X169164000Y-105174115D01*
X169159525Y-105158876D01*
X169158135Y-105157671D01*
X169150452Y-105156000D01*
X168101403Y-105156000D01*
X168088222Y-105159870D01*
X168086255Y-105174423D01*
X125189000Y-105174423D01*
X125189000Y-103181725D01*
X125209002Y-103113604D01*
X125225905Y-103092630D01*
X125688987Y-102629548D01*
X168055000Y-102629548D01*
X168055000Y-103209743D01*
X168055161Y-103214250D01*
X168059740Y-103278269D01*
X168062126Y-103291491D01*
X168098819Y-103416458D01*
X168106233Y-103432692D01*
X168175426Y-103540360D01*
X168187112Y-103553847D01*
X168283840Y-103637662D01*
X168298848Y-103647307D01*
X168415274Y-103700476D01*
X168429538Y-103704665D01*
X168489263Y-103743050D01*
X168518756Y-103807631D01*
X168508651Y-103877905D01*
X168476619Y-103920726D01*
X168444884Y-103948264D01*
X168437464Y-103955895D01*
X168298100Y-104125860D01*
X168292075Y-104134627D01*
X168183342Y-104325644D01*
X168178877Y-104335308D01*
X168103882Y-104541916D01*
X168101111Y-104552184D01*
X168087008Y-104630174D01*
X168088427Y-104643414D01*
X168103062Y-104648000D01*
X169145885Y-104648000D01*
X169161124Y-104643525D01*
X169162329Y-104642135D01*
X169164000Y-104634452D01*
X169164000Y-102634115D01*
X169159525Y-102618876D01*
X169158135Y-102617671D01*
X169150452Y-102616000D01*
X168073115Y-102616000D01*
X168057876Y-102620475D01*
X168056671Y-102621865D01*
X168055000Y-102629548D01*
X125688987Y-102629548D01*
X126236630Y-102081905D01*
X126298942Y-102047879D01*
X126325725Y-102045000D01*
X132598526Y-102045000D01*
X132672586Y-102069064D01*
X132766250Y-102137114D01*
X132772278Y-102139798D01*
X132772280Y-102139799D01*
X132934682Y-102212105D01*
X132940713Y-102214790D01*
X133029597Y-102233683D01*
X133121056Y-102253124D01*
X133121061Y-102253124D01*
X133127513Y-102254496D01*
X133318487Y-102254496D01*
X133324939Y-102253124D01*
X133324944Y-102253124D01*
X133416403Y-102233683D01*
X133505287Y-102214790D01*
X133511318Y-102212105D01*
X133673720Y-102139799D01*
X133673722Y-102139798D01*
X133679750Y-102137114D01*
X133686424Y-102132265D01*
X133828907Y-102028746D01*
X133828909Y-102028744D01*
X133834251Y-102024863D01*
X133962037Y-101882942D01*
X134057524Y-101717554D01*
X134116538Y-101535927D01*
X134118580Y-101516495D01*
X168055000Y-101516495D01*
X168055000Y-102089885D01*
X168059475Y-102105124D01*
X168060865Y-102106329D01*
X168068548Y-102108000D01*
X169145885Y-102108000D01*
X169161124Y-102103525D01*
X169162329Y-102102135D01*
X169164000Y-102094452D01*
X169164000Y-101017115D01*
X169159525Y-101001876D01*
X169158135Y-101000671D01*
X169150452Y-100999000D01*
X168570257Y-100999000D01*
X168565750Y-100999161D01*
X168501731Y-101003740D01*
X168488509Y-101006126D01*
X168363542Y-101042819D01*
X168347308Y-101050233D01*
X168239640Y-101119426D01*
X168226153Y-101131112D01*
X168142338Y-101227840D01*
X168132693Y-101242848D01*
X168079523Y-101359275D01*
X168074498Y-101376388D01*
X168055639Y-101507554D01*
X168055000Y-101516495D01*
X134118580Y-101516495D01*
X134136500Y-101346000D01*
X134116538Y-101156073D01*
X134057524Y-100974446D01*
X133962037Y-100809058D01*
X133834251Y-100667137D01*
X133828909Y-100663256D01*
X133828907Y-100663254D01*
X133685092Y-100558767D01*
X133685091Y-100558766D01*
X133679750Y-100554886D01*
X133673722Y-100552202D01*
X133673720Y-100552201D01*
X133511318Y-100479895D01*
X133511317Y-100479895D01*
X133505287Y-100477210D01*
X133411887Y-100457357D01*
X133324944Y-100438876D01*
X133324939Y-100438876D01*
X133318487Y-100437504D01*
X133127513Y-100437504D01*
X133121061Y-100438876D01*
X133121056Y-100438876D01*
X133034113Y-100457357D01*
X132940713Y-100477210D01*
X132934683Y-100479895D01*
X132934682Y-100479895D01*
X132772280Y-100552201D01*
X132772278Y-100552202D01*
X132766250Y-100554886D01*
X132686343Y-100612942D01*
X132672587Y-100622936D01*
X132598526Y-100647000D01*
X126921612Y-100647000D01*
X126853491Y-100626998D01*
X126806998Y-100573342D01*
X126796894Y-100503068D01*
X126812493Y-100458000D01*
X126815220Y-100453277D01*
X126815221Y-100453276D01*
X126818524Y-100447554D01*
X126877538Y-100265927D01*
X126897500Y-100076000D01*
X126896810Y-100069434D01*
X126878810Y-99898170D01*
X126891582Y-99828332D01*
X126940084Y-99776485D01*
X127004120Y-99759000D01*
X172693370Y-99759000D01*
X172701940Y-99759292D01*
X172749268Y-99762519D01*
X172749272Y-99762519D01*
X172756844Y-99763035D01*
X172764321Y-99761730D01*
X172764322Y-99761730D01*
X172791360Y-99757011D01*
X172818890Y-99752206D01*
X172825374Y-99751249D01*
X172887928Y-99743679D01*
X172895029Y-99740996D01*
X172898497Y-99740144D01*
X172912567Y-99736295D01*
X172916002Y-99735258D01*
X172923478Y-99733953D01*
X172981136Y-99708643D01*
X172987228Y-99706156D01*
X172987961Y-99705879D01*
X173046160Y-99683887D01*
X173052418Y-99679586D01*
X173055567Y-99677940D01*
X173068368Y-99670815D01*
X173071414Y-99669014D01*
X173078365Y-99665962D01*
X173084391Y-99661338D01*
X173084393Y-99661337D01*
X173128329Y-99627624D01*
X173133667Y-99623746D01*
X173179302Y-99592383D01*
X173179308Y-99592377D01*
X173185564Y-99588078D01*
X173224892Y-99543937D01*
X173229874Y-99538661D01*
X174465425Y-98303110D01*
X174471691Y-98297256D01*
X174507449Y-98266063D01*
X174507452Y-98266060D01*
X174513174Y-98261068D01*
X174549397Y-98209529D01*
X174553328Y-98204236D01*
X174587487Y-98160672D01*
X174592176Y-98154692D01*
X174595303Y-98147767D01*
X174597149Y-98144719D01*
X174604373Y-98132054D01*
X174606065Y-98128898D01*
X174610438Y-98122676D01*
X174633324Y-98063977D01*
X174635879Y-98057899D01*
X174658657Y-98007450D01*
X174661784Y-98000525D01*
X174663169Y-97993054D01*
X174664245Y-97989620D01*
X174668247Y-97975571D01*
X174669125Y-97972153D01*
X174671883Y-97965078D01*
X174680106Y-97902618D01*
X174681138Y-97896104D01*
X174691226Y-97841673D01*
X174691226Y-97841672D01*
X174692610Y-97834205D01*
X174689209Y-97775220D01*
X174689000Y-97767968D01*
X174689000Y-92956618D01*
X174689292Y-92948049D01*
X174692518Y-92900731D01*
X174692518Y-92900727D01*
X174693034Y-92893155D01*
X174687580Y-92861900D01*
X174682209Y-92831126D01*
X174681246Y-92824602D01*
X174674591Y-92769611D01*
X174673679Y-92762072D01*
X174670996Y-92754971D01*
X174670144Y-92751503D01*
X174666298Y-92737445D01*
X174665259Y-92734003D01*
X174663953Y-92726521D01*
X174646331Y-92686376D01*
X174638641Y-92668859D01*
X174636148Y-92662752D01*
X174616570Y-92610941D01*
X174613887Y-92603840D01*
X174609585Y-92597581D01*
X174607928Y-92594411D01*
X174600829Y-92581656D01*
X174599015Y-92578589D01*
X174595962Y-92571634D01*
X174557613Y-92521657D01*
X174553760Y-92516354D01*
X174518078Y-92464436D01*
X174473948Y-92425118D01*
X174468672Y-92420137D01*
X173775110Y-91726576D01*
X173769256Y-91720309D01*
X173738063Y-91684551D01*
X173738060Y-91684548D01*
X173733068Y-91678826D01*
X173726852Y-91674457D01*
X173681528Y-91642602D01*
X173676243Y-91638677D01*
X173626691Y-91599823D01*
X173619771Y-91596699D01*
X173616727Y-91594855D01*
X173604051Y-91587625D01*
X173600895Y-91585933D01*
X173594676Y-91581562D01*
X173535941Y-91558662D01*
X173529928Y-91556135D01*
X173472524Y-91530216D01*
X173465059Y-91528832D01*
X173461609Y-91527751D01*
X173447613Y-91523764D01*
X173444156Y-91522876D01*
X173437078Y-91520117D01*
X173429548Y-91519126D01*
X173429545Y-91519125D01*
X173395878Y-91514693D01*
X173374619Y-91511895D01*
X173368120Y-91510866D01*
X173306204Y-91499390D01*
X173298624Y-91499827D01*
X173298623Y-91499827D01*
X173247220Y-91502791D01*
X173239967Y-91503000D01*
X172050500Y-91503000D01*
X171982379Y-91482998D01*
X171935886Y-91429342D01*
X171924500Y-91377000D01*
X171924500Y-91352000D01*
X171919273Y-91278921D01*
X171895586Y-91198250D01*
X171880635Y-91147330D01*
X171880634Y-91147328D01*
X171878096Y-91138684D01*
X171834596Y-91070997D01*
X171803949Y-91023309D01*
X171803947Y-91023306D01*
X171799077Y-91015729D01*
X171767665Y-90988510D01*
X171695431Y-90925918D01*
X171695428Y-90925916D01*
X171688619Y-90920016D01*
X171660887Y-90907351D01*
X171563864Y-90863042D01*
X171563863Y-90863042D01*
X171555670Y-90859300D01*
X171546755Y-90858018D01*
X171546754Y-90858018D01*
X171415448Y-90839139D01*
X171415441Y-90839138D01*
X171411000Y-90838500D01*
X169711000Y-90838500D01*
X169637921Y-90843727D01*
X169584884Y-90859300D01*
X169506330Y-90882365D01*
X169506328Y-90882366D01*
X169497684Y-90884904D01*
X169488625Y-90890726D01*
X169382309Y-90959051D01*
X169382306Y-90959053D01*
X169374729Y-90963923D01*
X169368828Y-90970733D01*
X169284918Y-91067569D01*
X169284916Y-91067572D01*
X169279016Y-91074381D01*
X169275272Y-91082579D01*
X169265525Y-91103923D01*
X169218300Y-91207330D01*
X169217018Y-91216245D01*
X169217018Y-91216246D01*
X169198139Y-91347552D01*
X169198138Y-91347559D01*
X169197500Y-91352000D01*
X169197500Y-93052000D01*
X169202727Y-93125079D01*
X169204631Y-93131562D01*
X169239099Y-93248950D01*
X169243904Y-93265316D01*
X169248775Y-93272895D01*
X169318051Y-93380691D01*
X169318053Y-93380694D01*
X169322923Y-93388271D01*
X169329733Y-93394172D01*
X169426569Y-93478082D01*
X169426572Y-93478084D01*
X169433381Y-93483984D01*
X169566330Y-93544700D01*
X169572639Y-93545607D01*
X169631244Y-93583269D01*
X169660738Y-93647849D01*
X169650636Y-93718123D01*
X169618601Y-93760949D01*
X169583492Y-93791415D01*
X169580109Y-93795541D01*
X169580105Y-93795545D01*
X169507768Y-93883767D01*
X169437304Y-93969705D01*
X169434665Y-93974341D01*
X169434663Y-93974344D01*
X169363513Y-94099337D01*
X169323245Y-94170077D01*
X169244578Y-94386802D01*
X169243629Y-94392051D01*
X169243628Y-94392054D01*
X169204501Y-94608429D01*
X169203551Y-94613683D01*
X169203500Y-94619023D01*
X169202097Y-94765210D01*
X169201338Y-94844233D01*
X169238002Y-95071861D01*
X169312494Y-95290056D01*
X169422685Y-95492580D01*
X169565424Y-95673644D01*
X169569389Y-95677220D01*
X169732666Y-95824495D01*
X169732670Y-95824498D01*
X169736629Y-95828069D01*
X169741134Y-95830922D01*
X169741140Y-95830927D01*
X169803422Y-95870376D01*
X169850267Y-95923724D01*
X169862001Y-95976820D01*
X169862000Y-96498331D01*
X169862000Y-97017274D01*
X169841998Y-97085395D01*
X169825096Y-97106369D01*
X169487371Y-97444095D01*
X169425058Y-97478120D01*
X169398275Y-97481000D01*
X167104818Y-97481000D01*
X167081856Y-97478890D01*
X167032671Y-97469774D01*
X167025204Y-97468390D01*
X167017624Y-97468827D01*
X167017623Y-97468827D01*
X166966220Y-97471791D01*
X166958967Y-97472000D01*
X137563001Y-97472000D01*
X137494880Y-97451998D01*
X137448387Y-97398342D01*
X137438283Y-97328068D01*
X137467777Y-97263488D01*
X137473906Y-97256905D01*
X138005570Y-96725242D01*
X138644716Y-96086096D01*
X138707028Y-96052070D01*
X138766421Y-96053484D01*
X138859139Y-96078327D01*
X138871972Y-96081765D01*
X139104400Y-96102100D01*
X139336828Y-96081765D01*
X139342142Y-96080341D01*
X139342143Y-96080341D01*
X139556884Y-96022802D01*
X139556886Y-96022801D01*
X139562194Y-96021379D01*
X139567176Y-96019056D01*
X139768663Y-95925101D01*
X139768668Y-95925098D01*
X139773650Y-95922775D01*
X139964771Y-95788950D01*
X140129750Y-95623971D01*
X140134900Y-95616617D01*
X140260424Y-95437350D01*
X140263575Y-95432850D01*
X140265495Y-95428733D01*
X140316665Y-95379943D01*
X140386379Y-95366508D01*
X140452289Y-95392895D01*
X140483262Y-95428641D01*
X140485225Y-95432850D01*
X140488376Y-95437350D01*
X140613901Y-95616617D01*
X140619050Y-95623971D01*
X140784029Y-95788950D01*
X140975150Y-95922775D01*
X140980132Y-95925098D01*
X140980137Y-95925101D01*
X141181624Y-96019056D01*
X141186606Y-96021379D01*
X141191914Y-96022801D01*
X141191916Y-96022802D01*
X141406657Y-96080341D01*
X141406658Y-96080341D01*
X141411972Y-96081765D01*
X141644400Y-96102100D01*
X141876828Y-96081765D01*
X141882147Y-96080340D01*
X141899284Y-96075748D01*
X141982380Y-96053483D01*
X142053354Y-96055173D01*
X142104084Y-96086095D01*
X142406735Y-96388746D01*
X142414637Y-96397430D01*
X142418857Y-96404079D01*
X142424634Y-96409504D01*
X142470123Y-96452221D01*
X142472965Y-96454976D01*
X142489381Y-96471392D01*
X142492519Y-96473826D01*
X142495484Y-96476440D01*
X142495478Y-96476446D01*
X142500362Y-96480617D01*
X142531253Y-96509626D01*
X142548037Y-96518853D01*
X142564559Y-96529706D01*
X142579688Y-96541442D01*
X142601812Y-96551016D01*
X142618570Y-96558268D01*
X142629229Y-96563490D01*
X142659417Y-96580086D01*
X142659422Y-96580088D01*
X142666367Y-96583906D01*
X142674043Y-96585877D01*
X142674046Y-96585878D01*
X142684918Y-96588669D01*
X142703616Y-96595070D01*
X142721192Y-96602676D01*
X142734969Y-96604858D01*
X142763045Y-96609305D01*
X142774658Y-96611710D01*
X142815124Y-96622100D01*
X142833911Y-96622100D01*
X142853621Y-96623651D01*
X142873478Y-96626796D01*
X142881370Y-96626050D01*
X142917243Y-96622659D01*
X142929101Y-96622100D01*
X149655718Y-96622100D01*
X149667428Y-96622652D01*
X149675114Y-96624370D01*
X149683040Y-96624121D01*
X149683041Y-96624121D01*
X149745374Y-96622162D01*
X149749332Y-96622100D01*
X149772580Y-96622100D01*
X149776501Y-96621604D01*
X149780466Y-96621355D01*
X149780466Y-96621362D01*
X149786876Y-96620857D01*
X149812031Y-96620067D01*
X149821299Y-96619776D01*
X149821300Y-96619776D01*
X149829222Y-96619527D01*
X149847601Y-96614187D01*
X149866969Y-96610176D01*
X149878110Y-96608769D01*
X149878112Y-96608768D01*
X149885969Y-96607776D01*
X149893335Y-96604859D01*
X149893341Y-96604858D01*
X149925376Y-96592175D01*
X149936603Y-96588331D01*
X149969673Y-96578723D01*
X149969681Y-96578719D01*
X149977286Y-96576510D01*
X149993765Y-96566764D01*
X150011519Y-96558067D01*
X150021951Y-96553937D01*
X150021955Y-96553935D01*
X150029327Y-96551016D01*
X150063622Y-96526099D01*
X150073513Y-96519602D01*
X150109480Y-96498331D01*
X150122761Y-96485050D01*
X150137796Y-96472209D01*
X150154065Y-96460389D01*
X150182097Y-96426504D01*
X150190086Y-96417725D01*
X155155807Y-91452005D01*
X155218119Y-91417979D01*
X155244902Y-91415100D01*
X161466718Y-91415100D01*
X161478428Y-91415652D01*
X161486114Y-91417370D01*
X161494040Y-91417121D01*
X161494041Y-91417121D01*
X161556374Y-91415162D01*
X161560332Y-91415100D01*
X161583580Y-91415100D01*
X161587501Y-91414604D01*
X161591466Y-91414355D01*
X161591466Y-91414362D01*
X161597876Y-91413857D01*
X161623031Y-91413067D01*
X161632299Y-91412776D01*
X161632300Y-91412776D01*
X161640222Y-91412527D01*
X161658601Y-91407187D01*
X161677969Y-91403176D01*
X161689110Y-91401769D01*
X161689112Y-91401768D01*
X161696969Y-91400776D01*
X161704335Y-91397859D01*
X161704341Y-91397858D01*
X161736376Y-91385175D01*
X161747603Y-91381331D01*
X161780673Y-91371723D01*
X161780681Y-91371719D01*
X161788286Y-91369510D01*
X161800436Y-91362325D01*
X161804766Y-91359764D01*
X161822519Y-91351067D01*
X161832951Y-91346937D01*
X161832955Y-91346935D01*
X161840327Y-91344016D01*
X161874622Y-91319099D01*
X161884513Y-91312602D01*
X161920480Y-91291331D01*
X161933761Y-91278050D01*
X161948796Y-91265209D01*
X161958648Y-91258051D01*
X161965065Y-91253389D01*
X161973981Y-91242612D01*
X161993096Y-91219505D01*
X162001086Y-91210725D01*
X164206746Y-89005065D01*
X164215430Y-88997163D01*
X164222079Y-88992943D01*
X164270222Y-88941676D01*
X164272976Y-88938835D01*
X164289392Y-88922419D01*
X164291826Y-88919281D01*
X164294440Y-88916316D01*
X164294446Y-88916322D01*
X164298618Y-88911437D01*
X164322198Y-88886327D01*
X164327626Y-88880547D01*
X164336853Y-88863763D01*
X164347707Y-88847240D01*
X164359442Y-88832112D01*
X164376268Y-88793230D01*
X164381490Y-88782571D01*
X164398086Y-88752383D01*
X164398088Y-88752378D01*
X164401906Y-88745433D01*
X164404129Y-88736778D01*
X164406669Y-88726882D01*
X164413072Y-88708179D01*
X164414400Y-88705112D01*
X164420676Y-88690608D01*
X164427305Y-88648755D01*
X164429712Y-88637133D01*
X164430356Y-88634626D01*
X164440100Y-88596676D01*
X164440100Y-88577889D01*
X164441651Y-88558178D01*
X164443556Y-88546150D01*
X164444796Y-88538322D01*
X164440659Y-88494556D01*
X164440100Y-88482699D01*
X164440100Y-88415051D01*
X164460102Y-88346930D01*
X164511159Y-88301660D01*
X164521326Y-88296734D01*
X164521328Y-88296733D01*
X164526125Y-88294409D01*
X164530463Y-88291309D01*
X164530468Y-88291306D01*
X164709370Y-88163459D01*
X164713711Y-88160357D01*
X164876030Y-87996617D01*
X164879090Y-87992255D01*
X164879095Y-87992249D01*
X164997634Y-87823271D01*
X165053130Y-87778990D01*
X165123755Y-87771743D01*
X165187088Y-87803829D01*
X165211461Y-87835410D01*
X165231685Y-87872580D01*
X165374424Y-88053644D01*
X165378389Y-88057220D01*
X165541659Y-88204489D01*
X165541665Y-88204494D01*
X165545629Y-88208069D01*
X165740406Y-88331439D01*
X165953184Y-88420228D01*
X165958387Y-88421425D01*
X165958392Y-88421426D01*
X166172678Y-88470701D01*
X166172683Y-88470702D01*
X166177881Y-88471897D01*
X166183209Y-88472200D01*
X166183212Y-88472200D01*
X166333877Y-88480755D01*
X166408071Y-88484968D01*
X166413378Y-88484368D01*
X166413380Y-88484368D01*
X166587354Y-88464700D01*
X166637173Y-88459068D01*
X166642288Y-88457587D01*
X166642292Y-88457586D01*
X166775024Y-88419149D01*
X166858635Y-88394937D01*
X167066125Y-88294409D01*
X167070463Y-88291309D01*
X167070468Y-88291306D01*
X167249370Y-88163459D01*
X167253711Y-88160357D01*
X167416030Y-87996617D01*
X167506330Y-87867895D01*
X167545375Y-87812236D01*
X167545376Y-87812234D01*
X167548439Y-87807868D01*
X167647153Y-87599508D01*
X167709349Y-87377494D01*
X167733249Y-87148176D01*
X167733500Y-87122000D01*
X167714007Y-86892265D01*
X167656084Y-86669098D01*
X167561388Y-86458882D01*
X167550338Y-86442468D01*
X167530686Y-86413278D01*
X167432627Y-86267626D01*
X167273482Y-86100799D01*
X167165296Y-86020306D01*
X167092784Y-85966355D01*
X167092781Y-85966353D01*
X167088504Y-85963171D01*
X167083748Y-85960753D01*
X167080427Y-85958694D01*
X167033071Y-85905799D01*
X167021830Y-85835698D01*
X167050274Y-85770648D01*
X167073564Y-85749093D01*
X167208179Y-85652895D01*
X167253711Y-85620357D01*
X167416030Y-85456617D01*
X167506330Y-85327895D01*
X167545375Y-85272236D01*
X167545376Y-85272234D01*
X167548439Y-85267868D01*
X167647153Y-85059508D01*
X167709349Y-84837494D01*
X167733249Y-84608176D01*
X167733500Y-84582000D01*
X167733250Y-84579052D01*
X167714458Y-84357576D01*
X167714457Y-84357572D01*
X167714007Y-84352265D01*
X167656084Y-84129098D01*
X167638069Y-84089105D01*
X167563578Y-83923743D01*
X167563577Y-83923741D01*
X167561388Y-83918882D01*
X167550338Y-83902468D01*
X167493146Y-83817519D01*
X167479917Y-83797868D01*
X169590616Y-83797868D01*
X169607166Y-84084892D01*
X169607991Y-84089097D01*
X169607992Y-84089105D01*
X169616853Y-84134269D01*
X169662516Y-84367014D01*
X169663903Y-84371065D01*
X169735113Y-84579052D01*
X169755642Y-84639014D01*
X169757568Y-84642843D01*
X169858054Y-84842636D01*
X169884822Y-84895859D01*
X170047664Y-85132796D01*
X170241155Y-85345440D01*
X170461716Y-85529857D01*
X170465357Y-85532141D01*
X170701624Y-85680352D01*
X170701628Y-85680354D01*
X170705264Y-85682635D01*
X170967293Y-85800945D01*
X170971412Y-85802165D01*
X171238841Y-85881382D01*
X171238846Y-85881383D01*
X171242954Y-85882600D01*
X171247188Y-85883248D01*
X171247193Y-85883249D01*
X171500037Y-85921940D01*
X171527147Y-85926088D01*
X171673498Y-85928387D01*
X171810321Y-85930537D01*
X171810327Y-85930537D01*
X171814612Y-85930604D01*
X171818864Y-85930089D01*
X171818872Y-85930089D01*
X172042492Y-85903027D01*
X172100030Y-85896064D01*
X172104179Y-85894976D01*
X172104182Y-85894975D01*
X172373970Y-85824198D01*
X172378121Y-85823109D01*
X172643736Y-85713087D01*
X172692827Y-85684401D01*
X172888255Y-85570202D01*
X172888257Y-85570200D01*
X172891963Y-85568035D01*
X173118208Y-85390637D01*
X173318283Y-85184175D01*
X173320816Y-85180727D01*
X173320820Y-85180722D01*
X173485949Y-84955925D01*
X173488487Y-84952470D01*
X173519224Y-84895859D01*
X173623621Y-84703585D01*
X173623622Y-84703583D01*
X173625671Y-84699809D01*
X173727295Y-84430869D01*
X173791479Y-84150624D01*
X173796970Y-84089105D01*
X173816816Y-83866728D01*
X173816816Y-83866726D01*
X173817036Y-83864262D01*
X173817500Y-83820000D01*
X173815700Y-83793597D01*
X173798238Y-83537442D01*
X173798237Y-83537436D01*
X173797946Y-83533165D01*
X173796738Y-83527329D01*
X173758755Y-83343923D01*
X173739644Y-83251638D01*
X173643674Y-82980628D01*
X173511812Y-82725150D01*
X173346498Y-82489931D01*
X173343573Y-82486783D01*
X173153711Y-82282468D01*
X173153708Y-82282466D01*
X173150790Y-82279325D01*
X173147474Y-82276611D01*
X173147471Y-82276608D01*
X172931629Y-82099942D01*
X172931622Y-82099937D01*
X172928311Y-82097227D01*
X172683176Y-81947009D01*
X172679240Y-81945281D01*
X172423851Y-81833172D01*
X172423847Y-81833171D01*
X172419923Y-81831448D01*
X172143421Y-81752685D01*
X171932794Y-81722708D01*
X171863041Y-81712781D01*
X171863039Y-81712781D01*
X171858789Y-81712176D01*
X171707976Y-81711387D01*
X171575579Y-81710693D01*
X171575573Y-81710693D01*
X171571292Y-81710671D01*
X171567048Y-81711230D01*
X171567044Y-81711230D01*
X171441864Y-81727710D01*
X171286251Y-81748197D01*
X171282111Y-81749330D01*
X171282109Y-81749330D01*
X171265547Y-81753861D01*
X171008940Y-81824061D01*
X170987580Y-81833172D01*
X170748433Y-81935176D01*
X170748426Y-81935180D01*
X170744491Y-81936858D01*
X170740810Y-81939061D01*
X170501479Y-82082297D01*
X170501475Y-82082300D01*
X170497797Y-82084501D01*
X170494454Y-82087179D01*
X170494450Y-82087182D01*
X170384922Y-82174931D01*
X170273423Y-82264259D01*
X170270479Y-82267361D01*
X170270475Y-82267365D01*
X170256143Y-82282468D01*
X170075520Y-82472804D01*
X169907752Y-82706279D01*
X169773222Y-82960362D01*
X169674419Y-83230352D01*
X169613173Y-83511254D01*
X169590616Y-83797868D01*
X167479917Y-83797868D01*
X167432627Y-83727626D01*
X167273482Y-83560799D01*
X167088504Y-83423171D01*
X167083753Y-83420755D01*
X167083749Y-83420753D01*
X166887740Y-83321097D01*
X166887739Y-83321097D01*
X166882982Y-83318678D01*
X166742033Y-83274912D01*
X166667895Y-83251891D01*
X166667889Y-83251890D01*
X166662792Y-83250307D01*
X166557798Y-83236391D01*
X166439515Y-83220714D01*
X166439510Y-83220714D01*
X166434230Y-83220014D01*
X166428900Y-83220214D01*
X166428899Y-83220214D01*
X166335320Y-83223727D01*
X166203831Y-83228663D01*
X166175803Y-83234544D01*
X165983411Y-83274912D01*
X165983408Y-83274913D01*
X165978184Y-83276009D01*
X165763740Y-83360697D01*
X165566631Y-83480306D01*
X165562601Y-83483803D01*
X165436406Y-83593309D01*
X165392492Y-83631415D01*
X165389109Y-83635541D01*
X165389105Y-83635545D01*
X165354545Y-83677695D01*
X165246304Y-83809705D01*
X165243667Y-83814338D01*
X165243666Y-83814339D01*
X165210116Y-83873278D01*
X165159033Y-83922584D01*
X165089402Y-83936445D01*
X165023332Y-83910461D01*
X164996094Y-83881312D01*
X164990686Y-83873278D01*
X164898599Y-83736496D01*
X164895607Y-83732052D01*
X164895605Y-83732050D01*
X164892627Y-83727626D01*
X164733482Y-83560799D01*
X164548504Y-83423171D01*
X164543753Y-83420755D01*
X164543749Y-83420753D01*
X164347740Y-83321097D01*
X164347739Y-83321097D01*
X164342982Y-83318678D01*
X164202033Y-83274912D01*
X164127895Y-83251891D01*
X164127889Y-83251890D01*
X164122792Y-83250307D01*
X164017798Y-83236391D01*
X163899515Y-83220714D01*
X163899510Y-83220714D01*
X163894230Y-83220014D01*
X163888900Y-83220214D01*
X163888899Y-83220214D01*
X163795320Y-83223727D01*
X163663831Y-83228663D01*
X163635803Y-83234544D01*
X163443411Y-83274912D01*
X163443408Y-83274913D01*
X163438184Y-83276009D01*
X163223740Y-83360697D01*
X163026631Y-83480306D01*
X163022601Y-83483803D01*
X162896406Y-83593309D01*
X162852492Y-83631415D01*
X162849109Y-83635541D01*
X162849105Y-83635545D01*
X162814545Y-83677695D01*
X162706304Y-83809705D01*
X162703667Y-83814338D01*
X162703666Y-83814339D01*
X162670116Y-83873278D01*
X162619033Y-83922584D01*
X162549402Y-83936445D01*
X162483332Y-83910461D01*
X162456094Y-83881312D01*
X162450686Y-83873278D01*
X162358599Y-83736496D01*
X162355607Y-83732052D01*
X162355605Y-83732050D01*
X162352627Y-83727626D01*
X162193482Y-83560799D01*
X162008504Y-83423171D01*
X162003753Y-83420755D01*
X162003749Y-83420753D01*
X161807740Y-83321097D01*
X161807739Y-83321097D01*
X161802982Y-83318678D01*
X161662033Y-83274912D01*
X161587895Y-83251891D01*
X161587889Y-83251890D01*
X161582792Y-83250307D01*
X161477798Y-83236391D01*
X161359515Y-83220714D01*
X161359510Y-83220714D01*
X161354230Y-83220014D01*
X161348900Y-83220214D01*
X161348899Y-83220214D01*
X161255320Y-83223727D01*
X161123831Y-83228663D01*
X161095803Y-83234544D01*
X160903411Y-83274912D01*
X160903408Y-83274913D01*
X160898184Y-83276009D01*
X160683740Y-83360697D01*
X160486631Y-83480306D01*
X160482601Y-83483803D01*
X160356406Y-83593309D01*
X160312492Y-83631415D01*
X160309109Y-83635541D01*
X160309105Y-83635545D01*
X160274545Y-83677695D01*
X160166304Y-83809705D01*
X160163667Y-83814338D01*
X160163666Y-83814339D01*
X160130116Y-83873278D01*
X160079033Y-83922584D01*
X160009402Y-83936445D01*
X159943332Y-83910461D01*
X159916094Y-83881312D01*
X159910686Y-83873278D01*
X159818599Y-83736496D01*
X159815607Y-83732052D01*
X159815605Y-83732050D01*
X159812627Y-83727626D01*
X159653482Y-83560799D01*
X159468504Y-83423171D01*
X159463753Y-83420755D01*
X159463749Y-83420753D01*
X159267740Y-83321097D01*
X159267739Y-83321097D01*
X159262982Y-83318678D01*
X159122033Y-83274912D01*
X159047895Y-83251891D01*
X159047889Y-83251890D01*
X159042792Y-83250307D01*
X158937798Y-83236391D01*
X158819515Y-83220714D01*
X158819510Y-83220714D01*
X158814230Y-83220014D01*
X158808900Y-83220214D01*
X158808899Y-83220214D01*
X158715320Y-83223727D01*
X158583831Y-83228663D01*
X158555803Y-83234544D01*
X158363411Y-83274912D01*
X158363408Y-83274913D01*
X158358184Y-83276009D01*
X158143740Y-83360697D01*
X157946631Y-83480306D01*
X157942601Y-83483803D01*
X157816406Y-83593309D01*
X157772492Y-83631415D01*
X157769109Y-83635541D01*
X157769105Y-83635545D01*
X157734545Y-83677695D01*
X157626304Y-83809705D01*
X157623667Y-83814338D01*
X157623666Y-83814339D01*
X157590116Y-83873278D01*
X157539033Y-83922584D01*
X157469402Y-83936445D01*
X157403332Y-83910461D01*
X157376094Y-83881312D01*
X157370686Y-83873278D01*
X157278599Y-83736496D01*
X157275607Y-83732052D01*
X157275605Y-83732050D01*
X157272627Y-83727626D01*
X157113482Y-83560799D01*
X156928504Y-83423171D01*
X156923753Y-83420755D01*
X156923749Y-83420753D01*
X156727740Y-83321097D01*
X156727739Y-83321097D01*
X156722982Y-83318678D01*
X156582033Y-83274912D01*
X156507895Y-83251891D01*
X156507889Y-83251890D01*
X156502792Y-83250307D01*
X156397798Y-83236391D01*
X156279515Y-83220714D01*
X156279510Y-83220714D01*
X156274230Y-83220014D01*
X156268900Y-83220214D01*
X156268899Y-83220214D01*
X156175320Y-83223727D01*
X156043831Y-83228663D01*
X156015803Y-83234544D01*
X155823411Y-83274912D01*
X155823408Y-83274913D01*
X155818184Y-83276009D01*
X155603740Y-83360697D01*
X155406631Y-83480306D01*
X155402601Y-83483803D01*
X155276406Y-83593309D01*
X155232492Y-83631415D01*
X155229109Y-83635541D01*
X155229105Y-83635545D01*
X155194545Y-83677695D01*
X155086304Y-83809705D01*
X155083667Y-83814338D01*
X155083666Y-83814339D01*
X155050116Y-83873278D01*
X154999033Y-83922584D01*
X154929402Y-83936445D01*
X154863332Y-83910461D01*
X154836094Y-83881312D01*
X154830686Y-83873278D01*
X154738599Y-83736496D01*
X154735607Y-83732052D01*
X154735605Y-83732050D01*
X154732627Y-83727626D01*
X154573482Y-83560799D01*
X154388504Y-83423171D01*
X154383753Y-83420755D01*
X154383749Y-83420753D01*
X154187740Y-83321097D01*
X154187739Y-83321097D01*
X154182982Y-83318678D01*
X154042033Y-83274912D01*
X153967895Y-83251891D01*
X153967889Y-83251890D01*
X153962792Y-83250307D01*
X153857798Y-83236391D01*
X153739515Y-83220714D01*
X153739510Y-83220714D01*
X153734230Y-83220014D01*
X153728900Y-83220214D01*
X153728899Y-83220214D01*
X153635320Y-83223727D01*
X153503831Y-83228663D01*
X153475803Y-83234544D01*
X153283411Y-83274912D01*
X153283408Y-83274913D01*
X153278184Y-83276009D01*
X153063740Y-83360697D01*
X152866631Y-83480306D01*
X152862601Y-83483803D01*
X152736406Y-83593309D01*
X152692492Y-83631415D01*
X152689109Y-83635541D01*
X152689105Y-83635545D01*
X152654545Y-83677695D01*
X152546304Y-83809705D01*
X152543667Y-83814338D01*
X152543666Y-83814339D01*
X152510116Y-83873278D01*
X152459033Y-83922584D01*
X152389402Y-83936445D01*
X152323332Y-83910461D01*
X152296094Y-83881312D01*
X152290686Y-83873278D01*
X152198599Y-83736496D01*
X152195607Y-83732052D01*
X152195605Y-83732050D01*
X152192627Y-83727626D01*
X152033482Y-83560799D01*
X151848504Y-83423171D01*
X151843753Y-83420755D01*
X151843749Y-83420753D01*
X151647740Y-83321097D01*
X151647739Y-83321097D01*
X151642982Y-83318678D01*
X151502033Y-83274912D01*
X151427895Y-83251891D01*
X151427889Y-83251890D01*
X151422792Y-83250307D01*
X151317798Y-83236391D01*
X151199515Y-83220714D01*
X151199510Y-83220714D01*
X151194230Y-83220014D01*
X151188900Y-83220214D01*
X151188899Y-83220214D01*
X151095320Y-83223727D01*
X150963831Y-83228663D01*
X150935803Y-83234544D01*
X150743411Y-83274912D01*
X150743408Y-83274913D01*
X150738184Y-83276009D01*
X150523740Y-83360697D01*
X150326631Y-83480306D01*
X150322601Y-83483803D01*
X150196406Y-83593309D01*
X150152492Y-83631415D01*
X150147339Y-83637700D01*
X150146364Y-83638365D01*
X150145390Y-83639366D01*
X150145186Y-83639168D01*
X150088681Y-83677695D01*
X150017710Y-83679628D01*
X149956961Y-83642885D01*
X149929008Y-83593309D01*
X149911348Y-83533165D01*
X149907096Y-83518684D01*
X149845713Y-83423171D01*
X149832949Y-83403309D01*
X149832947Y-83403306D01*
X149828077Y-83395729D01*
X149785384Y-83358735D01*
X149724431Y-83305918D01*
X149724428Y-83305916D01*
X149717619Y-83300016D01*
X149635175Y-83262365D01*
X149592864Y-83243042D01*
X149592863Y-83243042D01*
X149584670Y-83239300D01*
X149575755Y-83238018D01*
X149575754Y-83238018D01*
X149444448Y-83219139D01*
X149444441Y-83219138D01*
X149440000Y-83218500D01*
X147740000Y-83218500D01*
X147666921Y-83223727D01*
X147613884Y-83239300D01*
X147535330Y-83262365D01*
X147535328Y-83262366D01*
X147526684Y-83264904D01*
X147506350Y-83277972D01*
X147411309Y-83339051D01*
X147411306Y-83339053D01*
X147403729Y-83343923D01*
X147397828Y-83350733D01*
X147313918Y-83447569D01*
X147313916Y-83447572D01*
X147308016Y-83454381D01*
X147304272Y-83462579D01*
X147283955Y-83507068D01*
X147247300Y-83587330D01*
X147246018Y-83596245D01*
X147246018Y-83596246D01*
X147227139Y-83727552D01*
X147227138Y-83727559D01*
X147226500Y-83732000D01*
X147226500Y-85432000D01*
X147231727Y-85505079D01*
X147272904Y-85645316D01*
X147277775Y-85652895D01*
X147347051Y-85760691D01*
X147347053Y-85760694D01*
X147351923Y-85768271D01*
X147357598Y-85773188D01*
X147386776Y-85837077D01*
X147376674Y-85907351D01*
X147357283Y-85937524D01*
X147313918Y-85987569D01*
X147313916Y-85987572D01*
X147308016Y-85994381D01*
X147247300Y-86127330D01*
X147246018Y-86136245D01*
X147246018Y-86136246D01*
X147227139Y-86267552D01*
X147227138Y-86267559D01*
X147226500Y-86272000D01*
X147226500Y-87972000D01*
X147231727Y-88045079D01*
X147272904Y-88185316D01*
X147277775Y-88192895D01*
X147347051Y-88300691D01*
X147347053Y-88300694D01*
X147351923Y-88308271D01*
X147358733Y-88314172D01*
X147455569Y-88398082D01*
X147455572Y-88398084D01*
X147462381Y-88403984D01*
X147470579Y-88407728D01*
X147582998Y-88459068D01*
X147595330Y-88464700D01*
X147604245Y-88465982D01*
X147604246Y-88465982D01*
X147735552Y-88484861D01*
X147735559Y-88484862D01*
X147740000Y-88485500D01*
X147853900Y-88485500D01*
X147922021Y-88505502D01*
X147968514Y-88559158D01*
X147979900Y-88611500D01*
X147979901Y-89979805D01*
X147979901Y-91292298D01*
X147959899Y-91360419D01*
X147906243Y-91406912D01*
X147835969Y-91417016D01*
X147771389Y-91387522D01*
X147756960Y-91371520D01*
X147756444Y-91371953D01*
X147752909Y-91367740D01*
X147749750Y-91363229D01*
X147584771Y-91198250D01*
X147568538Y-91186883D01*
X147467403Y-91116068D01*
X147393650Y-91064425D01*
X147388668Y-91062102D01*
X147388663Y-91062099D01*
X147187176Y-90968144D01*
X147187174Y-90968143D01*
X147182194Y-90965821D01*
X147176886Y-90964399D01*
X147176884Y-90964398D01*
X146962143Y-90906859D01*
X146962142Y-90906859D01*
X146956828Y-90905435D01*
X146724400Y-90885100D01*
X146491972Y-90905435D01*
X146486658Y-90906859D01*
X146486657Y-90906859D01*
X146271916Y-90964398D01*
X146271914Y-90964399D01*
X146266606Y-90965821D01*
X146261626Y-90968143D01*
X146261624Y-90968144D01*
X146060137Y-91062099D01*
X146060132Y-91062102D01*
X146055150Y-91064425D01*
X145981397Y-91116068D01*
X145880263Y-91186883D01*
X145864029Y-91198250D01*
X145699050Y-91363229D01*
X145695893Y-91367737D01*
X145695891Y-91367740D01*
X145663469Y-91414044D01*
X145565225Y-91554350D01*
X145563305Y-91558467D01*
X145512135Y-91607257D01*
X145442421Y-91620692D01*
X145376511Y-91594305D01*
X145345538Y-91558559D01*
X145343575Y-91554350D01*
X145245331Y-91414044D01*
X145212909Y-91367740D01*
X145212907Y-91367737D01*
X145209750Y-91363229D01*
X145044771Y-91198250D01*
X145028538Y-91186883D01*
X144927403Y-91116068D01*
X144853650Y-91064425D01*
X144848668Y-91062102D01*
X144848663Y-91062099D01*
X144647176Y-90968144D01*
X144647174Y-90968143D01*
X144642194Y-90965821D01*
X144636886Y-90964399D01*
X144636884Y-90964398D01*
X144422143Y-90906859D01*
X144422142Y-90906859D01*
X144416828Y-90905435D01*
X144184400Y-90885100D01*
X143951972Y-90905435D01*
X143946658Y-90906859D01*
X143946657Y-90906859D01*
X143731916Y-90964398D01*
X143731914Y-90964399D01*
X143726606Y-90965821D01*
X143721626Y-90968143D01*
X143721624Y-90968144D01*
X143520137Y-91062099D01*
X143520132Y-91062102D01*
X143515150Y-91064425D01*
X143441397Y-91116068D01*
X143340263Y-91186883D01*
X143324029Y-91198250D01*
X143159050Y-91363229D01*
X143155893Y-91367737D01*
X143155891Y-91367740D01*
X143123469Y-91414044D01*
X143025225Y-91554350D01*
X143023305Y-91558467D01*
X142972135Y-91607257D01*
X142902421Y-91620692D01*
X142836511Y-91594305D01*
X142805538Y-91558559D01*
X142803575Y-91554350D01*
X142705331Y-91414044D01*
X142672909Y-91367740D01*
X142672907Y-91367737D01*
X142669750Y-91363229D01*
X142504771Y-91198250D01*
X142488538Y-91186883D01*
X142387403Y-91116068D01*
X142313650Y-91064425D01*
X142308668Y-91062102D01*
X142308663Y-91062099D01*
X142107176Y-90968144D01*
X142107174Y-90968143D01*
X142102194Y-90965821D01*
X142096886Y-90964399D01*
X142096884Y-90964398D01*
X141882143Y-90906859D01*
X141882142Y-90906859D01*
X141876828Y-90905435D01*
X141644400Y-90885100D01*
X141411972Y-90905435D01*
X141406658Y-90906859D01*
X141406657Y-90906859D01*
X141191916Y-90964398D01*
X141191914Y-90964399D01*
X141186606Y-90965821D01*
X141181626Y-90968143D01*
X141181624Y-90968144D01*
X140980137Y-91062099D01*
X140980132Y-91062102D01*
X140975150Y-91064425D01*
X140901397Y-91116068D01*
X140800263Y-91186883D01*
X140784029Y-91198250D01*
X140619050Y-91363229D01*
X140615893Y-91367737D01*
X140615891Y-91367740D01*
X140583469Y-91414044D01*
X140485225Y-91554350D01*
X140483305Y-91558467D01*
X140432135Y-91607257D01*
X140362421Y-91620692D01*
X140296511Y-91594305D01*
X140265538Y-91558559D01*
X140263575Y-91554350D01*
X140165331Y-91414044D01*
X140132909Y-91367740D01*
X140132907Y-91367737D01*
X140129750Y-91363229D01*
X139964771Y-91198250D01*
X139948538Y-91186883D01*
X139847403Y-91116068D01*
X139773650Y-91064425D01*
X139768668Y-91062102D01*
X139768663Y-91062099D01*
X139567176Y-90968144D01*
X139567174Y-90968143D01*
X139562194Y-90965821D01*
X139556886Y-90964399D01*
X139556884Y-90964398D01*
X139342143Y-90906859D01*
X139342142Y-90906859D01*
X139336828Y-90905435D01*
X139104400Y-90885100D01*
X138871972Y-90905435D01*
X138866658Y-90906859D01*
X138866657Y-90906859D01*
X138651916Y-90964398D01*
X138651914Y-90964399D01*
X138646606Y-90965821D01*
X138641626Y-90968143D01*
X138641624Y-90968144D01*
X138440137Y-91062099D01*
X138440132Y-91062102D01*
X138435150Y-91064425D01*
X138361397Y-91116068D01*
X138260263Y-91186883D01*
X138244029Y-91198250D01*
X138079050Y-91363229D01*
X138075893Y-91367737D01*
X138075891Y-91367740D01*
X138043469Y-91414044D01*
X137945225Y-91554350D01*
X137943305Y-91558467D01*
X137892135Y-91607257D01*
X137822421Y-91620692D01*
X137756511Y-91594305D01*
X137725538Y-91558559D01*
X137723575Y-91554350D01*
X137625331Y-91414044D01*
X137592909Y-91367740D01*
X137592907Y-91367737D01*
X137589750Y-91363229D01*
X137475716Y-91249195D01*
X137441690Y-91186883D01*
X137446755Y-91116068D01*
X137489302Y-91059232D01*
X137555822Y-91034421D01*
X137564811Y-91034100D01*
X137590718Y-91034100D01*
X137602428Y-91034652D01*
X137610114Y-91036370D01*
X137618040Y-91036121D01*
X137618041Y-91036121D01*
X137680374Y-91034162D01*
X137684332Y-91034100D01*
X137707580Y-91034100D01*
X137711501Y-91033604D01*
X137715466Y-91033355D01*
X137715466Y-91033362D01*
X137721876Y-91032857D01*
X137747031Y-91032067D01*
X137756299Y-91031776D01*
X137756300Y-91031776D01*
X137764222Y-91031527D01*
X137782601Y-91026187D01*
X137801969Y-91022176D01*
X137813110Y-91020769D01*
X137813112Y-91020768D01*
X137820969Y-91019776D01*
X137828335Y-91016859D01*
X137828341Y-91016858D01*
X137860376Y-91004175D01*
X137871603Y-91000331D01*
X137904673Y-90990723D01*
X137904681Y-90990719D01*
X137912286Y-90988510D01*
X137928765Y-90978764D01*
X137946519Y-90970067D01*
X137956951Y-90965937D01*
X137956955Y-90965935D01*
X137964327Y-90963016D01*
X137998622Y-90938099D01*
X138008513Y-90931602D01*
X138044480Y-90910331D01*
X138057761Y-90897050D01*
X138072796Y-90884209D01*
X138082648Y-90877051D01*
X138089065Y-90872389D01*
X138096276Y-90863673D01*
X138117096Y-90838505D01*
X138125086Y-90829725D01*
X140488726Y-88466086D01*
X140551038Y-88432060D01*
X140606056Y-88432386D01*
X140654089Y-88443431D01*
X140772678Y-88470701D01*
X140772683Y-88470702D01*
X140777881Y-88471897D01*
X140783209Y-88472200D01*
X140783212Y-88472200D01*
X140933877Y-88480755D01*
X141008071Y-88484968D01*
X141013378Y-88484368D01*
X141013380Y-88484368D01*
X141187354Y-88464700D01*
X141237173Y-88459068D01*
X141242288Y-88457587D01*
X141242292Y-88457586D01*
X141375024Y-88419149D01*
X141458635Y-88394937D01*
X141666125Y-88294409D01*
X141670463Y-88291309D01*
X141670468Y-88291306D01*
X141849370Y-88163459D01*
X141853711Y-88160357D01*
X142016030Y-87996617D01*
X142019090Y-87992255D01*
X142019095Y-87992249D01*
X142137634Y-87823271D01*
X142193130Y-87778990D01*
X142263755Y-87771743D01*
X142327088Y-87803829D01*
X142351461Y-87835410D01*
X142371685Y-87872580D01*
X142514424Y-88053644D01*
X142518389Y-88057220D01*
X142681659Y-88204489D01*
X142681665Y-88204494D01*
X142685629Y-88208069D01*
X142880406Y-88331439D01*
X143093184Y-88420228D01*
X143098387Y-88421425D01*
X143098392Y-88421426D01*
X143312678Y-88470701D01*
X143312683Y-88470702D01*
X143317881Y-88471897D01*
X143323209Y-88472200D01*
X143323212Y-88472200D01*
X143473877Y-88480755D01*
X143548071Y-88484968D01*
X143553378Y-88484368D01*
X143553380Y-88484368D01*
X143727354Y-88464700D01*
X143777173Y-88459068D01*
X143782288Y-88457587D01*
X143782292Y-88457586D01*
X143915024Y-88419149D01*
X143998635Y-88394937D01*
X144206125Y-88294409D01*
X144210463Y-88291309D01*
X144210468Y-88291306D01*
X144389370Y-88163459D01*
X144393711Y-88160357D01*
X144556030Y-87996617D01*
X144646330Y-87867895D01*
X144685375Y-87812236D01*
X144685376Y-87812234D01*
X144688439Y-87807868D01*
X144787153Y-87599508D01*
X144849349Y-87377494D01*
X144873249Y-87148176D01*
X144873500Y-87122000D01*
X144854007Y-86892265D01*
X144796084Y-86669098D01*
X144701388Y-86458882D01*
X144690338Y-86442468D01*
X144670686Y-86413278D01*
X144572627Y-86267626D01*
X144413482Y-86100799D01*
X144305296Y-86020306D01*
X144232784Y-85966355D01*
X144232781Y-85966353D01*
X144228504Y-85963171D01*
X144223748Y-85960753D01*
X144220427Y-85958694D01*
X144173071Y-85905799D01*
X144161830Y-85835698D01*
X144190274Y-85770648D01*
X144213564Y-85749093D01*
X144348179Y-85652895D01*
X144393711Y-85620357D01*
X144556030Y-85456617D01*
X144646330Y-85327895D01*
X144685375Y-85272236D01*
X144685376Y-85272234D01*
X144688439Y-85267868D01*
X144787153Y-85059508D01*
X144849349Y-84837494D01*
X144873249Y-84608176D01*
X144873500Y-84582000D01*
X144873250Y-84579052D01*
X144854458Y-84357576D01*
X144854457Y-84357572D01*
X144854007Y-84352265D01*
X144796084Y-84129098D01*
X144778069Y-84089105D01*
X144703578Y-83923743D01*
X144703577Y-83923741D01*
X144701388Y-83918882D01*
X144690338Y-83902468D01*
X144633146Y-83817519D01*
X144572627Y-83727626D01*
X144413482Y-83560799D01*
X144228504Y-83423171D01*
X144223753Y-83420755D01*
X144223749Y-83420753D01*
X144027740Y-83321097D01*
X144027739Y-83321097D01*
X144022982Y-83318678D01*
X143882033Y-83274912D01*
X143807895Y-83251891D01*
X143807889Y-83251890D01*
X143802792Y-83250307D01*
X143697798Y-83236391D01*
X143579515Y-83220714D01*
X143579510Y-83220714D01*
X143574230Y-83220014D01*
X143568900Y-83220214D01*
X143568899Y-83220214D01*
X143475320Y-83223727D01*
X143343831Y-83228663D01*
X143315803Y-83234544D01*
X143123411Y-83274912D01*
X143123408Y-83274913D01*
X143118184Y-83276009D01*
X142903740Y-83360697D01*
X142706631Y-83480306D01*
X142702601Y-83483803D01*
X142576406Y-83593309D01*
X142532492Y-83631415D01*
X142529109Y-83635541D01*
X142529105Y-83635545D01*
X142494545Y-83677695D01*
X142386304Y-83809705D01*
X142383667Y-83814338D01*
X142383666Y-83814339D01*
X142350116Y-83873278D01*
X142299033Y-83922584D01*
X142229402Y-83936445D01*
X142163332Y-83910461D01*
X142136094Y-83881312D01*
X142130686Y-83873278D01*
X142038599Y-83736496D01*
X142035607Y-83732052D01*
X142035605Y-83732050D01*
X142032627Y-83727626D01*
X141873482Y-83560799D01*
X141688504Y-83423171D01*
X141683753Y-83420755D01*
X141683749Y-83420753D01*
X141487740Y-83321097D01*
X141487739Y-83321097D01*
X141482982Y-83318678D01*
X141342033Y-83274912D01*
X141267895Y-83251891D01*
X141267889Y-83251890D01*
X141262792Y-83250307D01*
X141157798Y-83236391D01*
X141039515Y-83220714D01*
X141039510Y-83220714D01*
X141034230Y-83220014D01*
X141028900Y-83220214D01*
X141028899Y-83220214D01*
X140935320Y-83223727D01*
X140803831Y-83228663D01*
X140775803Y-83234544D01*
X140583411Y-83274912D01*
X140583408Y-83274913D01*
X140578184Y-83276009D01*
X140363740Y-83360697D01*
X140166631Y-83480306D01*
X140162601Y-83483803D01*
X140036406Y-83593309D01*
X139992492Y-83631415D01*
X139989109Y-83635541D01*
X139989105Y-83635545D01*
X139954545Y-83677695D01*
X139846304Y-83809705D01*
X139843667Y-83814338D01*
X139843666Y-83814339D01*
X139810116Y-83873278D01*
X139759033Y-83922584D01*
X139689402Y-83936445D01*
X139623332Y-83910461D01*
X139596094Y-83881312D01*
X139590686Y-83873278D01*
X139498599Y-83736496D01*
X139495607Y-83732052D01*
X139495605Y-83732050D01*
X139492627Y-83727626D01*
X139333482Y-83560799D01*
X139148504Y-83423171D01*
X139143753Y-83420755D01*
X139143749Y-83420753D01*
X138947740Y-83321097D01*
X138947739Y-83321097D01*
X138942982Y-83318678D01*
X138802033Y-83274912D01*
X138727895Y-83251891D01*
X138727889Y-83251890D01*
X138722792Y-83250307D01*
X138617798Y-83236391D01*
X138499515Y-83220714D01*
X138499510Y-83220714D01*
X138494230Y-83220014D01*
X138488900Y-83220214D01*
X138488899Y-83220214D01*
X138395320Y-83223727D01*
X138263831Y-83228663D01*
X138235803Y-83234544D01*
X138043411Y-83274912D01*
X138043408Y-83274913D01*
X138038184Y-83276009D01*
X137823740Y-83360697D01*
X137626631Y-83480306D01*
X137622601Y-83483803D01*
X137496406Y-83593309D01*
X137452492Y-83631415D01*
X137449109Y-83635541D01*
X137449105Y-83635545D01*
X137414545Y-83677695D01*
X137306304Y-83809705D01*
X137303667Y-83814338D01*
X137303666Y-83814339D01*
X137270116Y-83873278D01*
X137219033Y-83922584D01*
X137149402Y-83936445D01*
X137083332Y-83910461D01*
X137056094Y-83881312D01*
X137050686Y-83873278D01*
X136958599Y-83736496D01*
X136955607Y-83732052D01*
X136955605Y-83732050D01*
X136952627Y-83727626D01*
X136793482Y-83560799D01*
X136608504Y-83423171D01*
X136603753Y-83420755D01*
X136603749Y-83420753D01*
X136407740Y-83321097D01*
X136407739Y-83321097D01*
X136402982Y-83318678D01*
X136262033Y-83274912D01*
X136187895Y-83251891D01*
X136187889Y-83251890D01*
X136182792Y-83250307D01*
X136077798Y-83236391D01*
X135959515Y-83220714D01*
X135959510Y-83220714D01*
X135954230Y-83220014D01*
X135948900Y-83220214D01*
X135948899Y-83220214D01*
X135855320Y-83223727D01*
X135723831Y-83228663D01*
X135695803Y-83234544D01*
X135503411Y-83274912D01*
X135503408Y-83274913D01*
X135498184Y-83276009D01*
X135283740Y-83360697D01*
X135086631Y-83480306D01*
X135082601Y-83483803D01*
X134956406Y-83593309D01*
X134912492Y-83631415D01*
X134909109Y-83635541D01*
X134909105Y-83635545D01*
X134874545Y-83677695D01*
X134766304Y-83809705D01*
X134763667Y-83814338D01*
X134763666Y-83814339D01*
X134730116Y-83873278D01*
X134679033Y-83922584D01*
X134609402Y-83936445D01*
X134543332Y-83910461D01*
X134516094Y-83881312D01*
X134510686Y-83873278D01*
X134418599Y-83736496D01*
X134415607Y-83732052D01*
X134415605Y-83732050D01*
X134412627Y-83727626D01*
X134253482Y-83560799D01*
X134068504Y-83423171D01*
X134063753Y-83420755D01*
X134063749Y-83420753D01*
X133867740Y-83321097D01*
X133867739Y-83321097D01*
X133862982Y-83318678D01*
X133722033Y-83274912D01*
X133647895Y-83251891D01*
X133647889Y-83251890D01*
X133642792Y-83250307D01*
X133537798Y-83236391D01*
X133419515Y-83220714D01*
X133419510Y-83220714D01*
X133414230Y-83220014D01*
X133408900Y-83220214D01*
X133408899Y-83220214D01*
X133315320Y-83223727D01*
X133183831Y-83228663D01*
X133155803Y-83234544D01*
X132963411Y-83274912D01*
X132963408Y-83274913D01*
X132958184Y-83276009D01*
X132743740Y-83360697D01*
X132546631Y-83480306D01*
X132542601Y-83483803D01*
X132416406Y-83593309D01*
X132372492Y-83631415D01*
X132369109Y-83635541D01*
X132369105Y-83635545D01*
X132334545Y-83677695D01*
X132226304Y-83809705D01*
X132223667Y-83814338D01*
X132223666Y-83814339D01*
X132190116Y-83873278D01*
X132139033Y-83922584D01*
X132069402Y-83936445D01*
X132003332Y-83910461D01*
X131976094Y-83881312D01*
X131970686Y-83873278D01*
X131878599Y-83736496D01*
X131875607Y-83732052D01*
X131875605Y-83732050D01*
X131872627Y-83727626D01*
X131713482Y-83560799D01*
X131528504Y-83423171D01*
X131523753Y-83420755D01*
X131523749Y-83420753D01*
X131327740Y-83321097D01*
X131327739Y-83321097D01*
X131322982Y-83318678D01*
X131182033Y-83274912D01*
X131107895Y-83251891D01*
X131107889Y-83251890D01*
X131102792Y-83250307D01*
X130997798Y-83236391D01*
X130879515Y-83220714D01*
X130879510Y-83220714D01*
X130874230Y-83220014D01*
X130868900Y-83220214D01*
X130868899Y-83220214D01*
X130775320Y-83223727D01*
X130643831Y-83228663D01*
X130615803Y-83234544D01*
X130423411Y-83274912D01*
X130423408Y-83274913D01*
X130418184Y-83276009D01*
X130203740Y-83360697D01*
X130006631Y-83480306D01*
X130002601Y-83483803D01*
X129876406Y-83593309D01*
X129832492Y-83631415D01*
X129829109Y-83635541D01*
X129829105Y-83635545D01*
X129794545Y-83677695D01*
X129686304Y-83809705D01*
X129683667Y-83814338D01*
X129683666Y-83814339D01*
X129650116Y-83873278D01*
X129599033Y-83922584D01*
X129529402Y-83936445D01*
X129463332Y-83910461D01*
X129436094Y-83881312D01*
X129430686Y-83873278D01*
X129338599Y-83736496D01*
X129335607Y-83732052D01*
X129335605Y-83732050D01*
X129332627Y-83727626D01*
X129173482Y-83560799D01*
X128988504Y-83423171D01*
X128983753Y-83420755D01*
X128983749Y-83420753D01*
X128787740Y-83321097D01*
X128787739Y-83321097D01*
X128782982Y-83318678D01*
X128642033Y-83274912D01*
X128567895Y-83251891D01*
X128567889Y-83251890D01*
X128562792Y-83250307D01*
X128457798Y-83236391D01*
X128339515Y-83220714D01*
X128339510Y-83220714D01*
X128334230Y-83220014D01*
X128328900Y-83220214D01*
X128328899Y-83220214D01*
X128235320Y-83223727D01*
X128103831Y-83228663D01*
X128075803Y-83234544D01*
X127883411Y-83274912D01*
X127883408Y-83274913D01*
X127878184Y-83276009D01*
X127663740Y-83360697D01*
X127466631Y-83480306D01*
X127462601Y-83483803D01*
X127336406Y-83593309D01*
X127292492Y-83631415D01*
X127287339Y-83637700D01*
X127286364Y-83638365D01*
X127285390Y-83639366D01*
X127285186Y-83639168D01*
X127228681Y-83677695D01*
X127157710Y-83679628D01*
X127096961Y-83642885D01*
X127069008Y-83593309D01*
X127051348Y-83533165D01*
X127047096Y-83518684D01*
X126985713Y-83423171D01*
X126972949Y-83403309D01*
X126972947Y-83403306D01*
X126968077Y-83395729D01*
X126925384Y-83358735D01*
X126864431Y-83305918D01*
X126864428Y-83305916D01*
X126857619Y-83300016D01*
X126775175Y-83262365D01*
X126732864Y-83243042D01*
X126732863Y-83243042D01*
X126724670Y-83239300D01*
X126715755Y-83238018D01*
X126715754Y-83238018D01*
X126584448Y-83219139D01*
X126584441Y-83219138D01*
X126580000Y-83218500D01*
X124880000Y-83218500D01*
X124806921Y-83223727D01*
X124753884Y-83239300D01*
X124675330Y-83262365D01*
X124675328Y-83262366D01*
X124666684Y-83264904D01*
X124646350Y-83277972D01*
X124551309Y-83339051D01*
X124551306Y-83339053D01*
X124543729Y-83343923D01*
X124537828Y-83350733D01*
X124453918Y-83447569D01*
X124453916Y-83447572D01*
X124448016Y-83454381D01*
X124444272Y-83462579D01*
X124423955Y-83507068D01*
X124387300Y-83587330D01*
X124386018Y-83596245D01*
X124386018Y-83596246D01*
X124367139Y-83727552D01*
X124367138Y-83727559D01*
X124366500Y-83732000D01*
X124366500Y-85432000D01*
X124371727Y-85505079D01*
X124412904Y-85645316D01*
X124417775Y-85652895D01*
X124487051Y-85760691D01*
X124487053Y-85760694D01*
X124491923Y-85768271D01*
X124497598Y-85773188D01*
X124526776Y-85837077D01*
X124516674Y-85907351D01*
X124497283Y-85937524D01*
X124453918Y-85987569D01*
X124453916Y-85987572D01*
X124448016Y-85994381D01*
X124387300Y-86127330D01*
X124386018Y-86136245D01*
X124386018Y-86136246D01*
X124367139Y-86267552D01*
X124367138Y-86267559D01*
X124366500Y-86272000D01*
X124366500Y-87972000D01*
X124371727Y-88045079D01*
X124412904Y-88185316D01*
X124417775Y-88192895D01*
X124487051Y-88300691D01*
X124487053Y-88300694D01*
X124491923Y-88308271D01*
X124557333Y-88364949D01*
X124567515Y-88373772D01*
X124605898Y-88433498D01*
X124605898Y-88504494D01*
X124574097Y-88558091D01*
X122178254Y-90953935D01*
X122169570Y-90961837D01*
X122162921Y-90966057D01*
X122157496Y-90971834D01*
X122114786Y-91017316D01*
X122112031Y-91020158D01*
X122106206Y-91025983D01*
X122043894Y-91060009D01*
X121973079Y-91054944D01*
X121963861Y-91051083D01*
X121787005Y-90968614D01*
X121776713Y-90964868D01*
X121562056Y-90907351D01*
X121551261Y-90905448D01*
X121329875Y-90886079D01*
X121318925Y-90886079D01*
X121097539Y-90905448D01*
X121086744Y-90907351D01*
X120872087Y-90964868D01*
X120861795Y-90968614D01*
X120660387Y-91062532D01*
X120650892Y-91068015D01*
X120593466Y-91108225D01*
X120585091Y-91118702D01*
X120592159Y-91132149D01*
X121594515Y-92134505D01*
X121628541Y-92196817D01*
X121623476Y-92267632D01*
X121594515Y-92312695D01*
X120591438Y-93315772D01*
X120585008Y-93327547D01*
X120594304Y-93339562D01*
X120650892Y-93379185D01*
X120659562Y-93384191D01*
X120708556Y-93435574D01*
X120721993Y-93505287D01*
X120695606Y-93571198D01*
X120659721Y-93602293D01*
X120655150Y-93604425D01*
X120464029Y-93738250D01*
X120299050Y-93903229D01*
X120295893Y-93907737D01*
X120295891Y-93907740D01*
X120242754Y-93983627D01*
X120165225Y-94094350D01*
X120163305Y-94098467D01*
X120112135Y-94147257D01*
X120042421Y-94160692D01*
X119976511Y-94134305D01*
X119945538Y-94098559D01*
X119943575Y-94094350D01*
X119866046Y-93983627D01*
X119812909Y-93907740D01*
X119812907Y-93907737D01*
X119809750Y-93903229D01*
X119644771Y-93738250D01*
X119453650Y-93604425D01*
X119449127Y-93602316D01*
X119400242Y-93551044D01*
X119386808Y-93481330D01*
X119413197Y-93415420D01*
X119449238Y-93384191D01*
X119457908Y-93379185D01*
X119515334Y-93338975D01*
X119523709Y-93328498D01*
X119516641Y-93315051D01*
X118797212Y-92595622D01*
X118783268Y-92588008D01*
X118781435Y-92588139D01*
X118774820Y-92592390D01*
X118051438Y-93315772D01*
X118045008Y-93327547D01*
X118054304Y-93339562D01*
X118110892Y-93379185D01*
X118119562Y-93384191D01*
X118168556Y-93435574D01*
X118181993Y-93505287D01*
X118155606Y-93571198D01*
X118119721Y-93602293D01*
X118115150Y-93604425D01*
X117924029Y-93738250D01*
X117759050Y-93903229D01*
X117755893Y-93907737D01*
X117755891Y-93907740D01*
X117702754Y-93983627D01*
X117625225Y-94094350D01*
X117622902Y-94099332D01*
X117622899Y-94099337D01*
X117534412Y-94289098D01*
X117526621Y-94305806D01*
X117525199Y-94311114D01*
X117525198Y-94311116D01*
X117514400Y-94351416D01*
X117466235Y-94531172D01*
X117445900Y-94763600D01*
X117466235Y-94996028D01*
X117467659Y-95001342D01*
X117467659Y-95001343D01*
X117468006Y-95002636D01*
X117526621Y-95221394D01*
X117528943Y-95226374D01*
X117528944Y-95226376D01*
X117622899Y-95427863D01*
X117622902Y-95427868D01*
X117625225Y-95432850D01*
X117667049Y-95492580D01*
X117753901Y-95616617D01*
X117759050Y-95623971D01*
X117924029Y-95788950D01*
X118115150Y-95922775D01*
X118120132Y-95925098D01*
X118120137Y-95925101D01*
X118321624Y-96019056D01*
X118326606Y-96021379D01*
X118331914Y-96022801D01*
X118331916Y-96022802D01*
X118546657Y-96080341D01*
X118546658Y-96080341D01*
X118551972Y-96081765D01*
X118784400Y-96102100D01*
X119016828Y-96081765D01*
X119022146Y-96080340D01*
X119022152Y-96080339D01*
X119023232Y-96080050D01*
X119023726Y-96080062D01*
X119027558Y-96079386D01*
X119027694Y-96080157D01*
X119094209Y-96081745D01*
X119144929Y-96112664D01*
X122567690Y-99535425D01*
X122573544Y-99541691D01*
X122604737Y-99577449D01*
X122604740Y-99577452D01*
X122609732Y-99583174D01*
X122615946Y-99587541D01*
X122661268Y-99619394D01*
X122666560Y-99623325D01*
X122716108Y-99662176D01*
X122723033Y-99665303D01*
X122726081Y-99667149D01*
X122738746Y-99674373D01*
X122741902Y-99676065D01*
X122748124Y-99680438D01*
X122763852Y-99686570D01*
X122806821Y-99703323D01*
X122812900Y-99705878D01*
X122870275Y-99731784D01*
X122877746Y-99733169D01*
X122881180Y-99734245D01*
X122895229Y-99738247D01*
X122898647Y-99739125D01*
X122905722Y-99741883D01*
X122926284Y-99744590D01*
X122968182Y-99750106D01*
X122974696Y-99751138D01*
X123029127Y-99761226D01*
X123029128Y-99761226D01*
X123036595Y-99762610D01*
X123044175Y-99762173D01*
X123044176Y-99762173D01*
X123095579Y-99759209D01*
X123102832Y-99759000D01*
X124963880Y-99759000D01*
X125032001Y-99779002D01*
X125078494Y-99832658D01*
X125089190Y-99898170D01*
X125071190Y-100069434D01*
X125070500Y-100076000D01*
X125090462Y-100265927D01*
X125149476Y-100447554D01*
X125244963Y-100612942D01*
X125249381Y-100617849D01*
X125249382Y-100617850D01*
X125252638Y-100621466D01*
X125283355Y-100685474D01*
X125285001Y-100705776D01*
X125285000Y-101004275D01*
X125264998Y-101072396D01*
X125248095Y-101093370D01*
X124014577Y-102326889D01*
X124008312Y-102332742D01*
X123966826Y-102368933D01*
X123962458Y-102375148D01*
X123962457Y-102375149D01*
X123930609Y-102420463D01*
X123926684Y-102425748D01*
X123887823Y-102475309D01*
X123884697Y-102482232D01*
X123882849Y-102485284D01*
X123875620Y-102497959D01*
X123873932Y-102501108D01*
X123869562Y-102507325D01*
X123866802Y-102514405D01*
X123846685Y-102566002D01*
X123844129Y-102572083D01*
X123821341Y-102622553D01*
X123821339Y-102622559D01*
X123818216Y-102629476D01*
X123816832Y-102636943D01*
X123815762Y-102640358D01*
X123811753Y-102654430D01*
X123810875Y-102657848D01*
X123808117Y-102664923D01*
X123807126Y-102672451D01*
X123799894Y-102727383D01*
X123798862Y-102733897D01*
X123787390Y-102795796D01*
X123787827Y-102803376D01*
X123787827Y-102803377D01*
X123790791Y-102854780D01*
X123791000Y-102862033D01*
X123791001Y-106741795D01*
X123791001Y-110545500D01*
X123770999Y-110613621D01*
X123717343Y-110660114D01*
X123665001Y-110671500D01*
X116555987Y-110671500D01*
X116537036Y-110670067D01*
X116523879Y-110668065D01*
X116523876Y-110668065D01*
X116516646Y-110666965D01*
X116509354Y-110667558D01*
X116509351Y-110667558D01*
X116465993Y-110671085D01*
X116455778Y-110671500D01*
X116447114Y-110671500D01*
X116443480Y-110671924D01*
X116443474Y-110671924D01*
X116433533Y-110673083D01*
X116417485Y-110674954D01*
X116413158Y-110675382D01*
X116383994Y-110677754D01*
X116347692Y-110680707D01*
X116347688Y-110680708D01*
X116340395Y-110681301D01*
X116333434Y-110683556D01*
X116327503Y-110684741D01*
X116321627Y-110686130D01*
X116314357Y-110686978D01*
X116245722Y-110711891D01*
X116241618Y-110713299D01*
X116227991Y-110717714D01*
X116179134Y-110733541D01*
X116179129Y-110733543D01*
X116172169Y-110735798D01*
X116165911Y-110739596D01*
X116160437Y-110742102D01*
X116155020Y-110744814D01*
X116148136Y-110747313D01*
X116142015Y-110751326D01*
X116142013Y-110751327D01*
X116087089Y-110787336D01*
X116083372Y-110789681D01*
X116025788Y-110824625D01*
X116020993Y-110827535D01*
X116016790Y-110831247D01*
X116011690Y-110835751D01*
X116009108Y-110837969D01*
X116006369Y-110840259D01*
X116000253Y-110844269D01*
X115995223Y-110849579D01*
X115951139Y-110896115D01*
X115948762Y-110898557D01*
X115500321Y-111346999D01*
X115485907Y-111359386D01*
X115469295Y-111371611D01*
X115464552Y-111377194D01*
X115436383Y-111410351D01*
X115429453Y-111417867D01*
X115423335Y-111423985D01*
X115404830Y-111447376D01*
X115402085Y-111450724D01*
X115354804Y-111506376D01*
X115351476Y-111512895D01*
X115348128Y-111517914D01*
X115344950Y-111523060D01*
X115340406Y-111528803D01*
X115337306Y-111535436D01*
X115309503Y-111594924D01*
X115307591Y-111598836D01*
X115274386Y-111663865D01*
X115272646Y-111670976D01*
X115270539Y-111676641D01*
X115268632Y-111682373D01*
X115265534Y-111689002D01*
X115264045Y-111696162D01*
X115264044Y-111696164D01*
X115250667Y-111760477D01*
X115249697Y-111764761D01*
X115232356Y-111835630D01*
X115232008Y-111841232D01*
X115232008Y-111841235D01*
X115231589Y-111847995D01*
X115231332Y-111851397D01*
X115231014Y-111854963D01*
X115229523Y-111862130D01*
X115229721Y-111869447D01*
X115231455Y-111933531D01*
X115231501Y-111936939D01*
X115231500Y-119114015D01*
X115230067Y-119132963D01*
X115226965Y-119153355D01*
X113998000Y-119153355D01*
X113998000Y-92218125D01*
X117446879Y-92218125D01*
X117446879Y-92229075D01*
X117466248Y-92450461D01*
X117468151Y-92461256D01*
X117525668Y-92675913D01*
X117529414Y-92686205D01*
X117623332Y-92887613D01*
X117628815Y-92897108D01*
X117669025Y-92954534D01*
X117679502Y-92962909D01*
X117692949Y-92955841D01*
X118412378Y-92236412D01*
X118418755Y-92224732D01*
X119148808Y-92224732D01*
X119148939Y-92226565D01*
X119153190Y-92233180D01*
X119876572Y-92956562D01*
X119888347Y-92962992D01*
X119900362Y-92953696D01*
X119939985Y-92897108D01*
X119945281Y-92887936D01*
X119996665Y-92838943D01*
X120066378Y-92825508D01*
X120132289Y-92851895D01*
X120163519Y-92887936D01*
X120168815Y-92897108D01*
X120209025Y-92954534D01*
X120219502Y-92962909D01*
X120232949Y-92955841D01*
X120952378Y-92236412D01*
X120959992Y-92222468D01*
X120959861Y-92220635D01*
X120955610Y-92214020D01*
X120232228Y-91490638D01*
X120220453Y-91484208D01*
X120208438Y-91493504D01*
X120168815Y-91550092D01*
X120163519Y-91559264D01*
X120112135Y-91608257D01*
X120042422Y-91621692D01*
X119976511Y-91595305D01*
X119945281Y-91559264D01*
X119939985Y-91550092D01*
X119899775Y-91492666D01*
X119889298Y-91484291D01*
X119875851Y-91491359D01*
X119156422Y-92210788D01*
X119148808Y-92224732D01*
X118418755Y-92224732D01*
X118419992Y-92222468D01*
X118419861Y-92220635D01*
X118415610Y-92214020D01*
X117692228Y-91490638D01*
X117680453Y-91484208D01*
X117668438Y-91493504D01*
X117628815Y-91550092D01*
X117623332Y-91559587D01*
X117529414Y-91760995D01*
X117525668Y-91771287D01*
X117468151Y-91985944D01*
X117466248Y-91996739D01*
X117446879Y-92218125D01*
X113998000Y-92218125D01*
X113998000Y-91118702D01*
X118045091Y-91118702D01*
X118052159Y-91132149D01*
X118771588Y-91851578D01*
X118785532Y-91859192D01*
X118787365Y-91859061D01*
X118793980Y-91854810D01*
X119517362Y-91131428D01*
X119523792Y-91119653D01*
X119514496Y-91107638D01*
X119457908Y-91068015D01*
X119448413Y-91062532D01*
X119247005Y-90968614D01*
X119236713Y-90964868D01*
X119022056Y-90907351D01*
X119011261Y-90905448D01*
X118789875Y-90886079D01*
X118778925Y-90886079D01*
X118557539Y-90905448D01*
X118546744Y-90907351D01*
X118332087Y-90964868D01*
X118321795Y-90968614D01*
X118120387Y-91062532D01*
X118110892Y-91068015D01*
X118053466Y-91108225D01*
X118045091Y-91118702D01*
X113998000Y-91118702D01*
X113998000Y-83797868D01*
X117266616Y-83797868D01*
X117283166Y-84084892D01*
X117283991Y-84089097D01*
X117283992Y-84089105D01*
X117292853Y-84134269D01*
X117338516Y-84367014D01*
X117339903Y-84371065D01*
X117411113Y-84579052D01*
X117431642Y-84639014D01*
X117433568Y-84642843D01*
X117534054Y-84842636D01*
X117560822Y-84895859D01*
X117723664Y-85132796D01*
X117917155Y-85345440D01*
X118137716Y-85529857D01*
X118141357Y-85532141D01*
X118377624Y-85680352D01*
X118377628Y-85680354D01*
X118381264Y-85682635D01*
X118643293Y-85800945D01*
X118647412Y-85802165D01*
X118914841Y-85881382D01*
X118914846Y-85881383D01*
X118918954Y-85882600D01*
X118923188Y-85883248D01*
X118923193Y-85883249D01*
X119176037Y-85921940D01*
X119203147Y-85926088D01*
X119349498Y-85928387D01*
X119486321Y-85930537D01*
X119486327Y-85930537D01*
X119490612Y-85930604D01*
X119494864Y-85930089D01*
X119494872Y-85930089D01*
X119718492Y-85903027D01*
X119776030Y-85896064D01*
X119780179Y-85894976D01*
X119780182Y-85894975D01*
X120049970Y-85824198D01*
X120054121Y-85823109D01*
X120319736Y-85713087D01*
X120368827Y-85684401D01*
X120564255Y-85570202D01*
X120564257Y-85570200D01*
X120567963Y-85568035D01*
X120794208Y-85390637D01*
X120994283Y-85184175D01*
X120996816Y-85180727D01*
X120996820Y-85180722D01*
X121161949Y-84955925D01*
X121164487Y-84952470D01*
X121195224Y-84895859D01*
X121299621Y-84703585D01*
X121299622Y-84703583D01*
X121301671Y-84699809D01*
X121403295Y-84430869D01*
X121467479Y-84150624D01*
X121472970Y-84089105D01*
X121492816Y-83866728D01*
X121492816Y-83866726D01*
X121493036Y-83864262D01*
X121493500Y-83820000D01*
X121491700Y-83793597D01*
X121474238Y-83537442D01*
X121474237Y-83537436D01*
X121473946Y-83533165D01*
X121472738Y-83527329D01*
X121434755Y-83343923D01*
X121415644Y-83251638D01*
X121319674Y-82980628D01*
X121187812Y-82725150D01*
X121022498Y-82489931D01*
X121019573Y-82486783D01*
X120829711Y-82282468D01*
X120829708Y-82282466D01*
X120826790Y-82279325D01*
X120823474Y-82276611D01*
X120823471Y-82276608D01*
X120607629Y-82099942D01*
X120607622Y-82099937D01*
X120604311Y-82097227D01*
X120359176Y-81947009D01*
X120355240Y-81945281D01*
X120099851Y-81833172D01*
X120099847Y-81833171D01*
X120095923Y-81831448D01*
X119819421Y-81752685D01*
X119608794Y-81722708D01*
X119539041Y-81712781D01*
X119539039Y-81712781D01*
X119534789Y-81712176D01*
X119383976Y-81711387D01*
X119251579Y-81710693D01*
X119251573Y-81710693D01*
X119247292Y-81710671D01*
X119243048Y-81711230D01*
X119243044Y-81711230D01*
X119117864Y-81727710D01*
X118962251Y-81748197D01*
X118958111Y-81749330D01*
X118958109Y-81749330D01*
X118941547Y-81753861D01*
X118684940Y-81824061D01*
X118663580Y-81833172D01*
X118424433Y-81935176D01*
X118424426Y-81935180D01*
X118420491Y-81936858D01*
X118416810Y-81939061D01*
X118177479Y-82082297D01*
X118177475Y-82082300D01*
X118173797Y-82084501D01*
X118170454Y-82087179D01*
X118170450Y-82087182D01*
X118060922Y-82174931D01*
X117949423Y-82264259D01*
X117946479Y-82267361D01*
X117946475Y-82267365D01*
X117932143Y-82282468D01*
X117751520Y-82472804D01*
X117583752Y-82706279D01*
X117449222Y-82960362D01*
X117350419Y-83230352D01*
X117289173Y-83511254D01*
X117266616Y-83797868D01*
X113998000Y-83797868D01*
X113998000Y-80012620D01*
X113999874Y-79990971D01*
X114001383Y-79982319D01*
X114002219Y-79977526D01*
X114002361Y-79969771D01*
X114004318Y-79862313D01*
X114004618Y-79855619D01*
X114007846Y-79810488D01*
X114008807Y-79801546D01*
X114021359Y-79714243D01*
X114032617Y-79635938D01*
X114034206Y-79627131D01*
X114039946Y-79600746D01*
X114042168Y-79592043D01*
X114089291Y-79431553D01*
X114092125Y-79423035D01*
X114101570Y-79397713D01*
X114104992Y-79389453D01*
X114174500Y-79237254D01*
X114178499Y-79229263D01*
X114191442Y-79205559D01*
X114196020Y-79197844D01*
X114278499Y-79069505D01*
X114286470Y-79057101D01*
X114291599Y-79049715D01*
X114307757Y-79028131D01*
X114313389Y-79021141D01*
X114422947Y-78894705D01*
X114429061Y-78888139D01*
X114448144Y-78869056D01*
X114454722Y-78862931D01*
X114581151Y-78753380D01*
X114588106Y-78747776D01*
X114609735Y-78731584D01*
X114617115Y-78726461D01*
X114757838Y-78636025D01*
X114765569Y-78631437D01*
X114769734Y-78629163D01*
X114789252Y-78618505D01*
X114797254Y-78614499D01*
X114949451Y-78544993D01*
X114957737Y-78541561D01*
X114983027Y-78532128D01*
X114991540Y-78529295D01*
X115051979Y-78511549D01*
X115152038Y-78482169D01*
X115160751Y-78479945D01*
X115183646Y-78474964D01*
X115187109Y-78474211D01*
X115195961Y-78472614D01*
X115361534Y-78448808D01*
X115370475Y-78447846D01*
X115383516Y-78446914D01*
X115415620Y-78444618D01*
X115422312Y-78444318D01*
X115529771Y-78442361D01*
X115529777Y-78442360D01*
X115534249Y-78442279D01*
X115550684Y-78439619D01*
X115570815Y-78438000D01*
X175407380Y-78438000D01*
X175429028Y-78439874D01*
G37*
%TD.AperFunction*%
%TD*%
M02*
